G04 Layer_Physical_Order=1*
G04 Layer_Color=255*
%FSLAX25Y25*%
%MOIN*%
G70*
G01*
G75*
%ADD10R,0.04331X0.03937*%
%ADD11R,0.03937X0.04331*%
%ADD12R,0.02000X0.04000*%
%ADD13R,0.02559X0.01378*%
%ADD14R,0.06496X0.08465*%
%ADD15R,0.01102X0.02756*%
%ADD16R,0.02756X0.01102*%
%ADD17R,0.01378X0.02559*%
%ADD18R,0.03937X0.05512*%
%ADD19R,0.06000X0.03000*%
%ADD20R,0.08465X0.12598*%
%ADD21R,0.08465X0.03543*%
%ADD22R,0.03150X0.03150*%
%ADD23R,0.07480X0.07480*%
G04:AMPARAMS|DCode=24|XSize=60mil|YSize=60mil|CornerRadius=9mil|HoleSize=0mil|Usage=FLASHONLY|Rotation=270.000|XOffset=0mil|YOffset=0mil|HoleType=Round|Shape=RoundedRectangle|*
%AMROUNDEDRECTD24*
21,1,0.06000,0.04200,0,0,270.0*
21,1,0.04200,0.06000,0,0,270.0*
1,1,0.01800,-0.02100,-0.02100*
1,1,0.01800,-0.02100,0.02100*
1,1,0.01800,0.02100,0.02100*
1,1,0.01800,0.02100,-0.02100*
%
%ADD24ROUNDEDRECTD24*%
%ADD25R,0.05984X0.01496*%
%ADD26R,0.15551X0.19291*%
%ADD27R,0.18110X0.08465*%
%ADD28R,0.18307X0.08465*%
%ADD29O,0.00984X0.03543*%
%ADD30O,0.03543X0.00984*%
%ADD31R,0.19685X0.11811*%
%ADD32R,0.19291X0.15551*%
%ADD33O,0.01968X0.06299*%
%ADD34R,0.05800X0.01100*%
%ADD35R,0.01100X0.05800*%
%ADD36R,0.26772X0.37795*%
%ADD37R,0.03937X0.13386*%
%ADD38C,0.01000*%
%ADD39C,0.01575*%
%ADD40C,0.07874*%
%ADD41C,0.03937*%
%ADD42C,0.04724*%
%ADD43C,0.11811*%
%ADD44C,0.05905*%
%ADD45C,0.19685*%
%ADD46C,0.15748*%
%ADD47C,0.02362*%
%ADD48R,0.06693X0.06693*%
%ADD49C,0.06693*%
%ADD50R,0.06693X0.06693*%
%ADD51C,0.27559*%
%ADD52O,0.28000X0.14000*%
%ADD53O,0.14000X0.28000*%
%ADD54C,0.05905*%
%ADD55R,0.05905X0.05905*%
%ADD56C,0.06299*%
%ADD57C,0.02756*%
%ADD58C,0.01618*%
%ADD59C,0.03937*%
%ADD60C,0.05000*%
G36*
X431102Y303150D02*
Y301181D01*
X429134Y299213D01*
Y290354D01*
X427165Y288386D01*
X411417D01*
Y305118D01*
X413386Y307087D01*
X427165D01*
X431102Y303150D01*
D02*
G37*
G36*
X374649Y285350D02*
X375008Y285110D01*
X375590Y284994D01*
X376120Y285100D01*
X376266Y285068D01*
X376620Y284879D01*
Y280269D01*
X371911D01*
X371766Y280748D01*
X371793Y280766D01*
X372319Y281553D01*
X372503Y282480D01*
X372319Y283408D01*
X372002Y283882D01*
Y284879D01*
X372357Y285068D01*
X372502Y285100D01*
X373031Y284994D01*
X373614Y285110D01*
X373973Y285350D01*
X374311Y285406D01*
X374649Y285350D01*
D02*
G37*
G36*
X361911Y290454D02*
X362407Y290123D01*
X362992Y290006D01*
X366732D01*
X366773Y290014D01*
X368012D01*
X368594Y290130D01*
X368933Y290356D01*
X369293Y289996D01*
X369067Y289657D01*
X368951Y289075D01*
Y287836D01*
X368943Y287795D01*
Y284581D01*
X368364Y284195D01*
X367839Y283408D01*
X367654Y282480D01*
X367839Y281553D01*
X368364Y280766D01*
X368392Y280748D01*
X368247Y280269D01*
X362642D01*
X359206Y283705D01*
Y286402D01*
X360842D01*
Y290869D01*
X361304Y291060D01*
X361911Y290454D01*
D02*
G37*
G36*
X324565Y298222D02*
X324532Y298172D01*
X324347Y297244D01*
X324532Y296316D01*
X324991Y295630D01*
X324825Y295129D01*
X317634D01*
X316583Y296180D01*
X316775Y296642D01*
X323244D01*
Y298663D01*
X324329D01*
X324565Y298222D01*
D02*
G37*
G36*
X246502Y295667D02*
Y291125D01*
X246203Y290735D01*
X245765Y289678D01*
X245616Y288543D01*
X245765Y287409D01*
X246203Y286351D01*
X246861Y285494D01*
X246767Y285050D01*
X246747Y284994D01*
X245712D01*
X243960Y286746D01*
X244235Y287409D01*
X244384Y288543D01*
X244235Y289678D01*
X243797Y290735D01*
X243100Y291643D01*
X242192Y292340D01*
X241135Y292778D01*
X240000Y292927D01*
X238865Y292778D01*
X237808Y292340D01*
X236900Y291643D01*
X236203Y290735D01*
X235765Y289678D01*
X235616Y288543D01*
X235765Y287409D01*
X236203Y286351D01*
X236900Y285443D01*
X237808Y284747D01*
X238865Y284309D01*
X240000Y284159D01*
X241135Y284309D01*
X241797Y284583D01*
X243997Y282383D01*
X244494Y282052D01*
X245079Y281935D01*
X246494D01*
X246740Y281435D01*
X246203Y280735D01*
X245765Y279678D01*
X245616Y278543D01*
X245765Y277409D01*
X246203Y276351D01*
X246740Y275651D01*
X246494Y275151D01*
X243506D01*
X243260Y275651D01*
X243797Y276351D01*
X244235Y277409D01*
X244384Y278543D01*
X244235Y279678D01*
X243797Y280735D01*
X243100Y281643D01*
X242192Y282340D01*
X241135Y282778D01*
X240000Y282927D01*
X238865Y282778D01*
X237808Y282340D01*
X236900Y281643D01*
X236203Y280735D01*
X235765Y279678D01*
X235616Y278543D01*
X235765Y277409D01*
X236203Y276351D01*
X236740Y275651D01*
X236494Y275151D01*
X234252D01*
X233667Y275035D01*
X233171Y274704D01*
X227143Y268676D01*
X226682Y268922D01*
X226834Y269685D01*
X226649Y270613D01*
X226124Y271399D01*
X225939Y271523D01*
Y287752D01*
X233901Y295715D01*
X242256D01*
X242380Y295530D01*
X243167Y295004D01*
X244094Y294819D01*
X245022Y295004D01*
X245809Y295530D01*
X246002Y295819D01*
X246502Y295667D01*
D02*
G37*
G36*
X358455Y304764D02*
X357996Y304077D01*
X357812Y303150D01*
X357996Y302222D01*
X358522Y301435D01*
X358896Y301185D01*
Y300685D01*
X358522Y300435D01*
X357996Y299648D01*
X357812Y298721D01*
X357996Y297793D01*
X358522Y297006D01*
X358896Y296756D01*
Y296256D01*
X358522Y296006D01*
X357996Y295219D01*
X357812Y294291D01*
X357996Y293363D01*
X358347Y292839D01*
X358080Y292339D01*
X354650D01*
X354511Y292339D01*
X354150D01*
X354011Y292339D01*
X347819D01*
Y291842D01*
X347564Y291706D01*
X347319Y291623D01*
X346457Y291795D01*
X345529Y291610D01*
X344742Y291085D01*
X344217Y290298D01*
X344032Y289370D01*
X344217Y288442D01*
X344742Y287656D01*
X345529Y287130D01*
X346457Y286946D01*
X347319Y287117D01*
X347564Y287034D01*
X347819Y286898D01*
Y286402D01*
X354011D01*
X354150Y286402D01*
X354511D01*
X354650Y286402D01*
X356147D01*
Y283071D01*
X356264Y282486D01*
X356595Y281990D01*
X360927Y277658D01*
X361423Y277327D01*
X362008Y277210D01*
X377516D01*
X383145Y271581D01*
X382899Y271120D01*
X382874Y271125D01*
X381946Y270941D01*
X381421Y270590D01*
X380921Y270857D01*
Y272850D01*
X374984D01*
Y271214D01*
X374016D01*
X373430Y271098D01*
X372934Y270766D01*
X371414Y269246D01*
X343506D01*
X343348Y269277D01*
X338200D01*
X337810Y269668D01*
X338001Y270130D01*
X341331D01*
Y276130D01*
X340860D01*
Y277232D01*
X340871Y277239D01*
X341271Y277837D01*
X341411Y278543D01*
X341271Y279249D01*
X340871Y279848D01*
X340273Y280247D01*
X339567Y280388D01*
X338861Y280247D01*
X338263Y279848D01*
X337863Y279249D01*
X337722Y278543D01*
X337801Y278147D01*
Y276130D01*
X337331D01*
Y270800D01*
X336869Y270609D01*
X332238Y275240D01*
Y281627D01*
X332423Y281750D01*
X332949Y282537D01*
X333133Y283465D01*
X332949Y284392D01*
X332423Y285179D01*
X331637Y285705D01*
X330709Y285889D01*
X329781Y285705D01*
X328994Y285179D01*
X328469Y284392D01*
X328297Y284321D01*
X327699Y284720D01*
X326772Y284905D01*
X325844Y284720D01*
X325057Y284195D01*
X324532Y283408D01*
X324409Y282792D01*
X323867Y282627D01*
X319979Y286514D01*
X319483Y286846D01*
X318898Y286963D01*
X314082D01*
X313594Y286992D01*
Y293361D01*
X314056Y293553D01*
X315591Y292019D01*
X315591Y292018D01*
X316182Y291623D01*
X316879Y291485D01*
X316879Y291485D01*
X339567D01*
X339567Y291485D01*
X340264Y291623D01*
X340856Y292018D01*
X354101Y305264D01*
X358289D01*
X358455Y304764D01*
D02*
G37*
G36*
X309942Y284352D02*
X310438Y284020D01*
X311024Y283904D01*
X318264D01*
X321867Y280300D01*
X321676Y279839D01*
X321146D01*
Y279088D01*
X312641D01*
X310137Y281593D01*
X309640Y281925D01*
X309533Y281946D01*
X309303Y282502D01*
X309327Y282537D01*
X309511Y283465D01*
X309359Y284227D01*
X309820Y284473D01*
X309942Y284352D01*
D02*
G37*
G36*
X250404Y298779D02*
X250989Y298663D01*
X271244D01*
Y296642D01*
X279044D01*
Y296663D01*
X282444D01*
X283029Y296779D01*
X283525Y297111D01*
X284496Y298082D01*
X284599Y298050D01*
X285031Y297856D01*
X284915Y297271D01*
Y294792D01*
X280894D01*
Y288895D01*
X277523D01*
X276938Y288778D01*
X276441Y288447D01*
X272541Y284546D01*
X272209Y284050D01*
X272093Y283465D01*
Y265232D01*
X272087Y265226D01*
X253563D01*
X253317Y265726D01*
X253797Y266351D01*
X254235Y267409D01*
X254384Y268543D01*
X254235Y269678D01*
X253797Y270735D01*
X253139Y271593D01*
X253233Y272036D01*
X253253Y272093D01*
X255272D01*
X257777Y269588D01*
X258273Y269256D01*
X258858Y269140D01*
X262795D01*
X263381Y269256D01*
X263877Y269588D01*
X269782Y275493D01*
X270114Y275990D01*
X270230Y276575D01*
Y287532D01*
X270415Y287656D01*
X270941Y288442D01*
X271125Y289370D01*
X270941Y290298D01*
X270415Y291085D01*
X269629Y291610D01*
X268701Y291795D01*
X267773Y291610D01*
X266986Y291085D01*
X266461Y290298D01*
X266276Y289370D01*
X266461Y288442D01*
X266986Y287656D01*
X267171Y287532D01*
Y277208D01*
X262162Y272199D01*
X259492D01*
X256987Y274704D01*
X256491Y275035D01*
X255906Y275151D01*
X253506D01*
X253260Y275651D01*
X253797Y276351D01*
X254235Y277409D01*
X254384Y278543D01*
X254235Y279678D01*
X253797Y280735D01*
X253260Y281435D01*
X253506Y281935D01*
X257241D01*
X259297Y279878D01*
Y277429D01*
X259112Y277305D01*
X258587Y276518D01*
X258402Y275590D01*
X258587Y274663D01*
X259112Y273876D01*
X259899Y273351D01*
X260827Y273166D01*
X261755Y273351D01*
X262541Y273876D01*
X263067Y274663D01*
X263251Y275590D01*
X263067Y276518D01*
X262541Y277305D01*
X262356Y277429D01*
Y280512D01*
X262240Y281097D01*
X261908Y281593D01*
X258956Y284546D01*
X258459Y284877D01*
X257874Y284994D01*
X253253D01*
X253233Y285050D01*
X253139Y285494D01*
X253797Y286351D01*
X254235Y287409D01*
X254384Y288543D01*
X254235Y289678D01*
X253797Y290735D01*
X253100Y291643D01*
X252192Y292340D01*
X251135Y292778D01*
X250000Y292927D01*
X249937Y292919D01*
X249561Y293249D01*
Y298798D01*
X250061Y299008D01*
X250404Y298779D01*
D02*
G37*
G36*
X329179Y280903D02*
Y274606D01*
X329296Y274021D01*
X329627Y273525D01*
X335413Y267739D01*
X335221Y267277D01*
X333311D01*
X328461Y272128D01*
Y273933D01*
X326332D01*
Y275279D01*
X328461D01*
Y279839D01*
X328301D01*
Y280642D01*
X328486Y280766D01*
X328679Y281055D01*
X329179Y280903D01*
D02*
G37*
G36*
X589022Y267404D02*
X588560Y267213D01*
X586351Y269422D01*
X586020Y269643D01*
X585630Y269720D01*
X581948D01*
Y294965D01*
X588008D01*
Y305429D01*
X582834D01*
Y331382D01*
X588008D01*
Y341846D01*
X580849D01*
Y353839D01*
Y375886D01*
X580746Y376661D01*
X580447Y377383D01*
X579972Y378003D01*
X570622Y387353D01*
X570002Y387829D01*
X569279Y388128D01*
X568504Y388230D01*
X559071D01*
Y388401D01*
X557171D01*
X553901Y391671D01*
X554108Y392171D01*
X589022D01*
Y267404D01*
D02*
G37*
G36*
X280126Y280158D02*
X280240Y279584D01*
X280766Y278797D01*
X281553Y278272D01*
X282480Y278087D01*
X283408Y278272D01*
X284195Y278797D01*
X284388Y279087D01*
X284888Y278935D01*
Y254571D01*
X279430Y249113D01*
X279099Y248617D01*
X278982Y248031D01*
Y247601D01*
X278482Y247354D01*
X277783Y247891D01*
X277091Y248178D01*
X277004Y248617D01*
X276672Y249113D01*
X272735Y253050D01*
X272239Y253381D01*
X271654Y253498D01*
X257208D01*
X253960Y256746D01*
X254235Y257409D01*
X254384Y258543D01*
X254235Y259678D01*
X253797Y260735D01*
X253100Y261643D01*
X253034Y261694D01*
X253194Y262168D01*
X272721D01*
X273306Y262284D01*
X273802Y262615D01*
X274704Y263517D01*
X275035Y264013D01*
X275151Y264598D01*
Y279919D01*
X275651Y280071D01*
X275845Y279782D01*
X276631Y279256D01*
X277559Y279071D01*
X278487Y279256D01*
X279274Y279782D01*
X279595Y280263D01*
X280126Y280158D01*
D02*
G37*
G36*
X321146Y275279D02*
X323274D01*
Y273933D01*
X321146D01*
Y273183D01*
X315594D01*
X313209Y275568D01*
X313401Y276030D01*
X321146D01*
Y275279D01*
D02*
G37*
G36*
X477811Y290339D02*
X478166Y290339D01*
X478311Y289899D01*
Y283887D01*
X476641Y282217D01*
X476420Y281886D01*
X476343Y281496D01*
Y270669D01*
X476420Y270279D01*
X476641Y269948D01*
X479360Y267230D01*
X479169Y266768D01*
X463021D01*
X460665Y269123D01*
Y273622D01*
X460588Y274012D01*
X460367Y274343D01*
X458703Y276007D01*
Y279665D01*
X461503Y282465D01*
X463263D01*
X463402Y282465D01*
X463763D01*
X463935Y282293D01*
Y279642D01*
X462287D01*
Y269177D01*
X470784D01*
Y279642D01*
X469923D01*
Y282465D01*
X470094D01*
Y288402D01*
X469923D01*
Y289507D01*
X470728Y290313D01*
X475000D01*
X475195Y290339D01*
X477811D01*
D02*
G37*
G36*
X340609Y320648D02*
X340442Y320427D01*
X339567D01*
X338982Y320311D01*
X338486Y319979D01*
X332580Y314074D01*
X332248Y313577D01*
X332132Y312992D01*
Y310673D01*
X330801Y309342D01*
X330301Y309549D01*
Y315716D01*
X335733Y321148D01*
X340360D01*
X340609Y320648D01*
D02*
G37*
G36*
X374721Y311672D02*
X374607Y310995D01*
X374270Y310770D01*
X373744Y309983D01*
X373560Y309055D01*
X373744Y308127D01*
X374061Y307653D01*
Y305869D01*
X373707Y305680D01*
X373561Y305648D01*
X373031Y305754D01*
X372795Y305707D01*
X372295Y306090D01*
Y310237D01*
X372156Y310934D01*
X371938Y311261D01*
X372205Y311761D01*
X374653D01*
X374721Y311672D01*
D02*
G37*
G36*
X368650Y309482D02*
Y304775D01*
X367913D01*
X367913Y304775D01*
X367216Y304637D01*
X366625Y304241D01*
X366625Y304241D01*
X365444Y303060D01*
X365049Y302469D01*
X364910Y301772D01*
X364910Y301772D01*
Y301221D01*
X364410Y301070D01*
X364270Y301278D01*
X362617Y302931D01*
X362661Y303150D01*
X362476Y304077D01*
X361951Y304864D01*
X361685Y305041D01*
Y305643D01*
X361918Y305798D01*
X366538Y310418D01*
X367714D01*
X368650Y309482D01*
D02*
G37*
G36*
X260097Y312262D02*
X260282Y312138D01*
Y306956D01*
X260097Y306833D01*
X259571Y306046D01*
X259386Y305118D01*
X259565Y304222D01*
X259564Y304114D01*
X259354Y303721D01*
X258481D01*
X257302Y304900D01*
X257346Y305118D01*
X257161Y306046D01*
X256636Y306833D01*
X255849Y307358D01*
X255466Y307434D01*
Y310553D01*
X255907Y310789D01*
X255962Y310752D01*
X256890Y310568D01*
X257818Y310752D01*
X258604Y311278D01*
X259130Y312064D01*
X259244Y312638D01*
X259775Y312744D01*
X260097Y312262D01*
D02*
G37*
G36*
X160019Y371222D02*
X161234Y369239D01*
X162745Y367470D01*
X164514Y365959D01*
X166498Y364743D01*
X167727Y364234D01*
X167628Y363734D01*
X163386D01*
X162801Y363618D01*
X162304Y363286D01*
X160336Y361318D01*
X160004Y360822D01*
X159888Y360236D01*
Y313976D01*
X160004Y313391D01*
X160336Y312895D01*
X162304Y310926D01*
X162648Y310697D01*
X162496Y310197D01*
X159213Y310197D01*
X159010Y310613D01*
Y372352D01*
X159510Y372452D01*
X160019Y371222D01*
D02*
G37*
G36*
X325425Y317863D02*
X325359Y317763D01*
X325242Y317178D01*
Y311657D01*
X323706Y310121D01*
X323244Y310312D01*
Y314442D01*
Y318363D01*
X325158D01*
X325425Y317863D01*
D02*
G37*
G36*
X266187Y313343D02*
Y307940D01*
X266002Y307817D01*
X265477Y307030D01*
X265292Y306102D01*
X265477Y305174D01*
X266002Y304388D01*
X266251Y304222D01*
X266100Y303721D01*
X264268D01*
X264058Y304114D01*
X264057Y304222D01*
X264236Y305118D01*
X264051Y306046D01*
X263525Y306833D01*
X263340Y306956D01*
Y312138D01*
X263525Y312262D01*
X264051Y313049D01*
X264236Y313976D01*
X264084Y314739D01*
X264545Y314985D01*
X266187Y313343D01*
D02*
G37*
G36*
X308748Y307834D02*
X308599Y307087D01*
X308784Y306159D01*
X309309Y305372D01*
X310096Y304847D01*
X311024Y304662D01*
X311951Y304847D01*
X312621Y305294D01*
X314905Y303011D01*
X315401Y302679D01*
X315444Y302671D01*
Y299722D01*
X313042D01*
X306503Y306261D01*
X306648Y306739D01*
X307030Y306815D01*
X307817Y307341D01*
X308277Y308029D01*
X308748Y307834D01*
D02*
G37*
G36*
X281399Y318800D02*
X281895Y318469D01*
X282480Y318353D01*
X283595D01*
X283719Y318167D01*
X284505Y317642D01*
X285433Y317457D01*
X286361Y317642D01*
X287147Y318167D01*
X287673Y318954D01*
X287720Y319192D01*
X288261Y319348D01*
X295628Y311981D01*
X295437Y311519D01*
X294241D01*
X293656Y311402D01*
X293160Y311071D01*
X281811Y299722D01*
X279044D01*
Y304542D01*
Y308442D01*
Y312442D01*
Y316342D01*
Y320363D01*
X279837D01*
X281399Y318800D01*
D02*
G37*
G36*
X364158Y321971D02*
Y317110D01*
X364158D01*
Y316749D01*
X364158D01*
Y313192D01*
X359875Y308909D01*
X353346D01*
X352649Y308770D01*
X352058Y308375D01*
X352058Y308375D01*
X338812Y295129D01*
X329246D01*
X328990Y295630D01*
X329051Y295715D01*
X336614D01*
X337199Y295831D01*
X337696Y296163D01*
X363696Y322163D01*
X364158Y321971D01*
D02*
G37*
G36*
X464430Y307927D02*
X464489Y307306D01*
X457815Y300632D01*
X444071D01*
Y305330D01*
X438134D01*
Y297832D01*
X438108Y297638D01*
Y288799D01*
X436752Y287443D01*
X428371D01*
X428164Y287943D01*
X429855Y289633D01*
X430076Y289964D01*
X430153Y290354D01*
Y298790D01*
X431823Y300460D01*
X432044Y300791D01*
X432122Y301181D01*
Y303150D01*
X432044Y303540D01*
X431823Y303871D01*
X431697Y303997D01*
X435729Y308030D01*
X461221D01*
X461415Y308055D01*
X464247D01*
X464430Y307927D01*
D02*
G37*
G36*
X306532Y301077D02*
X306285Y300617D01*
X306102Y300653D01*
X305174Y300468D01*
X304388Y299943D01*
X304066Y299461D01*
X303535Y299567D01*
X303421Y300140D01*
X302895Y300927D01*
X302109Y301453D01*
X301181Y301637D01*
X300253Y301453D01*
X299467Y300927D01*
X298941Y300140D01*
X298757Y299213D01*
X298941Y298285D01*
X299467Y297498D01*
X300253Y296973D01*
X300279Y296968D01*
X301993Y295254D01*
X301801Y294792D01*
X295774D01*
Y296359D01*
X296006Y296514D01*
X296531Y297301D01*
X296716Y298228D01*
X296531Y299156D01*
X296006Y299943D01*
X295219Y300468D01*
X294291Y300653D01*
X293363Y300468D01*
X292577Y299943D01*
X292051Y299156D01*
X291867Y298228D01*
X292051Y297301D01*
X292577Y296514D01*
X292715Y296422D01*
Y294792D01*
X287973D01*
Y295918D01*
X288329Y295988D01*
X289116Y296514D01*
X289642Y297301D01*
X289826Y298228D01*
X289642Y299156D01*
X289116Y299943D01*
X288329Y300468D01*
X287713Y300591D01*
X287548Y301133D01*
X294875Y308460D01*
X299149D01*
X306532Y301077D01*
D02*
G37*
G36*
X374649Y300508D02*
X375008Y300268D01*
X375590Y300152D01*
X376173Y300268D01*
X376532Y300508D01*
X376870Y300564D01*
X377208Y300508D01*
X377567Y300268D01*
X378150Y300152D01*
X378732Y300268D01*
X379071Y300494D01*
X379431Y300134D01*
X379205Y299795D01*
X379089Y299213D01*
X379205Y298630D01*
X379445Y298271D01*
X379501Y297933D01*
X379445Y297595D01*
X379205Y297236D01*
X379089Y296654D01*
X379205Y296071D01*
X379535Y295578D01*
Y295170D01*
X379205Y294677D01*
X379089Y294094D01*
X379205Y293512D01*
X379445Y293153D01*
X379501Y292815D01*
X379445Y292477D01*
X379205Y292118D01*
X379089Y291535D01*
X379195Y291003D01*
X378682Y290490D01*
X378150Y290596D01*
X377567Y290480D01*
X377208Y290240D01*
X376870Y290184D01*
X376532Y290240D01*
X376173Y290480D01*
X375590Y290596D01*
X375008Y290480D01*
X374649Y290240D01*
X374311Y290184D01*
X373973Y290240D01*
X373614Y290480D01*
X373031Y290596D01*
X372449Y290480D01*
X372090Y290240D01*
X371752Y290184D01*
X371414Y290240D01*
X371055Y290480D01*
X370472Y290596D01*
X369890Y290480D01*
X369551Y290254D01*
X369191Y290615D01*
X369417Y290953D01*
X369533Y291535D01*
X369417Y292118D01*
X369177Y292477D01*
X369121Y292815D01*
X369177Y293153D01*
X369417Y293512D01*
X369533Y294094D01*
X369417Y294677D01*
X369088Y295170D01*
Y295578D01*
X369417Y296071D01*
X369533Y296654D01*
X369417Y297236D01*
X369177Y297595D01*
X369121Y297933D01*
X369177Y298271D01*
X369417Y298630D01*
X369533Y299213D01*
X369417Y299795D01*
X369191Y300134D01*
X369551Y300494D01*
X369890Y300268D01*
X370472Y300152D01*
X371055Y300268D01*
X371414Y300508D01*
X371752Y300564D01*
X372090Y300508D01*
X372449Y300268D01*
X373031Y300152D01*
X373614Y300268D01*
X373973Y300508D01*
X374311Y300564D01*
X374649Y300508D01*
D02*
G37*
G36*
X459646Y273622D02*
Y268701D01*
X462598Y265748D01*
X481121D01*
X481299Y265713D01*
X486256D01*
X487219Y264749D01*
X487028Y264287D01*
X484752D01*
Y259555D01*
X488500D01*
Y262815D01*
X488962Y263007D01*
X494095Y257874D01*
Y241142D01*
X468504D01*
X457677Y230315D01*
Y213583D01*
X455709Y211614D01*
X435039D01*
X433071Y213583D01*
Y214355D01*
X433449Y214650D01*
X433571Y214650D01*
X436180D01*
X436233Y214628D01*
X436508Y214591D01*
Y217520D01*
X437508D01*
Y214591D01*
X437783Y214628D01*
X437836Y214650D01*
X443595D01*
Y223425D01*
Y232201D01*
X437836D01*
X437783Y232223D01*
X437508Y232259D01*
Y229331D01*
X436508D01*
Y232259D01*
X436233Y232223D01*
X436180Y232201D01*
X433571D01*
X433449Y232201D01*
X433071Y232495D01*
Y234252D01*
X429809Y237514D01*
X430000Y237976D01*
X430602D01*
Y257373D01*
X416716D01*
Y238189D01*
X405512D01*
X399690Y244011D01*
X399881Y244473D01*
X401075D01*
Y247638D01*
X401575D01*
Y248138D01*
X404543D01*
Y250016D01*
X413386Y258858D01*
Y276575D01*
X417323Y280512D01*
X452756D01*
X459646Y273622D01*
D02*
G37*
G36*
X306102Y218504D02*
Y210630D01*
X305118Y209646D01*
X296701D01*
X296276Y209826D01*
X296276Y210146D01*
Y212492D01*
X293307D01*
X290339D01*
Y210146D01*
X290339Y209826D01*
X289913Y209646D01*
X286419D01*
X286319Y210146D01*
X286930Y210399D01*
X287550Y210875D01*
X288026Y211495D01*
X288325Y212217D01*
X288361Y212492D01*
X282505D01*
X282541Y212217D01*
X282840Y211495D01*
X283316Y210875D01*
X283936Y210399D01*
X284547Y210146D01*
X284447Y209646D01*
X280953D01*
X280528Y209826D01*
X280528Y210146D01*
Y212492D01*
X277559D01*
X274591D01*
Y210146D01*
X274590Y209826D01*
X274165Y209646D01*
X270671D01*
X270571Y210146D01*
X271182Y210399D01*
X271802Y210875D01*
X272278Y211495D01*
X272577Y212217D01*
X272613Y212492D01*
X266757D01*
X266793Y212217D01*
X267092Y211495D01*
X267568Y210875D01*
X268188Y210399D01*
X268799Y210146D01*
X268699Y209646D01*
X265205D01*
X264779Y209826D01*
X264779Y210146D01*
Y212492D01*
X261811D01*
X258842D01*
Y210146D01*
X258842Y209826D01*
X258417Y209646D01*
X254923D01*
X254823Y210146D01*
X255434Y210399D01*
X256054Y210875D01*
X256530Y211495D01*
X256829Y212217D01*
X256865Y212492D01*
X251009D01*
X251045Y212217D01*
X251344Y211495D01*
X251820Y210875D01*
X252440Y210399D01*
X253051Y210146D01*
X252951Y209646D01*
X249457D01*
X249031Y209826D01*
X249031Y210146D01*
Y212492D01*
X246063D01*
X243094D01*
Y210146D01*
X243094Y209826D01*
X242669Y209646D01*
X239175D01*
X239075Y210146D01*
X239686Y210399D01*
X240306Y210875D01*
X240782Y211495D01*
X241081Y212217D01*
X241117Y212492D01*
X235261D01*
X235297Y212217D01*
X235596Y211495D01*
X236072Y210875D01*
X236692Y210399D01*
X237303Y210146D01*
X237203Y209646D01*
X233709D01*
X233283Y209826D01*
X233283Y210146D01*
Y212492D01*
X230315D01*
Y212992D01*
D01*
Y212492D01*
X227346D01*
Y210146D01*
X227346Y209826D01*
X226921Y209646D01*
X226378D01*
X224410Y211614D01*
Y217520D01*
X287402D01*
X292323Y222441D01*
X302165D01*
X306102Y218504D01*
D02*
G37*
G36*
X320473Y210121D02*
X320041Y209909D01*
X318122D01*
Y208954D01*
X306522D01*
X306330Y209416D01*
X306823Y209909D01*
X307044Y210240D01*
X307113Y210583D01*
X320381D01*
X320473Y210121D01*
D02*
G37*
G36*
X588583Y265748D02*
Y228900D01*
X588083Y228775D01*
X587503Y229860D01*
X586503Y231078D01*
X585285Y232078D01*
X583895Y232821D01*
X582387Y233278D01*
X580819Y233432D01*
X574319D01*
Y225394D01*
Y217355D01*
X580819D01*
X582387Y217510D01*
X583895Y217967D01*
X585285Y218710D01*
X586503Y219709D01*
X587503Y220928D01*
X588083Y222012D01*
X588583Y221887D01*
Y205709D01*
X581693Y198819D01*
X562992D01*
X559055Y202756D01*
Y221887D01*
X559555Y222012D01*
X560135Y220928D01*
X561135Y219709D01*
X562353Y218710D01*
X563743Y217967D01*
X565251Y217510D01*
X566819Y217355D01*
X573319D01*
Y225394D01*
Y233432D01*
X566819D01*
X565251Y233278D01*
X563743Y232821D01*
X562353Y232078D01*
X561135Y231078D01*
X560135Y229860D01*
X559555Y228775D01*
X559055Y228900D01*
Y236221D01*
X565945Y243110D01*
Y268701D01*
X585630D01*
X588583Y265748D01*
D02*
G37*
G36*
X172683Y305469D02*
Y266732D01*
Y235236D01*
X172800Y234651D01*
X173131Y234155D01*
X177068Y230218D01*
X177564Y229886D01*
X178150Y229770D01*
X181213D01*
Y228189D01*
X189213D01*
Y233189D01*
X181213D01*
Y232829D01*
X178783D01*
X175742Y235870D01*
Y262387D01*
X176204Y262578D01*
X177678Y261104D01*
X178175Y260772D01*
X178760Y260656D01*
X181213D01*
Y259685D01*
X189213D01*
Y260656D01*
X189841D01*
X190215Y260097D01*
X191001Y259571D01*
X191929Y259386D01*
X192857Y259571D01*
X193643Y260097D01*
X194169Y260883D01*
X194351Y261795D01*
X195912D01*
Y261067D01*
X191296Y256451D01*
X183071D01*
X182486Y256334D01*
X181989Y256003D01*
X178052Y252066D01*
X177721Y251570D01*
X177604Y250984D01*
Y240158D01*
X177721Y239572D01*
X178052Y239076D01*
X181989Y235139D01*
X182486Y234807D01*
X183071Y234691D01*
X195260D01*
Y233252D01*
X195431D01*
Y227362D01*
Y214960D01*
X195534Y214185D01*
X195833Y213463D01*
X196309Y212843D01*
X204969Y204183D01*
X205589Y203707D01*
X206311Y203408D01*
X207086Y203306D01*
X227346D01*
Y203134D01*
X233283D01*
Y203306D01*
X243094D01*
Y203134D01*
X249031D01*
Y203306D01*
X258842D01*
Y203134D01*
X264779D01*
Y203306D01*
X274591D01*
Y203134D01*
X280528D01*
Y203306D01*
X290339D01*
Y203134D01*
X291686D01*
X292348Y202626D01*
X293166Y202287D01*
X294044Y202172D01*
X318122D01*
Y201217D01*
X320061D01*
X321180Y200753D01*
X322468Y200583D01*
X394468D01*
X395757Y200753D01*
X396876Y201217D01*
X398815D01*
Y202569D01*
X462453D01*
X463228Y202671D01*
X463950Y202970D01*
X464570Y203446D01*
X465046Y204066D01*
X465056Y204090D01*
X465080Y204100D01*
X465700Y204576D01*
X466176Y205196D01*
X466475Y205918D01*
X466577Y206693D01*
Y223169D01*
X471713Y228305D01*
X495807D01*
X498974Y225138D01*
Y216727D01*
X498474Y216668D01*
X498352Y217180D01*
X497461Y219329D01*
X496246Y221312D01*
X494735Y223081D01*
X492966Y224592D01*
X490982Y225808D01*
X488833Y226698D01*
X486571Y227241D01*
X484252Y227424D01*
X481933Y227241D01*
X479671Y226698D01*
X477522Y225808D01*
X475538Y224592D01*
X473769Y223081D01*
X472258Y221312D01*
X471043Y219329D01*
X470152Y217180D01*
X469609Y214918D01*
X469427Y212598D01*
X469609Y210279D01*
X470152Y208017D01*
X471043Y205868D01*
X472258Y203884D01*
X473769Y202115D01*
X475538Y200605D01*
X477522Y199389D01*
X478751Y198880D01*
X478652Y198380D01*
X178829D01*
X178729Y198880D01*
X179959Y199389D01*
X181942Y200605D01*
X183711Y202115D01*
X185222Y203884D01*
X186438Y205868D01*
X187328Y208017D01*
X187871Y210279D01*
X188054Y212598D01*
X187871Y214918D01*
X187328Y217180D01*
X186438Y219329D01*
X185222Y221312D01*
X183711Y223081D01*
X181942Y224592D01*
X179959Y225808D01*
X177810Y226698D01*
X175548Y227241D01*
X173228Y227424D01*
X170909Y227241D01*
X168647Y226698D01*
X166498Y225808D01*
X164514Y224592D01*
X162745Y223081D01*
X161234Y221312D01*
X160019Y219329D01*
X159510Y218099D01*
X159010Y218199D01*
Y227773D01*
X159213Y228189D01*
X159510Y228189D01*
X167213D01*
Y233189D01*
X159510D01*
X159213Y233189D01*
X159010Y233605D01*
Y242773D01*
X159213Y243189D01*
X159510Y243189D01*
X167213D01*
Y248189D01*
X159510D01*
X159213Y248189D01*
X159010Y248605D01*
Y259269D01*
X159213Y259685D01*
X159510Y259685D01*
X167213D01*
Y264685D01*
X159510D01*
X159213Y264685D01*
X159010Y265101D01*
Y274269D01*
X159213Y274685D01*
X159510Y274685D01*
X167213D01*
Y279685D01*
X159510D01*
X159213Y279685D01*
X159010Y280101D01*
Y289781D01*
X159213Y290197D01*
X159510Y290197D01*
X167213D01*
Y295197D01*
X159510D01*
X159213Y295197D01*
X159010Y295613D01*
Y304781D01*
X159213Y305197D01*
X159510Y305197D01*
X167213D01*
Y309979D01*
X167213Y310197D01*
X167596Y310478D01*
X167674D01*
X172683Y305469D01*
D02*
G37*
G36*
X432344Y231776D02*
X432389Y231749D01*
X432403Y231739D01*
X432444Y231691D01*
X432822Y231397D01*
X432944Y231335D01*
X433059Y231259D01*
X433121Y231246D01*
X433177Y231218D01*
X433314Y231208D01*
X433449Y231181D01*
X433449D01*
Y215669D01*
X433449D01*
X433314Y215642D01*
X433177Y215632D01*
X433121Y215604D01*
X433059Y215592D01*
X432944Y215515D01*
X432822Y215454D01*
X432444Y215159D01*
X432403Y215111D01*
X432389Y215102D01*
X432344Y215074D01*
X432341Y215073D01*
X431833Y215074D01*
X431830Y215074D01*
X431784Y215102D01*
X431771Y215111D01*
X431729Y215159D01*
X431351Y215454D01*
X431229Y215515D01*
X431115Y215592D01*
X431052Y215604D01*
X430996Y215632D01*
X430859Y215642D01*
X430724Y215669D01*
X430724D01*
Y231181D01*
X430724D01*
X430859Y231208D01*
X430996Y231218D01*
X431052Y231246D01*
X431115Y231259D01*
X431229Y231335D01*
X431351Y231397D01*
X431729Y231691D01*
X431771Y231739D01*
X431784Y231749D01*
X431830Y231776D01*
X431833Y231777D01*
X432341Y231777D01*
X432344Y231776D01*
D02*
G37*
G36*
X403674Y209057D02*
X403487Y208557D01*
X398815D01*
Y209909D01*
X396896D01*
X396464Y210121D01*
X396556Y210583D01*
X402148D01*
X403674Y209057D01*
D02*
G37*
G36*
X589022Y204053D02*
Y198380D01*
X583349D01*
X583158Y198842D01*
X588560Y204244D01*
X589022Y204053D01*
D02*
G37*
G36*
X498974Y208469D02*
Y205709D01*
X499076Y204934D01*
X499375Y204212D01*
X499851Y203591D01*
X503788Y199654D01*
X504408Y199179D01*
X504708Y199055D01*
X505131Y198880D01*
X505096Y198380D01*
X489853D01*
X489753Y198880D01*
X490982Y199389D01*
X492966Y200605D01*
X494735Y202115D01*
X496246Y203884D01*
X497461Y205868D01*
X498352Y208017D01*
X498474Y208529D01*
X498974Y208469D01*
D02*
G37*
G36*
X160019Y205868D02*
X161234Y203884D01*
X162745Y202115D01*
X164514Y200605D01*
X166498Y199389D01*
X167727Y198880D01*
X167628Y198380D01*
X159010D01*
Y206998D01*
X159510Y207097D01*
X160019Y205868D01*
D02*
G37*
G36*
X556102Y236221D02*
Y208661D01*
X553150Y205709D01*
X510827D01*
X506890Y209646D01*
Y229331D01*
X508858Y231299D01*
X533465D01*
X541339Y239173D01*
X553150D01*
X556102Y236221D01*
D02*
G37*
G36*
X571989Y288882D02*
Y269720D01*
X565945D01*
X565555Y269643D01*
X565224Y269422D01*
X565003Y269091D01*
X564925Y268701D01*
Y243533D01*
X558334Y236941D01*
X558113Y236611D01*
X558036Y236221D01*
Y228900D01*
X558050Y228826D01*
X558047Y228751D01*
X558089Y228633D01*
X558113Y228510D01*
X558155Y228447D01*
X558181Y228376D01*
X558265Y228283D01*
X558334Y228179D01*
X558397Y228137D01*
X558448Y228081D01*
X558561Y228028D01*
X558665Y227958D01*
X558711Y227949D01*
X558789Y227920D01*
X558807Y227911D01*
X558822Y227908D01*
X558843Y227900D01*
X559088Y227468D01*
X558935Y226962D01*
X558780Y225394D01*
X558935Y223825D01*
X559088Y223320D01*
X558843Y222888D01*
X558822Y222880D01*
X558807Y222876D01*
X558789Y222867D01*
X558711Y222838D01*
X558665Y222829D01*
X558561Y222760D01*
X558448Y222706D01*
X558397Y222650D01*
X558334Y222608D01*
X558265Y222504D01*
X558181Y222411D01*
X558155Y222340D01*
X558113Y222277D01*
X558089Y222155D01*
X558047Y222037D01*
X558050Y221961D01*
X558036Y221887D01*
Y204766D01*
X554356D01*
X554149Y205266D01*
X556823Y207941D01*
X557044Y208271D01*
X557122Y208661D01*
Y236221D01*
X557044Y236611D01*
X556823Y236941D01*
X553871Y239894D01*
X553540Y240115D01*
X553150Y240193D01*
X541339D01*
X540948Y240115D01*
X540618Y239894D01*
X533042Y232319D01*
X528819D01*
X528461Y232661D01*
Y234217D01*
X529528D01*
X529918Y234294D01*
X530248Y234515D01*
X533201Y237468D01*
X533422Y237799D01*
X533500Y238189D01*
Y247609D01*
X535855Y249965D01*
X552165D01*
X552556Y250042D01*
X552886Y250263D01*
X555839Y253216D01*
X556060Y253547D01*
X556138Y253937D01*
Y263779D01*
X556060Y264170D01*
X555839Y264500D01*
X552886Y267453D01*
X552556Y267674D01*
X552165Y267752D01*
X526013D01*
X517453Y276311D01*
X517123Y276533D01*
X516732Y276610D01*
X514474D01*
X514189Y276992D01*
Y277947D01*
X523858D01*
X524735Y278063D01*
X525553Y278402D01*
X526256Y278941D01*
X532901Y285586D01*
X566634D01*
X567512Y285701D01*
X567851Y285841D01*
X568330Y286040D01*
X569032Y286579D01*
X571527Y289074D01*
X571989Y288882D01*
D02*
G37*
G36*
X506854Y261389D02*
Y238189D01*
X506932Y237799D01*
X507153Y237468D01*
X509689Y234933D01*
X510019Y234712D01*
X510409Y234634D01*
X510910Y234229D01*
Y232661D01*
X510551Y232319D01*
X508858D01*
X508468Y232241D01*
X508137Y232020D01*
X506169Y230052D01*
X505948Y229721D01*
X505870Y229331D01*
Y209646D01*
X505948Y209256D01*
X506169Y208925D01*
X509828Y205266D01*
X509621Y204766D01*
X507146D01*
X504963Y206949D01*
Y226378D01*
X504861Y227153D01*
X504685Y227576D01*
X504562Y227875D01*
X504086Y228495D01*
X499164Y233416D01*
X498544Y233892D01*
X497822Y234191D01*
X497047Y234293D01*
X470472D01*
X469698Y234191D01*
X469275Y234016D01*
X468975Y233892D01*
X468355Y233416D01*
X461466Y226527D01*
X460990Y225906D01*
X460691Y225184D01*
X460589Y224410D01*
Y208557D01*
X429190D01*
X429003Y209057D01*
X431823Y211877D01*
X432044Y212208D01*
X432086Y212418D01*
X432514Y212594D01*
X432619Y212592D01*
X434318Y210893D01*
X434649Y210672D01*
X435039Y210595D01*
X455709D01*
X456099Y210672D01*
X456430Y210893D01*
X458398Y212862D01*
X458619Y213193D01*
X458697Y213583D01*
Y229893D01*
X468926Y240122D01*
X494095D01*
X494485Y240200D01*
X494815Y240421D01*
X495037Y240752D01*
X495114Y241142D01*
Y257874D01*
X495037Y258264D01*
X494815Y258595D01*
X489683Y263727D01*
X489352Y263949D01*
X488962Y264026D01*
X488500Y264287D01*
X488239Y264749D01*
X488161Y265140D01*
X488112Y265213D01*
X488379Y265713D01*
X502530D01*
X506854Y261389D01*
D02*
G37*
G36*
X313879Y270572D02*
X314375Y270241D01*
X314961Y270124D01*
X321146D01*
Y269374D01*
X323274D01*
Y260435D01*
X322774Y260283D01*
X322581Y260573D01*
X321794Y261098D01*
X320866Y261283D01*
X320648Y261239D01*
X316534Y265353D01*
X316038Y265685D01*
X315453Y265801D01*
X304740D01*
Y267240D01*
X301581D01*
X301562Y267263D01*
X301399Y267740D01*
X302656Y268997D01*
X302987Y269493D01*
X303104Y270078D01*
Y270654D01*
X304740D01*
Y276030D01*
X308422D01*
X313879Y270572D01*
D02*
G37*
G36*
X416324Y280955D02*
X412665Y277296D01*
X412444Y276965D01*
X412366Y276575D01*
Y259281D01*
X405005Y251920D01*
X404543Y252111D01*
Y253064D01*
X405464Y253985D01*
X405939Y254605D01*
X406238Y255327D01*
X406340Y256102D01*
Y260423D01*
X406877Y260493D01*
X407599Y260792D01*
X408219Y261268D01*
X409597Y262647D01*
X410073Y263267D01*
X410372Y263989D01*
X410474Y264764D01*
Y277303D01*
X414626Y281455D01*
X416117D01*
X416324Y280955D01*
D02*
G37*
G36*
X318485Y259076D02*
X318442Y258858D01*
X318626Y257930D01*
X319152Y257144D01*
X319938Y256618D01*
X320866Y256434D01*
X321794Y256618D01*
X322581Y257144D01*
X322774Y257433D01*
X323274Y257281D01*
Y254642D01*
X319571D01*
Y251264D01*
X323274D01*
Y250705D01*
X319571D01*
Y250545D01*
X318898D01*
X318387Y250444D01*
X318198Y250617D01*
X318057Y250849D01*
X318185Y251041D01*
X318369Y251969D01*
X318185Y252896D01*
X317659Y253683D01*
X316873Y254208D01*
X315945Y254393D01*
X315017Y254208D01*
X314230Y253683D01*
X314107Y253498D01*
X312599D01*
X312014Y253381D01*
X311920Y253319D01*
X311458Y253510D01*
X311452Y253538D01*
X311121Y254034D01*
X309152Y256003D01*
X308656Y256334D01*
X308071Y256451D01*
X304740D01*
Y257890D01*
X301616D01*
X301566Y258390D01*
X301766Y258430D01*
X302262Y258761D01*
X302656Y259154D01*
X302987Y259650D01*
X303104Y260236D01*
Y261303D01*
X304740D01*
Y262742D01*
X314819D01*
X318485Y259076D01*
D02*
G37*
G36*
X246767Y272036D02*
X246861Y271593D01*
X246203Y270735D01*
X245765Y269678D01*
X245616Y268543D01*
X245765Y267409D01*
X246203Y266351D01*
X246683Y265726D01*
X246437Y265226D01*
X245153D01*
X244568Y265110D01*
X244072Y264778D01*
X241797Y262503D01*
X241135Y262778D01*
X240000Y262927D01*
X238865Y262778D01*
X237808Y262340D01*
X236900Y261643D01*
X236203Y260735D01*
X235765Y259678D01*
X235616Y258543D01*
X235765Y257409D01*
X236203Y256351D01*
X236900Y255443D01*
X237808Y254747D01*
X238865Y254309D01*
X240000Y254159D01*
X241135Y254309D01*
X242192Y254747D01*
X243100Y255443D01*
X243797Y256351D01*
X244235Y257409D01*
X244384Y258543D01*
X244235Y259678D01*
X243960Y260340D01*
X245787Y262168D01*
X246806D01*
X246966Y261694D01*
X246900Y261643D01*
X246203Y260735D01*
X245765Y259678D01*
X245616Y258543D01*
X245765Y257409D01*
X246203Y256351D01*
X246900Y255443D01*
X247808Y254747D01*
X248865Y254309D01*
X250000Y254159D01*
X251135Y254309D01*
X251797Y254583D01*
X253029Y253352D01*
X252837Y252890D01*
X245654D01*
Y244197D01*
X254346D01*
Y251381D01*
X254808Y251572D01*
X255493Y250887D01*
X255990Y250555D01*
X256575Y250439D01*
X257457D01*
X257671Y249939D01*
X257445Y249601D01*
X257329Y249016D01*
Y238823D01*
X250351Y231844D01*
X201420D01*
Y233081D01*
X201591Y233252D01*
X201952D01*
X202091Y233252D01*
X208283D01*
Y234691D01*
X212598D01*
X213184Y234807D01*
X213680Y235139D01*
X225491Y246950D01*
X225822Y247446D01*
X225939Y248031D01*
Y258004D01*
X226124Y258128D01*
X226649Y258915D01*
X226834Y259842D01*
X226649Y260770D01*
X226124Y261557D01*
X225337Y262083D01*
X224410Y262267D01*
X223482Y262083D01*
X222695Y261557D01*
X222169Y260770D01*
X221985Y259842D01*
X222169Y258915D01*
X222695Y258128D01*
X222880Y258004D01*
Y248665D01*
X211965Y237750D01*
X208283D01*
Y239189D01*
X206647D01*
Y240749D01*
X206531Y241334D01*
X206199Y241830D01*
X201259Y246770D01*
X200762Y247102D01*
X200177Y247218D01*
X189213D01*
Y248189D01*
X181213D01*
Y243189D01*
X189213D01*
Y244160D01*
X199544D01*
X203588Y240115D01*
Y239189D01*
X202091D01*
X201952Y239189D01*
X201591D01*
X201452Y239189D01*
X198620D01*
X198426Y239215D01*
X198231Y239189D01*
X195260D01*
Y237750D01*
X183704D01*
X180663Y240791D01*
Y250351D01*
X183704Y253392D01*
X191929D01*
X192514Y253508D01*
X193011Y253840D01*
X198523Y259352D01*
X198854Y259848D01*
X198971Y260434D01*
Y261795D01*
X200607D01*
Y261795D01*
X200968D01*
Y261795D01*
X207299D01*
Y263234D01*
X225394D01*
X225979Y263351D01*
X226475Y263682D01*
X234886Y272093D01*
X236748D01*
X236767Y272036D01*
X236861Y271593D01*
X236203Y270735D01*
X235765Y269678D01*
X235616Y268543D01*
X235765Y267409D01*
X236203Y266351D01*
X236900Y265443D01*
X237808Y264747D01*
X238865Y264309D01*
X240000Y264159D01*
X241135Y264309D01*
X242192Y264747D01*
X243100Y265443D01*
X243797Y266351D01*
X244235Y267409D01*
X244384Y268543D01*
X244235Y269678D01*
X243797Y270735D01*
X243139Y271593D01*
X243233Y272036D01*
X243252Y272093D01*
X246747D01*
X246767Y272036D01*
D02*
G37*
G36*
X183510Y321217D02*
Y310197D01*
X181213D01*
Y306407D01*
X177068Y302263D01*
X176737Y301766D01*
X176620Y301181D01*
Y273622D01*
X176737Y273037D01*
X177068Y272541D01*
X181005Y268604D01*
X181501Y268272D01*
X182087Y268156D01*
X191887D01*
X194276Y265766D01*
Y263479D01*
X193776Y263327D01*
X193643Y263525D01*
X192857Y264051D01*
X191929Y264236D01*
X191001Y264051D01*
X190498Y263714D01*
X189213D01*
Y264685D01*
X181213D01*
Y263714D01*
X179393D01*
X175742Y267366D01*
Y306102D01*
X175626Y306688D01*
X175294Y307184D01*
X169388Y313089D01*
X168892Y313421D01*
X168307Y313537D01*
X164019D01*
X162947Y314610D01*
Y319804D01*
X163051Y320260D01*
X172531D01*
Y323471D01*
X181256D01*
X183510Y321217D01*
D02*
G37*
G36*
X331596Y264667D02*
X332092Y264335D01*
X332677Y264219D01*
X341886D01*
X341974Y264130D01*
Y263649D01*
X341790Y263525D01*
X341264Y262739D01*
X341079Y261811D01*
X341264Y260883D01*
X341300Y260829D01*
X341065Y260388D01*
X330578D01*
X330455Y260573D01*
X329668Y261098D01*
X328740Y261283D01*
X327812Y261098D01*
X327026Y260573D01*
X326833Y260283D01*
X326332Y260435D01*
Y269374D01*
X326888D01*
X331596Y264667D01*
D02*
G37*
G36*
X287739Y252696D02*
X287915Y252579D01*
Y248582D01*
X287388Y248055D01*
X286725Y248329D01*
X285591Y248479D01*
X284456Y248329D01*
X283399Y247891D01*
X282723Y247373D01*
X282393Y247749D01*
X287416Y252772D01*
X287739Y252696D01*
D02*
G37*
G36*
X291717Y275867D02*
Y270654D01*
X295825D01*
X295875Y270153D01*
X295675Y270114D01*
X295178Y269782D01*
X293801Y268405D01*
X293469Y267909D01*
X293353Y267323D01*
Y267240D01*
X291717D01*
Y261303D01*
X294876D01*
X294895Y261280D01*
X295058Y260803D01*
X293801Y259546D01*
X293469Y259050D01*
X293353Y258465D01*
Y257890D01*
X291717D01*
Y251953D01*
X297909D01*
X298048Y251953D01*
X298409D01*
X298548Y251953D01*
X304740D01*
Y253392D01*
X307437D01*
X307793Y253036D01*
X307601Y252574D01*
X307071D01*
Y250938D01*
X305511D01*
X304926Y250822D01*
X304430Y250490D01*
X303052Y249113D01*
X302721Y248617D01*
X302605Y248031D01*
Y243074D01*
X296296Y236766D01*
X269334D01*
X267120Y238980D01*
Y239748D01*
X269937D01*
Y248441D01*
X261244D01*
Y239748D01*
X264061D01*
Y238347D01*
X264178Y237761D01*
X264509Y237265D01*
X267619Y234155D01*
X268115Y233823D01*
X268701Y233707D01*
X296929D01*
X297514Y233823D01*
X298011Y234155D01*
X305215Y241359D01*
X305547Y241856D01*
X305663Y242441D01*
Y247398D01*
X306145Y247880D01*
X307071D01*
Y246382D01*
X307071Y246244D01*
Y245883D01*
X307071Y245743D01*
Y239551D01*
X308510D01*
Y235842D01*
X307071D01*
Y229650D01*
X307071Y229511D01*
Y229150D01*
X307071Y229011D01*
Y222819D01*
X310312D01*
X310670Y222671D01*
X311445Y222569D01*
X318543D01*
X318947Y222042D01*
X319979Y221251D01*
X320481Y221043D01*
X320381Y220543D01*
X305506D01*
X302886Y223162D01*
X302555Y223383D01*
X302165Y223461D01*
X292323D01*
X291933Y223383D01*
X291602Y223162D01*
X286979Y218539D01*
X224410D01*
X224019Y218462D01*
X223689Y218241D01*
X223467Y217910D01*
X223390Y217520D01*
Y211614D01*
X223467Y211224D01*
X223689Y210893D01*
X224826Y209756D01*
X224635Y209294D01*
X208326D01*
X201420Y216200D01*
Y227362D01*
Y228193D01*
X202012Y228786D01*
X250984D01*
X251570Y228902D01*
X252066Y229234D01*
X259940Y237107D01*
X260271Y237604D01*
X260388Y238189D01*
Y248382D01*
X262444Y250439D01*
X271020D01*
X273155Y248304D01*
X273094Y247658D01*
X272491Y247194D01*
X271794Y246287D01*
X271356Y245229D01*
X271207Y244094D01*
X271356Y242960D01*
X271794Y241902D01*
X272491Y240995D01*
X273399Y240298D01*
X274456Y239860D01*
X275590Y239710D01*
X276725Y239860D01*
X277783Y240298D01*
X278691Y240995D01*
X278912Y241283D01*
X279285Y241270D01*
X279474Y241194D01*
X282502Y238167D01*
X282998Y237835D01*
X283583Y237719D01*
X290744D01*
X291329Y237835D01*
X291826Y238167D01*
X293793Y240134D01*
X294456Y239860D01*
X295590Y239710D01*
X296725Y239860D01*
X297782Y240298D01*
X298691Y240995D01*
X299387Y241902D01*
X299825Y242960D01*
X299974Y244094D01*
X299825Y245229D01*
X299387Y246287D01*
X298691Y247194D01*
X297782Y247891D01*
X296725Y248329D01*
X295590Y248479D01*
X294456Y248329D01*
X293399Y247891D01*
X292491Y247194D01*
X291794Y246287D01*
X291356Y245229D01*
X291207Y244094D01*
X291356Y242960D01*
X291630Y242297D01*
X290111Y240777D01*
X289154D01*
X288908Y241277D01*
X289387Y241902D01*
X289825Y242960D01*
X289974Y244094D01*
X289825Y245229D01*
X289551Y245892D01*
X290526Y246867D01*
X290858Y247363D01*
X290974Y247949D01*
Y275728D01*
X291474Y276012D01*
X291717Y275867D01*
D02*
G37*
G36*
X489173Y293307D02*
Y279528D01*
X493110Y275590D01*
X507217D01*
X507387Y275091D01*
X506743Y274596D01*
X506046Y273688D01*
X505608Y272631D01*
X505524Y271996D01*
X509842D01*
X514161D01*
X514077Y272631D01*
X513639Y273688D01*
X512943Y274596D01*
X512298Y275091D01*
X512468Y275590D01*
X516732D01*
X525591Y266732D01*
X552165D01*
X555118Y263779D01*
Y253937D01*
X552165Y250984D01*
X535433D01*
X532480Y248031D01*
Y238189D01*
X529528Y235236D01*
X528461D01*
Y242807D01*
X519685D01*
X510910D01*
Y235861D01*
X510409Y235653D01*
X507874Y238189D01*
Y261811D01*
X502953Y266732D01*
X481299D01*
X477362Y270669D01*
Y281496D01*
X479331Y283465D01*
Y290339D01*
X481192D01*
Y293307D01*
Y296276D01*
X479331D01*
Y297244D01*
X485236D01*
X489173Y293307D01*
D02*
G37*
G36*
X431102Y233268D02*
Y232495D01*
X430724Y232201D01*
X430602Y232201D01*
X427993D01*
X427940Y232223D01*
X427665Y232259D01*
Y229331D01*
X426665D01*
Y232259D01*
X426390Y232223D01*
X426337Y232201D01*
X420579D01*
Y223425D01*
Y214650D01*
X426337D01*
X426390Y214628D01*
X426665Y214591D01*
Y217520D01*
X427665D01*
Y214591D01*
X427940Y214628D01*
X427993Y214650D01*
X430602D01*
X430724Y214650D01*
X431102Y214355D01*
Y212598D01*
X428150Y209646D01*
X404528D01*
X402559Y211614D01*
Y223425D01*
X406496Y227362D01*
Y236221D01*
X428150D01*
X431102Y233268D01*
D02*
G37*
G36*
X352127Y256888D02*
X352091Y256833D01*
X351906Y255906D01*
X352091Y254978D01*
X352616Y254191D01*
X352801Y254067D01*
Y253492D01*
X352331D01*
Y247624D01*
X351331D01*
Y253492D01*
X347331D01*
Y248116D01*
X346839Y247624D01*
X346331D01*
Y253492D01*
X346018D01*
Y254067D01*
X346203Y254191D01*
X346728Y254978D01*
X346913Y255906D01*
X346728Y256833D01*
X346692Y256888D01*
X346927Y257329D01*
X351891D01*
X352127Y256888D01*
D02*
G37*
G36*
X327026Y257144D02*
X327812Y256618D01*
X328740Y256434D01*
X329668Y256618D01*
X330455Y257144D01*
X330578Y257329D01*
X342049D01*
X342285Y256888D01*
X342248Y256833D01*
X342064Y255906D01*
X342248Y254978D01*
X342774Y254191D01*
X342959Y254067D01*
Y253492D01*
X342331D01*
Y247624D01*
X341331D01*
Y253492D01*
X337331D01*
Y252021D01*
X335901D01*
X335574Y252240D01*
X334646Y252425D01*
X333718Y252240D01*
X332931Y251714D01*
X332406Y250928D01*
X332283Y250311D01*
X331951Y250167D01*
X331738Y250132D01*
X331294Y250429D01*
X330709Y250545D01*
X330035D01*
Y254642D01*
X326332D01*
Y257281D01*
X326833Y257433D01*
X327026Y257144D01*
D02*
G37*
G36*
X314230Y250254D02*
X315017Y249728D01*
X315945Y249544D01*
X316708Y249696D01*
X316954Y249235D01*
X313442Y245723D01*
X313008Y245902D01*
Y246244D01*
X313008Y246382D01*
Y250215D01*
X313232Y250439D01*
X314107D01*
X314230Y250254D01*
D02*
G37*
G36*
X390401Y315114D02*
Y305134D01*
X388765D01*
Y303695D01*
X379671D01*
Y304232D01*
X379555Y304815D01*
X379225Y305308D01*
X378732Y305638D01*
X378150Y305754D01*
X377620Y305648D01*
X377475Y305680D01*
X377120Y305869D01*
Y306954D01*
X377699Y307341D01*
X378224Y308127D01*
X378409Y309055D01*
X378237Y309918D01*
X378291Y310076D01*
X378535Y310418D01*
X383874D01*
Y311761D01*
X384774D01*
X385097Y311278D01*
X385883Y310752D01*
X386811Y310568D01*
X387739Y310752D01*
X388525Y311278D01*
X389051Y312064D01*
X389236Y312992D01*
X389051Y313920D01*
X388525Y314706D01*
X387739Y315232D01*
X386811Y315417D01*
X386488Y315352D01*
X386220Y315406D01*
X383874D01*
Y316749D01*
X383874D01*
Y317110D01*
X383874D01*
Y318746D01*
X386769D01*
X390401Y315114D01*
D02*
G37*
G36*
X280894Y337905D02*
Y335240D01*
X280865Y335092D01*
Y330795D01*
X280981Y330210D01*
X281313Y329714D01*
X281349Y329677D01*
X281185Y329134D01*
X280568Y329012D01*
X279782Y328486D01*
X279544Y328131D01*
X279044Y328282D01*
Y329342D01*
X276674D01*
Y331491D01*
X276846Y331749D01*
X277031Y332677D01*
X276846Y333605D01*
X276321Y334392D01*
X275534Y334917D01*
X274918Y335040D01*
X274753Y335582D01*
X276945Y337775D01*
X277615Y337327D01*
X278543Y337142D01*
X279471Y337327D01*
X280258Y337853D01*
X280394Y338057D01*
X280894Y337905D01*
D02*
G37*
G36*
X185768Y360175D02*
X183225Y357632D01*
X172531D01*
Y360675D01*
X185561D01*
X185768Y360175D01*
D02*
G37*
G36*
X478751Y391671D02*
X477522Y391162D01*
X475538Y389947D01*
X473769Y388436D01*
X472258Y386667D01*
X471043Y384683D01*
X470152Y382534D01*
X469609Y380272D01*
X469427Y377953D01*
X469609Y375634D01*
X470122Y373496D01*
X469939Y373173D01*
X469762Y373008D01*
X448409D01*
Y369090D01*
X447787Y369008D01*
X446826Y368610D01*
X446000Y367977D01*
X445366Y367151D01*
X444968Y366189D01*
X444832Y365158D01*
X444843Y365076D01*
X444394Y364855D01*
X418404Y390845D01*
X417908Y391177D01*
X417323Y391293D01*
X397245D01*
X396659Y391177D01*
X396163Y390845D01*
X391160Y385842D01*
X387189D01*
Y384403D01*
X343111D01*
X342525Y384287D01*
X342029Y383956D01*
X340569Y382496D01*
X336598D01*
Y380860D01*
X324425D01*
Y381512D01*
X319275D01*
Y380860D01*
X312614D01*
Y381512D01*
X307464D01*
Y380860D01*
X299819D01*
Y381512D01*
X294669D01*
Y380860D01*
X287024D01*
Y381512D01*
X281874D01*
Y380860D01*
X274229D01*
Y381512D01*
X273183D01*
Y383858D01*
X273066Y384443D01*
X272735Y384940D01*
X267814Y389861D01*
X267318Y390193D01*
X266732Y390309D01*
X196850D01*
X196265Y390193D01*
X195769Y389861D01*
X190848Y384940D01*
X190516Y384443D01*
X190400Y383858D01*
Y368744D01*
X185390Y363734D01*
X178829D01*
X178729Y364234D01*
X179959Y364743D01*
X181942Y365959D01*
X183711Y367470D01*
X185222Y369239D01*
X186438Y371222D01*
X187328Y373372D01*
X187871Y375634D01*
X188054Y377953D01*
X187871Y380272D01*
X187328Y382534D01*
X186438Y384683D01*
X185222Y386667D01*
X183711Y388436D01*
X181942Y389947D01*
X179959Y391162D01*
X178729Y391671D01*
X178829Y392171D01*
X478652D01*
X478751Y391671D01*
D02*
G37*
G36*
X574860Y374646D02*
Y361721D01*
X574398Y361529D01*
X573835Y362093D01*
Y363854D01*
X573835Y363993D01*
Y364354D01*
X573835Y364493D01*
Y370685D01*
X567898D01*
Y369743D01*
X559071D01*
Y370685D01*
X558326D01*
Y375378D01*
X559071D01*
Y381570D01*
X559071Y381709D01*
Y382070D01*
X559242Y382242D01*
X567264D01*
X574860Y374646D01*
D02*
G37*
G36*
X567898Y364493D02*
X567898Y364354D01*
Y363993D01*
X567726Y363821D01*
X559242D01*
X559071Y363993D01*
Y364354D01*
X559071Y364493D01*
Y365295D01*
X567898D01*
Y364493D01*
D02*
G37*
G36*
X386714Y367029D02*
X387210Y366697D01*
X387795Y366581D01*
X393156D01*
Y355948D01*
X387555Y350348D01*
X383874D01*
Y351984D01*
X377937D01*
Y350348D01*
X369110D01*
Y351984D01*
X363173D01*
Y345653D01*
X363173D01*
Y345292D01*
X363173D01*
Y344207D01*
X353268D01*
X353034Y344770D01*
X352369Y345637D01*
X351502Y346302D01*
X350493Y346720D01*
X349410Y346863D01*
X348326Y346720D01*
X347317Y346302D01*
X346450Y345637D01*
X345785Y344770D01*
X345367Y343760D01*
X345224Y342677D01*
X345367Y341594D01*
X345600Y341031D01*
X340454Y335885D01*
X340123Y335388D01*
X340006Y334803D01*
Y332575D01*
X335653Y328222D01*
X335191Y328413D01*
Y356284D01*
X336630D01*
Y357920D01*
X342504D01*
Y356284D01*
X348441D01*
Y362615D01*
X348441D01*
Y362976D01*
X348441D01*
Y366947D01*
X349960Y368466D01*
X368504D01*
X368812Y368528D01*
X370496D01*
Y366753D01*
X369313Y365570D01*
X369094Y365614D01*
X368167Y365429D01*
X367380Y364903D01*
X366855Y364117D01*
X366670Y363189D01*
X366855Y362261D01*
X367380Y361475D01*
X368167Y360949D01*
X369094Y360764D01*
X370022Y360949D01*
X370809Y361475D01*
X371282Y362182D01*
X371555Y362226D01*
X371829Y362182D01*
X372301Y361475D01*
X373088Y360949D01*
X374016Y360764D01*
X374944Y360949D01*
X375730Y361475D01*
X376203Y362182D01*
X376476Y362226D01*
X376750Y362182D01*
X377223Y361475D01*
X378009Y360949D01*
X378937Y360764D01*
X379865Y360949D01*
X380651Y361475D01*
X381177Y362261D01*
X381362Y363189D01*
X381177Y364117D01*
X380651Y364903D01*
X379865Y365429D01*
X378937Y365614D01*
X378719Y365570D01*
X377536Y366753D01*
Y368528D01*
X381906D01*
Y370517D01*
X383225D01*
X386714Y367029D01*
D02*
G37*
G36*
X374270Y328994D02*
X375056Y328469D01*
X375630Y328355D01*
X375736Y327824D01*
X375254Y327502D01*
X375131Y327317D01*
X365620D01*
X365413Y327817D01*
X366744Y329148D01*
X374167D01*
X374270Y328994D01*
D02*
G37*
G36*
X277118Y341475D02*
X276829Y341281D01*
X276705Y341096D01*
X276575D01*
X275990Y340980D01*
X275493Y340648D01*
X267619Y332774D01*
X267288Y332278D01*
X267171Y331693D01*
Y328389D01*
X265809Y327027D01*
X265309Y327234D01*
Y333028D01*
X274255Y341974D01*
X276966D01*
X277118Y341475D01*
D02*
G37*
G36*
X166262Y348588D02*
X165691D01*
X164950Y348441D01*
X164321Y348021D01*
X163902Y347393D01*
X163754Y346651D01*
Y342451D01*
X163902Y341710D01*
X164321Y341081D01*
X164665Y340852D01*
Y340250D01*
X164321Y340021D01*
X163902Y339392D01*
X163754Y338651D01*
Y334451D01*
X163902Y333710D01*
X164321Y333081D01*
X164950Y332661D01*
X165691Y332514D01*
X166262D01*
Y329740D01*
X163051D01*
X162947Y330197D01*
Y350905D01*
X163051Y351362D01*
X166262D01*
Y348588D01*
D02*
G37*
G36*
X245616Y333914D02*
Y331978D01*
X245116Y331642D01*
X244587Y331748D01*
X243812Y331593D01*
X243307Y331256D01*
X242802Y331593D01*
X242028Y331748D01*
X241253Y331593D01*
X240748Y331256D01*
X240243Y331593D01*
X239469Y331748D01*
X238939Y331642D01*
X238439Y331978D01*
Y333255D01*
X239117Y333390D01*
X239903Y333915D01*
X240429Y334702D01*
X240614Y335630D01*
X240429Y336558D01*
X240392Y336612D01*
X240628Y337053D01*
X242477D01*
X245616Y333914D01*
D02*
G37*
G36*
X229145Y338591D02*
X225592Y335038D01*
X225260Y334542D01*
X225144Y333957D01*
Y331978D01*
X224644Y331642D01*
X224114Y331748D01*
X223340Y331593D01*
X222835Y331256D01*
X222329Y331593D01*
X221555Y331748D01*
X220781Y331593D01*
X220125Y331155D01*
X219686Y330499D01*
X219532Y329724D01*
Y325394D01*
X219686Y324620D01*
X219850Y324375D01*
X218855Y323380D01*
X207326D01*
X203892Y326814D01*
Y328724D01*
X205528D01*
Y328724D01*
X205889D01*
Y328724D01*
X212220D01*
Y332104D01*
X219169Y339053D01*
X228954D01*
X229145Y338591D01*
D02*
G37*
G36*
X189945Y356810D02*
X189945D01*
Y356449D01*
X189945D01*
Y354813D01*
X185439D01*
X185232Y355313D01*
X188365Y358447D01*
X189945D01*
Y356810D01*
D02*
G37*
G36*
X243812Y351477D02*
X244587Y351323D01*
X245116Y351429D01*
X245616Y351093D01*
Y349157D01*
X243461Y347002D01*
X241197D01*
X240998Y347244D01*
Y351093D01*
X241498Y351429D01*
X242028Y351323D01*
X242802Y351477D01*
X243307Y351815D01*
X243812Y351477D01*
D02*
G37*
G36*
X260282Y353980D02*
X253718Y347416D01*
X253257Y347662D01*
X253409Y348425D01*
X253224Y349353D01*
X252699Y350140D01*
X251912Y350665D01*
X251590Y350729D01*
X251534Y351007D01*
X251956Y351384D01*
X252264Y351323D01*
X253038Y351477D01*
X253543Y351815D01*
X254049Y351477D01*
X254823Y351323D01*
X255597Y351477D01*
X256253Y351916D01*
X256692Y352572D01*
X256846Y353346D01*
Y357677D01*
X256692Y358451D01*
X256376Y358925D01*
Y359874D01*
X256833Y359965D01*
X257620Y360490D01*
X258145Y361277D01*
X258330Y362205D01*
X258145Y363133D01*
X257795Y363657D01*
X258062Y364158D01*
X260282D01*
Y353980D01*
D02*
G37*
G36*
X522871Y391671D02*
X519600Y388401D01*
X517701D01*
Y388230D01*
X513189D01*
X512414Y388128D01*
X511692Y387829D01*
X511071Y387353D01*
X500836Y377117D01*
X500360Y376497D01*
X500061Y375775D01*
X499959Y375000D01*
Y368366D01*
X485088Y353495D01*
X484612Y352875D01*
X484313Y352153D01*
X484211Y351378D01*
Y337657D01*
X480624Y334071D01*
X478134D01*
Y330509D01*
X478108Y330315D01*
X478134Y330120D01*
Y326559D01*
X484071D01*
Y329049D01*
X489322Y334300D01*
X489798Y334920D01*
X490097Y335642D01*
X490199Y336417D01*
Y350138D01*
X505070Y365009D01*
X505546Y365629D01*
X505670Y365928D01*
X505845Y366351D01*
X505947Y367126D01*
Y373760D01*
X514429Y382242D01*
X517272D01*
X517701Y382070D01*
Y381709D01*
X517701D01*
Y375378D01*
X523638D01*
Y376320D01*
X528150D01*
X528150Y376320D01*
X529001Y376489D01*
X529723Y376971D01*
X531100Y378349D01*
X531100Y378349D01*
X531582Y379070D01*
X531751Y379921D01*
X531751Y379921D01*
Y381953D01*
X532417Y382619D01*
X536795D01*
Y382268D01*
X541945D01*
Y386770D01*
X550334D01*
X553134Y383970D01*
Y382209D01*
X553134Y382070D01*
Y381709D01*
X553134Y381570D01*
Y375378D01*
X553878D01*
Y370685D01*
X553134D01*
Y369743D01*
X542339D01*
Y370685D01*
X541594D01*
Y376362D01*
X541945D01*
Y381512D01*
X536795D01*
Y376362D01*
X537146D01*
Y370685D01*
X536402D01*
Y369743D01*
X523638D01*
Y370685D01*
X517701D01*
Y370513D01*
X516141D01*
X515366Y370411D01*
X514943Y370236D01*
X514644Y370112D01*
X514024Y369636D01*
X509694Y365306D01*
X509218Y364686D01*
X508919Y363964D01*
X508817Y363189D01*
Y358268D01*
X508919Y357493D01*
X509218Y356771D01*
X509694Y356151D01*
X511995Y353850D01*
X511803Y353388D01*
X501968D01*
X501194Y353286D01*
X500471Y352987D01*
X499851Y352511D01*
X496210Y348869D01*
X495734Y348249D01*
X495435Y347527D01*
X495333Y346752D01*
Y338008D01*
X493094D01*
Y333507D01*
X492597Y333302D01*
X491977Y332826D01*
X486072Y326920D01*
X485596Y326300D01*
X485297Y325578D01*
X485195Y324803D01*
X485297Y324028D01*
X485596Y323306D01*
X486072Y322686D01*
X486692Y322210D01*
X487414Y321911D01*
X488189Y321809D01*
X488964Y321911D01*
X489686Y322210D01*
X490306Y322686D01*
X492632Y325012D01*
X493094Y324821D01*
Y323410D01*
X503559D01*
Y338008D01*
X501321D01*
Y345512D01*
X503209Y347400D01*
X533110D01*
X538201Y342308D01*
X538010Y341846D01*
X537976D01*
Y333703D01*
X521358D01*
X520583Y333601D01*
X520293Y333480D01*
X516126D01*
Y327937D01*
X520293D01*
X520583Y327817D01*
X521358Y327714D01*
X542224D01*
X542999Y327817D01*
X543721Y328116D01*
X544342Y328591D01*
X547132Y331382D01*
X558284D01*
Y341846D01*
X547132D01*
X536468Y352511D01*
X535848Y352987D01*
X535125Y353286D01*
X534350Y353388D01*
X520925D01*
X514805Y359508D01*
Y361949D01*
X516952Y364095D01*
X517573Y364036D01*
X517701Y363854D01*
Y361022D01*
X517675Y360827D01*
X517701Y360633D01*
Y357662D01*
X523638D01*
Y357833D01*
X536402D01*
Y357662D01*
X542339D01*
Y357833D01*
X553134D01*
Y357662D01*
X559071D01*
Y357833D01*
X567898D01*
Y357662D01*
X569797D01*
X574860Y352599D01*
Y341846D01*
X567701D01*
Y331382D01*
X567734D01*
X567926Y330920D01*
X561654Y324648D01*
X521358D01*
X520583Y324546D01*
X520293Y324425D01*
X516126D01*
Y318882D01*
X520293D01*
X520583Y318761D01*
X521358Y318659D01*
X562894D01*
X563669Y318761D01*
X564391Y319061D01*
X565011Y319536D01*
X572413Y326938D01*
X572875Y326747D01*
Y305429D01*
X567701D01*
Y294965D01*
X567701Y294965D01*
X567701D01*
X567443Y294581D01*
X565230Y292368D01*
X545645D01*
X545475Y292868D01*
X546000Y293271D01*
X547693Y294965D01*
X558284D01*
Y305429D01*
X537976D01*
Y299060D01*
X534490D01*
Y307087D01*
X534388Y307862D01*
X534089Y308584D01*
X533613Y309204D01*
X530660Y312157D01*
X530040Y312632D01*
X529318Y312931D01*
X528543Y313034D01*
X520925D01*
X513821Y320138D01*
Y334783D01*
X515807Y336770D01*
X521358D01*
X522133Y336872D01*
X522424Y336992D01*
X526590D01*
Y342535D01*
X522424D01*
X522133Y342656D01*
X521358Y342758D01*
X514567D01*
X513792Y342656D01*
X513070Y342357D01*
X512450Y341881D01*
X508710Y338141D01*
X508234Y337521D01*
X507935Y336799D01*
X507833Y336024D01*
Y318898D01*
X507935Y318123D01*
X508234Y317401D01*
X508710Y316780D01*
X517568Y307922D01*
X518188Y307446D01*
X518910Y307147D01*
X519685Y307045D01*
X527303D01*
X528502Y305846D01*
Y299060D01*
X514173D01*
X513295Y298944D01*
X512477Y298606D01*
X511775Y298067D01*
X509562Y295854D01*
X480464Y324952D01*
X479844Y325428D01*
X479121Y325727D01*
X478346Y325829D01*
X436887D01*
X436804Y325892D01*
X435953Y326245D01*
X435039Y326365D01*
X434473Y326290D01*
X434239Y326764D01*
X435567Y328091D01*
X470654D01*
Y326559D01*
X476591D01*
Y334071D01*
X470654D01*
Y332539D01*
X437581D01*
X437411Y333038D01*
X437536Y333134D01*
X438097Y333865D01*
X438449Y334716D01*
X438570Y335630D01*
X438449Y336544D01*
X438097Y337395D01*
X438033Y337477D01*
Y353346D01*
X437931Y354121D01*
X437632Y354843D01*
X437156Y355464D01*
X427181Y365439D01*
Y369110D01*
X423638D01*
Y373008D01*
X401953D01*
Y359197D01*
X423638D01*
Y359860D01*
X424100Y360052D01*
X432045Y352106D01*
Y337477D01*
X431982Y337395D01*
X431630Y336544D01*
X431509Y335630D01*
X431630Y334716D01*
X431982Y333865D01*
X432543Y333134D01*
X433239Y332600D01*
X433302Y332476D01*
X433342Y332067D01*
X433073Y331887D01*
X433073Y331887D01*
X429197Y328011D01*
X424819D01*
Y328756D01*
X418627D01*
X418488Y328756D01*
X418127D01*
X417988Y328756D01*
X411796D01*
Y328260D01*
X411541Y328123D01*
X411296Y328040D01*
X410433Y328212D01*
X409505Y328027D01*
X408719Y327502D01*
X408193Y326715D01*
X408008Y325787D01*
X408193Y324860D01*
X408719Y324073D01*
X409505Y323547D01*
X410433Y323363D01*
X411296Y323534D01*
X411541Y323451D01*
X411796Y323315D01*
Y322819D01*
X417988D01*
X418127Y322819D01*
X418488D01*
X418627Y322819D01*
X424819D01*
Y323564D01*
X430118D01*
X430118Y323564D01*
X430969Y323733D01*
X431161Y323861D01*
X431604Y323556D01*
X431509Y322835D01*
X431630Y321921D01*
X431982Y321070D01*
X432543Y320338D01*
X433274Y319777D01*
X434126Y319425D01*
X435039Y319304D01*
X435953Y319425D01*
X436804Y319777D01*
X436887Y319841D01*
X477106D01*
X505476Y291471D01*
X505459Y291339D01*
X505608Y290204D01*
X506046Y289147D01*
X506743Y288239D01*
X507651Y287542D01*
X508708Y287104D01*
X509842Y286955D01*
X510977Y287104D01*
X512035Y287542D01*
X512943Y288239D01*
X513639Y289147D01*
X514077Y290204D01*
X514164Y290864D01*
X515578Y292278D01*
X528084D01*
X528528Y292142D01*
Y290804D01*
X522453Y284730D01*
X514189D01*
Y285685D01*
X505496D01*
Y276992D01*
X505211Y276610D01*
X493533D01*
X490193Y279950D01*
Y293307D01*
X490115Y293697D01*
X489894Y294028D01*
X485957Y297965D01*
X485626Y298186D01*
X485236Y298264D01*
X479331D01*
X478940Y298186D01*
X478610Y297965D01*
X478389Y297634D01*
X478311Y297244D01*
Y296715D01*
X478166Y296276D01*
X477811Y296276D01*
X475195D01*
X475000Y296301D01*
X469488D01*
X468713Y296199D01*
X467991Y295900D01*
X467371Y295424D01*
X464812Y292865D01*
X464336Y292245D01*
X464037Y291523D01*
X463935Y290748D01*
Y288573D01*
X463763Y288402D01*
X463402D01*
X463263Y288402D01*
X460431D01*
X460237Y288427D01*
X460042Y288402D01*
X457071D01*
Y286502D01*
X453591Y283022D01*
X453116Y282402D01*
X452817Y281680D01*
X452801Y281564D01*
X452756Y281531D01*
X439888D01*
X439718Y282031D01*
X440109Y282332D01*
X443220Y285442D01*
X443695Y286062D01*
X443995Y286784D01*
X444097Y287559D01*
Y294643D01*
X459055D01*
X459830Y294745D01*
X460552Y295044D01*
X461172Y295520D01*
X470030Y304379D01*
X470506Y304998D01*
X470630Y305298D01*
X470805Y305721D01*
X470907Y306496D01*
Y308055D01*
X471078D01*
Y313992D01*
X468108D01*
X467913Y314018D01*
X467718Y313992D01*
X464747D01*
Y313992D01*
X464386D01*
Y313992D01*
X461415D01*
X461221Y314018D01*
X434488D01*
X433713Y313916D01*
X433290Y313740D01*
X432991Y313617D01*
X432371Y313141D01*
X427308Y308078D01*
X427165Y308106D01*
X413386D01*
X412996Y308029D01*
X412665Y307808D01*
X410696Y305839D01*
X410475Y305508D01*
X410398Y305118D01*
Y288386D01*
X410475Y287996D01*
X410696Y287665D01*
X411027Y287444D01*
X411417Y287366D01*
X411490D01*
X411660Y286866D01*
X411269Y286566D01*
X405363Y280661D01*
X404887Y280040D01*
X404588Y279318D01*
X404486Y278543D01*
Y267142D01*
X400378D01*
Y263580D01*
X400352Y263386D01*
Y257496D01*
X398606D01*
Y254525D01*
X398581Y254330D01*
X398606Y254136D01*
Y251165D01*
X398606Y251165D01*
Y250804D01*
X398606D01*
X398606Y250665D01*
Y247833D01*
X398581Y247638D01*
X398606Y247444D01*
Y244473D01*
X398606Y244473D01*
X398670Y244011D01*
X398674Y243992D01*
X398674Y243992D01*
X398676Y243982D01*
X398748Y243621D01*
X398969Y243290D01*
X404791Y237468D01*
X405122Y237247D01*
X405348Y237202D01*
X405568Y236825D01*
X405593Y236669D01*
X405554Y236611D01*
X405477Y236221D01*
Y227784D01*
X401838Y224146D01*
X401617Y223815D01*
X401540Y223425D01*
Y220543D01*
X396556D01*
X396456Y221043D01*
X396958Y221251D01*
X397990Y222042D01*
X398781Y223073D01*
X399278Y224274D01*
X399448Y225563D01*
X399278Y226852D01*
X398781Y228053D01*
X397990Y229084D01*
X396958Y229875D01*
X395757Y230373D01*
X394468Y230543D01*
X322468D01*
X321180Y230373D01*
X319979Y229875D01*
X318947Y229084D01*
X318543Y228557D01*
X313361D01*
X313008Y228911D01*
X313008Y229511D01*
X313008Y229650D01*
Y235842D01*
X311569D01*
Y239551D01*
X313008D01*
Y241269D01*
X313184Y241304D01*
X313680Y241636D01*
X319159Y247114D01*
X319571Y247327D01*
X323447D01*
Y246874D01*
X323563Y246289D01*
X323895Y245793D01*
X326674Y243013D01*
X327171Y242682D01*
X327756Y242565D01*
X368110D01*
X368695Y242682D01*
X369192Y243013D01*
X370412Y244233D01*
X370744Y244730D01*
X370860Y245315D01*
Y247492D01*
X371331D01*
Y253492D01*
X370860D01*
Y254268D01*
X371335Y254978D01*
X371519Y255906D01*
X371335Y256833D01*
X370809Y257620D01*
X370022Y258145D01*
X369094Y258330D01*
X368167Y258145D01*
X367380Y257620D01*
X366855Y256833D01*
X366670Y255906D01*
X366855Y254978D01*
X367380Y254191D01*
X367678Y253992D01*
X367533Y253492D01*
X367331D01*
Y247492D01*
X367801D01*
Y245949D01*
X367477Y245624D01*
X360614D01*
X360465Y246124D01*
X360744Y246541D01*
X360860Y247126D01*
Y247492D01*
X361331D01*
Y253492D01*
X357331D01*
Y247624D01*
X356331D01*
Y253492D01*
X355860D01*
Y254067D01*
X356045Y254191D01*
X356571Y254978D01*
X356755Y255906D01*
X356571Y256833D01*
X356534Y256888D01*
X356770Y257329D01*
X359603D01*
X362801Y254130D01*
Y253492D01*
X362331D01*
Y247492D01*
X366331D01*
Y253492D01*
X365860D01*
Y254764D01*
X365744Y255349D01*
X365412Y255845D01*
X361318Y259940D01*
X360822Y260271D01*
X360236Y260388D01*
X345943D01*
X345708Y260829D01*
X345744Y260883D01*
X345929Y261811D01*
X345744Y262739D01*
X345218Y263525D01*
X345033Y263649D01*
Y264764D01*
X344917Y265349D01*
X344691Y265687D01*
X344905Y266187D01*
X372047D01*
X372633Y266304D01*
X373129Y266635D01*
X374484Y267991D01*
X374984Y267784D01*
Y266659D01*
X374984Y266519D01*
Y266159D01*
X374984Y266020D01*
Y259827D01*
X376426D01*
X376540Y259257D01*
X376871Y258761D01*
X379376Y256256D01*
Y253362D01*
X376559D01*
Y244669D01*
X385252D01*
Y253362D01*
X382435D01*
Y256890D01*
X382318Y257475D01*
X381987Y257971D01*
X380592Y259366D01*
X380784Y259827D01*
X380921D01*
Y266020D01*
X380921Y266159D01*
Y266544D01*
X381421Y266811D01*
X381946Y266461D01*
X382874Y266276D01*
X383802Y266461D01*
X384327Y266811D01*
X384519Y266769D01*
X384827Y266413D01*
Y260221D01*
X388798D01*
X389376Y259643D01*
Y253087D01*
X388714Y252812D01*
X387806Y252116D01*
X387109Y251208D01*
X386671Y250150D01*
X386522Y249016D01*
X386671Y247881D01*
X387109Y246824D01*
X387806Y245916D01*
X388714Y245219D01*
X389771Y244781D01*
X390905Y244632D01*
X392040Y244781D01*
X393097Y245219D01*
X394005Y245916D01*
X394702Y246824D01*
X395140Y247881D01*
X395289Y249016D01*
X395140Y250150D01*
X394702Y251208D01*
X394005Y252116D01*
X393097Y252812D01*
X392435Y253087D01*
Y259540D01*
X392898Y259630D01*
Y259630D01*
X398835D01*
Y267142D01*
X392898D01*
Y264916D01*
X390764D01*
Y266413D01*
X390764Y266552D01*
Y266913D01*
X390764Y267052D01*
Y269900D01*
X391382Y270518D01*
X396638D01*
Y268291D01*
X402575D01*
Y275803D01*
X396638D01*
Y273577D01*
X390749D01*
X390163Y273461D01*
X389839Y273244D01*
X385808D01*
X379679Y279373D01*
Y287162D01*
X382531Y290014D01*
X383169D01*
X383752Y290130D01*
X384245Y290460D01*
X384575Y290953D01*
X384691Y291535D01*
X384575Y292118D01*
X384335Y292477D01*
X384279Y292815D01*
X384335Y293153D01*
X384575Y293512D01*
X384691Y294094D01*
X384575Y294677D01*
X384245Y295170D01*
Y295578D01*
X384575Y296071D01*
X384691Y296654D01*
X384575Y297236D01*
X384335Y297595D01*
X384279Y297933D01*
X384335Y298271D01*
X384575Y298630D01*
X384691Y299213D01*
X384575Y299795D01*
X384347Y300136D01*
X384546Y300612D01*
X384568Y300636D01*
X388765D01*
Y299197D01*
X394956D01*
X395096Y299197D01*
X395457D01*
X395596Y299197D01*
X397093D01*
Y292339D01*
X395596D01*
X395457Y292339D01*
X395096D01*
X394956Y292339D01*
X388765D01*
Y292112D01*
X388264Y291701D01*
X387795Y291795D01*
X386867Y291610D01*
X386081Y291085D01*
X385555Y290298D01*
X385371Y289370D01*
X385555Y288442D01*
X386081Y287656D01*
X386867Y287130D01*
X387795Y286946D01*
X388264Y287039D01*
X388765Y286629D01*
Y286402D01*
X394956D01*
X395096Y286402D01*
X395457D01*
X395596Y286402D01*
X401788D01*
Y292339D01*
X400151D01*
Y299197D01*
X401788D01*
Y305134D01*
X400151D01*
Y307217D01*
X400337Y307341D01*
X400862Y308127D01*
X401047Y309055D01*
X400862Y309983D01*
X400337Y310770D01*
X399550Y311295D01*
X398622Y311480D01*
X397694Y311295D01*
X396908Y310770D01*
X396382Y309983D01*
X396198Y309055D01*
X396382Y308127D01*
X396908Y307341D01*
X397093Y307217D01*
Y305134D01*
X395596D01*
X395457Y305134D01*
X395096D01*
X394956Y305134D01*
X393459D01*
Y315747D01*
X393343Y316332D01*
X393011Y316829D01*
X389427Y320413D01*
X389601Y320674D01*
X389718Y321259D01*
Y348185D01*
X395766Y354234D01*
X396098Y354730D01*
X396214Y355315D01*
Y367477D01*
X397816Y369079D01*
X400212D01*
Y375016D01*
X398576D01*
Y379906D01*
X400212D01*
Y385842D01*
X396140D01*
X395948Y386304D01*
X397878Y388234D01*
X416689D01*
X464622Y340301D01*
X464526Y339567D01*
X464628Y338792D01*
X464927Y338070D01*
X465403Y337450D01*
X466023Y336974D01*
X466745Y336675D01*
X467520Y336573D01*
X468295Y336675D01*
X469017Y336974D01*
X469637Y337450D01*
X470113Y338070D01*
X470412Y338792D01*
X470514Y339567D01*
X470412Y340342D01*
X470113Y341064D01*
X469637Y341684D01*
X469017Y342160D01*
X468295Y342459D01*
X467520Y342561D01*
X466785Y342464D01*
X450515Y358735D01*
X450706Y359197D01*
X470094D01*
Y359769D01*
X470556Y359960D01*
X475138Y355378D01*
Y342733D01*
X474394D01*
Y335221D01*
X480331D01*
Y342733D01*
X479586D01*
Y356299D01*
X479586Y356299D01*
X479417Y357150D01*
X478935Y357872D01*
X478935Y357872D01*
X470094Y366712D01*
Y372205D01*
X470594Y372304D01*
X471043Y371222D01*
X472258Y369239D01*
X473769Y367470D01*
X475538Y365959D01*
X477522Y364743D01*
X479671Y363853D01*
X481933Y363310D01*
X484252Y363127D01*
X486571Y363310D01*
X488833Y363853D01*
X490982Y364743D01*
X492966Y365959D01*
X494735Y367470D01*
X496246Y369239D01*
X497461Y371222D01*
X498352Y373372D01*
X498895Y375634D01*
X499077Y377953D01*
X498895Y380272D01*
X498352Y382534D01*
X497461Y384683D01*
X496246Y386667D01*
X494735Y388436D01*
X492966Y389947D01*
X490982Y391162D01*
X489753Y391671D01*
X489853Y392171D01*
X522663D01*
X522871Y391671D01*
D02*
G37*
G36*
X553134Y364493D02*
X553134Y364354D01*
Y363993D01*
X552962Y363821D01*
X542510D01*
X542339Y363993D01*
Y364354D01*
X542339Y364493D01*
Y365295D01*
X553134D01*
Y364493D01*
D02*
G37*
G36*
X536402D02*
X536402Y364354D01*
Y363993D01*
X536230Y363821D01*
X523809D01*
X523638Y363993D01*
Y364354D01*
X523638Y364493D01*
Y365295D01*
X536402D01*
Y364493D01*
D02*
G37*
G36*
X233576Y351477D02*
X234350Y351323D01*
X235125Y351477D01*
X235630Y351815D01*
X236135Y351477D01*
X236910Y351323D01*
X237439Y351429D01*
X237939Y351093D01*
Y347878D01*
X237901Y347840D01*
X237261Y347712D01*
X236475Y347187D01*
X236351Y347002D01*
X231933D01*
X230762Y348173D01*
Y351093D01*
X231262Y351429D01*
X231791Y351323D01*
X232565Y351477D01*
X233071Y351815D01*
X233576Y351477D01*
D02*
G37*
G36*
X216381Y340591D02*
X210451Y334661D01*
X205889D01*
Y334661D01*
X205528D01*
Y334661D01*
X199197D01*
Y329263D01*
X198697Y329056D01*
X197396Y330358D01*
Y338933D01*
X198468Y340006D01*
X199197D01*
Y339551D01*
X205528D01*
Y339551D01*
X205889D01*
Y339551D01*
X212220D01*
Y341053D01*
X216190D01*
X216381Y340591D01*
D02*
G37*
G36*
X377937Y345653D02*
X377937D01*
Y345292D01*
X377937D01*
Y341321D01*
X370823Y334207D01*
X359409D01*
X358824Y334090D01*
X358328Y333759D01*
X351056Y326487D01*
X350493Y326720D01*
X349410Y326863D01*
X348326Y326720D01*
X347317Y326302D01*
X346450Y325637D01*
X345785Y324770D01*
X345551Y324207D01*
X336617D01*
X336425Y324669D01*
X342617Y330860D01*
X342948Y331356D01*
X343065Y331942D01*
Y334170D01*
X347763Y338868D01*
X348326Y338634D01*
X349410Y338492D01*
X350493Y338634D01*
X351502Y339053D01*
X352369Y339718D01*
X353034Y340584D01*
X353268Y341148D01*
X363173D01*
Y338961D01*
X369110D01*
Y345292D01*
X369110D01*
Y345653D01*
X369110D01*
Y347289D01*
X377937D01*
Y345653D01*
D02*
G37*
G36*
X202211Y355837D02*
Y354964D01*
X201281Y354035D01*
X194406Y347160D01*
X193933Y347393D01*
X193939Y347441D01*
X193837Y348216D01*
X193538Y348938D01*
X193062Y349558D01*
X192983Y349618D01*
X193153Y350118D01*
X195882D01*
Y351754D01*
X196788D01*
X197373Y351871D01*
X197869Y352203D01*
X201711Y356044D01*
X202211Y355837D01*
D02*
G37*
G36*
X214022Y355666D02*
Y349410D01*
X214138Y348824D01*
X214470Y348328D01*
X218186Y344612D01*
X217979Y344112D01*
X212220D01*
Y345488D01*
X205889D01*
Y345488D01*
X205528D01*
Y345488D01*
X199197D01*
Y343065D01*
X197835D01*
X197249Y342948D01*
X196753Y342617D01*
X194785Y340648D01*
X194453Y340152D01*
X194337Y339567D01*
Y329724D01*
X194453Y329139D01*
X194785Y328643D01*
X205611Y317816D01*
X206108Y317485D01*
X206693Y317368D01*
X211745D01*
X211868Y317183D01*
X212655Y316658D01*
X213583Y316473D01*
X214510Y316658D01*
X215297Y317183D01*
X215823Y317970D01*
X216007Y318898D01*
X215823Y319826D01*
X215786Y319880D01*
X216022Y320321D01*
X219488D01*
X220074Y320437D01*
X220570Y320769D01*
X222123Y322322D01*
X222585Y322131D01*
Y311630D01*
X221441D01*
Y305438D01*
X221441Y305299D01*
Y304938D01*
X221441Y304799D01*
Y303302D01*
X216551D01*
Y304799D01*
X216551Y304938D01*
Y305299D01*
X216551Y305438D01*
Y306935D01*
X217397D01*
X217576Y306815D01*
X218504Y306631D01*
X219432Y306815D01*
X220218Y307341D01*
X220744Y308127D01*
X220929Y309055D01*
X220744Y309983D01*
X220218Y310770D01*
X219432Y311295D01*
X218504Y311480D01*
X217576Y311295D01*
X217051Y310944D01*
X216551Y311212D01*
Y311630D01*
X210614D01*
Y305438D01*
X210614Y305299D01*
Y304938D01*
X210614Y304799D01*
Y303302D01*
X206961D01*
Y304799D01*
X206961Y304938D01*
Y305299D01*
X206961Y305438D01*
Y311630D01*
X201024D01*
Y309994D01*
X190293D01*
X190043Y310493D01*
X190122Y310600D01*
X190889Y310752D01*
X191675Y311278D01*
X192201Y312064D01*
X192385Y312992D01*
X192201Y313920D01*
X191675Y314706D01*
X190889Y315232D01*
X189961Y315417D01*
X189033Y315232D01*
X188246Y314706D01*
X187721Y313920D01*
X187536Y312992D01*
X187580Y312774D01*
X187031Y312225D01*
X186569Y312416D01*
Y321850D01*
Y333661D01*
X186452Y334247D01*
X186121Y334743D01*
X184349Y336515D01*
X183853Y336846D01*
X183283Y336959D01*
Y341581D01*
X192520D01*
X193105Y341697D01*
X193601Y342029D01*
X202996Y351424D01*
X204709D01*
Y349788D01*
X210646D01*
Y356119D01*
X210646D01*
Y356480D01*
X210646D01*
Y358116D01*
X211572D01*
X214022Y355666D01*
D02*
G37*
G36*
X189945Y350240D02*
X189448Y350034D01*
X188828Y349558D01*
X188352Y348938D01*
X188053Y348216D01*
X187951Y347441D01*
X187738Y347199D01*
X183283D01*
Y347417D01*
X177005D01*
X176814Y347879D01*
X180689Y351754D01*
X189945D01*
Y350240D01*
D02*
G37*
G36*
X247426Y364688D02*
Y364158D01*
X249812D01*
X250079Y363657D01*
X249728Y363133D01*
X249544Y362205D01*
X249728Y361277D01*
X250254Y360490D01*
X250401Y360392D01*
X250408Y359999D01*
X249974Y359647D01*
X249705Y359700D01*
X248931Y359546D01*
X248425Y359209D01*
X247920Y359546D01*
X247146Y359700D01*
X246372Y359546D01*
X245866Y359209D01*
X245361Y359546D01*
X244587Y359700D01*
X244057Y359595D01*
X243557Y359931D01*
Y361473D01*
X246964Y364879D01*
X247426Y364688D01*
D02*
G37*
G36*
X529778Y386270D02*
X527955Y384447D01*
X527473Y383725D01*
X527304Y382874D01*
X527304Y382874D01*
Y380842D01*
X527229Y380768D01*
X523638D01*
Y381709D01*
X523638D01*
Y382070D01*
X523638D01*
Y383970D01*
X526438Y386770D01*
X529572D01*
X529778Y386270D01*
D02*
G37*
G36*
X272244Y332366D02*
X272366Y331749D01*
X272892Y330963D01*
X273615Y330480D01*
Y329342D01*
X271244D01*
Y326242D01*
Y321422D01*
X269548D01*
X269431Y321596D01*
X268644Y322122D01*
X267717Y322306D01*
X266789Y322122D01*
X266002Y321596D01*
X265477Y320810D01*
X265292Y319882D01*
X265444Y319119D01*
X264983Y318873D01*
X264325Y319531D01*
Y321217D01*
X269782Y326675D01*
X270114Y327171D01*
X270230Y327756D01*
Y331059D01*
X271701Y332530D01*
X272244Y332366D01*
D02*
G37*
G36*
X363956Y330686D02*
X353037Y319767D01*
X352660Y320097D01*
X353034Y320585D01*
X353452Y321594D01*
X353595Y322677D01*
X353452Y323760D01*
X353219Y324324D01*
X360043Y331148D01*
X363765D01*
X363956Y330686D01*
D02*
G37*
G36*
X386659Y321893D02*
X386571Y321804D01*
X383874D01*
Y323441D01*
X378637D01*
X378485Y323941D01*
X378683Y324073D01*
X379208Y324860D01*
X379393Y325787D01*
X379208Y326715D01*
X378683Y327502D01*
X377896Y328027D01*
X377322Y328141D01*
X377217Y328672D01*
X377699Y328994D01*
X378224Y329781D01*
X378409Y330709D01*
X378224Y331637D01*
X377699Y332423D01*
X376912Y332949D01*
X375984Y333133D01*
X375056Y332949D01*
X374270Y332423D01*
X374260Y332408D01*
X374070Y332421D01*
X373878Y332936D01*
X379903Y338961D01*
X383874D01*
Y345292D01*
X383874D01*
Y345653D01*
X383874D01*
Y347289D01*
X386659D01*
Y321893D01*
D02*
G37*
G36*
X375254Y324073D02*
X376041Y323547D01*
X376969Y323363D01*
X377444Y323457D01*
X377937Y323046D01*
Y321804D01*
X370094D01*
Y323441D01*
X365627D01*
X365436Y323903D01*
X365791Y324258D01*
X375131D01*
X375254Y324073D01*
D02*
G37*
G36*
X395517Y375016D02*
X393881D01*
Y375016D01*
X393520D01*
Y375016D01*
X391884D01*
Y379906D01*
X393381D01*
X393520Y379906D01*
Y379906D01*
X393881D01*
Y379906D01*
X395517D01*
Y375016D01*
D02*
G37*
G36*
X261266Y321388D02*
Y318898D01*
X261382Y318312D01*
X261714Y317816D01*
X262820Y316710D01*
X262574Y316249D01*
X261811Y316401D01*
X260883Y316216D01*
X260097Y315691D01*
X259571Y314904D01*
X259457Y314330D01*
X258926Y314225D01*
X258604Y314706D01*
X258419Y314830D01*
Y319248D01*
X260766Y321595D01*
X261266Y321388D01*
D02*
G37*
G36*
X377937Y317110D02*
X377937D01*
Y316749D01*
X377937D01*
Y315406D01*
X370094D01*
Y316749D01*
X370094D01*
Y317110D01*
X370094D01*
Y318746D01*
X377937D01*
Y317110D01*
D02*
G37*
G36*
X297498Y325057D02*
X298285Y324532D01*
X299213Y324347D01*
X299975Y324499D01*
X300222Y324038D01*
X299115Y322932D01*
X298784Y322436D01*
X298668Y321850D01*
Y314749D01*
X298205Y314558D01*
X291193Y321571D01*
Y323819D01*
X291054Y324516D01*
X290903Y324742D01*
X291170Y325242D01*
X297375D01*
X297498Y325057D01*
D02*
G37*
G36*
X167727Y391671D02*
X166498Y391162D01*
X164514Y389947D01*
X162745Y388436D01*
X161234Y386667D01*
X160019Y384683D01*
X159510Y383454D01*
X159010Y383553D01*
Y392171D01*
X167628D01*
X167727Y391671D01*
D02*
G37*
G36*
X271244Y316342D02*
Y312442D01*
Y308442D01*
Y303721D01*
X269334D01*
X269182Y304222D01*
X269431Y304388D01*
X269956Y305174D01*
X270141Y306102D01*
X269956Y307030D01*
X269431Y307817D01*
X269246Y307940D01*
Y313976D01*
X269129Y314562D01*
X268798Y315058D01*
X266707Y317148D01*
X266954Y317609D01*
X267717Y317457D01*
X268644Y317642D01*
X269431Y318167D01*
X269561Y318363D01*
X271244D01*
Y316342D01*
D02*
G37*
G36*
X345785Y320585D02*
X346450Y319718D01*
X347317Y319053D01*
X348326Y318634D01*
X349410Y318492D01*
X350493Y318634D01*
X351502Y319053D01*
X351990Y319427D01*
X352320Y319050D01*
X335259Y301989D01*
X334589Y302437D01*
X333973Y302559D01*
X333808Y303102D01*
X340333Y309627D01*
X340551Y309583D01*
X341479Y309768D01*
X342266Y310294D01*
X342791Y311080D01*
X342976Y312008D01*
X342791Y312936D01*
X342266Y313722D01*
X341479Y314248D01*
X340551Y314432D01*
X339623Y314248D01*
X338837Y313722D01*
X338311Y312936D01*
X338127Y312008D01*
X338170Y311790D01*
X335356Y308976D01*
X334968Y309294D01*
X335074Y309454D01*
X335191Y310039D01*
Y312359D01*
X340200Y317368D01*
X340682D01*
X340805Y317183D01*
X341592Y316658D01*
X342520Y316473D01*
X343447Y316658D01*
X344234Y317183D01*
X344760Y317970D01*
X344944Y318898D01*
X344760Y319826D01*
X344234Y320612D01*
X344181Y320648D01*
X344332Y321148D01*
X345551D01*
X345785Y320585D01*
D02*
G37*
G36*
X227703Y323140D02*
Y316043D01*
X227819Y315458D01*
X228151Y314962D01*
X236123Y306989D01*
X236599Y306672D01*
Y305102D01*
X242930D01*
Y305102D01*
X243291D01*
Y305102D01*
X244927D01*
Y304725D01*
X245043Y304140D01*
X245375Y303643D01*
X245650Y303368D01*
X245607Y303150D01*
X245792Y302222D01*
X246317Y301435D01*
X246502Y301312D01*
Y298821D01*
X246002Y298669D01*
X245809Y298958D01*
X245022Y299484D01*
X244094Y299669D01*
X243167Y299484D01*
X242380Y298958D01*
X242256Y298774D01*
X233268D01*
X232682Y298657D01*
X232186Y298325D01*
X223328Y289467D01*
X222996Y288971D01*
X222880Y288386D01*
Y271523D01*
X222695Y271399D01*
X222169Y270613D01*
X221985Y269685D01*
X222169Y268757D01*
X222695Y267971D01*
X223482Y267445D01*
X224410Y267261D01*
X225172Y267412D01*
X225418Y266951D01*
X224760Y266293D01*
X207299D01*
Y267732D01*
X205663D01*
Y273229D01*
X205546Y273814D01*
X205215Y274310D01*
X201259Y278267D01*
X200762Y278598D01*
X200177Y278714D01*
X189213D01*
Y279685D01*
X181213D01*
Y274685D01*
X189213D01*
Y275656D01*
X199544D01*
X202604Y272595D01*
Y267732D01*
X200968D01*
Y267732D01*
X200607D01*
Y267732D01*
X196636D01*
X193602Y270766D01*
X193105Y271098D01*
X192520Y271214D01*
X182720D01*
X179679Y274255D01*
Y300548D01*
X184328Y305197D01*
X189213D01*
Y306935D01*
X201024D01*
Y305438D01*
X201024Y305299D01*
Y304938D01*
X201024Y304799D01*
Y303302D01*
X190552D01*
X189966Y303185D01*
X189470Y302853D01*
X184131Y297515D01*
X183800Y297018D01*
X183683Y296433D01*
Y295197D01*
X181213D01*
Y290197D01*
X189213D01*
Y295197D01*
X186742D01*
Y295800D01*
X191185Y300243D01*
X201024D01*
Y298607D01*
X206961D01*
Y300243D01*
X210614D01*
Y298607D01*
X216551D01*
Y300243D01*
X221441D01*
Y298607D01*
X227378D01*
Y300243D01*
X227928D01*
X228403Y299925D01*
X229331Y299741D01*
X230258Y299925D01*
X231045Y300451D01*
X231571Y301238D01*
X231755Y302165D01*
X231571Y303093D01*
X231045Y303880D01*
X230258Y304405D01*
X229331Y304590D01*
X228403Y304405D01*
X227878Y304055D01*
X227378Y304322D01*
X227378Y305299D01*
X227378Y305438D01*
Y311630D01*
X225644D01*
Y323140D01*
X226144Y323476D01*
X226673Y323371D01*
X227203Y323476D01*
X227703Y323140D01*
D02*
G37*
G36*
X306515Y330331D02*
X301946Y325763D01*
X301485Y326009D01*
X301637Y326772D01*
X301453Y327699D01*
X300927Y328486D01*
X300140Y329012D01*
X299213Y329196D01*
X298285Y329012D01*
X297498Y328486D01*
X297375Y328301D01*
X290004D01*
X287574Y330730D01*
X287766Y331192D01*
X306515D01*
Y330331D01*
D02*
G37*
G36*
X330596Y363176D02*
X330693Y362976D01*
Y362615D01*
X330693D01*
Y356284D01*
X332132D01*
Y327530D01*
X329747Y325145D01*
X329285Y325336D01*
Y362556D01*
X330034Y363304D01*
X330596Y363176D01*
D02*
G37*
G36*
X387189Y379906D02*
X388825D01*
Y375016D01*
X387189D01*
Y371532D01*
X386727Y371341D01*
X384940Y373128D01*
X384444Y373460D01*
X383859Y373576D01*
X381906D01*
Y374434D01*
Y379504D01*
X377536D01*
Y381345D01*
X387189D01*
Y379906D01*
D02*
G37*
G36*
X178682Y354073D02*
X173131Y348522D01*
X172800Y348026D01*
X172683Y347441D01*
Y341535D01*
X172800Y340950D01*
X173131Y340454D01*
X174115Y339470D01*
X174612Y339138D01*
X175197Y339022D01*
X175299D01*
Y336244D01*
Y333685D01*
X182853D01*
X183510Y333028D01*
Y326196D01*
X183048Y326005D01*
X182971Y326082D01*
X182475Y326413D01*
X181890Y326530D01*
X172531D01*
Y329740D01*
X169321D01*
Y332514D01*
X169891D01*
X170633Y332661D01*
X171261Y333081D01*
X171681Y333710D01*
X171829Y334451D01*
Y338651D01*
X171681Y339392D01*
X171261Y340021D01*
X170918Y340250D01*
Y340852D01*
X171261Y341081D01*
X171681Y341710D01*
X171829Y342451D01*
Y346651D01*
X171681Y347393D01*
X171261Y348021D01*
X170633Y348441D01*
X169891Y348588D01*
X169321D01*
Y351362D01*
X172531D01*
Y354573D01*
X178474D01*
X178682Y354073D01*
D02*
G37*
G36*
X270124Y383225D02*
Y381512D01*
X269078D01*
Y376362D01*
X274229D01*
Y377801D01*
X281874D01*
Y376362D01*
X287024D01*
Y377801D01*
X294669D01*
Y376362D01*
X299819D01*
Y377801D01*
X307464D01*
Y376362D01*
X312614D01*
Y377801D01*
X319275D01*
Y376362D01*
X324425D01*
Y377801D01*
X336598D01*
Y376165D01*
X336598D01*
Y375804D01*
X336598D01*
Y374168D01*
X334252D01*
X333667Y374051D01*
X333171Y373720D01*
X332580Y373129D01*
X332248Y372633D01*
X332132Y372047D01*
Y369307D01*
X330693D01*
Y367668D01*
X330123Y367555D01*
X329627Y367223D01*
X326675Y364270D01*
X326343Y363774D01*
X326226Y363189D01*
Y324452D01*
X325196Y323422D01*
X323244D01*
Y329342D01*
X315444D01*
Y324242D01*
Y320342D01*
Y316342D01*
Y311522D01*
X307039D01*
X306466Y311407D01*
X306102Y311480D01*
X305174Y311295D01*
X304388Y310770D01*
X303862Y309983D01*
X303786Y309601D01*
X303308Y309456D01*
X301726Y311037D01*
Y321217D01*
X307139Y326630D01*
X307681Y326465D01*
X307804Y325849D01*
X308330Y325062D01*
X309116Y324536D01*
X310044Y324352D01*
X310972Y324536D01*
X311758Y325062D01*
X312284Y325849D01*
X312469Y326776D01*
X312284Y327704D01*
X311758Y328491D01*
X311574Y328614D01*
Y331192D01*
X313594D01*
Y338992D01*
X291874D01*
Y340722D01*
X292293Y341085D01*
X292323Y341079D01*
X293251Y341264D01*
X294037Y341790D01*
X294563Y342576D01*
X294747Y343504D01*
X294563Y344432D01*
X294037Y345218D01*
X293251Y345744D01*
X292323Y345929D01*
X291395Y345744D01*
X290608Y345218D01*
X290120Y344488D01*
X289838Y344422D01*
X289569Y344412D01*
X289425Y344627D01*
X285467Y348585D01*
X284971Y348917D01*
X284386Y349033D01*
X271841D01*
X271256Y348917D01*
X270759Y348585D01*
X266286Y344112D01*
X255447D01*
X255240Y344612D01*
X262893Y352265D01*
X263224Y352761D01*
X263340Y353346D01*
Y365158D01*
X263224Y365743D01*
X262893Y366239D01*
X260924Y368207D01*
X260449Y368525D01*
Y370094D01*
X254117D01*
Y370094D01*
X253756D01*
Y370094D01*
X253208D01*
Y372756D01*
X253953D01*
Y373698D01*
X259276D01*
Y372756D01*
X265213D01*
Y378948D01*
X265213Y379087D01*
Y379448D01*
X265213Y379587D01*
Y385779D01*
X259276D01*
Y384403D01*
X258728D01*
X258604Y384588D01*
X257818Y385114D01*
X256890Y385299D01*
X255962Y385114D01*
X255175Y384588D01*
X254650Y383802D01*
X254465Y382874D01*
X254650Y381946D01*
X255175Y381160D01*
X255962Y380634D01*
X256890Y380450D01*
X257818Y380634D01*
X258604Y381160D01*
X258728Y381345D01*
X259276D01*
Y379587D01*
X259276Y379448D01*
Y379087D01*
X259276Y378948D01*
Y378146D01*
X253953D01*
Y378948D01*
X253953Y379087D01*
Y379448D01*
X253953Y379587D01*
Y385779D01*
X248016D01*
Y384143D01*
X236191D01*
X235541Y384990D01*
X234633Y385686D01*
X233576Y386124D01*
X232441Y386274D01*
X231306Y386124D01*
X230249Y385686D01*
X229341Y384990D01*
X228644Y384082D01*
X228206Y383024D01*
X228057Y381890D01*
X228206Y380755D01*
X228644Y379698D01*
X229341Y378790D01*
X230249Y378093D01*
X230911Y377819D01*
Y372724D01*
X230786Y372672D01*
X230166Y372196D01*
X229691Y371576D01*
X229391Y370854D01*
X229289Y370079D01*
X229391Y369304D01*
X229691Y368582D01*
X230166Y367962D01*
X230786Y367486D01*
X231508Y367187D01*
X232283Y367085D01*
X233058Y367187D01*
X233781Y367486D01*
X234401Y367962D01*
X234876Y368582D01*
X235176Y369304D01*
X235278Y370079D01*
X235176Y370854D01*
X234876Y371576D01*
X234401Y372196D01*
X233970Y372526D01*
Y377819D01*
X234633Y378093D01*
X235541Y378790D01*
X236238Y379698D01*
X236676Y380755D01*
X236719Y381084D01*
X248016D01*
Y379587D01*
X248016Y379448D01*
Y379087D01*
X248016Y378948D01*
Y372756D01*
X248760D01*
Y370094D01*
X247426D01*
Y368655D01*
X247047D01*
X246462Y368539D01*
X245966Y368207D01*
X240946Y363188D01*
X240615Y362692D01*
X240498Y362106D01*
Y359931D01*
X239998Y359595D01*
X239469Y359700D01*
X238694Y359546D01*
X238189Y359209D01*
X237684Y359546D01*
X236910Y359700D01*
X236135Y359546D01*
X235630Y359209D01*
X235125Y359546D01*
X234350Y359700D01*
X233576Y359546D01*
X233071Y359209D01*
X232565Y359546D01*
X231791Y359700D01*
X231017Y359546D01*
X230512Y359209D01*
X230007Y359546D01*
X229232Y359700D01*
X228458Y359546D01*
X227953Y359209D01*
X227447Y359546D01*
X226673Y359700D01*
X225899Y359546D01*
X225394Y359209D01*
X224888Y359546D01*
X224114Y359700D01*
X223340Y359546D01*
X222835Y359209D01*
X222329Y359546D01*
X221555Y359700D01*
X220781Y359546D01*
X220125Y359108D01*
X219686Y358451D01*
X219532Y357677D01*
Y353346D01*
X219686Y352572D01*
X220125Y351916D01*
X220781Y351477D01*
X221555Y351323D01*
X222329Y351477D01*
X222835Y351815D01*
X223340Y351477D01*
X224114Y351323D01*
X224888Y351477D01*
X225394Y351815D01*
X225899Y351477D01*
X226673Y351323D01*
X227203Y351429D01*
X227703Y351093D01*
Y347539D01*
X227733Y347388D01*
X227416Y347002D01*
X220122D01*
X217081Y350043D01*
Y356299D01*
X216964Y356885D01*
X216633Y357381D01*
X214714Y359300D01*
X214878Y359842D01*
X215495Y359965D01*
X216281Y360490D01*
X216807Y361277D01*
X216991Y362205D01*
X216807Y363133D01*
X216281Y363919D01*
X215495Y364445D01*
X214567Y364629D01*
X213639Y364445D01*
X212853Y363919D01*
X212327Y363133D01*
X212142Y362205D01*
X212186Y361986D01*
X211374Y361175D01*
X210646D01*
Y362811D01*
X206178D01*
X205987Y363273D01*
X215200Y372486D01*
X220472D01*
X221058Y372603D01*
X221554Y372934D01*
X223522Y374903D01*
X223854Y375399D01*
X223970Y375984D01*
Y377819D01*
X224633Y378093D01*
X225541Y378790D01*
X226238Y379698D01*
X226676Y380755D01*
X226825Y381890D01*
X226676Y383024D01*
X226238Y384082D01*
X225541Y384990D01*
X224633Y385686D01*
X223576Y386124D01*
X222441Y386274D01*
X221306Y386124D01*
X220249Y385686D01*
X219341Y384990D01*
X218644Y384082D01*
X218206Y383024D01*
X218057Y381890D01*
X218206Y380755D01*
X218644Y379698D01*
X219341Y378790D01*
X220249Y378093D01*
X220912Y377819D01*
Y376618D01*
X219839Y375545D01*
X214567D01*
X214418Y375516D01*
X214182Y375679D01*
X213972Y375929D01*
X213970Y375936D01*
Y377819D01*
X214633Y378093D01*
X215541Y378790D01*
X216238Y379698D01*
X216675Y380755D01*
X216825Y381890D01*
X216675Y383024D01*
X216238Y384082D01*
X215541Y384990D01*
X214633Y385686D01*
X213576Y386124D01*
X212441Y386274D01*
X211306Y386124D01*
X210249Y385686D01*
X209341Y384990D01*
X208644Y384082D01*
X208206Y383024D01*
X208057Y381890D01*
X208206Y380755D01*
X208644Y379698D01*
X209341Y378790D01*
X210249Y378093D01*
X210911Y377819D01*
Y376460D01*
X199706Y365255D01*
X199374Y364758D01*
X199258Y364173D01*
Y357917D01*
X196382Y355041D01*
X195882Y355248D01*
Y356449D01*
X195882D01*
Y356810D01*
X195882D01*
Y360782D01*
X197932Y362831D01*
X198263Y363328D01*
X198380Y363913D01*
Y368461D01*
X203522Y373604D01*
X203854Y374100D01*
X203970Y374685D01*
Y377543D01*
X206787D01*
Y386236D01*
X198094D01*
Y377543D01*
X200912D01*
Y375319D01*
X195769Y370176D01*
X195437Y369680D01*
X195321Y369094D01*
Y364546D01*
X193916Y363141D01*
X189945D01*
Y361505D01*
X188194D01*
X187987Y362005D01*
X193011Y367029D01*
X193342Y367525D01*
X193458Y368110D01*
Y383225D01*
X197484Y387250D01*
X266099D01*
X270124Y383225D01*
D02*
G37*
G36*
X366974Y381299D02*
Y379504D01*
X366126D01*
Y376402D01*
Y373576D01*
X365505D01*
X365429Y373959D01*
X364903Y374746D01*
X364117Y375272D01*
X363189Y375456D01*
X362261Y375272D01*
X361475Y374746D01*
X360949Y373959D01*
X360764Y373031D01*
X360949Y372104D01*
X361041Y371966D01*
X360805Y371525D01*
X349326D01*
X348741Y371409D01*
X348245Y371077D01*
X346475Y369307D01*
X342967D01*
X342535Y369473D01*
X342535Y369794D01*
Y375804D01*
X342535D01*
Y376165D01*
X342535D01*
Y380136D01*
X343744Y381345D01*
X366937D01*
X366974Y381299D01*
D02*
G37*
G36*
X266547Y338591D02*
X262698Y334743D01*
X262367Y334247D01*
X262250Y333661D01*
Y327405D01*
X255808Y320963D01*
X255477Y320467D01*
X255360Y319882D01*
Y316407D01*
X254860Y316200D01*
X251234Y319826D01*
Y323140D01*
X251734Y323476D01*
X252264Y323371D01*
X253038Y323525D01*
X253543Y323862D01*
X254049Y323525D01*
X254823Y323371D01*
X255597Y323525D01*
X256253Y323963D01*
X256692Y324620D01*
X256846Y325394D01*
Y329724D01*
X256692Y330499D01*
X256253Y331155D01*
X255597Y331593D01*
X254823Y331748D01*
X254049Y331593D01*
X253543Y331256D01*
X253038Y331593D01*
X252264Y331748D01*
X251490Y331593D01*
X250984Y331256D01*
X250479Y331593D01*
X249705Y331748D01*
X249175Y331642D01*
X248675Y331978D01*
Y334547D01*
X248559Y335133D01*
X248227Y335629D01*
X245264Y338591D01*
X245456Y339053D01*
X266355D01*
X266547Y338591D01*
D02*
G37*
G36*
X235380Y323140D02*
Y318209D01*
X235496Y317623D01*
X235828Y317127D01*
X240060Y312895D01*
X240557Y312563D01*
X241142Y312447D01*
X243461D01*
X244407Y311501D01*
X244215Y311039D01*
X243291D01*
Y311039D01*
X242930D01*
Y311039D01*
X236599D01*
X236599Y311039D01*
Y311039D01*
X236187Y311251D01*
X230762Y316677D01*
Y318493D01*
X231203Y318728D01*
X231356Y318626D01*
X232283Y318442D01*
X233211Y318626D01*
X233998Y319152D01*
X234523Y319938D01*
X234708Y320866D01*
X234523Y321794D01*
X233998Y322581D01*
X233691Y322786D01*
X233690Y323007D01*
X234183Y323404D01*
X234350Y323371D01*
X234880Y323476D01*
X235380Y323140D01*
D02*
G37*
G36*
X342504Y369307D02*
X342504Y368986D01*
Y362976D01*
X342504D01*
Y362615D01*
X342504D01*
Y360979D01*
X336630D01*
Y362615D01*
X336630D01*
Y362976D01*
X336630D01*
Y368986D01*
X336630Y369307D01*
X337061Y369473D01*
X342073D01*
X342504Y369307D01*
D02*
G37*
G36*
X243812Y323525D02*
X244587Y323371D01*
X245361Y323525D01*
X245866Y323862D01*
X246372Y323525D01*
X247146Y323371D01*
X247675Y323476D01*
X248175Y323140D01*
Y319193D01*
X248292Y318608D01*
X248623Y318111D01*
X252408Y314327D01*
Y306102D01*
X252524Y305517D01*
X252564Y305457D01*
X252497Y305118D01*
X252681Y304190D01*
X253207Y303404D01*
X253993Y302878D01*
X254921Y302694D01*
X255139Y302737D01*
X255693Y302184D01*
X255502Y301722D01*
X251623D01*
X250413Y302931D01*
X250456Y303150D01*
X250272Y304077D01*
X249856Y304699D01*
X249622Y305102D01*
Y311039D01*
X247986D01*
Y311615D01*
X247869Y312200D01*
X247538Y312696D01*
X245176Y315058D01*
X244680Y315389D01*
X244094Y315506D01*
X241775D01*
X238439Y318842D01*
Y323140D01*
X238939Y323476D01*
X239469Y323371D01*
X240243Y323525D01*
X240748Y323862D01*
X241253Y323525D01*
X242028Y323371D01*
X242802Y323525D01*
X243307Y323862D01*
X243812Y323525D01*
D02*
G37*
%LPC*%
G36*
X428125Y291823D02*
X425697D01*
Y289394D01*
X425972Y289431D01*
X426694Y289730D01*
X427314Y290206D01*
X427790Y290826D01*
X428089Y291548D01*
X428125Y291823D01*
D02*
G37*
G36*
X424071Y305330D02*
Y305330D01*
X421602D01*
Y297638D01*
Y289945D01*
X423420D01*
X423700Y289730D01*
X424422Y289431D01*
X424697Y289394D01*
Y292323D01*
X425197D01*
Y292823D01*
X428125D01*
X428089Y293098D01*
X427790Y293820D01*
X427314Y294440D01*
X427192Y294533D01*
Y295034D01*
X427314Y295127D01*
X427790Y295747D01*
X428089Y296469D01*
X428125Y296744D01*
X425197D01*
Y297744D01*
X428125D01*
X428089Y298019D01*
X427790Y298741D01*
X427314Y299361D01*
X427192Y299455D01*
Y299955D01*
X427314Y300048D01*
X427790Y300668D01*
X428089Y301390D01*
X428125Y301665D01*
X425197D01*
Y302165D01*
X424697D01*
Y305094D01*
X424571Y305077D01*
X424071Y305330D01*
D02*
G37*
G36*
X420602Y305330D02*
X418134D01*
Y305113D01*
X417634Y304842D01*
X417113Y305058D01*
X416839Y305094D01*
Y302165D01*
X416339D01*
Y301665D01*
X413410D01*
X413447Y301390D01*
X413746Y300668D01*
X414221Y300048D01*
X414343Y299955D01*
Y299455D01*
X414221Y299361D01*
X413746Y298741D01*
X413447Y298019D01*
X413410Y297744D01*
X416339D01*
Y296744D01*
X413410D01*
X413447Y296469D01*
X413746Y295747D01*
X414221Y295127D01*
X414343Y295034D01*
Y294533D01*
X414221Y294440D01*
X413746Y293820D01*
X413447Y293098D01*
X413410Y292823D01*
X416339D01*
Y292323D01*
X416839D01*
Y289394D01*
X417113Y289431D01*
X417592Y289629D01*
X417739Y289690D01*
X417739Y289690D01*
X417836Y289730D01*
X418018Y289870D01*
X418018Y289870D01*
X418474Y289945D01*
X420602D01*
Y297638D01*
Y305330D01*
D02*
G37*
G36*
X425697Y305094D02*
Y302665D01*
X428125D01*
X428089Y302940D01*
X427790Y303662D01*
X427314Y304282D01*
X426694Y304758D01*
X425972Y305058D01*
X425697Y305094D01*
D02*
G37*
G36*
X415839D02*
X415564Y305058D01*
X414842Y304758D01*
X414221Y304282D01*
X413746Y303662D01*
X413447Y302940D01*
X413410Y302665D01*
X415839D01*
Y305094D01*
D02*
G37*
G36*
Y291823D02*
X413410D01*
X413447Y291548D01*
X413746Y290826D01*
X414221Y290206D01*
X414842Y289730D01*
X415564Y289431D01*
X415839Y289394D01*
Y291823D01*
D02*
G37*
G36*
X351331Y276130D02*
X347331D01*
Y270130D01*
X351331D01*
Y276130D01*
D02*
G37*
G36*
X346331D02*
X342331D01*
Y270130D01*
X346331D01*
Y276130D01*
D02*
G37*
G36*
X366331D02*
X362331D01*
Y270130D01*
X366331D01*
Y276130D01*
D02*
G37*
G36*
X361331D02*
X357331D01*
Y270130D01*
X361331D01*
Y276130D01*
D02*
G37*
G36*
X356331D02*
X352331D01*
Y270130D01*
X356331D01*
Y276130D01*
D02*
G37*
G36*
X371331D02*
X367331D01*
Y270130D01*
X371331D01*
Y276130D01*
D02*
G37*
G36*
X451272Y232259D02*
X450997Y232223D01*
X450944Y232201D01*
X444594D01*
Y223425D01*
Y214650D01*
X450944D01*
X450997Y214628D01*
X451272Y214591D01*
Y217520D01*
X451772D01*
Y218020D01*
X454740D01*
Y222925D01*
X451772D01*
Y223925D01*
X454740D01*
Y228831D01*
X451772D01*
Y229331D01*
X451272D01*
Y232259D01*
D02*
G37*
G36*
X454740Y217020D02*
X452272D01*
Y214591D01*
X452547Y214628D01*
X452600Y214650D01*
X454740D01*
Y217020D01*
D02*
G37*
G36*
X452272Y232259D02*
Y229831D01*
X454740D01*
Y232201D01*
X452600D01*
X452547Y232223D01*
X452272Y232259D01*
D02*
G37*
G36*
X443398Y235720D02*
X440969D01*
X441006Y235445D01*
X441305Y234723D01*
X441781Y234103D01*
X442401Y233628D01*
X443123Y233328D01*
X443398Y233292D01*
Y235720D01*
D02*
G37*
G36*
X470784Y264287D02*
X467035D01*
Y259555D01*
X470784D01*
Y264287D01*
D02*
G37*
G36*
X483752D02*
X480004D01*
Y259555D01*
X483752D01*
Y264287D01*
D02*
G37*
G36*
X466036D02*
X462287D01*
Y259555D01*
X466036D01*
Y264287D01*
D02*
G37*
G36*
X475894Y261787D02*
Y259358D01*
X478322D01*
X478286Y259633D01*
X477987Y260355D01*
X477511Y260975D01*
X476891Y261451D01*
X476169Y261750D01*
X475894Y261787D01*
D02*
G37*
G36*
X466036Y258555D02*
X462287D01*
Y253823D01*
X466036D01*
Y258555D01*
D02*
G37*
G36*
X470784D02*
X467035D01*
Y253823D01*
X470784D01*
Y258555D01*
D02*
G37*
G36*
X488500D02*
X484752D01*
Y253823D01*
X488500D01*
Y258555D01*
D02*
G37*
G36*
X483752D02*
X480004D01*
Y253823D01*
X483752D01*
Y258555D01*
D02*
G37*
G36*
X446826Y235720D02*
X444398D01*
Y233292D01*
X444673Y233328D01*
X445395Y233628D01*
X446015Y234103D01*
X446491Y234723D01*
X446790Y235445D01*
X446826Y235720D01*
D02*
G37*
G36*
X404543Y247138D02*
X402075D01*
Y244473D01*
X404543D01*
Y247138D01*
D02*
G37*
G36*
X430602Y277771D02*
X416716D01*
Y258373D01*
X430602D01*
Y277771D01*
D02*
G37*
G36*
X478322Y258358D02*
X475894D01*
Y255930D01*
X476169Y255966D01*
X476891Y256265D01*
X477511Y256741D01*
X477987Y257361D01*
X478286Y258083D01*
X478322Y258358D01*
D02*
G37*
G36*
X474894D02*
X472465D01*
X472502Y258083D01*
X472801Y257361D01*
X473277Y256741D01*
X473897Y256265D01*
X474619Y255966D01*
X474894Y255930D01*
Y258358D01*
D02*
G37*
G36*
X448335Y260802D02*
Y258374D01*
X450763D01*
X450727Y258649D01*
X450428Y259371D01*
X449952Y259991D01*
X449332Y260467D01*
X448610Y260766D01*
X448335Y260802D01*
D02*
G37*
G36*
X474894Y261787D02*
X474619Y261750D01*
X473897Y261451D01*
X473277Y260975D01*
X472801Y260355D01*
X472502Y259633D01*
X472465Y259358D01*
X474894D01*
Y261787D01*
D02*
G37*
G36*
X456209Y260802D02*
Y258374D01*
X458637D01*
X458601Y258649D01*
X458302Y259371D01*
X457826Y259991D01*
X457206Y260467D01*
X456484Y260766D01*
X456209Y260802D01*
D02*
G37*
G36*
X455209D02*
X454934Y260766D01*
X454212Y260467D01*
X453591Y259991D01*
X453116Y259371D01*
X452817Y258649D01*
X452780Y258374D01*
X455209D01*
Y260802D01*
D02*
G37*
G36*
X445488Y277771D02*
X431602D01*
Y257874D01*
Y237976D01*
X440910D01*
X441205Y237476D01*
X441006Y236995D01*
X440969Y236720D01*
X446826D01*
X446790Y236995D01*
X446491Y237718D01*
X446015Y238338D01*
X445488Y238742D01*
Y255302D01*
X445988Y255549D01*
X446338Y255281D01*
X447060Y254982D01*
X447335Y254946D01*
Y257874D01*
Y260802D01*
X447060Y260766D01*
X446338Y260467D01*
X445988Y260199D01*
X445488Y260446D01*
Y277771D01*
D02*
G37*
G36*
X458637Y257374D02*
X456209D01*
Y254946D01*
X456484Y254982D01*
X457206Y255281D01*
X457826Y255757D01*
X458302Y256377D01*
X458601Y257099D01*
X458637Y257374D01*
D02*
G37*
G36*
X455209D02*
X452780D01*
X452817Y257099D01*
X453116Y256377D01*
X453591Y255757D01*
X454212Y255281D01*
X454934Y254982D01*
X455209Y254946D01*
Y257374D01*
D02*
G37*
G36*
X450763D02*
X448335D01*
Y254946D01*
X448610Y254982D01*
X449332Y255281D01*
X449952Y255757D01*
X450428Y256377D01*
X450727Y257099D01*
X450763Y257374D01*
D02*
G37*
G36*
X302665Y218491D02*
Y216063D01*
X305094D01*
X305058Y216338D01*
X304758Y217060D01*
X304282Y217680D01*
X303662Y218156D01*
X302940Y218455D01*
X302665Y218491D01*
D02*
G37*
G36*
X296276Y216157D02*
X293807D01*
Y213492D01*
X296276D01*
Y216157D01*
D02*
G37*
G36*
X292807D02*
X290339D01*
Y213492D01*
X292807D01*
Y216157D01*
D02*
G37*
G36*
X301665Y218491D02*
X301390Y218455D01*
X300668Y218156D01*
X300048Y217680D01*
X299572Y217060D01*
X299273Y216338D01*
X299237Y216063D01*
X301665D01*
Y218491D01*
D02*
G37*
G36*
X305094Y215063D02*
X302665D01*
Y212635D01*
X302940Y212671D01*
X303662Y212970D01*
X304282Y213446D01*
X304758Y214066D01*
X305058Y214788D01*
X305094Y215063D01*
D02*
G37*
G36*
X301665D02*
X299237D01*
X299273Y214788D01*
X299572Y214066D01*
X300048Y213446D01*
X300668Y212970D01*
X301390Y212671D01*
X301665Y212635D01*
Y215063D01*
D02*
G37*
G36*
X237689Y215920D02*
X237414Y215884D01*
X236692Y215585D01*
X236072Y215109D01*
X235596Y214489D01*
X235297Y213767D01*
X235261Y213492D01*
X237689D01*
Y215920D01*
D02*
G37*
G36*
X261311Y216157D02*
X258842D01*
Y213492D01*
X261311D01*
Y216157D01*
D02*
G37*
G36*
X245563D02*
X243094D01*
Y213492D01*
X245563D01*
Y216157D01*
D02*
G37*
G36*
X229815D02*
X227346D01*
Y213492D01*
X229815D01*
Y216157D01*
D02*
G37*
G36*
X264779D02*
X262311D01*
Y213492D01*
X264779D01*
Y216157D01*
D02*
G37*
G36*
X249031D02*
X246563D01*
Y213492D01*
X249031D01*
Y216157D01*
D02*
G37*
G36*
X280528D02*
X278059D01*
Y213492D01*
X280528D01*
Y216157D01*
D02*
G37*
G36*
X233283D02*
X230815D01*
Y213492D01*
X233283D01*
Y216157D01*
D02*
G37*
G36*
X277059D02*
X274591D01*
Y213492D01*
X277059D01*
Y216157D01*
D02*
G37*
G36*
X285933Y215920D02*
Y213492D01*
X288361D01*
X288325Y213767D01*
X288026Y214489D01*
X287550Y215109D01*
X286930Y215585D01*
X286208Y215884D01*
X285933Y215920D01*
D02*
G37*
G36*
X254437D02*
Y213492D01*
X256865D01*
X256829Y213767D01*
X256530Y214489D01*
X256054Y215109D01*
X255434Y215585D01*
X254712Y215884D01*
X254437Y215920D01*
D02*
G37*
G36*
X253437D02*
X253162Y215884D01*
X252440Y215585D01*
X251820Y215109D01*
X251344Y214489D01*
X251045Y213767D01*
X251009Y213492D01*
X253437D01*
Y215920D01*
D02*
G37*
G36*
X238689D02*
Y213492D01*
X241117D01*
X241081Y213767D01*
X240782Y214489D01*
X240306Y215109D01*
X239686Y215585D01*
X238964Y215884D01*
X238689Y215920D01*
D02*
G37*
G36*
X284933D02*
X284658Y215884D01*
X283936Y215585D01*
X283316Y215109D01*
X282840Y214489D01*
X282541Y213767D01*
X282505Y213492D01*
X284933D01*
Y215920D01*
D02*
G37*
G36*
X270185D02*
Y213492D01*
X272613D01*
X272577Y213767D01*
X272278Y214489D01*
X271802Y215109D01*
X271182Y215585D01*
X270460Y215884D01*
X270185Y215920D01*
D02*
G37*
G36*
X269185D02*
X268910Y215884D01*
X268188Y215585D01*
X267568Y215109D01*
X267092Y214489D01*
X266793Y213767D01*
X266757Y213492D01*
X269185D01*
Y215920D01*
D02*
G37*
G36*
X587024Y265075D02*
X577468D01*
Y260343D01*
X587024D01*
Y265075D01*
D02*
G37*
G36*
X576469D02*
X566913D01*
Y260343D01*
X576469D01*
Y265075D01*
D02*
G37*
G36*
X587024Y259343D02*
X577468D01*
Y254610D01*
X587024D01*
Y259343D01*
D02*
G37*
G36*
X576469D02*
X566913D01*
Y254610D01*
X576469D01*
Y259343D01*
D02*
G37*
G36*
X547069Y237483D02*
Y222994D01*
X554608D01*
Y229494D01*
X554453Y231062D01*
X553996Y232570D01*
X553253Y233960D01*
X552253Y235178D01*
X551035Y236178D01*
X549645Y236920D01*
X548137Y237378D01*
X547069Y237483D01*
D02*
G37*
G36*
X533949Y228322D02*
X533674Y228286D01*
X532952Y227987D01*
X532332Y227511D01*
X531856Y226891D01*
X531557Y226169D01*
X531521Y225894D01*
X533949D01*
Y228322D01*
D02*
G37*
G36*
X534949D02*
Y225894D01*
X537377D01*
X537341Y226169D01*
X537042Y226891D01*
X536566Y227511D01*
X535946Y227987D01*
X535224Y228286D01*
X534949Y228322D01*
D02*
G37*
G36*
X537377Y224894D02*
X531521D01*
X531557Y224619D01*
X531856Y223897D01*
X532332Y223276D01*
X532952Y222801D01*
X533674Y222502D01*
X534088Y222447D01*
Y221943D01*
X533674Y221888D01*
X532952Y221589D01*
X532332Y221113D01*
X531856Y220493D01*
X531557Y219771D01*
X531521Y219496D01*
X537377D01*
X537341Y219771D01*
X537042Y220493D01*
X536566Y221113D01*
X535946Y221589D01*
X535224Y221888D01*
X534809Y221943D01*
Y222447D01*
X535224Y222502D01*
X535946Y222801D01*
X536566Y223276D01*
X537042Y223897D01*
X537341Y224619D01*
X537377Y224894D01*
D02*
G37*
G36*
X519185Y229937D02*
X510910D01*
Y219791D01*
X519185D01*
Y229937D01*
D02*
G37*
G36*
X546069Y237483D02*
X545001Y237378D01*
X543493Y236920D01*
X542103Y236178D01*
X540885Y235178D01*
X539885Y233960D01*
X539142Y232570D01*
X538685Y231062D01*
X538530Y229494D01*
Y222994D01*
X546069D01*
Y237483D01*
D02*
G37*
G36*
X528461Y229937D02*
X520185D01*
Y219791D01*
X528461D01*
Y229937D01*
D02*
G37*
G36*
X537377Y218496D02*
X531521D01*
X531557Y218221D01*
X531856Y217499D01*
X532332Y216879D01*
X532952Y216403D01*
X533674Y216104D01*
X534088Y216049D01*
Y215545D01*
X533674Y215491D01*
X532952Y215191D01*
X532332Y214716D01*
X531856Y214095D01*
X531557Y213373D01*
X531521Y213098D01*
X537377D01*
X537341Y213373D01*
X537042Y214095D01*
X536566Y214716D01*
X535946Y215191D01*
X535224Y215491D01*
X534809Y215545D01*
Y216049D01*
X535224Y216104D01*
X535946Y216403D01*
X536566Y216879D01*
X537042Y217499D01*
X537341Y218221D01*
X537377Y218496D01*
D02*
G37*
G36*
X519185Y218791D02*
X510910D01*
Y208646D01*
X519185D01*
Y218791D01*
D02*
G37*
G36*
X546069Y221994D02*
X538530D01*
Y215494D01*
X538685Y213925D01*
X539142Y212417D01*
X539885Y211028D01*
X540885Y209809D01*
X542103Y208810D01*
X543493Y208067D01*
X545001Y207610D01*
X546069Y207504D01*
Y221994D01*
D02*
G37*
G36*
X554608D02*
X547069D01*
Y207504D01*
X548137Y207610D01*
X549645Y208067D01*
X551035Y208810D01*
X552253Y209809D01*
X553253Y211028D01*
X553996Y212417D01*
X554453Y213925D01*
X554608Y215494D01*
Y221994D01*
D02*
G37*
G36*
X537377Y212098D02*
X534949D01*
Y209670D01*
X535224Y209706D01*
X535946Y210005D01*
X536566Y210481D01*
X537042Y211101D01*
X537341Y211824D01*
X537377Y212098D01*
D02*
G37*
G36*
X533949D02*
X531521D01*
X531557Y211824D01*
X531856Y211101D01*
X532332Y210481D01*
X532952Y210005D01*
X533674Y209706D01*
X533949Y209670D01*
Y212098D01*
D02*
G37*
G36*
X528461Y218791D02*
X520185D01*
Y208646D01*
X528461D01*
Y218791D01*
D02*
G37*
G36*
X240000Y252927D02*
X238865Y252778D01*
X237808Y252340D01*
X236900Y251643D01*
X236203Y250735D01*
X235765Y249678D01*
X235616Y248543D01*
X235765Y247409D01*
X236203Y246351D01*
X236900Y245443D01*
X237808Y244747D01*
X238865Y244309D01*
X240000Y244159D01*
X241135Y244309D01*
X242192Y244747D01*
X243100Y245443D01*
X243797Y246351D01*
X244235Y247409D01*
X244384Y248543D01*
X244235Y249678D01*
X243797Y250735D01*
X243100Y251643D01*
X242192Y252340D01*
X241135Y252778D01*
X240000Y252927D01*
D02*
G37*
G36*
X514161Y270996D02*
X510343D01*
Y267178D01*
X510977Y267262D01*
X512035Y267699D01*
X512943Y268396D01*
X513639Y269304D01*
X514077Y270361D01*
X514161Y270996D01*
D02*
G37*
G36*
X509342D02*
X505524D01*
X505608Y270361D01*
X506046Y269304D01*
X506743Y268396D01*
X507651Y267699D01*
X508708Y267262D01*
X509342Y267178D01*
Y270996D01*
D02*
G37*
G36*
X483752Y273909D02*
X480004D01*
Y269177D01*
X483752D01*
Y273909D01*
D02*
G37*
G36*
X488500D02*
X484752D01*
Y269177D01*
X488500D01*
Y273909D01*
D02*
G37*
G36*
X540642Y265075D02*
X531087D01*
Y260343D01*
X540642D01*
Y265075D01*
D02*
G37*
G36*
X551197D02*
X541642D01*
Y260343D01*
X551197D01*
Y265075D01*
D02*
G37*
G36*
X484858Y292807D02*
X482193D01*
Y290339D01*
X484858D01*
Y292807D01*
D02*
G37*
G36*
Y296276D02*
X482193D01*
Y293807D01*
X484858D01*
Y296276D01*
D02*
G37*
G36*
X488500Y279642D02*
X484752D01*
Y274909D01*
X488500D01*
Y279642D01*
D02*
G37*
G36*
X483752D02*
X480004D01*
Y274909D01*
X483752D01*
Y279642D01*
D02*
G37*
G36*
X540642Y259343D02*
X531087D01*
Y254610D01*
X540642D01*
Y259343D01*
D02*
G37*
G36*
X528461Y253953D02*
X520185D01*
Y243807D01*
X528461D01*
Y253953D01*
D02*
G37*
G36*
X519185D02*
X510910D01*
Y243807D01*
X519185D01*
Y253953D01*
D02*
G37*
G36*
X551197Y259343D02*
X541642D01*
Y254610D01*
X551197D01*
Y259343D01*
D02*
G37*
G36*
X405996Y218479D02*
X405721Y218443D01*
X404999Y218144D01*
X404379Y217668D01*
X403903Y217048D01*
X403604Y216326D01*
X403568Y216051D01*
X405996D01*
Y218479D01*
D02*
G37*
G36*
X413886Y232259D02*
Y229331D01*
X412886D01*
Y232259D01*
X412611Y232223D01*
X412558Y232201D01*
X409433D01*
Y223925D01*
X419579D01*
Y232201D01*
X414214D01*
X414161Y232223D01*
X413886Y232259D01*
D02*
G37*
G36*
X419579Y222925D02*
X409433D01*
Y217421D01*
X408933Y217251D01*
X408613Y217668D01*
X407993Y218144D01*
X407271Y218443D01*
X406996Y218479D01*
Y215551D01*
Y212623D01*
X407271Y212659D01*
X407993Y212958D01*
X408613Y213434D01*
X409089Y214054D01*
X409173Y214257D01*
X409433Y214650D01*
X412558D01*
X412611Y214628D01*
X412886Y214591D01*
Y217520D01*
X413886D01*
Y214591D01*
X414161Y214628D01*
X414214Y214650D01*
X419579D01*
Y222925D01*
D02*
G37*
G36*
X405996Y215051D02*
X403568D01*
X403604Y214776D01*
X403903Y214054D01*
X404379Y213434D01*
X404999Y212958D01*
X405721Y212659D01*
X405996Y212623D01*
Y215051D01*
D02*
G37*
G36*
X324425Y375606D02*
X319275D01*
Y370456D01*
X320321D01*
Y369307D01*
X318882D01*
Y363115D01*
X318882Y362976D01*
Y362615D01*
X318882Y362476D01*
Y356284D01*
X320321D01*
Y355185D01*
X320136Y355061D01*
X319610Y354274D01*
X319426Y353346D01*
X319610Y352419D01*
X320136Y351632D01*
X320923Y351107D01*
X321850Y350922D01*
X322778Y351107D01*
X323565Y351632D01*
X324090Y352419D01*
X324275Y353346D01*
X324090Y354274D01*
X323565Y355061D01*
X323380Y355185D01*
Y356284D01*
X324819D01*
Y362476D01*
X324819Y362615D01*
Y362976D01*
X324819Y363115D01*
Y369307D01*
X323380D01*
Y370456D01*
X324425D01*
Y375606D01*
D02*
G37*
G36*
X274229D02*
X269078D01*
Y370456D01*
X270124D01*
Y369307D01*
X268685D01*
Y363115D01*
X268685Y362976D01*
Y362615D01*
X268685Y362476D01*
Y356284D01*
X269498D01*
X269765Y355784D01*
X269414Y355258D01*
X269229Y354331D01*
X269414Y353403D01*
X269939Y352616D01*
X270726Y352091D01*
X271654Y351906D01*
X272581Y352091D01*
X273368Y352616D01*
X273893Y353403D01*
X274078Y354331D01*
X273893Y355258D01*
X273542Y355784D01*
X273810Y356284D01*
X274622D01*
Y362476D01*
X274622Y362615D01*
Y362976D01*
X274622Y363115D01*
Y369307D01*
X273183D01*
Y370456D01*
X274229D01*
Y375606D01*
D02*
G37*
G36*
X287024D02*
X281874D01*
Y370456D01*
X282919D01*
Y369307D01*
X281480D01*
Y363115D01*
X281480Y362976D01*
Y362615D01*
X281480Y362476D01*
Y356284D01*
X282293D01*
X282560Y355784D01*
X282209Y355258D01*
X282024Y354331D01*
X282209Y353403D01*
X282734Y352616D01*
X283521Y352091D01*
X284449Y351906D01*
X285377Y352091D01*
X286163Y352616D01*
X286689Y353403D01*
X286873Y354331D01*
X286689Y355258D01*
X286338Y355784D01*
X286605Y356284D01*
X287417D01*
Y362476D01*
X287417Y362615D01*
Y362976D01*
X287417Y363115D01*
Y369307D01*
X285978D01*
Y370456D01*
X287024D01*
Y375606D01*
D02*
G37*
G36*
X299819Y375606D02*
X294669D01*
Y370456D01*
X295715D01*
Y369307D01*
X294276D01*
Y363115D01*
X294276Y362976D01*
Y362615D01*
X294276Y362476D01*
Y356284D01*
X295088D01*
X295355Y355784D01*
X295004Y355258D01*
X294819Y354331D01*
X295004Y353403D01*
X295530Y352616D01*
X296316Y352091D01*
X297244Y351906D01*
X298172Y352091D01*
X298958Y352616D01*
X299484Y353403D01*
X299669Y354331D01*
X299484Y355258D01*
X299133Y355784D01*
X299400Y356284D01*
X300213D01*
Y362476D01*
X300213Y362615D01*
Y362976D01*
X300213Y363115D01*
Y369307D01*
X298774D01*
Y370456D01*
X299819D01*
Y375606D01*
D02*
G37*
G36*
X312614D02*
X307464D01*
Y370456D01*
X308510D01*
Y369307D01*
X307071D01*
Y363115D01*
X307071Y362976D01*
Y362615D01*
X307071Y362476D01*
Y356284D01*
X307883D01*
X308151Y355784D01*
X307799Y355258D01*
X307615Y354331D01*
X307799Y353403D01*
X308325Y352616D01*
X309111Y352091D01*
X310039Y351906D01*
X310967Y352091D01*
X311754Y352616D01*
X312279Y353403D01*
X312464Y354331D01*
X312279Y355258D01*
X311928Y355784D01*
X312195Y356284D01*
X313008D01*
Y362476D01*
X313008Y362615D01*
Y362976D01*
X313008Y363115D01*
Y369307D01*
X311569D01*
Y370456D01*
X312614D01*
Y375606D01*
D02*
G37*
%LPD*%
D10*
X301574Y264272D02*
D03*
X294882D02*
D03*
X246456Y308071D02*
D03*
X239764D02*
D03*
X461221Y311024D02*
D03*
X467913D02*
D03*
X475000Y293307D02*
D03*
X481693D02*
D03*
X414961Y325787D02*
D03*
X421653D02*
D03*
X205118Y236221D02*
D03*
X198426D02*
D03*
X204133Y264764D02*
D03*
X197441D02*
D03*
X390355Y372047D02*
D03*
X397047D02*
D03*
X390355Y382874D02*
D03*
X397047D02*
D03*
X398622Y289370D02*
D03*
X391930D02*
D03*
Y302165D02*
D03*
X398622D02*
D03*
X357677Y289370D02*
D03*
X350985D02*
D03*
X257283Y367126D02*
D03*
X250591D02*
D03*
X209055Y342520D02*
D03*
X202363D02*
D03*
X301574Y254921D02*
D03*
X294882D02*
D03*
X301574Y273622D02*
D03*
X294882D02*
D03*
X209055Y331693D02*
D03*
X202363D02*
D03*
X466929Y285433D02*
D03*
X460237D02*
D03*
D11*
X192913Y353284D02*
D03*
Y359976D02*
D03*
X207677Y352953D02*
D03*
Y359645D02*
D03*
X224410Y308464D02*
D03*
Y301772D02*
D03*
X246063Y206300D02*
D03*
Y212992D02*
D03*
X261811Y206300D02*
D03*
Y212992D02*
D03*
X277559Y206300D02*
D03*
Y212992D02*
D03*
X293307Y206300D02*
D03*
Y212992D02*
D03*
X387795Y263386D02*
D03*
Y270078D02*
D03*
X380906Y313583D02*
D03*
Y320275D02*
D03*
X367126Y313583D02*
D03*
Y320275D02*
D03*
X339567Y379330D02*
D03*
Y372638D02*
D03*
X380906Y342126D02*
D03*
Y348818D02*
D03*
X230315Y206300D02*
D03*
Y212992D02*
D03*
X203992Y308464D02*
D03*
Y301772D02*
D03*
X213583D02*
D03*
Y308464D02*
D03*
X310039Y225985D02*
D03*
Y232677D02*
D03*
X271654Y366142D02*
D03*
Y359450D02*
D03*
X284449Y366142D02*
D03*
Y359450D02*
D03*
X297244Y366142D02*
D03*
Y359450D02*
D03*
X310039Y366142D02*
D03*
Y359450D02*
D03*
X321850Y366142D02*
D03*
Y359450D02*
D03*
X250984Y375922D02*
D03*
Y382614D02*
D03*
X262244Y375922D02*
D03*
Y382614D02*
D03*
X520669Y360827D02*
D03*
Y367519D02*
D03*
X539370Y360827D02*
D03*
Y367519D02*
D03*
X556102Y360827D02*
D03*
Y367519D02*
D03*
X520669Y378544D02*
D03*
Y385236D02*
D03*
X556102Y378544D02*
D03*
Y385236D02*
D03*
X366142Y342126D02*
D03*
Y348818D02*
D03*
X333661Y359450D02*
D03*
Y366142D02*
D03*
X345472D02*
D03*
Y359450D02*
D03*
X570866Y360827D02*
D03*
Y367519D02*
D03*
X531496Y288977D02*
D03*
Y295669D02*
D03*
X310039Y249409D02*
D03*
Y242717D02*
D03*
X377953Y262993D02*
D03*
Y269685D02*
D03*
X401575Y247638D02*
D03*
Y254330D02*
D03*
D12*
X339331Y250492D02*
D03*
X344331D02*
D03*
X349331D02*
D03*
X354331D02*
D03*
X359331D02*
D03*
X364331D02*
D03*
X369331D02*
D03*
Y273130D02*
D03*
X364331D02*
D03*
X359331D02*
D03*
X354331D02*
D03*
X349331D02*
D03*
X344331D02*
D03*
X339331D02*
D03*
D13*
X321850Y249016D02*
D03*
Y252953D02*
D03*
X327756D02*
D03*
Y250984D02*
D03*
Y249016D02*
D03*
D14*
X484252Y274409D02*
D03*
Y259055D02*
D03*
X466535Y274409D02*
D03*
Y259055D02*
D03*
D15*
X372047Y379528D02*
D03*
X374016D02*
D03*
X375985D02*
D03*
Y368504D02*
D03*
X374016D02*
D03*
X372047D02*
D03*
D16*
X379528Y377953D02*
D03*
Y375985D02*
D03*
Y374016D02*
D03*
Y372047D02*
D03*
Y370079D02*
D03*
X368504D02*
D03*
Y372047D02*
D03*
Y374016D02*
D03*
Y375985D02*
D03*
Y377953D02*
D03*
D17*
X326772Y271654D02*
D03*
X322835D02*
D03*
Y277559D02*
D03*
X324803D02*
D03*
X326772D02*
D03*
D18*
X473622Y330315D02*
D03*
X481102D02*
D03*
X477362Y338977D02*
D03*
X395866Y263386D02*
D03*
X403346D02*
D03*
X399606Y272047D02*
D03*
D19*
X185213Y230689D02*
D03*
X163213D02*
D03*
X185213Y245689D02*
D03*
X163213D02*
D03*
X185213Y262185D02*
D03*
X163213D02*
D03*
X185213Y277185D02*
D03*
X163213D02*
D03*
X185213Y292697D02*
D03*
X163213D02*
D03*
X185213Y307697D02*
D03*
X163213D02*
D03*
D20*
X498327Y330709D02*
D03*
D21*
X521358Y339764D02*
D03*
Y330709D02*
D03*
Y321654D02*
D03*
D22*
X539370Y384843D02*
D03*
Y378937D02*
D03*
X297244Y373031D02*
D03*
Y378937D02*
D03*
X310039Y373031D02*
D03*
Y378937D02*
D03*
X271654Y373031D02*
D03*
Y378937D02*
D03*
X284449Y373031D02*
D03*
Y378937D02*
D03*
X321850Y373031D02*
D03*
Y378937D02*
D03*
D23*
X167791Y325000D02*
D03*
Y356102D02*
D03*
D24*
Y336551D02*
D03*
Y344551D02*
D03*
D25*
X179291Y335433D02*
D03*
Y337992D02*
D03*
Y340551D02*
D03*
Y343110D02*
D03*
Y345669D02*
D03*
D26*
X519685Y243307D02*
D03*
Y219291D02*
D03*
D27*
X576968Y259842D02*
D03*
X541142D02*
D03*
D28*
X577854Y300197D02*
D03*
X548130D02*
D03*
X577854Y336614D02*
D03*
X548130D02*
D03*
D29*
X370472Y302953D02*
D03*
X373031D02*
D03*
X375590D02*
D03*
X378150D02*
D03*
Y287795D02*
D03*
X375590D02*
D03*
X373031D02*
D03*
X370472D02*
D03*
D30*
X381890Y299213D02*
D03*
Y296654D02*
D03*
Y294094D02*
D03*
Y291535D02*
D03*
X366732D02*
D03*
Y294094D02*
D03*
Y296654D02*
D03*
Y299213D02*
D03*
D31*
X459252Y366102D02*
D03*
X412795D02*
D03*
D32*
X420079Y223425D02*
D03*
X444095D02*
D03*
D33*
X221555Y327559D02*
D03*
X224114D02*
D03*
X226673D02*
D03*
X229232D02*
D03*
X231791D02*
D03*
X234350D02*
D03*
X236910D02*
D03*
X239469D02*
D03*
X242028D02*
D03*
X244587D02*
D03*
X247146D02*
D03*
X249705D02*
D03*
X252264D02*
D03*
X254823D02*
D03*
X221555Y355512D02*
D03*
X224114D02*
D03*
X226673D02*
D03*
X229232D02*
D03*
X231791D02*
D03*
X234350D02*
D03*
X236910D02*
D03*
X239469D02*
D03*
X242028D02*
D03*
X244587D02*
D03*
X247146D02*
D03*
X249705D02*
D03*
X252264D02*
D03*
X254823D02*
D03*
D34*
X319344Y298192D02*
D03*
Y300192D02*
D03*
Y302192D02*
D03*
Y304092D02*
D03*
Y306092D02*
D03*
Y308092D02*
D03*
Y309992D02*
D03*
Y311992D02*
D03*
Y313992D02*
D03*
Y315992D02*
D03*
Y317892D02*
D03*
Y319892D02*
D03*
Y321892D02*
D03*
Y323792D02*
D03*
Y325792D02*
D03*
Y327792D02*
D03*
X275144D02*
D03*
Y325792D02*
D03*
Y323792D02*
D03*
Y321892D02*
D03*
Y319892D02*
D03*
Y317892D02*
D03*
Y315992D02*
D03*
Y313992D02*
D03*
Y311992D02*
D03*
Y309992D02*
D03*
Y308092D02*
D03*
Y306092D02*
D03*
Y304092D02*
D03*
Y302192D02*
D03*
Y300192D02*
D03*
Y298192D02*
D03*
D35*
X312044Y335092D02*
D03*
X310044D02*
D03*
X308044D02*
D03*
X306144D02*
D03*
X304144D02*
D03*
X302144D02*
D03*
X300244D02*
D03*
X298244D02*
D03*
X296244D02*
D03*
X294244D02*
D03*
X292344D02*
D03*
X290344D02*
D03*
X288344D02*
D03*
X286444D02*
D03*
X284444D02*
D03*
X282444D02*
D03*
Y290892D02*
D03*
X284444D02*
D03*
X286444D02*
D03*
X288344D02*
D03*
X290344D02*
D03*
X292344D02*
D03*
X294244D02*
D03*
X296244D02*
D03*
X298244D02*
D03*
X300244D02*
D03*
X302144D02*
D03*
X304144D02*
D03*
X306144D02*
D03*
X308044D02*
D03*
X310044D02*
D03*
X312044D02*
D03*
D36*
X431102Y257874D02*
D03*
D37*
X421102Y297638D02*
D03*
X441102D02*
D03*
D38*
X272047Y379330D02*
X339567D01*
X282394Y330795D02*
Y335092D01*
X374016Y379528D02*
X375985D01*
X372949Y376067D02*
X379528D01*
X349326Y369996D02*
X368504D01*
X388287Y269586D02*
X390749Y272047D01*
X237697Y345472D02*
X239469Y347244D01*
X178150Y301181D02*
X185039Y308071D01*
X319344Y302192D02*
X325814D01*
X319344Y300192D02*
X328735D01*
X319344Y306092D02*
X325777D01*
X323840Y308092D02*
X326772Y311024D01*
X319344Y308092D02*
X323840D01*
X325814Y302192D02*
X333661Y310039D01*
Y312992D01*
X339567Y318898D01*
X342520D01*
X328735Y300192D02*
X340551Y312008D01*
X335099Y322677D02*
X349410D01*
X328772Y316349D02*
X335099Y322677D01*
X328772Y309087D02*
Y316349D01*
X325777Y306092D02*
X328772Y309087D01*
X341535Y331942D02*
Y334803D01*
X326772Y317178D02*
X341535Y331942D01*
X326772Y311024D02*
Y317178D01*
X310039Y354331D02*
X310039Y354331D01*
X310039Y354331D02*
Y359450D01*
X297244Y354331D02*
Y359450D01*
X321850Y353346D02*
X321850Y353346D01*
X321850Y353346D02*
Y359450D01*
X276575Y339567D02*
X278543D01*
X268701Y331693D02*
X276575Y339567D01*
X268701Y327756D02*
Y331693D01*
X273622Y343504D02*
X282471D01*
X272669Y345504D02*
X283299D01*
X271841Y347504D02*
X284386D01*
X263779Y333661D02*
X273622Y343504D01*
X282471D02*
X284444Y341531D01*
X267748Y340583D02*
X272669Y345504D01*
X283299D02*
X286310Y342493D01*
X266920Y342583D02*
X271841Y347504D01*
X284386D02*
X288344Y343546D01*
X262795Y321850D02*
X268701Y327756D01*
X262795Y318898D02*
Y321850D01*
Y318898D02*
X267717Y313976D01*
Y306102D02*
Y313976D01*
X261811Y305118D02*
Y313976D01*
X311024Y307087D02*
X312992D01*
X315987Y304092D01*
X319344D01*
X330709Y366142D02*
X333661D01*
X327756Y363189D02*
X330709Y366142D01*
X327756Y323819D02*
Y363189D01*
X333661Y326896D02*
Y359450D01*
X326658Y319892D02*
X333661Y326896D01*
X325829Y321892D02*
X327756Y323819D01*
X319344Y319892D02*
X326658D01*
X319344Y321892D02*
X325829D01*
X233268Y297244D02*
X244094D01*
X224410Y288386D02*
X233268Y297244D01*
X224410Y269685D02*
Y288386D01*
Y248031D02*
Y259842D01*
X212598Y236221D02*
X224410Y248031D01*
X205118Y236221D02*
X212598D01*
X306102Y309055D02*
X307039Y309992D01*
X228938Y301772D02*
X229331Y302165D01*
X224410Y301772D02*
X228938D01*
X213583D02*
X224410D01*
X307039Y309992D02*
X319344D01*
X268701Y276575D02*
Y289370D01*
X262795Y270669D02*
X268701Y276575D01*
X258858Y270669D02*
X262795D01*
X255906Y273622D02*
X258858Y270669D01*
X234252Y273622D02*
X255906D01*
X225394Y264764D02*
X234252Y273622D01*
X204133Y264764D02*
X225394D01*
X260827Y275590D02*
Y280512D01*
X257874Y283465D02*
X260827Y280512D01*
X245079Y283465D02*
X257874D01*
X240000Y288543D02*
X245079Y283465D01*
X294244Y298181D02*
X294291Y298228D01*
X294244Y290892D02*
Y298181D01*
X277523Y287365D02*
X282444D01*
Y290892D01*
X273622Y283465D02*
X277523Y287365D01*
X277559Y281496D02*
X279528Y283465D01*
X281496D01*
X284444Y286413D01*
Y290892D01*
X272721Y263697D02*
X273622Y264598D01*
X245153Y263697D02*
X272721D01*
X273622Y264598D02*
Y283465D01*
X240000Y258543D02*
X245153Y263697D01*
X248031Y290512D02*
X250000Y288543D01*
X248031Y290512D02*
Y303150D01*
X250989Y300192D01*
X246456Y304725D02*
X248031Y303150D01*
X254921Y305118D02*
X257847Y302192D01*
X253937Y306102D02*
X254921Y305118D01*
X301181Y298228D02*
Y299213D01*
Y298228D02*
X304144Y295265D01*
Y290892D02*
Y295265D01*
X290344Y341525D02*
X292323Y343504D01*
X290344Y335092D02*
Y341525D01*
X310044Y326776D02*
Y335092D01*
X289370Y326772D02*
X299213D01*
X284444Y331698D02*
X289370Y326772D01*
X284444Y331698D02*
Y335092D01*
X300197Y321850D02*
X308044Y329698D01*
Y335092D01*
X300197Y309989D02*
Y321850D01*
X246456Y304725D02*
Y308071D01*
X250989Y300192D02*
X275144D01*
X326772Y297244D02*
X336614D01*
X365158Y325787D01*
X376969D01*
X410433D02*
X414961D01*
X388189Y321259D02*
Y348818D01*
X387795Y289370D02*
X387795Y289370D01*
X391930D01*
X346457Y289370D02*
X350985D01*
X306102Y298228D02*
X308044Y296287D01*
Y290892D02*
Y296287D01*
X286444Y297271D02*
X287402Y298228D01*
X286444Y290892D02*
Y297271D01*
X333661Y300197D02*
X335630D01*
X366110Y330677D01*
X375953D01*
X375984Y330709D01*
X282480Y280512D02*
Y281579D01*
X288344Y287443D01*
Y290892D01*
X280512Y242319D02*
Y248031D01*
X286417Y253937D01*
Y282480D01*
X290344Y286407D01*
Y290892D01*
X285591Y244094D02*
X289445Y247949D01*
Y282564D01*
X292344Y285463D01*
Y290892D01*
X283583Y239248D02*
X290744D01*
X295590Y244094D01*
X280512Y242319D02*
X283583Y239248D01*
X295169Y285358D02*
X296244Y286433D01*
X295068Y285358D02*
X295169D01*
X292323Y282613D02*
X295068Y285358D01*
X296260Y282480D02*
X298244Y284465D01*
X292323Y278543D02*
Y282613D01*
X296244Y286433D02*
Y290892D01*
X300197Y280512D02*
X300244Y280559D01*
X282480Y319882D02*
X285433D01*
X280470Y321892D02*
X282480Y319882D01*
X275144Y323792D02*
X284422D01*
X370079Y282480D02*
X370472Y282874D01*
Y287795D01*
X360236Y303150D02*
X363189Y300197D01*
Y298659D02*
Y300197D01*
Y298659D02*
X365195Y296654D01*
X366732D01*
X364862Y294094D02*
X366732D01*
X360236Y298721D02*
X364862Y294094D01*
X362992Y291535D02*
X366732D01*
X360236Y294291D02*
X362992Y291535D01*
X363189Y373031D02*
X364174Y372047D01*
X368504D01*
X375985Y366141D02*
X378937Y363189D01*
X375985Y366141D02*
Y368504D01*
X374016Y363189D02*
Y368504D01*
X369094Y363189D02*
X372047Y366141D01*
Y368504D01*
X275144Y321892D02*
X280470D01*
X284422Y323792D02*
X284449Y323819D01*
X280517Y325792D02*
X281496Y326772D01*
X275144Y325792D02*
X280517D01*
X282394Y330795D02*
X289370Y323819D01*
X185213Y262185D02*
X191555D01*
X178760D02*
X185213D01*
X256575Y251969D02*
X261811D01*
X250000Y258543D02*
X256575Y251969D01*
X330709Y274606D02*
X337567Y267748D01*
X330709Y274606D02*
Y283465D01*
X306144Y284407D02*
X307087Y283465D01*
X306144Y284407D02*
Y290892D01*
X302144Y283486D02*
X305118Y280512D01*
X300244Y280559D02*
Y290892D01*
X298244Y284465D02*
Y290892D01*
X296260Y277559D02*
X309055D01*
X302144Y283486D02*
Y290892D01*
X305118Y280512D02*
X309055D01*
X312008Y277559D01*
X322835D01*
X337567Y267748D02*
X343348D01*
X343380Y267717D01*
X372047D01*
X374016Y269685D01*
X377953D01*
X326803Y271622D02*
Y271654D01*
X342520Y265748D02*
X343504Y264764D01*
Y261811D02*
Y264764D01*
X332677Y265748D02*
X342520D01*
X326803Y271622D02*
X332677Y265748D01*
X334646Y250000D02*
X335138Y250492D01*
X339331D01*
X236910Y334350D02*
X238189Y335630D01*
X236910Y327559D02*
Y334350D01*
X237697Y345472D02*
X238189D01*
X244094D01*
X310039Y249409D02*
Y252953D01*
X308071Y254921D02*
X310039Y252953D01*
X301574Y254921D02*
X308071D01*
X315453Y264272D02*
X320866Y258858D01*
X301574Y264272D02*
X315453D01*
X294882Y254921D02*
Y258465D01*
X296260Y259842D01*
X301181D01*
X301574Y260236D01*
Y264272D01*
X294882D02*
Y267323D01*
X296260Y268701D01*
X300197D01*
X301574Y270078D01*
Y273622D01*
X294882Y276182D02*
X296260Y277559D01*
X294882Y273622D02*
Y276182D01*
X309055Y277559D02*
X314961Y271654D01*
X326772Y277559D02*
Y282480D01*
X324803Y250000D02*
Y277559D01*
X311024Y285433D02*
X318898D01*
X310044Y286413D02*
X311024Y285433D01*
X310044Y286413D02*
Y290892D01*
X318898Y285433D02*
X324803Y279528D01*
Y277559D02*
Y279528D01*
X354331Y250492D02*
Y255906D01*
X344331Y250492D02*
X344488Y250649D01*
Y255906D01*
X314961Y271654D02*
X322803D01*
X311994Y298192D02*
X319344D01*
X364331Y250492D02*
Y254764D01*
X360236Y258858D02*
X364331Y254764D01*
X328740Y258858D02*
X360236D01*
X339331Y278307D02*
X339567Y278543D01*
X339331Y273130D02*
Y278307D01*
X347472Y246094D02*
X358299D01*
X359331Y247126D01*
Y250492D01*
X349331Y247953D02*
Y250492D01*
X347472Y246094D02*
X349331Y247953D01*
X333630Y246094D02*
X347472D01*
X330709Y249016D02*
X333630Y246094D01*
X327756Y249016D02*
X330709D01*
X378150Y278740D02*
X386811Y270078D01*
X387795D01*
X384251D02*
X386811D01*
X382874Y268701D02*
X384251Y270078D01*
X369094Y255906D02*
X369331Y255669D01*
Y250492D02*
Y255669D01*
Y245315D02*
Y250492D01*
X368110Y244094D02*
X369331Y245315D01*
X327756Y244094D02*
X368110D01*
X324976Y246874D02*
X327756Y244094D01*
X324976Y246874D02*
Y249827D01*
X324803Y250000D02*
X324976Y249827D01*
X324803Y250000D02*
X325787Y250984D01*
X327756D01*
X312599Y251969D02*
X315945D01*
X310039Y249409D02*
X312599Y251969D01*
X271654Y354331D02*
Y359450D01*
X267717Y319882D02*
X267727Y319892D01*
X275144D01*
X284449Y354331D02*
Y359450D01*
X274606Y332677D02*
X275144Y332139D01*
Y327792D02*
Y332139D01*
X157480Y196850D02*
X590551D01*
X157480D02*
Y393701D01*
X590551Y196850D02*
Y393701D01*
X157480D02*
X590551D01*
X576968Y299311D02*
X577854Y300197D01*
X462453Y205563D02*
X463583Y206693D01*
X573819Y256693D02*
X576968Y259842D01*
X519685Y258032D02*
X521496Y259842D01*
X543071Y218996D02*
X546569Y222494D01*
X518701Y219488D02*
X519193Y218996D01*
X426180Y296259D02*
Y300749D01*
X425197Y301732D02*
X426180Y300749D01*
X431102Y257874D02*
X432678D01*
X293307Y206300D02*
X294044Y205563D01*
X466535Y274409D02*
X466929Y274803D01*
X539370Y367519D02*
X539370Y367519D01*
X556102Y367519D02*
X556102Y367519D01*
X448819Y365158D02*
X468504D01*
X417323Y389764D02*
X467520Y339567D01*
X397245Y389764D02*
X417323D01*
X390355Y382874D02*
X397245Y389764D01*
X390355Y372047D02*
Y382874D01*
X374016Y379528D02*
Y381890D01*
X375000Y382874D01*
X390355D01*
X390355Y382874D01*
X368504Y377953D02*
Y381299D01*
X370079Y382874D01*
X375000D01*
X372047Y376969D02*
Y379528D01*
Y376969D02*
X372949Y376067D01*
X379528D02*
Y377953D01*
X374016Y372047D02*
X379528D01*
X372047Y374016D02*
X374016Y372047D01*
X372047Y374016D02*
Y376969D01*
X370079Y370079D02*
X372047Y372047D01*
Y374016D01*
X397047Y372047D02*
Y382874D01*
X379528Y372047D02*
X383859D01*
X387795Y368110D01*
X394685D01*
X397047Y370472D01*
Y372047D01*
X345472Y366142D02*
X349326Y369996D01*
X368504Y370079D02*
X370079D01*
X339567Y379330D02*
X343111Y382874D01*
X370079D01*
X271654Y378937D02*
X272047Y379330D01*
X271654Y366142D02*
Y373031D01*
X284449Y366142D02*
Y373031D01*
X297244Y366142D02*
Y373031D01*
X310039Y366142D02*
Y373031D01*
X321850Y366142D02*
Y373031D01*
X334252Y372638D02*
X339567D01*
X333661Y372047D02*
X334252Y372638D01*
X333661Y366142D02*
Y372047D01*
Y359450D02*
X345472D01*
X250591Y367126D02*
X250984Y367519D01*
X247047Y367126D02*
X250591D01*
X242028Y362106D02*
X247047Y367126D01*
X242028Y355512D02*
Y362106D01*
X232441Y381890D02*
X233165Y382614D01*
X250984D01*
X465354Y257874D02*
X466535Y259055D01*
X271654Y378937D02*
Y383858D01*
X266732Y388779D02*
X271654Y383858D01*
X196850Y388779D02*
X266732D01*
X191929Y383858D02*
X196850Y388779D01*
X191929Y368110D02*
Y383858D01*
X186024Y362205D02*
X191929Y368110D01*
X205118Y236221D02*
Y240749D01*
X185213Y245689D02*
X200177D01*
X205118Y240749D01*
X178150Y231299D02*
X184055D01*
X174213Y266732D02*
X178760Y262185D01*
X183071Y236221D02*
X198426D01*
X174213Y235236D02*
X178150Y231299D01*
X174213Y235236D02*
Y266732D01*
X179134Y240158D02*
X183071Y236221D01*
X179134Y240158D02*
Y250984D01*
X183071Y254921D01*
X191929D01*
X197441Y260434D01*
Y264764D01*
X192520Y269685D02*
X197441Y264764D01*
X182087Y269685D02*
X192520D01*
X178150Y273622D02*
X182087Y269685D01*
X178150Y273622D02*
Y301181D01*
X185433Y308464D02*
X203992D01*
X179291Y335433D02*
X183268D01*
X185039Y333661D01*
X163386Y362205D02*
X186024D01*
X161417Y360236D02*
X163386Y362205D01*
X161417Y313976D02*
Y360236D01*
Y313976D02*
X163386Y312008D01*
X168307D01*
X174213Y306102D01*
Y266732D02*
Y306102D01*
X167791Y325000D02*
Y336551D01*
Y344551D01*
Y356102D01*
Y325000D02*
X181890D01*
X185039Y321850D01*
Y308071D02*
Y321850D01*
Y333661D01*
X167791Y356102D02*
X183858D01*
X187732Y359976D01*
X192913D01*
X179291Y343110D02*
X192520D01*
X202363Y352953D01*
X207677D01*
X175197Y340551D02*
X179291D01*
X174213Y341535D02*
X175197Y340551D01*
X174213Y341535D02*
Y347441D01*
X180056Y353284D01*
X192913D01*
X196788D01*
X200787Y357283D01*
Y364173D01*
X212441Y375827D01*
Y381890D01*
X222441Y375984D02*
Y381890D01*
X220472Y374016D02*
X222441Y375984D01*
X214567Y374016D02*
X220472D01*
X203740Y363189D02*
X214567Y374016D01*
X203740Y354331D02*
Y363189D01*
X202363Y352953D02*
X203740Y354331D01*
X226673Y327559D02*
Y333957D01*
X231299Y338583D01*
X243110D01*
X247146Y334547D01*
Y327559D02*
Y334547D01*
X202441Y374685D02*
Y381890D01*
X196850Y369094D02*
X202441Y374685D01*
X196850Y363913D02*
Y369094D01*
X192913Y359976D02*
X196850Y363913D01*
X179291Y345669D02*
X189173D01*
X190945Y347441D01*
X221555Y323917D02*
Y327559D01*
X219488Y321850D02*
X221555Y323917D01*
X206693Y321850D02*
X219488D01*
X202363Y326181D02*
X206693Y321850D01*
X202363Y326181D02*
Y331693D01*
X224114Y308759D02*
Y327559D01*
Y308759D02*
X224410Y308464D01*
X229232Y316043D02*
Y327559D01*
Y316043D02*
X237205Y308071D01*
X239764D01*
X236910Y318209D02*
Y327559D01*
Y318209D02*
X241142Y313976D01*
X244094D01*
X246456Y311615D01*
Y308071D02*
Y311615D01*
X257847Y302192D02*
X275144D01*
X253937Y306102D02*
Y314961D01*
X249705Y319193D02*
X253937Y314961D01*
X249705Y319193D02*
Y327559D01*
X231791Y321358D02*
Y327559D01*
Y321358D02*
X232283Y320866D01*
X185039Y308071D02*
X185433Y308464D01*
X189961Y312992D01*
X232283Y370079D02*
X232441Y370236D01*
Y381890D01*
X251969Y362205D02*
X252189Y361984D01*
Y355587D02*
Y361984D01*
Y355587D02*
X252264Y355512D01*
X254823D02*
X254847Y355535D01*
Y361146D01*
X255906Y362205D01*
X257283Y367126D02*
X259842D01*
X261811Y365158D01*
Y353346D02*
Y365158D01*
X229232Y347539D02*
Y355512D01*
Y347539D02*
X231299Y345472D01*
X244094D02*
X247146Y348524D01*
Y355512D01*
X244094Y345472D02*
X253937D01*
X261811Y353346D01*
X239469Y347244D02*
Y355512D01*
X231299Y345472D02*
X237697D01*
X229232Y327559D02*
Y333563D01*
X231299Y335630D01*
X233268D01*
X249705Y349705D02*
Y355512D01*
Y349705D02*
X250984Y348425D01*
X212205Y359645D02*
X215551Y356299D01*
Y349410D02*
Y356299D01*
Y349410D02*
X219488Y345472D01*
X231299D01*
X209055Y331693D02*
X209646D01*
X218535Y340583D01*
X286417Y335119D02*
X286444Y335092D01*
X206693Y318898D02*
X213583D01*
X197835Y341535D02*
X201969D01*
X195866Y339567D02*
X197835Y341535D01*
X195866Y329724D02*
X206693Y318898D01*
X195866Y329724D02*
Y339567D01*
X256890Y382874D02*
X261984D01*
X262244Y382614D01*
X380906Y348818D02*
X388189D01*
X394685Y355315D01*
Y368110D01*
X366142Y348818D02*
X380906D01*
X349410Y342677D02*
X365591D01*
X366142Y342126D01*
X371456Y332677D02*
X380906Y342126D01*
X359409Y332677D02*
X371456D01*
X349410Y322677D02*
X359409Y332677D01*
X341535Y334803D02*
X349410Y342677D01*
X398622Y289370D02*
Y302165D01*
X381890Y291535D02*
Y294094D01*
Y296654D01*
Y299213D01*
X378150Y302953D02*
X378937Y302165D01*
X381890Y299213D02*
Y301181D01*
X382874Y302165D01*
X378937D02*
X382874D01*
X391930D01*
X378150Y287795D02*
X381890Y291535D01*
X390749Y272047D02*
X399606D01*
X378150Y278740D02*
Y287795D01*
X357677Y283071D02*
Y289370D01*
Y283071D02*
X362008Y278740D01*
X378150D01*
X391930Y302165D02*
Y315747D01*
X387402Y320275D02*
X391930Y315747D01*
X367126Y320275D02*
X380906D01*
X387204D01*
X388189Y321259D01*
X387204Y320275D02*
X387402D01*
X375590Y302953D02*
Y308661D01*
X375984Y309055D01*
X398622Y302165D02*
Y309055D01*
X386220Y313583D02*
X386811Y312992D01*
X387795Y263386D02*
X395866D01*
X395866Y263386D01*
X390905Y249016D02*
Y260276D01*
X387795Y263386D02*
X390905Y260276D01*
X377953Y259842D02*
Y262993D01*
Y259842D02*
X380906Y256890D01*
Y249016D02*
Y256890D01*
X310039Y233661D02*
Y242717D01*
X318898Y249016D02*
X321850D01*
X312599Y242717D02*
X318898Y249016D01*
X310039Y242717D02*
X312599D01*
X310039Y226969D02*
X311445Y225563D01*
X304134Y242441D02*
Y248031D01*
X305511Y249409D01*
X310039D01*
X275590Y244094D02*
Y248031D01*
X271654Y251969D02*
X275590Y248031D01*
X261811Y251969D02*
X271654D01*
X258858Y249016D02*
X261811Y251969D01*
X258858Y238189D02*
Y249016D01*
X250984Y230315D02*
X258858Y238189D01*
X201378Y230315D02*
X250984D01*
X198426Y227362D02*
X201378Y230315D01*
X265591Y238347D02*
Y244094D01*
Y238347D02*
X268701Y235236D01*
X296929D01*
X304134Y242441D01*
X212007Y359645D02*
X214567Y362205D01*
X207677Y359645D02*
X212007D01*
X212205D01*
X185213Y292697D02*
Y296433D01*
X190552Y301772D01*
X203992D01*
X213583D01*
X185213Y277185D02*
X200177D01*
X204133Y273229D01*
Y264764D02*
Y273229D01*
X213583Y308464D02*
X217913D01*
X218504Y309055D01*
X191555Y262185D02*
X191929Y261811D01*
X275144Y298192D02*
X282444D01*
X294241Y309989D01*
X300197D01*
X312044Y290892D02*
Y298142D01*
X311983Y298203D02*
X311994Y298192D01*
X256890Y312992D02*
Y319882D01*
X263779Y326772D01*
Y333661D01*
X286444Y335092D02*
Y342493D01*
X286310D02*
X286444D01*
X218535Y340583D02*
X267748D01*
X288344Y335092D02*
Y343546D01*
X284444Y335092D02*
Y341531D01*
X209709Y342583D02*
X266920D01*
X208661Y341535D02*
X209709Y342583D01*
D39*
X289370Y320816D02*
Y323819D01*
Y320816D02*
X300197Y309989D01*
X312044Y298142D02*
X316879Y293307D01*
X339567D01*
X226673Y355512D02*
X229232D01*
X370472Y302953D02*
X373031D01*
X367913D02*
X370472D01*
X366732Y301772D02*
X367913Y302953D01*
X366732Y299213D02*
Y301772D01*
X367126Y313583D02*
X380906D01*
X370472Y302953D02*
Y310237D01*
X367126Y313583D02*
X370472Y310237D01*
X380906Y313583D02*
X386220D01*
X353346Y307087D02*
X360630D01*
X367126Y313583D01*
X300197Y309989D02*
X311983Y298203D01*
X339567Y293307D02*
X353346Y307087D01*
D40*
X509842Y271496D02*
X521496Y259842D01*
X484252Y274409D02*
X487165Y271496D01*
X509842D01*
X577854Y300197D02*
Y336614D01*
X576968Y259842D02*
Y299311D01*
X521496Y259842D02*
X541142D01*
X311024Y215563D02*
X322468D01*
X376468D02*
X386811D01*
X295878D02*
X302165D01*
X311024D01*
X386811D02*
X394468D01*
X376468Y205563D02*
X394468D01*
X358469D02*
X376468D01*
X340469D02*
X358469D01*
X322468D02*
X340469D01*
X322468Y215563D02*
X340469D01*
X358469D01*
X376468D01*
X412217D02*
X420079Y223425D01*
X394468Y215563D02*
X412217D01*
X431102Y257874D02*
X444095Y244881D01*
X431102Y257874D02*
X465354D01*
X444095Y223425D02*
Y244881D01*
X466535Y259055D02*
X484252D01*
X376468Y225563D02*
X394468D01*
X358469D02*
X376468D01*
X340469D02*
X358469D01*
X322468D02*
X340469D01*
D41*
X484252Y274409D02*
Y290748D01*
X481693Y293307D02*
X484252Y290748D01*
X434488Y311024D02*
X461221D01*
X416339Y292323D02*
Y297244D01*
Y302165D01*
X426180Y292324D02*
X426181Y292323D01*
X426180Y292324D02*
Y296259D01*
X570866Y360827D02*
X577854Y353839D01*
X520669Y360827D02*
X539370D01*
X556102D02*
X570866D01*
X539370D02*
X556102D01*
X514567Y339764D02*
X521358D01*
X519685Y310039D02*
X528543D01*
X531496Y307087D01*
Y295669D02*
Y307087D01*
X521358Y330709D02*
X542224D01*
X548130Y336614D01*
X505905Y201772D02*
X563976D01*
X501968Y205709D02*
X505905Y201772D01*
X501968Y205709D02*
Y226378D01*
X497047Y231299D02*
X501968Y226378D01*
X470472Y231299D02*
X497047D01*
X463583Y224410D02*
X470472Y231299D01*
X463583Y206693D02*
Y224410D01*
X394468Y205563D02*
X462453D01*
X421102Y297638D02*
X423445Y299980D01*
X416339Y302165D02*
X421260D01*
X425197Y301732D02*
X434488Y311024D01*
X510827Y336024D02*
X514567Y339764D01*
X510827Y318898D02*
X519685Y310039D01*
X510827Y318898D02*
Y336024D01*
X293307Y212992D02*
X295878Y215563D01*
X285433Y212992D02*
X293307D01*
X238189D02*
X246063D01*
X261811D02*
X269685D01*
X253937D02*
X261811D01*
X455709Y280905D02*
X460237Y285433D01*
X455709Y257874D02*
Y280905D01*
X277559Y212992D02*
X285433D01*
X269685D02*
X277559D01*
X246063D02*
X253937D01*
X230315D02*
X238189D01*
X230315Y206300D02*
X246063D01*
X277559D02*
X293307D01*
X261811D02*
X277559D01*
X246063D02*
X261811D01*
X469488Y293307D02*
X475000D01*
X466929Y290748D02*
X469488Y293307D01*
X466929Y285433D02*
Y290748D01*
Y274803D02*
Y285433D01*
X467913Y306496D02*
Y311024D01*
X459055Y297638D02*
X467913Y306496D01*
X441102Y297638D02*
X459055D01*
X441102Y287559D02*
Y297638D01*
X403346Y263386D02*
X406102D01*
X403346Y256102D02*
Y263386D01*
X401575Y254330D02*
X403346Y256102D01*
X401575Y247638D02*
X420867D01*
X431102Y257874D01*
X406102Y263386D02*
X407480Y264764D01*
Y278543D01*
X413386Y284449D01*
X437992D01*
X441102Y287559D01*
X534350Y350394D02*
X548130Y336614D01*
X511811Y363189D02*
X516141Y367519D01*
X520669D01*
Y385236D02*
X525197Y389764D01*
X551574D01*
X556102Y385236D01*
X577854Y336614D02*
Y353839D01*
Y375886D01*
X568504Y385236D02*
X577854Y375886D01*
X556102Y385236D02*
X568504D01*
X519685Y350394D02*
X534350D01*
X511811Y358268D02*
Y363189D01*
Y358268D02*
X519685Y350394D01*
X501968D02*
X519685D01*
X498327Y346752D02*
X501968Y350394D01*
X498327Y330709D02*
Y346752D01*
X521358Y321654D02*
X562894D01*
X577854Y336614D01*
X513189Y385236D02*
X520669D01*
X502953Y375000D02*
X513189Y385236D01*
X502953Y367126D02*
Y375000D01*
X487205Y351378D02*
X502953Y367126D01*
X487205Y336417D02*
Y351378D01*
X481102Y330315D02*
X487205Y336417D01*
X478346Y322835D02*
X509842Y291339D01*
X435039Y322835D02*
X478346D01*
X423228Y365158D02*
X435039Y353346D01*
X494095Y330709D02*
X498327D01*
X488189Y324803D02*
X494095Y330709D01*
X207086Y206300D02*
X230315D01*
X198426Y214960D02*
X207086Y206300D01*
X435039Y335630D02*
Y353346D01*
X311445Y225563D02*
X322468D01*
X198426Y214960D02*
Y227362D01*
Y236221D01*
D42*
X509842Y281339D02*
X523858D01*
X531496Y288977D01*
X566634D01*
X576968Y299311D01*
X531496Y295669D02*
X543602D01*
X548130Y300197D01*
X509842Y291339D02*
X514173Y295669D01*
X531496D01*
X294044Y205563D02*
X322468D01*
D43*
X573819Y211614D02*
Y225394D01*
Y256693D01*
X519685Y243307D02*
Y258032D01*
D44*
X563976Y201772D02*
X573819Y211614D01*
D45*
X519685Y218996D02*
X534449D01*
X543071D01*
D46*
X519193D02*
X519685D01*
D47*
X520669Y367519D02*
X539370D01*
X539370Y367519D02*
Y378937D01*
X539370Y367519D02*
X556102D01*
X570866D01*
X556102Y367519D02*
Y378544D01*
X531496Y384843D02*
X539370D01*
X529528Y382874D02*
X531496Y384843D01*
X529528Y379921D02*
Y382874D01*
X528150Y378544D02*
X529528Y379921D01*
X520669Y378544D02*
X528150D01*
X421653Y325787D02*
X430118D01*
X434645Y330315D02*
X473622D01*
X430118Y325787D02*
X434645Y330315D01*
X477362Y338977D02*
Y356299D01*
X468504Y365158D02*
X477362Y356299D01*
X250984Y375922D02*
X262244D01*
X250984Y367519D02*
Y375922D01*
D48*
X322468Y205563D02*
D03*
X340469D02*
D03*
X358469D02*
D03*
X376468D02*
D03*
X394468D02*
D03*
X509842Y281339D02*
D03*
X250000Y248543D02*
D03*
D49*
X322468Y215563D02*
D03*
Y225563D02*
D03*
X340469Y215563D02*
D03*
Y225563D02*
D03*
X358469Y215563D02*
D03*
Y225563D02*
D03*
X376468Y215563D02*
D03*
Y225563D02*
D03*
X394468Y215563D02*
D03*
Y225563D02*
D03*
X295590Y244094D02*
D03*
X285591D02*
D03*
X275590D02*
D03*
X509842Y291339D02*
D03*
Y271496D02*
D03*
X232441Y381890D02*
D03*
X222441D02*
D03*
X212441D02*
D03*
X240000Y288543D02*
D03*
X250000D02*
D03*
X240000Y278543D02*
D03*
X250000D02*
D03*
X240000Y268543D02*
D03*
X250000D02*
D03*
X240000Y258543D02*
D03*
X250000D02*
D03*
X240000Y248543D02*
D03*
X390905Y249016D02*
D03*
D50*
X265591Y244094D02*
D03*
X202441Y381890D02*
D03*
X380906Y249016D02*
D03*
D51*
X173228Y377953D02*
D03*
Y212598D02*
D03*
X484252D02*
D03*
Y377953D02*
D03*
D52*
X573819Y225394D02*
D03*
D53*
X546569Y222494D02*
D03*
D54*
X448819Y365158D02*
D03*
D55*
X423228D02*
D03*
D56*
X349410Y342677D02*
D03*
Y322677D02*
D03*
D57*
X342520Y318898D02*
D03*
X340551Y312008D02*
D03*
X310039Y354331D02*
D03*
X297244D02*
D03*
X321850Y353346D02*
D03*
X278543Y339567D02*
D03*
X267717Y306102D02*
D03*
X311024Y307087D02*
D03*
X224410Y269685D02*
D03*
X244094Y297244D02*
D03*
X261811Y305118D02*
D03*
Y313976D02*
D03*
X224410Y259842D02*
D03*
X306102Y309055D02*
D03*
X229331Y302165D02*
D03*
X268701Y289370D02*
D03*
X260827Y275590D02*
D03*
X294291Y298228D02*
D03*
X277559Y281496D02*
D03*
X248031Y303150D02*
D03*
X254921Y305118D02*
D03*
X301181Y299213D02*
D03*
X292323Y343504D02*
D03*
X299213Y326772D02*
D03*
X310044Y326776D02*
D03*
X326772Y297244D02*
D03*
X376969Y325787D02*
D03*
X410433D02*
D03*
X346457Y289370D02*
D03*
X387795D02*
D03*
X306102Y298228D02*
D03*
X333661Y300197D02*
D03*
X375984Y330709D02*
D03*
X287402Y298228D02*
D03*
X296260Y282480D02*
D03*
X300197Y280512D02*
D03*
X282480D02*
D03*
X285433Y319882D02*
D03*
X370079Y282480D02*
D03*
X360236Y303150D02*
D03*
Y294291D02*
D03*
Y298721D02*
D03*
X378937Y363189D02*
D03*
X374016D02*
D03*
X369094D02*
D03*
X363189Y373031D02*
D03*
X284449Y323819D02*
D03*
X281496Y326772D02*
D03*
X307087Y283465D02*
D03*
X330709D02*
D03*
X238189Y345472D02*
D03*
Y335630D02*
D03*
X292323Y278543D02*
D03*
X326772Y282480D02*
D03*
X334646Y250000D02*
D03*
X354331Y255906D02*
D03*
X343504Y261811D02*
D03*
X344488Y255906D02*
D03*
X320866Y258858D02*
D03*
X328740D02*
D03*
X369094Y255906D02*
D03*
X382874Y268701D02*
D03*
X315945Y251969D02*
D03*
X271654Y354331D02*
D03*
X267717Y319882D02*
D03*
X284449Y354331D02*
D03*
X274606Y332677D02*
D03*
X213583Y318898D02*
D03*
X232283Y320866D02*
D03*
X189961Y312992D02*
D03*
X256890D02*
D03*
X251969Y362205D02*
D03*
X255906D02*
D03*
X250984Y348425D02*
D03*
X233268Y335630D02*
D03*
X256890Y382874D02*
D03*
X375984Y309055D02*
D03*
X398622D02*
D03*
X386811Y312992D02*
D03*
X214567Y362205D02*
D03*
X191929Y261811D02*
D03*
X218504Y309055D02*
D03*
D58*
X339567Y278543D02*
D03*
D59*
X514764Y225394D02*
D03*
Y212598D02*
D03*
X524606Y250000D02*
D03*
X519685Y243307D02*
D03*
X524606D02*
D03*
X514764Y237205D02*
D03*
X519685D02*
D03*
X524606D02*
D03*
X416339Y292323D02*
D03*
Y297244D02*
D03*
Y302165D02*
D03*
X421102Y297638D02*
D03*
X426181Y297244D02*
D03*
Y302165D02*
D03*
Y292323D02*
D03*
X514764Y243110D02*
D03*
X518701Y219488D02*
D03*
X524606Y225394D02*
D03*
Y212598D02*
D03*
X519685Y225394D02*
D03*
Y212598D02*
D03*
X534449Y225394D02*
D03*
Y212598D02*
D03*
Y218996D02*
D03*
X332677Y215551D02*
D03*
X369094D02*
D03*
X386811Y215563D02*
D03*
X406496Y215551D02*
D03*
X413386Y223425D02*
D03*
X427165D02*
D03*
X413386Y229331D02*
D03*
Y217520D02*
D03*
X427165Y229331D02*
D03*
Y217520D02*
D03*
X443898Y223425D02*
D03*
X437008D02*
D03*
Y217520D02*
D03*
Y229331D02*
D03*
X451772D02*
D03*
Y223425D02*
D03*
Y217520D02*
D03*
X443898Y236221D02*
D03*
X447835Y257874D02*
D03*
X475394Y258858D02*
D03*
X455709Y257874D02*
D03*
X439961Y244094D02*
D03*
X421260D02*
D03*
X431102D02*
D03*
X439961Y257874D02*
D03*
X421260D02*
D03*
Y272638D02*
D03*
X430118D02*
D03*
X438976D02*
D03*
X431102Y257874D02*
D03*
X466535Y258858D02*
D03*
X484252D02*
D03*
X238189Y212992D02*
D03*
X253937D02*
D03*
X269685D02*
D03*
X285433D02*
D03*
X302165Y215563D02*
D03*
X311024D02*
D03*
X350394Y215551D02*
D03*
X420276Y223425D02*
D03*
X488189Y324803D02*
D03*
X467520Y339567D02*
D03*
X190945Y347441D02*
D03*
X232283Y370079D02*
D03*
D60*
X435039Y322835D02*
D03*
Y335630D02*
D03*
M02*
