G04 Layer_Color=65535*
%FSLAX25Y25*%
%MOIN*%
G70*
G01*
G75*
%ADD38C,0.01000*%
%ADD39C,0.01575*%
%ADD47C,0.02362*%
%ADD61C,0.00500*%
%ADD62C,0.00984*%
%ADD63C,0.00800*%
%ADD64C,0.02200*%
%ADD65C,0.00787*%
%ADD66C,0.00600*%
%ADD67R,0.01800X0.03000*%
%ADD68R,0.03000X0.01800*%
%ADD69R,0.00984X0.00984*%
%ADD70R,0.03544X0.11023*%
%ADD71R,0.03400X0.03000*%
G36*
X321854Y296748D02*
X321857Y296751D01*
X321867Y296760D01*
X321884Y296772D01*
X321905Y296789D01*
X321932Y296811D01*
X321963Y296833D01*
X322000Y296860D01*
X322041Y296884D01*
X322043D01*
X322046Y296886D01*
X322060Y296896D01*
X322082Y296908D01*
X322109Y296922D01*
X322140Y296939D01*
X322174Y296954D01*
X322210Y296971D01*
X322244Y296985D01*
Y296794D01*
X322242D01*
X322237Y296792D01*
X322227Y296787D01*
X322217Y296780D01*
X322203Y296772D01*
X322186Y296765D01*
X322147Y296743D01*
X322104Y296717D01*
X322055Y296685D01*
X322007Y296649D01*
X321961Y296610D01*
X321958Y296608D01*
X321956Y296605D01*
X321942Y296591D01*
X321920Y296569D01*
X321893Y296543D01*
X321864Y296509D01*
X321835Y296472D01*
X321809Y296434D01*
X321787Y296395D01*
X321658D01*
Y297992D01*
X321854D01*
Y296748D01*
D02*
G37*
G36*
X209021Y223995D02*
X209021D01*
X209404Y223906D01*
X210152Y223667D01*
X210878Y223366D01*
X211577Y223006D01*
X211910Y222798D01*
X215373Y225622D01*
X217748Y223247D01*
X214924Y219784D01*
Y219784D01*
X215132Y219451D01*
X215492Y218752D01*
X215793Y218026D01*
X216032Y217278D01*
X216121Y216895D01*
X220567Y216443D01*
Y213085D01*
X216121Y212633D01*
X216032Y212250D01*
X215793Y211502D01*
X215492Y210776D01*
X215132Y210077D01*
X214924Y209744D01*
X217748Y206281D01*
X215373Y203906D01*
X211910Y206730D01*
X211743Y206626D01*
X211402Y206432D01*
X211053Y206252D01*
X210697Y206087D01*
X210516Y206012D01*
X208538Y210786D01*
D01*
Y210786D01*
Y210786D01*
X209058Y211044D01*
X209972Y211757D01*
X210662Y212688D01*
X211079Y213769D01*
X211193Y214922D01*
X210995Y216064D01*
X210499Y217112D01*
X209742Y217990D01*
X208778Y218634D01*
X207678Y218997D01*
X206520Y219054D01*
X205389Y218800D01*
X204367Y218253D01*
X203528Y217454D01*
X202932Y216460D01*
X202623Y215343D01*
X202584Y214764D01*
X202630Y214132D01*
X202997Y212923D01*
X203699Y211872D01*
X204676Y211071D01*
X205242Y210786D01*
X203264Y206012D01*
X203264D01*
X203082Y206087D01*
X202726Y206252D01*
X202377Y206432D01*
X202036Y206626D01*
X201870Y206730D01*
X198407Y203906D01*
X196032Y206281D01*
X198856Y209744D01*
X198856D01*
X198647Y210077D01*
X198288Y210776D01*
X197987Y211502D01*
X197747Y212250D01*
X197659Y212633D01*
X193213Y213085D01*
Y216443D01*
X197659Y216895D01*
Y216895D01*
X197659Y216895D01*
X197659D01*
X197747Y217278D01*
X197987Y218026D01*
X198288Y218752D01*
X198647Y219451D01*
X198856Y219784D01*
X196032Y223247D01*
X198407Y225622D01*
X201870Y222798D01*
X202203Y223006D01*
X202902Y223366D01*
X203627Y223667D01*
X204376Y223906D01*
X204759Y223995D01*
X205211Y228441D01*
X208569D01*
X209021Y223995D01*
D02*
G37*
D38*
X523622Y261653D02*
X523358Y262638D01*
X522638Y263358D01*
X521654Y263622D01*
X520669Y263358D01*
X519949Y262638D01*
X519685Y261653D01*
X519949Y260669D01*
X520669Y259949D01*
X521654Y259685D01*
X522638Y259949D01*
X523358Y260669D01*
X523622Y261653D01*
X280512Y262795D02*
Y268793D01*
X283511D01*
X284510Y267794D01*
Y265794D01*
X283511Y264795D01*
X280512D01*
X282511D02*
X284510Y262795D01*
X286510Y267794D02*
X287509Y268793D01*
X289509D01*
X290509Y267794D01*
Y266794D01*
X289509Y265794D01*
X290509Y264795D01*
Y263795D01*
X289509Y262795D01*
X287509D01*
X286510Y263795D01*
Y264795D01*
X287509Y265794D01*
X286510Y266794D01*
Y267794D01*
X287509Y265794D02*
X289509D01*
X247047Y391691D02*
Y386811D01*
X249487D01*
X250301Y387624D01*
Y388438D01*
X249487Y389251D01*
X247047D01*
X249487D01*
X250301Y390065D01*
Y390878D01*
X249487Y391691D01*
X247047D01*
X251928Y386811D02*
X253554D01*
X252741D01*
Y391691D01*
X251928Y390878D01*
X258858Y391691D02*
Y386811D01*
X261298D01*
X262112Y387624D01*
Y388438D01*
X261298Y389251D01*
X258858D01*
X261298D01*
X262112Y390065D01*
Y390878D01*
X261298Y391691D01*
X258858D01*
X266992Y386811D02*
X263739D01*
X266992Y390065D01*
Y390878D01*
X266179Y391691D01*
X264552D01*
X263739Y390878D01*
X336627Y390880D02*
Y384882D01*
X339626D01*
X340626Y385882D01*
Y386881D01*
X339626Y387881D01*
X336627D01*
X339626D01*
X340626Y388881D01*
Y389880D01*
X339626Y390880D01*
X336627D01*
X342625Y389880D02*
X343624Y390880D01*
X345624D01*
X346623Y389880D01*
Y388881D01*
X345624Y387881D01*
X344624D01*
X345624D01*
X346623Y386881D01*
Y385882D01*
X345624Y384882D01*
X343624D01*
X342625Y385882D01*
X337600Y357874D02*
X341535D01*
Y359842D01*
X340880Y360498D01*
X340224D01*
X339568Y359842D01*
Y357874D01*
Y359842D01*
X338912Y360498D01*
X338256D01*
X337600Y359842D01*
Y357874D01*
X341535Y363778D02*
X337600D01*
X339568Y361810D01*
Y364434D01*
X393762Y391809D02*
X392763Y392809D01*
X390763D01*
X389764Y391809D01*
Y387811D01*
X390763Y386811D01*
X392763D01*
X393762Y387811D01*
X395762Y386811D02*
X397761D01*
X396761D01*
Y392809D01*
X395762Y391809D01*
X392778Y366219D02*
X391779Y367218D01*
X389779D01*
X388779Y366219D01*
Y362220D01*
X389779Y361221D01*
X391779D01*
X392778Y362220D01*
X398776Y361221D02*
X394778D01*
X398776Y365219D01*
Y366219D01*
X397777Y367218D01*
X395777D01*
X394778Y366219D01*
X381977Y330798D02*
X380978Y331798D01*
X378978D01*
X377979Y330798D01*
Y326800D01*
X378978Y325800D01*
X380978D01*
X381977Y326800D01*
X383977Y330798D02*
X384977Y331798D01*
X386976D01*
X387976Y330798D01*
Y329799D01*
X386976Y328799D01*
X385976D01*
X386976D01*
X387976Y327799D01*
Y326800D01*
X386976Y325800D01*
X384977D01*
X383977Y326800D01*
X368183Y330798D02*
X367183Y331798D01*
X365184D01*
X364184Y330798D01*
Y326800D01*
X365184Y325800D01*
X367183D01*
X368183Y326800D01*
X373181Y325800D02*
Y331798D01*
X370182Y328799D01*
X374181D01*
X405774Y303477D02*
X405118Y304133D01*
X403806D01*
X403150Y303477D01*
Y300853D01*
X403806Y300197D01*
X405118D01*
X405774Y300853D01*
X409710Y304133D02*
X407086D01*
Y302165D01*
X408398Y302821D01*
X409054D01*
X409710Y302165D01*
Y300853D01*
X409054Y300197D01*
X407742D01*
X407086Y300853D01*
X405723Y291076D02*
X405067Y291732D01*
X403755D01*
X403099Y291076D01*
Y288452D01*
X403755Y287796D01*
X405067D01*
X405723Y288452D01*
X409658Y291732D02*
X408347Y291076D01*
X407034Y289764D01*
Y288452D01*
X407690Y287796D01*
X409002D01*
X409658Y288452D01*
Y289108D01*
X409002Y289764D01*
X407034D01*
X532781Y277689D02*
X531968Y278502D01*
X530341D01*
X529528Y277689D01*
Y274435D01*
X530341Y273622D01*
X531968D01*
X532781Y274435D01*
X534408Y278502D02*
X537661D01*
Y277689D01*
X534408Y274435D01*
Y273622D01*
X539432Y311101D02*
X538432Y312100D01*
X536433D01*
X535433Y311101D01*
Y307102D01*
X536433Y306102D01*
X538432D01*
X539432Y307102D01*
X541431Y311101D02*
X542431Y312100D01*
X544430D01*
X545430Y311101D01*
Y310101D01*
X544430Y309101D01*
X545430Y308102D01*
Y307102D01*
X544430Y306102D01*
X542431D01*
X541431Y307102D01*
Y308102D01*
X542431Y309101D01*
X541431Y310101D01*
Y311101D01*
X542431Y309101D02*
X544430D01*
X539432Y347518D02*
X538432Y348518D01*
X536433D01*
X535433Y347518D01*
Y343519D01*
X536433Y342520D01*
X538432D01*
X539432Y343519D01*
X541431D02*
X542431Y342520D01*
X544430D01*
X545430Y343519D01*
Y347518D01*
X544430Y348518D01*
X542431D01*
X541431Y347518D01*
Y346518D01*
X542431Y345519D01*
X545430D01*
X546183Y380967D02*
X545183Y379967D01*
Y377968D01*
X546183Y376969D01*
X550181D01*
X551181Y377968D01*
Y379967D01*
X550181Y380967D01*
X551181Y382967D02*
Y384966D01*
Y383966D01*
X545183D01*
X546183Y382967D01*
Y387965D02*
X545183Y388965D01*
Y390964D01*
X546183Y391964D01*
X550181D01*
X551181Y390964D01*
Y388965D01*
X550181Y387965D01*
X546183D01*
X408792Y253282D02*
X409448Y253938D01*
Y255250D01*
X408792Y255906D01*
X406168D01*
X405512Y255250D01*
Y253938D01*
X406168Y253282D01*
X405512Y251970D02*
Y250658D01*
Y251314D01*
X409448D01*
X408792Y251970D01*
X405512Y248690D02*
Y247378D01*
Y248034D01*
X409448D01*
X408792Y248690D01*
X477395Y305256D02*
X476396Y306255D01*
X474396D01*
X473396Y305256D01*
Y301257D01*
X474396Y300257D01*
X476396D01*
X477395Y301257D01*
X479394Y300257D02*
X481394D01*
X480394D01*
Y306255D01*
X479394Y305256D01*
X488392Y300257D02*
X484393D01*
X488392Y304256D01*
Y305256D01*
X487392Y306255D01*
X485393D01*
X484393Y305256D01*
X230377Y223502D02*
X229377Y224502D01*
X227378D01*
X226378Y223502D01*
Y219504D01*
X227378Y218504D01*
X229377D01*
X230377Y219504D01*
X232376Y218504D02*
X234375D01*
X233376D01*
Y224502D01*
X232376Y223502D01*
X237374D02*
X238374Y224502D01*
X240373D01*
X241373Y223502D01*
Y222503D01*
X240373Y221503D01*
X239374D01*
X240373D01*
X241373Y220503D01*
Y219504D01*
X240373Y218504D01*
X238374D01*
X237374Y219504D01*
X247052Y223535D02*
X246052Y224534D01*
X244052D01*
X243053Y223535D01*
Y219536D01*
X244052Y218536D01*
X246052D01*
X247052Y219536D01*
X249051Y218536D02*
X251050D01*
X250050D01*
Y224534D01*
X249051Y223535D01*
X257048Y218536D02*
Y224534D01*
X254049Y221535D01*
X258048D01*
X262800Y223535D02*
X261800Y224534D01*
X259801D01*
X258801Y223535D01*
Y219536D01*
X259801Y218536D01*
X261800D01*
X262800Y219536D01*
X264799Y218536D02*
X266798D01*
X265798D01*
Y224534D01*
X264799Y223535D01*
X273796Y224534D02*
X269797D01*
Y221535D01*
X271797Y222535D01*
X272796D01*
X273796Y221535D01*
Y219536D01*
X272796Y218536D01*
X270797D01*
X269797Y219536D01*
X278548Y223535D02*
X277548Y224534D01*
X275549D01*
X274549Y223535D01*
Y219536D01*
X275549Y218536D01*
X277548D01*
X278548Y219536D01*
X280547Y218536D02*
X282546D01*
X281546D01*
Y224534D01*
X280547Y223535D01*
X289544Y224534D02*
X287545Y223535D01*
X285545Y221535D01*
Y219536D01*
X286545Y218536D01*
X288544D01*
X289544Y219536D01*
Y220536D01*
X288544Y221535D01*
X285545D01*
X294296Y223535D02*
X293296Y224534D01*
X291297D01*
X290297Y223535D01*
Y219536D01*
X291297Y218536D01*
X293296D01*
X294296Y219536D01*
X296295Y218536D02*
X298294D01*
X297295D01*
Y224534D01*
X296295Y223535D01*
X301293Y224534D02*
X305292D01*
Y223535D01*
X301293Y219536D01*
Y218536D01*
X528466Y306164D02*
X527466Y305164D01*
Y303165D01*
X528466Y302165D01*
X532465D01*
X533465Y303165D01*
Y305164D01*
X532465Y306164D01*
X533465Y308163D02*
Y310163D01*
Y309163D01*
X527466D01*
X528466Y308163D01*
Y313162D02*
X527466Y314161D01*
Y316161D01*
X528466Y317161D01*
X529466D01*
X530466Y316161D01*
X531465Y317161D01*
X532465D01*
X533465Y316161D01*
Y314161D01*
X532465Y313162D01*
X531465D01*
X530466Y314161D01*
X529466Y313162D01*
X528466D01*
X530466Y314161D02*
Y316161D01*
X237506Y369224D02*
X236692Y370038D01*
X235065D01*
X234252Y369224D01*
Y365971D01*
X235065Y365158D01*
X236692D01*
X237506Y365971D01*
X239132Y365158D02*
X240759D01*
X239946D01*
Y370038D01*
X239132Y369224D01*
X243199Y365971D02*
X244013Y365158D01*
X245639D01*
X246453Y365971D01*
Y369224D01*
X245639Y370038D01*
X244013D01*
X243199Y369224D01*
Y368411D01*
X244013Y367598D01*
X246453D01*
X242199Y320067D02*
X241199Y321067D01*
X239200D01*
X238200Y320067D01*
Y316068D01*
X239200Y315069D01*
X241199D01*
X242199Y316068D01*
X248197Y315069D02*
X244198D01*
X248197Y319067D01*
Y320067D01*
X247197Y321067D01*
X245198D01*
X244198Y320067D01*
X250196D02*
X251196Y321067D01*
X253195D01*
X254195Y320067D01*
Y316068D01*
X253195Y315069D01*
X251196D01*
X250196Y316068D01*
Y320067D01*
X225482Y319077D02*
X224482Y320077D01*
X222483D01*
X221483Y319077D01*
Y315078D01*
X222483Y314079D01*
X224482D01*
X225482Y315078D01*
X231480Y314079D02*
X227482D01*
X231480Y318077D01*
Y319077D01*
X230481Y320077D01*
X228481D01*
X227482Y319077D01*
X233480Y314079D02*
X235479D01*
X234479D01*
Y320077D01*
X233480Y319077D01*
X380524Y357680D02*
X379868Y358336D01*
X378556D01*
X377900Y357680D01*
Y355056D01*
X378556Y354400D01*
X379868D01*
X380524Y355056D01*
X384460Y354400D02*
X381836D01*
X384460Y357024D01*
Y357680D01*
X383804Y358336D01*
X382492D01*
X381836Y357680D01*
X388395Y354400D02*
X385771D01*
X388395Y357024D01*
Y357680D01*
X387739Y358336D01*
X386427D01*
X385771Y357680D01*
X361876Y357611D02*
X361220Y358266D01*
X359908D01*
X359252Y357611D01*
Y354987D01*
X359908Y354331D01*
X361220D01*
X361876Y354987D01*
X365811Y354331D02*
X363188D01*
X365811Y356955D01*
Y357611D01*
X365156Y358266D01*
X363844D01*
X363188Y357611D01*
X367124D02*
X367779Y358266D01*
X369091D01*
X369747Y357611D01*
Y356955D01*
X369091Y356299D01*
X368435D01*
X369091D01*
X369747Y355643D01*
Y354987D01*
X369091Y354331D01*
X367779D01*
X367124Y354987D01*
X561931Y363251D02*
X560931Y362251D01*
Y360252D01*
X561931Y359252D01*
X565929D01*
X566929Y360252D01*
Y362251D01*
X565929Y363251D01*
X566929Y369249D02*
Y365250D01*
X562930Y369249D01*
X561931D01*
X560931Y368249D01*
Y366250D01*
X561931Y365250D01*
X566929Y374247D02*
X560931D01*
X563930Y371248D01*
Y375247D01*
X326460Y360498D02*
X325804Y359842D01*
Y358530D01*
X326460Y357874D01*
X329084D01*
X329740Y358530D01*
Y359842D01*
X329084Y360498D01*
X329740Y364434D02*
Y361810D01*
X327116Y364434D01*
X326460D01*
X325804Y363778D01*
Y362466D01*
X326460Y361810D01*
X325804Y368370D02*
Y365746D01*
X327772D01*
X327116Y367058D01*
Y367714D01*
X327772Y368370D01*
X329084D01*
X329740Y367714D01*
Y366402D01*
X329084Y365746D01*
X198896Y308993D02*
X199896Y309993D01*
Y311993D01*
X198896Y312992D01*
X194897D01*
X193898Y311993D01*
Y309993D01*
X194897Y308993D01*
X193898Y302995D02*
Y306994D01*
X197896Y302995D01*
X198896D01*
X199896Y303995D01*
Y305994D01*
X198896Y306994D01*
X199896Y296997D02*
X198896Y298997D01*
X196897Y300996D01*
X194897D01*
X193898Y299996D01*
Y297997D01*
X194897Y296997D01*
X195897D01*
X196897Y297997D01*
Y300996D01*
X509765Y363251D02*
X508766Y362251D01*
Y360252D01*
X509765Y359252D01*
X513764D01*
X514764Y360252D01*
Y362251D01*
X513764Y363251D01*
X514764Y369249D02*
Y365250D01*
X510765Y369249D01*
X509765D01*
X508766Y368249D01*
Y366250D01*
X509765Y365250D01*
X508766Y371248D02*
Y375247D01*
X509765D01*
X513764Y371248D01*
X514764D01*
X527482Y363251D02*
X526482Y362251D01*
Y360252D01*
X527482Y359252D01*
X531481D01*
X532480Y360252D01*
Y362251D01*
X531481Y363251D01*
X532480Y369249D02*
Y365250D01*
X528482Y369249D01*
X527482D01*
X526482Y368249D01*
Y366250D01*
X527482Y365250D01*
Y371248D02*
X526482Y372248D01*
Y374247D01*
X527482Y375247D01*
X528482D01*
X529481Y374247D01*
X530481Y375247D01*
X531481D01*
X532480Y374247D01*
Y372248D01*
X531481Y371248D01*
X530481D01*
X529481Y372248D01*
X528482Y371248D01*
X527482D01*
X529481Y372248D02*
Y374247D01*
X546183Y363251D02*
X545183Y362251D01*
Y360252D01*
X546183Y359252D01*
X550181D01*
X551181Y360252D01*
Y362251D01*
X550181Y363251D01*
X551181Y369249D02*
Y365250D01*
X547182Y369249D01*
X546183D01*
X545183Y368249D01*
Y366250D01*
X546183Y365250D01*
X550181Y371248D02*
X551181Y372248D01*
Y374247D01*
X550181Y375247D01*
X546183D01*
X545183Y374247D01*
Y372248D01*
X546183Y371248D01*
X547182D01*
X548182Y372248D01*
Y375247D01*
X528402Y377821D02*
X534400D01*
Y380820D01*
X533400Y381820D01*
X529402D01*
X528402Y380820D01*
Y377821D01*
X534400Y383819D02*
Y385819D01*
Y384819D01*
X528402D01*
X529402Y383819D01*
X478702Y288180D02*
Y282182D01*
X481701D01*
X482701Y283182D01*
Y287181D01*
X481701Y288180D01*
X478702D01*
X488699Y282182D02*
X484700D01*
X488699Y286181D01*
Y287181D01*
X487699Y288180D01*
X485700D01*
X484700Y287181D01*
X454726Y256890D02*
X458661D01*
Y258858D01*
X458006Y259514D01*
X455382D01*
X454726Y258858D01*
Y256890D01*
X455382Y260825D02*
X454726Y261481D01*
Y262793D01*
X455382Y263449D01*
X456038D01*
X456694Y262793D01*
Y262137D01*
Y262793D01*
X457349Y263449D01*
X458006D01*
X458661Y262793D01*
Y261481D01*
X458006Y260825D01*
X293307Y388739D02*
X296561D01*
X294934D01*
Y383858D01*
X298187Y388739D02*
X301441Y383858D01*
Y388739D02*
X298187Y383858D01*
X306102D02*
Y388739D01*
X308542D01*
X309356Y387925D01*
Y386298D01*
X308542Y385485D01*
X306102D01*
X307729D02*
X309356Y383858D01*
X310983Y388739D02*
X314236Y383858D01*
Y388739D02*
X310983Y383858D01*
X317913Y388739D02*
Y383858D01*
X320354D01*
X321167Y384672D01*
Y387925D01*
X320354Y388739D01*
X317913D01*
X326047D02*
X324420Y387925D01*
X322794Y386298D01*
Y384672D01*
X323607Y383858D01*
X325234D01*
X326047Y384672D01*
Y385485D01*
X325234Y386298D01*
X322794D01*
X281496Y388739D02*
Y383858D01*
X283936D01*
X284750Y384672D01*
Y387925D01*
X283936Y388739D01*
X281496D01*
X286376D02*
X289630D01*
Y387925D01*
X286376Y384672D01*
Y383858D01*
X268701Y388739D02*
Y383858D01*
X271141D01*
X271954Y384672D01*
Y387925D01*
X271141Y388739D01*
X268701D01*
X273581Y387925D02*
X274394Y388739D01*
X276021D01*
X276835Y387925D01*
Y387112D01*
X276021Y386298D01*
X276835Y385485D01*
Y384672D01*
X276021Y383858D01*
X274394D01*
X273581Y384672D01*
Y385485D01*
X274394Y386298D01*
X273581Y387112D01*
Y387925D01*
X274394Y386298D02*
X276021D01*
X324867Y264045D02*
X320868D01*
Y258047D01*
X324867D01*
X320868Y261046D02*
X322868D01*
X330865Y264045D02*
X326867D01*
Y261046D01*
X328866D01*
X326867D01*
Y258047D01*
X332865D02*
X334864D01*
X333864D01*
Y264045D01*
X332865Y263046D01*
X325799Y288498D02*
X321800D01*
Y282500D01*
X325799D01*
X321800Y285499D02*
X323799D01*
X331797Y288498D02*
X327798D01*
Y285499D01*
X329797D01*
X327798D01*
Y282500D01*
X337795D02*
X333796D01*
X337795Y286499D01*
Y287498D01*
X336795Y288498D01*
X334796D01*
X333796Y287498D01*
X535495Y245171D02*
X531496D01*
Y242172D01*
X533495D01*
X531496D01*
Y239173D01*
X537494D02*
X539494D01*
X538494D01*
Y245171D01*
X537494Y244172D01*
X409120Y240156D02*
X406496D01*
Y238188D01*
X407808D01*
X406496D01*
Y236221D01*
X413056D02*
X410432D01*
X413056Y238844D01*
Y239500D01*
X412400Y240156D01*
X411088D01*
X410432Y239500D01*
X187992Y324803D02*
X184056D01*
X185368Y326115D01*
X184056Y327427D01*
X187992D01*
Y328739D02*
Y330051D01*
Y329395D01*
X185368D01*
Y328739D01*
Y334643D02*
Y332675D01*
X186024Y332019D01*
X187336D01*
X187992Y332675D01*
Y334643D01*
X185368Y335954D02*
X187992D01*
X186680D01*
X186024Y336610D01*
X185368Y337266D01*
Y337922D01*
X187992Y340546D02*
Y341858D01*
X187336Y342514D01*
X186024D01*
X185368Y341858D01*
Y340546D01*
X186024Y339890D01*
X187336D01*
X187992Y340546D01*
X184056Y347762D02*
X187336D01*
X187992Y348418D01*
Y349729D01*
X187336Y350385D01*
X184056D01*
X184712Y354321D02*
X184056Y353665D01*
Y352353D01*
X184712Y351697D01*
X185368D01*
X186024Y352353D01*
Y353665D01*
X186680Y354321D01*
X187336D01*
X187992Y353665D01*
Y352353D01*
X187336Y351697D01*
X184056Y355633D02*
X187992D01*
Y357601D01*
X187336Y358257D01*
X186680D01*
X186024Y357601D01*
Y355633D01*
Y357601D01*
X185368Y358257D01*
X184712D01*
X184056Y357601D01*
Y355633D01*
X401482Y376969D02*
X407480D01*
Y380967D01*
X402482Y386965D02*
X401482Y385966D01*
Y383966D01*
X402482Y382967D01*
X403482D01*
X404481Y383966D01*
Y385966D01*
X405481Y386965D01*
X406481D01*
X407480Y385966D01*
Y383966D01*
X406481Y382967D01*
X407480Y388965D02*
Y390964D01*
Y389964D01*
X401482D01*
X402482Y388965D01*
X556102Y203739D02*
Y199803D01*
X558070D01*
X558726Y200459D01*
Y203083D01*
X558070Y203739D01*
X556102D01*
X562662Y203083D02*
X562006Y203739D01*
X560694D01*
X560038Y203083D01*
Y200459D01*
X560694Y199803D01*
X562006D01*
X562662Y200459D01*
X567910Y203739D02*
X569221D01*
X568566D01*
Y199803D01*
X567910D01*
X569221D01*
X571189D02*
Y203739D01*
X573813Y199803D01*
Y203739D01*
X318218Y236313D02*
Y242311D01*
X321217D01*
X322217Y241311D01*
Y239312D01*
X321217Y238312D01*
X318218D01*
X328215Y236313D02*
X324217D01*
X328215Y240312D01*
Y241311D01*
X327216Y242311D01*
X325216D01*
X324217Y241311D01*
X372218Y236313D02*
Y242311D01*
X375218D01*
X376217Y241311D01*
Y239312D01*
X375218Y238312D01*
X372218D01*
X378217Y241311D02*
X379216Y242311D01*
X381216D01*
X382215Y241311D01*
Y240312D01*
X381216Y239312D01*
X380216D01*
X381216D01*
X382215Y238312D01*
Y237313D01*
X381216Y236313D01*
X379216D01*
X378217Y237313D01*
X354219Y236313D02*
Y242311D01*
X357218D01*
X358217Y241311D01*
Y239312D01*
X357218Y238312D01*
X354219D01*
X363216Y236313D02*
Y242311D01*
X360217Y239312D01*
X364215D01*
X336219Y236313D02*
Y242311D01*
X339217D01*
X340217Y241311D01*
Y239312D01*
X339217Y238312D01*
X336219D01*
X346215Y242311D02*
X342217D01*
Y239312D01*
X344216Y240312D01*
X345216D01*
X346215Y239312D01*
Y237313D01*
X345216Y236313D01*
X343216D01*
X342217Y237313D01*
X390218Y236313D02*
Y242311D01*
X393217D01*
X394217Y241311D01*
Y239312D01*
X393217Y238312D01*
X390218D01*
X400215Y242311D02*
X398216Y241311D01*
X396217Y239312D01*
Y237313D01*
X397216Y236313D01*
X399216D01*
X400215Y237313D01*
Y238312D01*
X399216Y239312D01*
X396217D01*
X211614Y391731D02*
Y388451D01*
X212270Y387795D01*
X213582D01*
X214238Y388451D01*
Y391731D01*
X218174Y391075D02*
X217518Y391731D01*
X216206D01*
X215550Y391075D01*
Y390419D01*
X216206Y389763D01*
X217518D01*
X218174Y389107D01*
Y388451D01*
X217518Y387795D01*
X216206D01*
X215550Y388451D01*
X219486Y391731D02*
Y387795D01*
X221453D01*
X222110Y388451D01*
Y389107D01*
X221453Y389763D01*
X219486D01*
X221453D01*
X222110Y390419D01*
Y391075D01*
X221453Y391731D01*
X219486D01*
X225939Y287409D02*
Y291344D01*
X227907D01*
X228563Y290688D01*
Y289376D01*
X227907Y288721D01*
X225939D01*
X229875Y290688D02*
X230531Y291344D01*
X231842D01*
X232498Y290688D01*
Y290033D01*
X231842Y289376D01*
X232498Y288721D01*
Y288065D01*
X231842Y287409D01*
X230531D01*
X229875Y288065D01*
Y288721D01*
X230531Y289376D01*
X229875Y290033D01*
Y290688D01*
X230531Y289376D02*
X231842D01*
X375984Y254921D02*
Y258857D01*
X377952D01*
X378608Y258201D01*
Y256889D01*
X377952Y256233D01*
X375984D01*
X379920Y255577D02*
X380576Y254921D01*
X381888D01*
X382544Y255577D01*
Y258201D01*
X381888Y258857D01*
X380576D01*
X379920Y258201D01*
Y257545D01*
X380576Y256889D01*
X382544D01*
X261190Y252447D02*
Y258445D01*
X264189D01*
X265189Y257446D01*
Y255446D01*
X264189Y254447D01*
X261190D01*
X267188Y252447D02*
X269187D01*
X268187D01*
Y258445D01*
X267188Y257446D01*
X272186D02*
X273186Y258445D01*
X275185D01*
X276185Y257446D01*
Y253447D01*
X275185Y252447D01*
X273186D01*
X272186Y253447D01*
Y257446D01*
X399277Y278215D02*
Y280839D01*
X398621Y281495D01*
X397309D01*
X396654Y280839D01*
Y278215D01*
X397309Y277559D01*
X398621D01*
X397966Y278871D02*
X399277Y277559D01*
X398621D02*
X399277Y278215D01*
X400589Y277559D02*
X401901D01*
X401245D01*
Y281495D01*
X400589Y280839D01*
X430180Y288401D02*
Y292400D01*
X429180Y293400D01*
X427181D01*
X426181Y292400D01*
Y288401D01*
X427181Y287402D01*
X429180D01*
X428181Y289401D02*
X430180Y287402D01*
X429180D02*
X430180Y288401D01*
X436178Y287402D02*
X432179D01*
X436178Y291400D01*
Y292400D01*
X435178Y293400D01*
X433179D01*
X432179Y292400D01*
X476211Y346095D02*
Y350094D01*
X475211Y351094D01*
X473212D01*
X472212Y350094D01*
Y346095D01*
X473212Y345096D01*
X475211D01*
X474212Y347095D02*
X476211Y345096D01*
X475211D02*
X476211Y346095D01*
X478210Y350094D02*
X479210Y351094D01*
X481209D01*
X482209Y350094D01*
Y349094D01*
X481209Y348095D01*
X480210D01*
X481209D01*
X482209Y347095D01*
Y346095D01*
X481209Y345096D01*
X479210D01*
X478210Y346095D01*
X338583Y287402D02*
Y293400D01*
X341582D01*
X342581Y292400D01*
Y290401D01*
X341582Y289401D01*
X338583D01*
X340582D02*
X342581Y287402D01*
X344581D02*
X346580D01*
X345580D01*
Y293400D01*
X344581Y292400D01*
X514764Y376969D02*
X508766D01*
Y379967D01*
X509765Y380967D01*
X511765D01*
X512764Y379967D01*
Y376969D01*
Y378968D02*
X514764Y380967D01*
Y386965D02*
Y382967D01*
X510765Y386965D01*
X509765D01*
X508766Y385966D01*
Y383966D01*
X509765Y382967D01*
X374016Y275197D02*
Y280078D01*
X376456D01*
X377269Y279264D01*
Y277638D01*
X376456Y276824D01*
X374016D01*
X375642D02*
X377269Y275197D01*
X378896Y279264D02*
X379710Y280078D01*
X381336D01*
X382150Y279264D01*
Y278451D01*
X381336Y277638D01*
X380523D01*
X381336D01*
X382150Y276824D01*
Y276011D01*
X381336Y275197D01*
X379710D01*
X378896Y276011D01*
X459637Y317968D02*
Y323966D01*
X462636D01*
X463636Y322966D01*
Y320967D01*
X462636Y319967D01*
X459637D01*
X461636D02*
X463636Y317968D01*
X468634D02*
Y323966D01*
X465635Y320967D01*
X469634D01*
X384800Y275693D02*
Y280574D01*
X387240D01*
X388053Y279760D01*
Y278133D01*
X387240Y277320D01*
X384800D01*
X386427D02*
X388053Y275693D01*
X392934Y280574D02*
X389680D01*
Y278133D01*
X391307Y278947D01*
X392121D01*
X392934Y278133D01*
Y276507D01*
X392121Y275693D01*
X390494D01*
X389680Y276507D01*
X458661Y289370D02*
Y295368D01*
X461660D01*
X462660Y294368D01*
Y292369D01*
X461660Y291369D01*
X458661D01*
X460661D02*
X462660Y289370D01*
X468658Y295368D02*
X466659Y294368D01*
X464660Y292369D01*
Y290370D01*
X465659Y289370D01*
X467659D01*
X468658Y290370D01*
Y291369D01*
X467659Y292369D01*
X464660D01*
X280512Y271654D02*
Y277652D01*
X283511D01*
X284510Y276652D01*
Y274653D01*
X283511Y273653D01*
X280512D01*
X282511D02*
X284510Y271654D01*
X286510Y277652D02*
X290509D01*
Y276652D01*
X286510Y272653D01*
Y271654D01*
X280512Y253937D02*
Y259935D01*
X283511D01*
X284510Y258935D01*
Y256936D01*
X283511Y255936D01*
X280512D01*
X282511D02*
X284510Y253937D01*
X286510Y254937D02*
X287509Y253937D01*
X289509D01*
X290509Y254937D01*
Y258935D01*
X289509Y259935D01*
X287509D01*
X286510Y258935D01*
Y257936D01*
X287509Y256936D01*
X290509D01*
X204712Y365169D02*
Y371167D01*
X207711D01*
X208711Y370168D01*
Y368168D01*
X207711Y367169D01*
X204712D01*
X206711D02*
X208711Y365169D01*
X210710D02*
X212709D01*
X211709D01*
Y371167D01*
X210710Y370168D01*
X215708D02*
X216708Y371167D01*
X218707D01*
X219707Y370168D01*
Y366169D01*
X218707Y365169D01*
X216708D01*
X215708Y366169D01*
Y370168D01*
X189900Y365500D02*
Y371498D01*
X192899D01*
X193899Y370498D01*
Y368499D01*
X192899Y367499D01*
X189900D01*
X191899D02*
X193899Y365500D01*
X195898D02*
X197897D01*
X196898D01*
Y371498D01*
X195898Y370498D01*
X200896Y365500D02*
X202896D01*
X201896D01*
Y371498D01*
X200896Y370498D01*
X200787Y323819D02*
Y327755D01*
X202755D01*
X203411Y327099D01*
Y325787D01*
X202755Y325131D01*
X200787D01*
X202099D02*
X203411Y323819D01*
X204723D02*
X206035D01*
X205379D01*
Y327755D01*
X204723Y327099D01*
X210627Y323819D02*
X208003D01*
X210627Y326443D01*
Y327099D01*
X209971Y327755D01*
X208659D01*
X208003Y327099D01*
X200787Y345472D02*
Y349408D01*
X202755D01*
X203411Y348752D01*
Y347440D01*
X202755Y346784D01*
X200787D01*
X202099D02*
X203411Y345472D01*
X204723D02*
X206035D01*
X205379D01*
Y349408D01*
X204723Y348752D01*
X208003D02*
X208659Y349408D01*
X209971D01*
X210627Y348752D01*
Y348096D01*
X209971Y347440D01*
X209315D01*
X209971D01*
X210627Y346784D01*
Y346128D01*
X209971Y345472D01*
X208659D01*
X208003Y346128D01*
X204724Y313976D02*
Y319974D01*
X207723D01*
X208723Y318975D01*
Y316975D01*
X207723Y315976D01*
X204724D01*
X206724D02*
X208723Y313976D01*
X210722D02*
X212722D01*
X211722D01*
Y319974D01*
X210722Y318975D01*
X218720Y313976D02*
Y319974D01*
X215721Y316975D01*
X219720D01*
X195837Y271714D02*
Y277712D01*
X198836D01*
X199836Y276712D01*
Y274713D01*
X198836Y273713D01*
X195837D01*
X197837D02*
X199836Y271714D01*
X201835D02*
X203835D01*
X202835D01*
Y277712D01*
X201835Y276712D01*
X210833Y277712D02*
X206834D01*
Y274713D01*
X208833Y275712D01*
X209833D01*
X210833Y274713D01*
Y272713D01*
X209833Y271714D01*
X207834D01*
X206834Y272713D01*
X196822Y243170D02*
Y249168D01*
X199821D01*
X200820Y248169D01*
Y246169D01*
X199821Y245170D01*
X196822D01*
X198821D02*
X200820Y243170D01*
X202820D02*
X204819D01*
X203819D01*
Y249168D01*
X202820Y248169D01*
X211817Y249168D02*
X209817Y248169D01*
X207818Y246169D01*
Y244170D01*
X208818Y243170D01*
X210817D01*
X211817Y244170D01*
Y245170D01*
X210817Y246169D01*
X207818D01*
X413400Y332800D02*
Y338798D01*
X416399D01*
X417399Y337798D01*
Y335799D01*
X416399Y334799D01*
X413400D01*
X415399D02*
X417399Y332800D01*
X419398D02*
X421397D01*
X420398D01*
Y338798D01*
X419398Y337798D01*
X424396Y338798D02*
X428395D01*
Y337798D01*
X424396Y333800D01*
Y332800D01*
X293307Y357874D02*
X289371D01*
Y359842D01*
X290027Y360498D01*
X291339D01*
X291995Y359842D01*
Y357874D01*
Y359186D02*
X293307Y360498D01*
Y361810D02*
Y363122D01*
Y362466D01*
X289371D01*
X290027Y361810D01*
Y365090D02*
X289371Y365746D01*
Y367058D01*
X290027Y367714D01*
X290683D01*
X291339Y367058D01*
X291995Y367714D01*
X292651D01*
X293307Y367058D01*
Y365746D01*
X292651Y365090D01*
X291995D01*
X291339Y365746D01*
X290683Y365090D01*
X290027D01*
X291339Y365746D02*
Y367058D01*
X306102Y357874D02*
X302167D01*
Y359842D01*
X302823Y360498D01*
X304134D01*
X304790Y359842D01*
Y357874D01*
Y359186D02*
X306102Y360498D01*
Y361810D02*
Y363122D01*
Y362466D01*
X302167D01*
X302823Y361810D01*
X305446Y365090D02*
X306102Y365746D01*
Y367058D01*
X305446Y367714D01*
X302823D01*
X302167Y367058D01*
Y365746D01*
X302823Y365090D01*
X303479D01*
X304134Y365746D01*
Y367714D01*
X317913Y357874D02*
X313978D01*
Y359842D01*
X314634Y360498D01*
X315946D01*
X316601Y359842D01*
Y357874D01*
Y359186D02*
X317913Y360498D01*
Y364434D02*
Y361810D01*
X315290Y364434D01*
X314634D01*
X313978Y363778D01*
Y362466D01*
X314634Y361810D01*
Y365746D02*
X313978Y366402D01*
Y367714D01*
X314634Y368370D01*
X317257D01*
X317913Y367714D01*
Y366402D01*
X317257Y365746D01*
X314634D01*
X280512Y357874D02*
X276576D01*
Y359842D01*
X277232Y360498D01*
X278544D01*
X279200Y359842D01*
Y357874D01*
Y359186D02*
X280512Y360498D01*
Y364434D02*
Y361810D01*
X277888Y364434D01*
X277232D01*
X276576Y363778D01*
Y362466D01*
X277232Y361810D01*
X280512Y365746D02*
Y367058D01*
Y366402D01*
X276576D01*
X277232Y365746D01*
X267717Y357874D02*
X263781D01*
Y359842D01*
X264437Y360498D01*
X265749D01*
X266405Y359842D01*
Y357874D01*
Y359186D02*
X267717Y360498D01*
Y364434D02*
Y361810D01*
X265093Y364434D01*
X264437D01*
X263781Y363778D01*
Y362466D01*
X264437Y361810D01*
X267717Y368370D02*
Y365746D01*
X265093Y368370D01*
X264437D01*
X263781Y367714D01*
Y366402D01*
X264437Y365746D01*
X307087Y239173D02*
X303151D01*
Y241141D01*
X303807Y241797D01*
X305119D01*
X305775Y241141D01*
Y239173D01*
Y240485D02*
X307087Y241797D01*
Y245733D02*
Y243109D01*
X304463Y245733D01*
X303807D01*
X303151Y245077D01*
Y243765D01*
X303807Y243109D01*
Y247045D02*
X303151Y247701D01*
Y249013D01*
X303807Y249669D01*
X304463D01*
X305119Y249013D01*
Y248357D01*
Y249013D01*
X305775Y249669D01*
X306431D01*
X307087Y249013D01*
Y247701D01*
X306431Y247045D01*
X289370Y227362D02*
Y233360D01*
X292369D01*
X293369Y232361D01*
Y230361D01*
X292369Y229362D01*
X289370D01*
X291369D02*
X293369Y227362D01*
X299367D02*
X295368D01*
X299367Y231361D01*
Y232361D01*
X298367Y233360D01*
X296368D01*
X295368Y232361D01*
X304365Y227362D02*
Y233360D01*
X301366Y230361D01*
X305365D01*
X160800Y313600D02*
Y319598D01*
X163799D01*
X164799Y318598D01*
Y316599D01*
X163799Y315599D01*
X160800D01*
X162799D02*
X164799Y313600D01*
X170797Y319598D02*
X166798D01*
Y313600D01*
X170797D01*
X166798Y316599D02*
X168797D01*
X176795Y318598D02*
X175795Y319598D01*
X173796D01*
X172796Y318598D01*
Y317599D01*
X173796Y316599D01*
X175795D01*
X176795Y315599D01*
Y314600D01*
X175795Y313600D01*
X173796D01*
X172796Y314600D01*
X182793Y319598D02*
X178794D01*
Y313600D01*
X182793D01*
X178794Y316599D02*
X180793D01*
X184792Y319598D02*
X188791D01*
X186792D01*
Y313600D01*
X160800Y289098D02*
Y283100D01*
X163799D01*
X164799Y284100D01*
Y285099D01*
X163799Y286099D01*
X160800D01*
X163799D01*
X164799Y287099D01*
Y288098D01*
X163799Y289098D01*
X160800D01*
X169797D02*
X167798D01*
X166798Y288098D01*
Y284100D01*
X167798Y283100D01*
X169797D01*
X170797Y284100D01*
Y288098D01*
X169797Y289098D01*
X175795D02*
X173796D01*
X172796Y288098D01*
Y284100D01*
X173796Y283100D01*
X175795D01*
X176795Y284100D01*
Y288098D01*
X175795Y289098D01*
X178794D02*
X182793D01*
X180793D01*
Y283100D01*
X190790Y288098D02*
X191790Y289098D01*
X193789D01*
X194789Y288098D01*
Y284100D01*
X193789Y283100D01*
X191790D01*
X190790Y284100D01*
Y288098D01*
X160800Y257598D02*
Y251600D01*
X163799D01*
X164799Y252600D01*
Y253599D01*
X163799Y254599D01*
X160800D01*
X163799D01*
X164799Y255599D01*
Y256598D01*
X163799Y257598D01*
X160800D01*
X169797D02*
X167798D01*
X166798Y256598D01*
Y252600D01*
X167798Y251600D01*
X169797D01*
X170797Y252600D01*
Y256598D01*
X169797Y257598D01*
X175795D02*
X173796D01*
X172796Y256598D01*
Y252600D01*
X173796Y251600D01*
X175795D01*
X176795Y252600D01*
Y256598D01*
X175795Y257598D01*
X178794D02*
X182793D01*
X180793D01*
Y251600D01*
X190790D02*
X192790D01*
X191790D01*
Y257598D01*
X190790Y256598D01*
X367766Y390264D02*
Y385265D01*
X368765Y384266D01*
X370765D01*
X371764Y385265D01*
Y390264D01*
X373764Y384266D02*
X375763D01*
X374763D01*
Y390264D01*
X373764Y389264D01*
X352362Y301274D02*
Y296275D01*
X353362Y295276D01*
X355361D01*
X356361Y296275D01*
Y301274D01*
X362359Y295276D02*
X358360D01*
X362359Y299274D01*
Y300274D01*
X361359Y301274D01*
X359360D01*
X358360Y300274D01*
X495792Y313587D02*
Y308588D01*
X496792Y307589D01*
X498792D01*
X499791Y308588D01*
Y313587D01*
X501791Y312587D02*
X502790Y313587D01*
X504790D01*
X505789Y312587D01*
Y311587D01*
X504790Y310588D01*
X503790D01*
X504790D01*
X505789Y309588D01*
Y308588D01*
X504790Y307589D01*
X502790D01*
X501791Y308588D01*
X494000Y353998D02*
Y349000D01*
X495000Y348000D01*
X496999D01*
X497999Y349000D01*
Y353998D01*
X502997Y348000D02*
Y353998D01*
X499998Y350999D01*
X503997D01*
X338956Y284550D02*
Y279552D01*
X339956Y278552D01*
X341955D01*
X342955Y279552D01*
Y284550D01*
X347953Y278552D02*
Y284550D01*
X344954Y281551D01*
X348953D01*
X221457Y367218D02*
Y362220D01*
X222456Y361221D01*
X224456D01*
X225455Y362220D01*
Y367218D01*
X231453D02*
X227455D01*
Y364219D01*
X229454Y365219D01*
X230454D01*
X231453Y364219D01*
Y362220D01*
X230454Y361221D01*
X228454D01*
X227455Y362220D01*
X321850Y338675D02*
Y333677D01*
X322850Y332677D01*
X324849D01*
X325849Y333677D01*
Y338675D01*
X331847D02*
X329848Y337676D01*
X327849Y335676D01*
Y333677D01*
X328848Y332677D01*
X330848D01*
X331847Y333677D01*
Y334677D01*
X330848Y335676D01*
X327849D01*
X330709Y351470D02*
Y350471D01*
X332708Y348471D01*
X334707Y350471D01*
Y351470D01*
X332708Y348471D02*
Y345472D01*
X336707D02*
X338706D01*
X337706D01*
Y351470D01*
X336707Y350471D01*
X545276Y202802D02*
X549274D01*
X547275Y204802D02*
Y200803D01*
X572835Y206739D02*
X576833D01*
D39*
X407390Y357702D02*
X406943Y358477D01*
X406048D01*
X405601Y357702D01*
X406048Y356928D01*
X406943D01*
X407390Y357702D01*
X271654Y343504D02*
Y349502D01*
X274653D01*
X275652Y348502D01*
Y346503D01*
X274653Y345503D01*
X271654D01*
X280651Y349502D02*
X278651D01*
X277652Y348502D01*
Y344504D01*
X278651Y343504D01*
X280651D01*
X281650Y344504D01*
Y348502D01*
X280651Y349502D01*
X283650D02*
Y343504D01*
X287648D01*
X289648Y349502D02*
X291647D01*
X290647D01*
Y343504D01*
X289648D01*
X291647D01*
X294646Y349502D02*
Y343504D01*
X297645D01*
X298645Y344504D01*
Y345503D01*
X297645Y346503D01*
X294646D01*
X297645D01*
X298645Y347503D01*
Y348502D01*
X297645Y349502D01*
X294646D01*
X300644Y343504D02*
Y347503D01*
X302643Y349502D01*
X304643Y347503D01*
Y343504D01*
Y346503D01*
X300644D01*
X306642Y349502D02*
X310641D01*
X308642D01*
Y343504D01*
X312640D02*
Y347503D01*
X314640Y349502D01*
X316639Y347503D01*
Y343504D01*
Y346503D01*
X312640D01*
X318638Y343504D02*
Y349502D01*
X320638Y347503D01*
X322637Y349502D01*
Y343504D01*
X398622Y317022D02*
Y311024D01*
X401621D01*
X402621Y312023D01*
Y313023D01*
X401621Y314023D01*
X398622D01*
X401621D01*
X402621Y315022D01*
Y316022D01*
X401621Y317022D01*
X398622D01*
X404620Y311024D02*
Y317022D01*
X407619D01*
X408619Y316022D01*
Y314023D01*
X407619Y313023D01*
X404620D01*
X406620D02*
X408619Y311024D01*
X414617Y316022D02*
X413617Y317022D01*
X411618D01*
X410618Y316022D01*
Y312023D01*
X411618Y311024D01*
X413617D01*
X414617Y312023D01*
X416616Y311024D02*
Y317022D01*
X418616Y315022D01*
X420615Y317022D01*
Y311024D01*
X422614Y314023D02*
X426613D01*
X428612Y317022D02*
Y313023D01*
X430612Y311024D01*
X432611Y313023D01*
Y317022D01*
X438609Y311024D02*
X434610D01*
X438609Y315022D01*
Y316022D01*
X437609Y317022D01*
X435610D01*
X434610Y316022D01*
X440609Y311024D02*
Y312023D01*
X441608D01*
Y311024D01*
X440609D01*
X445607D02*
X447606D01*
X446606D01*
Y317022D01*
X445607Y316022D01*
X457677Y248124D02*
Y242126D01*
X460676D01*
X461676Y243126D01*
Y244125D01*
X460676Y245125D01*
X457677D01*
X460676D01*
X461676Y246125D01*
Y247124D01*
X460676Y248124D01*
X457677D01*
X463675Y242126D02*
Y246125D01*
X465675Y248124D01*
X467674Y246125D01*
Y242126D01*
Y245125D01*
X463675D01*
X469673Y242126D02*
Y248124D01*
X472672D01*
X473672Y247124D01*
Y245125D01*
X472672Y244125D01*
X469673D01*
X471673D02*
X473672Y242126D01*
X479670Y248124D02*
X475671D01*
Y242126D01*
X479670D01*
X475671Y245125D02*
X477671D01*
X481669Y248124D02*
Y242126D01*
X485668D01*
X487668D02*
Y246125D01*
X489667Y248124D01*
X491666Y246125D01*
Y242126D01*
Y245125D01*
X487668D01*
X493666Y242126D02*
Y248124D01*
X497664Y242126D01*
Y248124D01*
X503662Y247124D02*
X502663Y248124D01*
X500663D01*
X499664Y247124D01*
Y243126D01*
X500663Y242126D01*
X502663D01*
X503662Y243126D01*
Y245125D01*
X501663D01*
X461614Y231299D02*
Y237297D01*
X464613D01*
X465613Y236298D01*
Y234298D01*
X464613Y233298D01*
X461614D01*
X463614D02*
X465613Y231299D01*
X470611Y237297D02*
X468612D01*
X467612Y236298D01*
Y232299D01*
X468612Y231299D01*
X470611D01*
X471611Y232299D01*
Y236298D01*
X470611Y237297D01*
X473610D02*
Y231299D01*
X476609D01*
X477609Y232299D01*
Y233298D01*
X476609Y234298D01*
X473610D01*
X476609D01*
X477609Y235298D01*
Y236298D01*
X476609Y237297D01*
X473610D01*
X482607D02*
X480608D01*
X479608Y236298D01*
Y232299D01*
X480608Y231299D01*
X482607D01*
X483607Y232299D01*
Y236298D01*
X482607Y237297D01*
X485606D02*
X489605D01*
X487606D01*
Y231299D01*
X491605Y237297D02*
X493604D01*
X492604D01*
Y231299D01*
X491605D01*
X493604D01*
X500602Y236298D02*
X499602Y237297D01*
X497603D01*
X496603Y236298D01*
Y232299D01*
X497603Y231299D01*
X499602D01*
X500602Y232299D01*
D47*
X222835Y336221D02*
X222390Y337144D01*
X221391Y337372D01*
X220589Y336733D01*
Y335708D01*
X221391Y335069D01*
X222390Y335297D01*
X222835Y336221D01*
D61*
X341665Y255118D02*
X341245Y255989D01*
X340303Y256204D01*
X339547Y255601D01*
Y254635D01*
X340303Y254032D01*
X341245Y254247D01*
X341665Y255118D01*
X176791Y325551D02*
X177748Y325742D01*
X178559Y326283D01*
X179101Y327095D01*
X179291Y328051D01*
Y353051D02*
X179101Y354008D01*
X178559Y354819D01*
X177748Y355361D01*
X176791Y355551D01*
X315244Y297992D02*
X315082Y298966D01*
X314612Y299835D01*
X313885Y300504D01*
X312981Y300900D01*
X311996Y300982D01*
X311039Y300739D01*
X310212Y300199D01*
X309606Y299420D01*
X309285Y298486D01*
Y297498D01*
X309606Y296564D01*
X310212Y295785D01*
X311039Y295245D01*
X311996Y295002D01*
X312981Y295084D01*
X313885Y295481D01*
X314612Y296149D01*
X315082Y297018D01*
X315244Y297992D01*
X338189Y252362D02*
Y271260D01*
X370866D01*
Y252362D02*
Y271260D01*
X338189Y252362D02*
X370866D01*
X329969Y198063D02*
Y233063D01*
X317469D02*
X329969D01*
X317469Y218063D02*
Y223063D01*
Y213063D02*
Y218063D01*
Y208063D02*
Y213063D01*
Y203063D02*
Y208063D01*
Y200563D02*
Y203063D01*
Y200563D02*
X319969Y198063D01*
X329969D01*
X317469Y208063D02*
X319969Y210563D01*
X317469Y213063D02*
X319969Y210563D01*
X317469Y218063D02*
X319969Y220563D01*
X317469Y223063D02*
X319969Y220563D01*
X317469Y223063D02*
Y228063D01*
Y233063D01*
Y228063D02*
X319969Y230563D01*
X327468D01*
Y200563D02*
Y230563D01*
X319969Y200563D02*
X327468D01*
X317469Y203063D02*
X319969Y200563D01*
X347969Y198063D02*
Y233063D01*
X335469D02*
X347969D01*
X335469Y218063D02*
Y223063D01*
Y213063D02*
Y218063D01*
Y208063D02*
Y213063D01*
Y203063D02*
Y208063D01*
Y200563D02*
Y203063D01*
Y200563D02*
X337968Y198063D01*
X347969D01*
X335469Y208063D02*
X337968Y210563D01*
X335469Y213063D02*
X337968Y210563D01*
X335469Y218063D02*
X337968Y220563D01*
X335469Y223063D02*
X337968Y220563D01*
X335469Y223063D02*
Y228063D01*
Y233063D01*
Y228063D02*
X337968Y230563D01*
X345468D01*
Y200563D02*
Y230563D01*
X337968Y200563D02*
X345468D01*
X335469Y203063D02*
X337968Y200563D01*
X365968Y198063D02*
Y233063D01*
X353468D02*
X365968D01*
X353468Y218063D02*
Y223063D01*
Y213063D02*
Y218063D01*
Y208063D02*
Y213063D01*
Y203063D02*
Y208063D01*
Y200563D02*
Y203063D01*
Y200563D02*
X355968Y198063D01*
X365968D01*
X353468Y208063D02*
X355968Y210563D01*
X353468Y213063D02*
X355968Y210563D01*
X353468Y218063D02*
X355968Y220563D01*
X353468Y223063D02*
X355968Y220563D01*
X353468Y223063D02*
Y228063D01*
Y233063D01*
Y228063D02*
X355968Y230563D01*
X363469D01*
Y200563D02*
Y230563D01*
X355968Y200563D02*
X363469D01*
X353468Y203063D02*
X355968Y200563D01*
X383968Y198063D02*
Y233063D01*
X371468D02*
X383968D01*
X371468Y218063D02*
Y223063D01*
Y213063D02*
Y218063D01*
Y208063D02*
Y213063D01*
Y203063D02*
Y208063D01*
Y200563D02*
Y203063D01*
Y200563D02*
X373969Y198063D01*
X383968D01*
X371468Y208063D02*
X373969Y210563D01*
X371468Y213063D02*
X373969Y210563D01*
X371468Y218063D02*
X373969Y220563D01*
X371468Y223063D02*
X373969Y220563D01*
X371468Y223063D02*
Y228063D01*
Y233063D01*
Y228063D02*
X373969Y230563D01*
X381469D01*
Y200563D02*
Y230563D01*
X373969Y200563D02*
X381469D01*
X371468Y203063D02*
X373969Y200563D01*
X401968Y198063D02*
Y233063D01*
X389469D02*
X401968D01*
X389469Y218063D02*
Y223063D01*
Y213063D02*
Y218063D01*
Y208063D02*
Y213063D01*
Y203063D02*
Y208063D01*
Y200563D02*
Y203063D01*
Y200563D02*
X391968Y198063D01*
X401968D01*
X389469Y208063D02*
X391968Y210563D01*
X389469Y213063D02*
X391968Y210563D01*
X389469Y218063D02*
X391968Y220563D01*
X389469Y223063D02*
X391968Y220563D01*
X389469Y223063D02*
Y228063D01*
Y233063D01*
Y228063D02*
X391968Y230563D01*
X399468D01*
Y200563D02*
Y230563D01*
X391968Y200563D02*
X399468D01*
X389469Y203063D02*
X391968Y200563D01*
X495079Y304370D02*
X524606D01*
X495079Y258307D02*
Y304370D01*
X524606Y258307D02*
Y304370D01*
X495079Y258307D02*
X524606D01*
X159291Y325551D02*
X176791D01*
X179291Y328051D02*
Y353051D01*
X159291Y355551D02*
X176791D01*
X159291Y328051D02*
Y353051D01*
X156791Y323051D02*
X159291Y325551D01*
X156791Y323051D02*
Y358051D01*
X159291Y355551D01*
X572569Y214494D02*
X576569D01*
X557569Y213494D02*
Y217494D01*
X555569Y215494D02*
X559569D01*
D62*
X328248Y246161D02*
X327510Y246588D01*
Y245735D01*
X328248Y246161D01*
X479331Y254724D02*
X478592Y255151D01*
Y254298D01*
X479331Y254724D01*
X330118Y277559D02*
X329380Y277985D01*
Y277133D01*
X330118Y277559D01*
X521850Y317717D02*
X521112Y318143D01*
Y317290D01*
X521850Y317717D01*
X363484Y303543D02*
X362746Y303970D01*
Y303117D01*
X363484Y303543D01*
X218898Y327559D02*
X218159Y327985D01*
Y327133D01*
X218898Y327559D01*
X461614Y254724D02*
X460876Y255151D01*
Y254298D01*
X461614Y254724D01*
D63*
X179213Y238189D02*
X179110Y239195D01*
X178807Y240161D01*
X178316Y241045D01*
X177657Y241813D01*
X176857Y242432D01*
X175949Y242878D01*
X174970Y243131D01*
X173959Y243182D01*
X172959Y243029D01*
X172011Y242678D01*
X171152Y242143D01*
X170419Y241446D01*
X169841Y240616D01*
X169442Y239686D01*
X169238Y238695D01*
Y237683D01*
X169442Y236692D01*
X169841Y235763D01*
X170419Y234932D01*
X171152Y234235D01*
X172011Y233700D01*
X172959Y233349D01*
X173959Y233195D01*
X174970Y233247D01*
X175949Y233500D01*
X176857Y233946D01*
X177657Y234565D01*
X178316Y235333D01*
X178807Y236217D01*
X179110Y237182D01*
X179213Y238189D01*
Y269685D02*
X179110Y270691D01*
X178807Y271657D01*
X178316Y272541D01*
X177657Y273309D01*
X176857Y273928D01*
X175949Y274374D01*
X174970Y274627D01*
X173959Y274679D01*
X172959Y274525D01*
X172011Y274174D01*
X171152Y273639D01*
X170419Y272942D01*
X169841Y272112D01*
X169442Y271182D01*
X169238Y270191D01*
Y269179D01*
X169442Y268188D01*
X169841Y267259D01*
X170419Y266428D01*
X171152Y265731D01*
X172011Y265196D01*
X172959Y264845D01*
X173959Y264691D01*
X174970Y264743D01*
X175949Y264996D01*
X176857Y265442D01*
X177657Y266061D01*
X178316Y266829D01*
X178807Y267713D01*
X179110Y268678D01*
X179213Y269685D01*
Y300197D02*
X179110Y301203D01*
X178807Y302169D01*
X178316Y303053D01*
X177657Y303821D01*
X176857Y304440D01*
X175949Y304886D01*
X174970Y305139D01*
X173959Y305190D01*
X172959Y305037D01*
X172011Y304686D01*
X171152Y304151D01*
X170419Y303454D01*
X169841Y302623D01*
X169442Y301694D01*
X169238Y300703D01*
Y299691D01*
X169442Y298700D01*
X169841Y297770D01*
X170419Y296940D01*
X171152Y296243D01*
X172011Y295708D01*
X172959Y295356D01*
X173959Y295203D01*
X174970Y295254D01*
X175949Y295508D01*
X176857Y295954D01*
X177657Y296573D01*
X178316Y297340D01*
X178807Y298225D01*
X179110Y299190D01*
X179213Y300197D01*
X340409Y319177D02*
X340466Y318169D01*
X340635Y317175D01*
X340915Y316205D01*
X341301Y315272D01*
X341789Y314389D01*
X342373Y313566D01*
X343045Y312813D01*
X343798Y312141D01*
X344621Y311557D01*
X345504Y311068D01*
X346437Y310682D01*
X347407Y310403D01*
X348402Y310234D01*
X349410Y310177D01*
X350417Y310234D01*
X351412Y310403D01*
X352382Y310682D01*
X353314Y311068D01*
X354198Y311557D01*
X355021Y312141D01*
X355773Y312813D01*
X356446Y313566D01*
X357030Y314389D01*
X357518Y315272D01*
X357904Y316205D01*
X358184Y317175D01*
X358353Y318169D01*
X358410Y319177D01*
Y346177D02*
X358353Y347185D01*
X358184Y348180D01*
X357904Y349150D01*
X357518Y350082D01*
X357030Y350965D01*
X356446Y351789D01*
X355773Y352541D01*
X355021Y353214D01*
X354198Y353798D01*
X353314Y354286D01*
X352382Y354672D01*
X351412Y354952D01*
X350417Y355121D01*
X349410Y355177D01*
X348402Y355121D01*
X347407Y354952D01*
X346437Y354672D01*
X345504Y354286D01*
X344621Y353798D01*
X343798Y353214D01*
X343045Y352541D01*
X342373Y351789D01*
X341789Y350965D01*
X341301Y350082D01*
X340915Y349150D01*
X340635Y348180D01*
X340466Y347185D01*
X340409Y346177D01*
X367610Y367510D02*
Y368614D01*
Y367510D02*
X369610D01*
X378410D02*
X380410D01*
Y368614D01*
Y379407D02*
Y380510D01*
X378410D02*
X380410D01*
X367214Y379407D02*
X368614Y380807D01*
X184213Y233189D02*
Y243071D01*
X168150Y228189D02*
X180276D01*
X164213Y233307D02*
Y243071D01*
X168150Y248189D02*
X180276D01*
X184213Y264685D02*
Y274567D01*
X168150Y259685D02*
X180276D01*
X164213Y264803D02*
Y274567D01*
X168150Y279685D02*
X180276D01*
X184213Y295197D02*
Y305079D01*
X168150Y290197D02*
X180276D01*
X164213Y295315D02*
Y305079D01*
X168150Y310197D02*
X180276D01*
X562269Y235094D02*
Y237494D01*
Y207494D02*
Y209894D01*
Y235094D02*
X589569D01*
X562269Y209894D02*
X589569D01*
Y235094D01*
X537269Y237494D02*
X562269D01*
X537269Y207494D02*
X562269D01*
X537269D02*
Y237494D01*
X340409Y319177D02*
Y346177D01*
X358410Y319177D02*
Y346177D01*
X450460Y243444D02*
Y278893D01*
X411744D02*
X450460D01*
X411744Y243444D02*
Y278893D01*
X242000Y294543D02*
Y296209D01*
Y295376D01*
X237002D01*
X237835Y294543D01*
Y298709D02*
X237002Y299542D01*
Y301208D01*
X237835Y302041D01*
X241167D01*
X242000Y301208D01*
Y299542D01*
X241167Y298709D01*
X237835D01*
X251167Y294543D02*
X252000Y295376D01*
Y297042D01*
X251167Y297876D01*
X247835D01*
X247002Y297042D01*
Y295376D01*
X247835Y294543D01*
X248668D01*
X249501Y295376D01*
Y297876D01*
X252000Y240543D02*
Y242209D01*
Y241376D01*
X247002D01*
X247835Y240543D01*
X242000Y241876D02*
Y238543D01*
X238668Y241876D01*
X237835D01*
X237002Y241042D01*
Y239376D01*
X237835Y238543D01*
D64*
X243110Y307951D02*
Y308191D01*
X224289Y305118D02*
X224529D01*
X245943Y209646D02*
X246183D01*
X261691D02*
X261931D01*
X277439D02*
X277679D01*
X293187D02*
X293427D01*
X478346Y293187D02*
Y293427D01*
X380785Y316929D02*
X381026D01*
X367006D02*
X367246D01*
X380785Y345472D02*
X381026D01*
X393701Y371927D02*
Y372167D01*
Y382754D02*
Y382994D01*
X395276Y289250D02*
Y289490D01*
Y302045D02*
Y302285D01*
X230195Y209646D02*
X230435D01*
X203872Y305118D02*
X204112D01*
X253937Y367006D02*
Y367246D01*
X520549Y364173D02*
X520789D01*
X539250D02*
X539490D01*
X555982D02*
X556222D01*
X555982Y381890D02*
X556222D01*
X366022Y345472D02*
X366262D01*
X333541Y362796D02*
X333781D01*
X570746Y364173D02*
X570986D01*
X531376Y292323D02*
X531616D01*
X401455Y250984D02*
X401695D01*
D65*
X324606Y247638D02*
Y254331D01*
X325000Y247638D02*
Y254331D01*
X324606D02*
X325000D01*
X324606Y247638D02*
X325000D01*
X489075Y276181D02*
X490158D01*
X489075Y257283D02*
X490158D01*
X478346Y276181D02*
X479429D01*
X478346Y257283D02*
X479429D01*
X490158D02*
Y276181D01*
X478346Y257283D02*
Y276181D01*
X321457Y274410D02*
X328150D01*
X321457Y274803D02*
X328150D01*
X321457Y274410D02*
Y274803D01*
X328150Y274410D02*
Y274803D01*
X260591Y239094D02*
Y249095D01*
X300590D01*
X260591Y239094D02*
X300590D01*
Y249095D01*
X503740Y343898D02*
X515945D01*
X503740Y317520D02*
X515945D01*
X503740D02*
Y343898D01*
X515945Y317520D02*
Y343898D01*
X197441Y376890D02*
Y386890D01*
X237441D01*
X197441Y376890D02*
X237441D01*
Y386890D01*
X529035Y250984D02*
X529528D01*
X529035Y211614D02*
X529528D01*
X509842Y250984D02*
X510335D01*
X509842Y211614D02*
X510335D01*
X529528D02*
Y250984D01*
X509842Y211614D02*
Y250984D01*
X546801Y239567D02*
X579331D01*
Y254429D01*
Y265256D02*
Y280118D01*
X546801D02*
X579331D01*
X538779Y247589D02*
Y254429D01*
Y247589D02*
X546801Y239567D01*
X538779Y272096D02*
X546801Y280118D01*
X538779Y265256D02*
Y272096D01*
X552707Y283858D02*
X579331D01*
Y294783D01*
Y305610D02*
Y316535D01*
X552707D02*
X579331D01*
X546654Y289911D02*
Y294783D01*
Y289911D02*
X552707Y283858D01*
X546654Y310482D02*
X552707Y316535D01*
X546654Y305610D02*
Y310482D01*
X552707Y320276D02*
X579331D01*
Y331201D01*
Y342028D02*
Y352953D01*
X552707D02*
X579331D01*
X546654Y326329D02*
Y331201D01*
Y326329D02*
X552707Y320276D01*
X546654Y346900D02*
X552707Y352953D01*
X546654Y342028D02*
Y346900D01*
X365551Y286614D02*
X368406D01*
X365551D02*
Y289469D01*
X380217Y286614D02*
X383071D01*
Y289469D01*
Y301279D02*
Y304134D01*
X380217D02*
X383071D01*
X365551D02*
X368406D01*
X365551Y301279D02*
Y304134D01*
X255000Y243543D02*
Y293543D01*
X235000Y243543D02*
Y293543D01*
Y243543D02*
X255000D01*
X235000Y293543D02*
X255000D01*
X395905Y244016D02*
Y254016D01*
X375905Y244016D02*
X395905D01*
X375905D02*
Y254016D01*
X395905D01*
X410827Y340906D02*
Y359016D01*
Y373189D02*
Y391299D01*
X461221D01*
X410827Y340906D02*
X449409D01*
X461221Y352717D01*
Y359016D01*
Y373189D02*
Y391299D01*
X412402Y232776D02*
Y233268D01*
X451772Y232776D02*
Y233268D01*
X412402Y213583D02*
Y214075D01*
X451772Y213583D02*
Y214075D01*
X412402Y233268D02*
X451772D01*
X412402Y213583D02*
X451772D01*
X217717Y332283D02*
X258661D01*
X217717Y350787D02*
X258661D01*
X217717Y332283D02*
Y350787D01*
X258661Y332283D02*
Y350787D01*
X471358Y276181D02*
X472441D01*
X471358Y257283D02*
X472441D01*
X460630Y276181D02*
X461713D01*
X460630Y257283D02*
X461713D01*
X472441D02*
Y276181D01*
X460630Y257283D02*
Y276181D01*
X351378Y376969D02*
Y378805D01*
X352296Y379724D01*
X353215Y378805D01*
Y376969D01*
Y378346D01*
X351378D01*
X355970Y379264D02*
X355510Y379724D01*
X354592D01*
X354133Y379264D01*
Y377428D01*
X354592Y376969D01*
X355510D01*
X355970Y377428D01*
X358725Y379264D02*
X358265Y379724D01*
X357347D01*
X356888Y379264D01*
Y377428D01*
X357347Y376969D01*
X358265D01*
X358725Y377428D01*
X361480Y379724D02*
X359643D01*
Y376969D01*
X361480D01*
X359643Y378346D02*
X360561D01*
X362398Y379724D02*
Y376969D01*
X364235D01*
X387664Y296587D02*
X387204Y297046D01*
X386286D01*
X385827Y296587D01*
Y294750D01*
X386286Y294291D01*
X387204D01*
X387664Y294750D01*
Y295669D01*
X386745D01*
X388582Y297046D02*
Y296587D01*
X389500Y295669D01*
X390419Y296587D01*
Y297046D01*
X389500Y295669D02*
Y294291D01*
X391337D02*
Y297046D01*
X392714D01*
X393174Y296587D01*
Y295669D01*
X392714Y295210D01*
X391337D01*
X392255D02*
X393174Y294291D01*
X395469Y297046D02*
X394551D01*
X394092Y296587D01*
Y294750D01*
X394551Y294291D01*
X395469D01*
X395929Y294750D01*
Y296587D01*
X395469Y297046D01*
D66*
X482962Y332046D02*
Y337246D01*
X471762Y332046D02*
X482962D01*
X471762D02*
Y337246D01*
X482962D01*
X313844Y293292D02*
X316944D01*
X277544D02*
Y296392D01*
Y332692D02*
X280644D01*
X313344Y294692D02*
X315544Y296892D01*
X313844Y332692D02*
X316944D01*
X277544Y329592D02*
Y332692D01*
Y293292D02*
X280644D01*
X316944D02*
Y296392D01*
Y329592D02*
Y332692D01*
X405206Y265117D02*
Y270317D01*
X394006Y265117D02*
X405206D01*
X394006D02*
Y270317D01*
X405206D01*
D67*
X298228Y264272D02*
D03*
X464567Y311024D02*
D03*
X418307Y325787D02*
D03*
X201772Y236221D02*
D03*
X200787Y264764D02*
D03*
X354331Y289370D02*
D03*
X205709Y342520D02*
D03*
X298228Y254921D02*
D03*
Y273622D02*
D03*
X205709Y331693D02*
D03*
X463583Y285433D02*
D03*
D68*
X192913Y356630D02*
D03*
X207677Y356299D02*
D03*
X387796Y266732D02*
D03*
X339567Y375984D02*
D03*
X213582Y305118D02*
D03*
X310039Y229330D02*
D03*
X271654Y362795D02*
D03*
X284449Y362795D02*
D03*
X297244Y362796D02*
D03*
X310039D02*
D03*
X321850Y362795D02*
D03*
X250985Y379267D02*
D03*
X262244Y379268D02*
D03*
X520669Y381890D02*
D03*
X345473Y362795D02*
D03*
X310039Y246063D02*
D03*
X377953Y266339D02*
D03*
D69*
X539370Y382382D02*
D03*
X297244Y375492D02*
D03*
X310039D02*
D03*
X271654Y375492D02*
D03*
X284449D02*
D03*
X321850D02*
D03*
D70*
X421102Y284803D02*
D03*
X441102D02*
D03*
D71*
X431102Y280558D02*
D03*
M02*
