G04 Layer_Physical_Order=2*
G04 Layer_Color=16711680*
%FSLAX25Y25*%
%MOIN*%
G70*
G01*
G75*
%ADD38C,0.01000*%
%ADD40C,0.07874*%
%ADD41C,0.03937*%
%ADD46C,0.15748*%
%ADD48R,0.06693X0.06693*%
%ADD49C,0.06693*%
%ADD50R,0.06693X0.06693*%
%ADD51C,0.27559*%
%ADD52O,0.28000X0.14000*%
%ADD53O,0.14000X0.28000*%
%ADD54C,0.05905*%
%ADD55R,0.05905X0.05905*%
%ADD56C,0.06299*%
%ADD57C,0.02756*%
%ADD58C,0.01618*%
%ADD59C,0.03937*%
%ADD60C,0.05000*%
G36*
X590551Y196850D02*
X157480D01*
Y393701D01*
X590551D01*
Y196850D01*
D02*
G37*
%LPC*%
G36*
X240000Y262927D02*
X238865Y262778D01*
X237808Y262340D01*
X236900Y261643D01*
X236203Y260735D01*
X235765Y259678D01*
X235616Y258543D01*
X235765Y257409D01*
X236203Y256351D01*
X236900Y255443D01*
X237808Y254747D01*
X238865Y254309D01*
X240000Y254159D01*
X241135Y254309D01*
X242192Y254747D01*
X243100Y255443D01*
X243797Y256351D01*
X244235Y257409D01*
X244384Y258543D01*
X244235Y259678D01*
X243797Y260735D01*
X243100Y261643D01*
X242192Y262340D01*
X241135Y262778D01*
X240000Y262927D01*
D02*
G37*
G36*
X250000Y272927D02*
X248865Y272778D01*
X247808Y272340D01*
X246900Y271643D01*
X246203Y270735D01*
X245765Y269678D01*
X245616Y268543D01*
X245765Y267409D01*
X246203Y266351D01*
X246900Y265443D01*
X247808Y264747D01*
X248471Y264472D01*
Y262614D01*
X247808Y262340D01*
X246900Y261643D01*
X246203Y260735D01*
X245765Y259678D01*
X245616Y258543D01*
X245765Y257409D01*
X246203Y256351D01*
X246900Y255443D01*
X247808Y254747D01*
X248865Y254309D01*
X250000Y254159D01*
X251135Y254309D01*
X252192Y254747D01*
X253100Y255443D01*
X253797Y256351D01*
X254235Y257409D01*
X254384Y258543D01*
X254235Y259678D01*
X253797Y260735D01*
X253100Y261643D01*
X252192Y262340D01*
X251529Y262614D01*
Y264472D01*
X252192Y264747D01*
X253100Y265443D01*
X253797Y266351D01*
X254235Y267409D01*
X254384Y268543D01*
X254235Y269678D01*
X253797Y270735D01*
X253100Y271643D01*
X252192Y272340D01*
X251135Y272778D01*
X250000Y272927D01*
D02*
G37*
G36*
X385252Y253362D02*
X376559D01*
Y244669D01*
X385252D01*
Y253362D01*
D02*
G37*
G36*
X580819Y233432D02*
X566819D01*
X565251Y233278D01*
X563743Y232821D01*
X562353Y232078D01*
X561135Y231078D01*
X560135Y229860D01*
X559392Y228470D01*
X558935Y226962D01*
X558780Y225394D01*
X558935Y223825D01*
X559392Y222317D01*
X560135Y220928D01*
X561135Y219709D01*
X562353Y218710D01*
X563743Y217967D01*
X565251Y217510D01*
X566819Y217355D01*
X580819D01*
X582387Y217510D01*
X583895Y217967D01*
X585285Y218710D01*
X586503Y219709D01*
X587503Y220928D01*
X588246Y222317D01*
X588703Y223825D01*
X588858Y225394D01*
X588703Y226962D01*
X588246Y228470D01*
X587503Y229860D01*
X586503Y231078D01*
X585285Y232078D01*
X583895Y232821D01*
X582387Y233278D01*
X580819Y233432D01*
D02*
G37*
G36*
X343504Y264236D02*
X342576Y264051D01*
X341790Y263525D01*
X341264Y262739D01*
X341079Y261811D01*
X341264Y260883D01*
X341790Y260097D01*
X342576Y259571D01*
X342959Y259495D01*
Y257744D01*
X342774Y257620D01*
X342248Y256833D01*
X342064Y255906D01*
X342248Y254978D01*
X342774Y254191D01*
X343560Y253665D01*
X344488Y253481D01*
X345416Y253665D01*
X346203Y254191D01*
X346728Y254978D01*
X346913Y255906D01*
X346728Y256833D01*
X346203Y257620D01*
X346018Y257744D01*
Y260827D01*
X345901Y261412D01*
X345861Y261472D01*
X345929Y261811D01*
X345744Y262739D01*
X345218Y263525D01*
X344432Y264051D01*
X343504Y264236D01*
D02*
G37*
G36*
X380815Y209909D02*
X372122D01*
Y201217D01*
X380815D01*
Y209909D01*
D02*
G37*
G36*
X387795Y291795D02*
X386867Y291610D01*
X386081Y291085D01*
X385957Y290899D01*
X348295D01*
X348171Y291085D01*
X347385Y291610D01*
X346457Y291795D01*
X345529Y291610D01*
X344742Y291085D01*
X344217Y290298D01*
X344032Y289370D01*
X344217Y288442D01*
X344742Y287656D01*
X345529Y287130D01*
X346457Y286946D01*
X347385Y287130D01*
X348171Y287656D01*
X348295Y287841D01*
X385957D01*
X386081Y287656D01*
X386867Y287130D01*
X387795Y286946D01*
X388723Y287130D01*
X389510Y287656D01*
X390035Y288442D01*
X390220Y289370D01*
X390035Y290298D01*
X389510Y291085D01*
X388723Y291610D01*
X387795Y291795D01*
D02*
G37*
G36*
X362815Y209909D02*
X354122D01*
Y201217D01*
X362815D01*
Y209909D01*
D02*
G37*
G36*
X509842Y295723D02*
X508708Y295573D01*
X507651Y295135D01*
X506743Y294439D01*
X506046Y293531D01*
X505608Y292473D01*
X505459Y291339D01*
X505608Y290204D01*
X506046Y289147D01*
X506743Y288239D01*
X507651Y287542D01*
X508708Y287104D01*
X509842Y286955D01*
X510977Y287104D01*
X512035Y287542D01*
X512943Y288239D01*
X513639Y289147D01*
X514077Y290204D01*
X514226Y291339D01*
X514077Y292473D01*
X513639Y293531D01*
X512943Y294439D01*
X512035Y295135D01*
X510977Y295573D01*
X509842Y295723D01*
D02*
G37*
G36*
X553150Y240193D02*
X541339D01*
X540948Y240115D01*
X540618Y239894D01*
X533042Y232319D01*
X508858D01*
X508468Y232241D01*
X508137Y232020D01*
X506169Y230052D01*
X505948Y229721D01*
X505870Y229331D01*
Y209646D01*
X505948Y209256D01*
X506169Y208925D01*
X510106Y204988D01*
X510437Y204767D01*
X510827Y204689D01*
X553150D01*
X553540Y204767D01*
X553871Y204988D01*
X556823Y207941D01*
X557044Y208271D01*
X557122Y208661D01*
Y236221D01*
X557044Y236611D01*
X556823Y236941D01*
X553871Y239894D01*
X553540Y240115D01*
X553150Y240193D01*
D02*
G37*
G36*
X398815Y209909D02*
X390122D01*
Y201217D01*
X398815D01*
Y209909D01*
D02*
G37*
G36*
X390905Y253400D02*
X389771Y253250D01*
X388714Y252812D01*
X387806Y252116D01*
X387109Y251208D01*
X386671Y250150D01*
X386522Y249016D01*
X386671Y247881D01*
X387109Y246824D01*
X387806Y245916D01*
X388714Y245219D01*
X389771Y244781D01*
X390905Y244632D01*
X392040Y244781D01*
X393097Y245219D01*
X394005Y245916D01*
X394702Y246824D01*
X395140Y247881D01*
X395289Y249016D01*
X395140Y250150D01*
X394702Y251208D01*
X394005Y252116D01*
X393097Y252812D01*
X392040Y253250D01*
X390905Y253400D01*
D02*
G37*
G36*
X322468Y229947D02*
X321334Y229798D01*
X320276Y229360D01*
X319369Y228663D01*
X318672Y227755D01*
X318234Y226698D01*
X318085Y225563D01*
X318234Y224428D01*
X318672Y223371D01*
X319369Y222463D01*
X320276Y221766D01*
X321334Y221328D01*
X322468Y221179D01*
X323603Y221328D01*
X324660Y221766D01*
X325568Y222463D01*
X326265Y223371D01*
X326703Y224428D01*
X326852Y225563D01*
X326703Y226698D01*
X326265Y227755D01*
X325568Y228663D01*
X324660Y229360D01*
X323603Y229798D01*
X322468Y229947D01*
D02*
G37*
G36*
X340469D02*
X339334Y229798D01*
X338277Y229360D01*
X337369Y228663D01*
X336672Y227755D01*
X336234Y226698D01*
X336085Y225563D01*
X336234Y224428D01*
X336672Y223371D01*
X337369Y222463D01*
X338277Y221766D01*
X339334Y221328D01*
X340469Y221179D01*
X341603Y221328D01*
X342660Y221766D01*
X343568Y222463D01*
X344265Y223371D01*
X344703Y224428D01*
X344852Y225563D01*
X344703Y226698D01*
X344265Y227755D01*
X343568Y228663D01*
X342660Y229360D01*
X341603Y229798D01*
X340469Y229947D01*
D02*
G37*
G36*
X358469D02*
X357334Y229798D01*
X356276Y229360D01*
X355369Y228663D01*
X354672Y227755D01*
X354234Y226698D01*
X354084Y225563D01*
X354234Y224428D01*
X354672Y223371D01*
X355369Y222463D01*
X356276Y221766D01*
X357334Y221328D01*
X358469Y221179D01*
X359603Y221328D01*
X360661Y221766D01*
X361568Y222463D01*
X362265Y223371D01*
X362703Y224428D01*
X362853Y225563D01*
X362703Y226698D01*
X362265Y227755D01*
X361568Y228663D01*
X360661Y229360D01*
X359603Y229798D01*
X358469Y229947D01*
D02*
G37*
G36*
X382874Y271125D02*
X381946Y270941D01*
X381160Y270415D01*
X380634Y269629D01*
X380450Y268701D01*
X380634Y267773D01*
X381160Y266986D01*
X381345Y266863D01*
Y260476D01*
X378304Y257435D01*
X370933D01*
X370809Y257620D01*
X370022Y258145D01*
X369094Y258330D01*
X368167Y258145D01*
X367380Y257620D01*
X366855Y256833D01*
X366670Y255906D01*
X366855Y254978D01*
X367380Y254191D01*
X367565Y254067D01*
Y244728D01*
X361571Y238734D01*
X306102D01*
X305517Y238618D01*
X305021Y238286D01*
X298579Y231844D01*
X279177D01*
X277120Y233901D01*
Y240023D01*
X277783Y240298D01*
X278691Y240995D01*
X279387Y241902D01*
X279825Y242960D01*
X279975Y244094D01*
X279825Y245229D01*
X279387Y246287D01*
X278691Y247194D01*
X277783Y247891D01*
X276725Y248329D01*
X275590Y248479D01*
X274456Y248329D01*
X273399Y247891D01*
X272491Y247194D01*
X271794Y246287D01*
X271356Y245229D01*
X271207Y244094D01*
X271356Y242960D01*
X271794Y241902D01*
X272491Y240995D01*
X273399Y240298D01*
X274061Y240023D01*
Y233268D01*
X274178Y232682D01*
X274509Y232186D01*
X277462Y229234D01*
X277958Y228902D01*
X278543Y228786D01*
X299213D01*
X299798Y228902D01*
X300294Y229234D01*
X306736Y235675D01*
X362205D01*
X362790Y235792D01*
X363286Y236123D01*
X370176Y243013D01*
X370508Y243509D01*
X370624Y244094D01*
Y254067D01*
X370809Y254191D01*
X370933Y254376D01*
X378937D01*
X379522Y254492D01*
X380018Y254824D01*
X383956Y258761D01*
X384287Y259257D01*
X384403Y259842D01*
Y266863D01*
X384588Y266986D01*
X385114Y267773D01*
X385299Y268701D01*
X385114Y269629D01*
X384588Y270415D01*
X383802Y270941D01*
X382874Y271125D01*
D02*
G37*
G36*
X224410Y272110D02*
X223482Y271925D01*
X222695Y271399D01*
X222169Y270613D01*
X221985Y269685D01*
X222169Y268757D01*
X222695Y267971D01*
X222880Y267847D01*
Y261681D01*
X222695Y261557D01*
X222169Y260770D01*
X221985Y259842D01*
X222169Y258915D01*
X222695Y258128D01*
X223482Y257603D01*
X224410Y257418D01*
X225337Y257603D01*
X226124Y258128D01*
X226649Y258915D01*
X226834Y259842D01*
X226649Y260770D01*
X226124Y261557D01*
X225939Y261681D01*
Y267847D01*
X226124Y267971D01*
X226649Y268757D01*
X226834Y269685D01*
X226649Y270613D01*
X226124Y271399D01*
X225337Y271925D01*
X224410Y272110D01*
D02*
G37*
G36*
X447835Y279563D02*
X414370D01*
X413980Y279485D01*
X413649Y279264D01*
X413428Y278934D01*
X413350Y278543D01*
Y246063D01*
X413428Y245673D01*
X413649Y245342D01*
X417978Y241013D01*
X418098Y240933D01*
X418178Y240813D01*
X421251Y237740D01*
X421044Y237240D01*
X406496D01*
X406106Y237162D01*
X405775Y236941D01*
X405554Y236611D01*
X405477Y236221D01*
Y227784D01*
X398200Y220508D01*
X397314D01*
X397281Y220501D01*
X397248Y220506D01*
X397087Y220463D01*
X396924Y220430D01*
X396896Y220411D01*
X396863Y220403D01*
X396731Y220302D01*
X396593Y220209D01*
X396574Y220181D01*
X396548Y220160D01*
X396494Y220068D01*
X395757Y220373D01*
X394468Y220543D01*
X322468D01*
X321180Y220373D01*
X320443Y220068D01*
X320389Y220161D01*
X320362Y220181D01*
X320344Y220209D01*
X320206Y220301D01*
X320074Y220403D01*
X320041Y220411D01*
X320013Y220430D01*
X319850Y220463D01*
X319689Y220506D01*
X319656Y220501D01*
X319623Y220508D01*
X305540D01*
X302886Y223162D01*
X302555Y223383D01*
X302165Y223461D01*
X292323D01*
X291933Y223383D01*
X291602Y223162D01*
X286979Y218539D01*
X225394D01*
X225004Y218462D01*
X224673Y218241D01*
X222704Y216272D01*
X222483Y215941D01*
X222406Y215551D01*
Y209646D01*
X222483Y209256D01*
X222704Y208925D01*
X223689Y207941D01*
X224019Y207719D01*
X224410Y207642D01*
X305118D01*
X305508Y207719D01*
X305839Y207941D01*
X308493Y210595D01*
X319654D01*
X319687Y210601D01*
X319720Y210597D01*
X319881Y210640D01*
X320044Y210672D01*
X320072Y210691D01*
X320105Y210700D01*
X320236Y210801D01*
X320374Y210893D01*
X320393Y210921D01*
X320420Y210942D01*
X320479Y211043D01*
X321180Y210753D01*
X322468Y210583D01*
X394468D01*
X395757Y210753D01*
X396458Y211043D01*
X396517Y210942D01*
X396544Y210921D01*
X396563Y210893D01*
X396701Y210801D01*
X396832Y210700D01*
X396865Y210691D01*
X396893Y210672D01*
X397056Y210640D01*
X397217Y210597D01*
X397250Y210601D01*
X397284Y210595D01*
X402137D01*
X403807Y208925D01*
X404137Y208704D01*
X404528Y208626D01*
X428150D01*
X428540Y208704D01*
X428871Y208925D01*
X431823Y211877D01*
X432044Y212208D01*
X432122Y212598D01*
Y215335D01*
X432622Y215542D01*
X433727Y214438D01*
X433846Y214358D01*
X433926Y214238D01*
X437271Y210893D01*
X437602Y210672D01*
X437992Y210595D01*
X453740D01*
X454130Y210672D01*
X454461Y210893D01*
X458398Y214830D01*
X458619Y215161D01*
X458697Y215551D01*
Y229893D01*
X468926Y240122D01*
X492126D01*
X492516Y240200D01*
X492847Y240421D01*
X493068Y240752D01*
X493146Y241142D01*
Y256890D01*
X493068Y257280D01*
X492847Y257611D01*
X483989Y266469D01*
X483658Y266690D01*
X483268Y266768D01*
X459681D01*
Y267717D01*
X459603Y268107D01*
X459382Y268438D01*
X448556Y279264D01*
X448225Y279485D01*
X447835Y279563D01*
D02*
G37*
G36*
X285591Y248479D02*
X284456Y248329D01*
X283399Y247891D01*
X282491Y247194D01*
X281794Y246287D01*
X281356Y245229D01*
X281207Y244094D01*
X281356Y242960D01*
X281794Y241902D01*
X282491Y240995D01*
X283399Y240298D01*
X284456Y239860D01*
X285591Y239710D01*
X286725Y239860D01*
X287783Y240298D01*
X288690Y240995D01*
X289387Y241902D01*
X289825Y242960D01*
X289974Y244094D01*
X289825Y245229D01*
X289387Y246287D01*
X288690Y247194D01*
X287783Y247891D01*
X286725Y248329D01*
X285591Y248479D01*
D02*
G37*
G36*
X394468Y229947D02*
X393334Y229798D01*
X392277Y229360D01*
X391369Y228663D01*
X390672Y227755D01*
X390234Y226698D01*
X390085Y225563D01*
X390234Y224428D01*
X390672Y223371D01*
X391369Y222463D01*
X392277Y221766D01*
X393334Y221328D01*
X394468Y221179D01*
X395603Y221328D01*
X396660Y221766D01*
X397568Y222463D01*
X398265Y223371D01*
X398703Y224428D01*
X398852Y225563D01*
X398703Y226698D01*
X398265Y227755D01*
X397568Y228663D01*
X396660Y229360D01*
X395603Y229798D01*
X394468Y229947D01*
D02*
G37*
G36*
X467520Y308106D02*
X410433D01*
X410043Y308029D01*
X409712Y307808D01*
X407744Y305839D01*
X407523Y305508D01*
X407445Y305118D01*
Y286417D01*
X407523Y286027D01*
X407744Y285696D01*
X408074Y285475D01*
X408465Y285398D01*
X421405D01*
X422020Y285069D01*
X423693Y284561D01*
X425433Y284390D01*
X425433Y284390D01*
X466779D01*
X505870Y245299D01*
Y238189D01*
X505948Y237799D01*
X506169Y237468D01*
X509122Y234515D01*
X509452Y234294D01*
X509842Y234217D01*
X511967D01*
X512130Y234249D01*
X512295Y234271D01*
X512324Y234288D01*
X512358Y234294D01*
X512496Y234386D01*
X512640Y234470D01*
X512692Y234516D01*
X513198Y234618D01*
X513267Y234612D01*
X513989Y234313D01*
X514764Y234211D01*
X515539Y234313D01*
X516261Y234612D01*
X516881Y235088D01*
X516974Y235209D01*
X517474D01*
X517568Y235088D01*
X518188Y234612D01*
X518910Y234313D01*
X519685Y234211D01*
X520460Y234313D01*
X521182Y234612D01*
X521802Y235088D01*
X521896Y235209D01*
X522396D01*
X522489Y235088D01*
X523109Y234612D01*
X523831Y234313D01*
X524606Y234211D01*
X525381Y234313D01*
X526103Y234612D01*
X526124Y234627D01*
X526682Y234515D01*
X526710Y234496D01*
X526730Y234470D01*
X526874Y234387D01*
X527013Y234294D01*
X527046Y234288D01*
X527075Y234271D01*
X527240Y234249D01*
X527403Y234217D01*
X530512D01*
X530902Y234294D01*
X531233Y234515D01*
X531454Y234846D01*
X531531Y235236D01*
Y261811D01*
X531454Y262201D01*
X531233Y262532D01*
X516469Y277296D01*
X516138Y277517D01*
X515748Y277594D01*
X514189D01*
Y285685D01*
X505496D01*
Y277594D01*
X498796D01*
X476778Y299612D01*
X475426Y300721D01*
X475213Y300835D01*
X468241Y307808D01*
X467910Y308029D01*
X467520Y308106D01*
D02*
G37*
G36*
X376468Y229947D02*
X375334Y229798D01*
X374276Y229360D01*
X373369Y228663D01*
X372672Y227755D01*
X372234Y226698D01*
X372084Y225563D01*
X372234Y224428D01*
X372672Y223371D01*
X373369Y222463D01*
X374276Y221766D01*
X375334Y221328D01*
X376468Y221179D01*
X377603Y221328D01*
X378660Y221766D01*
X379568Y222463D01*
X380265Y223371D01*
X380703Y224428D01*
X380853Y225563D01*
X380703Y226698D01*
X380265Y227755D01*
X379568Y228663D01*
X378660Y229360D01*
X377603Y229798D01*
X376468Y229947D01*
D02*
G37*
G36*
X269937Y248441D02*
X261244D01*
Y239748D01*
X269937D01*
Y248441D01*
D02*
G37*
G36*
X295590Y248479D02*
X294456Y248329D01*
X293399Y247891D01*
X292491Y247194D01*
X291794Y246287D01*
X291356Y245229D01*
X291207Y244094D01*
X291356Y242960D01*
X291794Y241902D01*
X292491Y240995D01*
X293399Y240298D01*
X294456Y239860D01*
X295590Y239710D01*
X296725Y239860D01*
X297782Y240298D01*
X298691Y240995D01*
X299387Y241902D01*
X299825Y242960D01*
X299974Y244094D01*
X299825Y245229D01*
X299387Y246287D01*
X298691Y247194D01*
X297782Y247891D01*
X296725Y248329D01*
X295590Y248479D01*
D02*
G37*
G36*
X349410Y346863D02*
X348326Y346720D01*
X347317Y346302D01*
X346450Y345637D01*
X345785Y344770D01*
X345367Y343760D01*
X345224Y342677D01*
X345367Y341594D01*
X345785Y340584D01*
X346450Y339718D01*
X347317Y339053D01*
X348326Y338634D01*
X349410Y338492D01*
X350493Y338634D01*
X351502Y339053D01*
X352369Y339718D01*
X353034Y340584D01*
X353452Y341594D01*
X353595Y342677D01*
X353452Y343760D01*
X353034Y344770D01*
X352369Y345637D01*
X351502Y346302D01*
X350493Y346720D01*
X349410Y346863D01*
D02*
G37*
G36*
X173228Y227424D02*
X170909Y227241D01*
X168647Y226698D01*
X166498Y225808D01*
X164514Y224592D01*
X162745Y223081D01*
X161234Y221312D01*
X160019Y219329D01*
X159129Y217180D01*
X158586Y214918D01*
X158403Y212598D01*
X158586Y210279D01*
X159129Y208017D01*
X160019Y205868D01*
X161234Y203884D01*
X162745Y202115D01*
X164514Y200605D01*
X166498Y199389D01*
X168647Y198499D01*
X170909Y197956D01*
X173228Y197773D01*
X175548Y197956D01*
X177810Y198499D01*
X179959Y199389D01*
X181942Y200605D01*
X183711Y202115D01*
X185222Y203884D01*
X186438Y205868D01*
X187328Y208017D01*
X187871Y210279D01*
X188054Y212598D01*
X187871Y214918D01*
X187328Y217180D01*
X186438Y219329D01*
X185222Y221312D01*
X183711Y223081D01*
X181942Y224592D01*
X179959Y225808D01*
X177810Y226698D01*
X175548Y227241D01*
X173228Y227424D01*
D02*
G37*
G36*
X484252D02*
X481933Y227241D01*
X479671Y226698D01*
X477522Y225808D01*
X475538Y224592D01*
X473769Y223081D01*
X472258Y221312D01*
X471043Y219329D01*
X470152Y217180D01*
X469609Y214918D01*
X469427Y212598D01*
X469609Y210279D01*
X470152Y208017D01*
X471043Y205868D01*
X472258Y203884D01*
X473769Y202115D01*
X475538Y200605D01*
X477522Y199389D01*
X479671Y198499D01*
X481933Y197956D01*
X484252Y197773D01*
X486571Y197956D01*
X488833Y198499D01*
X490982Y199389D01*
X492966Y200605D01*
X494735Y202115D01*
X496246Y203884D01*
X497461Y205868D01*
X498352Y208017D01*
X498895Y210279D01*
X499077Y212598D01*
X498895Y214918D01*
X498352Y217180D01*
X497461Y219329D01*
X496246Y221312D01*
X494735Y223081D01*
X492966Y224592D01*
X490982Y225808D01*
X488833Y226698D01*
X486571Y227241D01*
X484252Y227424D01*
D02*
G37*
G36*
X250984Y350850D02*
X250056Y350665D01*
X249270Y350140D01*
X248744Y349353D01*
X248560Y348425D01*
X248744Y347497D01*
X249270Y346711D01*
X249455Y346587D01*
Y344137D01*
X247398Y342081D01*
X237738D01*
X237546Y342543D01*
X238074Y343071D01*
X238189Y343048D01*
X239117Y343232D01*
X239903Y343758D01*
X240429Y344545D01*
X240614Y345472D01*
X240429Y346400D01*
X239903Y347187D01*
X239117Y347712D01*
X238189Y347897D01*
X237261Y347712D01*
X236475Y347187D01*
X235949Y346400D01*
X235764Y345472D01*
X235828Y345150D01*
X228624Y337946D01*
X228249Y337696D01*
X227918Y337199D01*
X227801Y336614D01*
Y333661D01*
X227918Y333076D01*
X228249Y332580D01*
X231202Y329627D01*
X231698Y329296D01*
X232283Y329179D01*
X236221D01*
X236806Y329296D01*
X237302Y329627D01*
X239270Y331596D01*
X239602Y332092D01*
X239718Y332677D01*
Y333792D01*
X239903Y333915D01*
X240429Y334702D01*
X240614Y335630D01*
X240429Y336558D01*
X239903Y337344D01*
X239117Y337870D01*
X238189Y338054D01*
X237261Y337870D01*
X236475Y337344D01*
X236002Y336637D01*
X235728Y336593D01*
X235455Y336637D01*
X235060Y337228D01*
X236854Y339022D01*
X248031D01*
X248617Y339138D01*
X249113Y339470D01*
X252066Y342423D01*
X252397Y342919D01*
X252514Y343504D01*
Y346587D01*
X252699Y346711D01*
X253224Y347497D01*
X253409Y348425D01*
X253224Y349353D01*
X252699Y350140D01*
X251912Y350665D01*
X250984Y350850D01*
D02*
G37*
G36*
X363189Y375456D02*
X362261Y375272D01*
X361475Y374746D01*
X360949Y373959D01*
X360764Y373031D01*
X360949Y372104D01*
X361475Y371317D01*
X361660Y371194D01*
Y363189D01*
X361776Y362604D01*
X362107Y362107D01*
X367502Y356713D01*
Y312578D01*
X360455Y305531D01*
X360236Y305574D01*
X359308Y305390D01*
X358522Y304864D01*
X358398Y304679D01*
X342045D01*
X329666Y317058D01*
X329170Y317389D01*
X328584Y317506D01*
X297846D01*
X287499Y327853D01*
X287003Y328185D01*
X286417Y328301D01*
X283334D01*
X283210Y328486D01*
X282424Y329012D01*
X281496Y329196D01*
X280733Y329045D01*
X280487Y329505D01*
X283114Y332132D01*
X289370D01*
X289955Y332248D01*
X290452Y332580D01*
X293404Y335533D01*
X293736Y336029D01*
X293852Y336614D01*
Y341666D01*
X294037Y341790D01*
X294563Y342576D01*
X294747Y343504D01*
X294563Y344432D01*
X294037Y345218D01*
X293748Y345411D01*
X293900Y345912D01*
X319882D01*
X320467Y346028D01*
X320963Y346359D01*
X322932Y348328D01*
X323263Y348824D01*
X323380Y349409D01*
Y351508D01*
X323565Y351632D01*
X324090Y352419D01*
X324275Y353346D01*
X324090Y354274D01*
X323565Y355061D01*
X323323Y355223D01*
X323475Y355723D01*
X325185D01*
X327211Y353697D01*
Y323819D01*
X327327Y323234D01*
X327659Y322737D01*
X338170Y312226D01*
X338127Y312008D01*
X338311Y311080D01*
X338837Y310294D01*
X339623Y309768D01*
X340551Y309583D01*
X341479Y309768D01*
X342266Y310294D01*
X342791Y311080D01*
X342976Y312008D01*
X342791Y312936D01*
X342266Y313722D01*
X341479Y314248D01*
X340551Y314432D01*
X340333Y314389D01*
X330270Y324452D01*
Y354331D01*
X330153Y354916D01*
X330046Y355076D01*
X330435Y355395D01*
X332132Y353697D01*
Y327756D01*
X332248Y327171D01*
X332580Y326675D01*
X340139Y319116D01*
X340095Y318898D01*
X340280Y317970D01*
X340805Y317183D01*
X341592Y316658D01*
X342520Y316473D01*
X343447Y316658D01*
X344234Y317183D01*
X344760Y317970D01*
X344944Y318898D01*
X344760Y319826D01*
X344234Y320612D01*
X343447Y321138D01*
X342520Y321322D01*
X342302Y321279D01*
X335191Y328389D01*
Y354331D01*
X335074Y354916D01*
X334743Y355412D01*
X329822Y360333D01*
X329325Y360665D01*
X328740Y360781D01*
X314961D01*
X314375Y360665D01*
X313879Y360333D01*
X310258Y356712D01*
X310039Y356755D01*
X309111Y356571D01*
X308325Y356045D01*
X307799Y355258D01*
X307615Y354331D01*
X307784Y353482D01*
X307547Y352982D01*
X300756D01*
X299625Y354113D01*
X299669Y354331D01*
X299484Y355258D01*
X298958Y356045D01*
X298172Y356571D01*
X297244Y356755D01*
X296316Y356571D01*
X295530Y356045D01*
X295004Y355258D01*
X294819Y354331D01*
X295004Y353403D01*
X295530Y352616D01*
X296316Y352091D01*
X297244Y351906D01*
X297462Y351950D01*
X299041Y350371D01*
X299537Y350040D01*
X300122Y349923D01*
X312083D01*
X312668Y350040D01*
X313164Y350371D01*
X318515Y355723D01*
X320226D01*
X320378Y355223D01*
X320136Y355061D01*
X319610Y354274D01*
X319426Y353346D01*
X319610Y352419D01*
X320136Y351632D01*
X320321Y351508D01*
Y350043D01*
X319248Y348970D01*
X281905D01*
X281713Y349432D01*
X284231Y351950D01*
X284449Y351906D01*
X285377Y352091D01*
X286163Y352616D01*
X286689Y353403D01*
X286873Y354331D01*
X286689Y355258D01*
X286163Y356045D01*
X285377Y356571D01*
X284449Y356755D01*
X283521Y356571D01*
X282734Y356045D01*
X282209Y355258D01*
X282024Y354331D01*
X282068Y354113D01*
X273525Y345570D01*
X273193Y345074D01*
X273077Y344488D01*
Y334515D01*
X272892Y334392D01*
X272366Y333605D01*
X272182Y332677D01*
X272366Y331749D01*
X272892Y330963D01*
X273678Y330437D01*
X274606Y330253D01*
X275534Y330437D01*
X276321Y330963D01*
X276846Y331749D01*
X277031Y332677D01*
X276846Y333605D01*
X276321Y334392D01*
X276136Y334515D01*
Y337990D01*
X276636Y338142D01*
X276829Y337853D01*
X277615Y337327D01*
X278543Y337142D01*
X279471Y337327D01*
X280258Y337853D01*
X280783Y338639D01*
X280968Y339567D01*
X280783Y340495D01*
X280258Y341281D01*
X280073Y341405D01*
Y344839D01*
X281145Y345912D01*
X290746D01*
X290898Y345411D01*
X290608Y345218D01*
X290083Y344432D01*
X289898Y343504D01*
X290083Y342576D01*
X290608Y341790D01*
X290793Y341666D01*
Y337248D01*
X288737Y335191D01*
X282480D01*
X281895Y335074D01*
X281399Y334743D01*
X273525Y326869D01*
X273193Y326373D01*
X273077Y325787D01*
Y319531D01*
X269052Y315506D01*
X263649D01*
X263525Y315691D01*
X262739Y316216D01*
X261811Y316401D01*
X260883Y316216D01*
X260097Y315691D01*
X259571Y314904D01*
X259457Y314330D01*
X258926Y314225D01*
X258604Y314706D01*
X257818Y315232D01*
X256890Y315417D01*
X255962Y315232D01*
X255175Y314706D01*
X255052Y314522D01*
X191799D01*
X191675Y314706D01*
X191490Y314830D01*
Y336965D01*
X214349Y359824D01*
X214567Y359780D01*
X215495Y359965D01*
X216281Y360490D01*
X216807Y361277D01*
X216991Y362205D01*
X216807Y363133D01*
X216281Y363919D01*
X215495Y364445D01*
X214567Y364629D01*
X213639Y364445D01*
X212853Y363919D01*
X212327Y363133D01*
X212142Y362205D01*
X212186Y361986D01*
X188879Y338680D01*
X188548Y338184D01*
X188431Y337598D01*
Y314830D01*
X188246Y314706D01*
X187721Y313920D01*
X187536Y312992D01*
X187721Y312064D01*
X188246Y311278D01*
X189033Y310752D01*
X189961Y310568D01*
X190889Y310752D01*
X191675Y311278D01*
X191799Y311463D01*
X216927D01*
X217079Y310963D01*
X216790Y310770D01*
X216264Y309983D01*
X216079Y309055D01*
X216264Y308127D01*
X216790Y307341D01*
X216974Y307217D01*
Y289019D01*
X192147Y264192D01*
X191929Y264236D01*
X191001Y264051D01*
X190215Y263525D01*
X189689Y262739D01*
X189505Y261811D01*
X189689Y260883D01*
X190215Y260097D01*
X191001Y259571D01*
X191929Y259386D01*
X192147Y259430D01*
X212501Y239076D01*
X212997Y238744D01*
X213583Y238628D01*
X246063D01*
X246648Y238744D01*
X247144Y239076D01*
X251081Y243013D01*
X251413Y243509D01*
X251529Y244094D01*
Y244197D01*
X254346D01*
Y252890D01*
X245654D01*
Y244197D01*
X247286D01*
X247478Y243735D01*
X245429Y241687D01*
X214216D01*
X194310Y261593D01*
X194354Y261811D01*
X194310Y262029D01*
X219585Y287304D01*
X219917Y287801D01*
X220033Y288386D01*
Y307217D01*
X220218Y307341D01*
X220744Y308127D01*
X220929Y309055D01*
X220744Y309983D01*
X220218Y310770D01*
X219929Y310963D01*
X220081Y311463D01*
X255052D01*
X255175Y311278D01*
X255465Y311085D01*
X255313Y310584D01*
X239173D01*
X238588Y310468D01*
X238092Y310137D01*
X231650Y303695D01*
X231169D01*
X231045Y303880D01*
X230258Y304405D01*
X229331Y304590D01*
X228403Y304405D01*
X227616Y303880D01*
X227091Y303093D01*
X226906Y302165D01*
X227091Y301238D01*
X227616Y300451D01*
X228403Y299925D01*
X229331Y299741D01*
X230258Y299925D01*
X231045Y300451D01*
X231169Y300636D01*
X232283D01*
X232869Y300752D01*
X233365Y301084D01*
X239807Y307526D01*
X253344D01*
X253496Y307026D01*
X253207Y306833D01*
X252681Y306046D01*
X252497Y305118D01*
X252540Y304900D01*
X250937Y303296D01*
X250394Y303461D01*
X250272Y304077D01*
X249746Y304864D01*
X248959Y305390D01*
X248031Y305574D01*
X247104Y305390D01*
X246317Y304864D01*
X245792Y304077D01*
X245607Y303150D01*
X245792Y302222D01*
X245828Y302167D01*
X245592Y301726D01*
X237205D01*
X236619Y301610D01*
X236123Y301278D01*
X229234Y294389D01*
X228902Y293892D01*
X228786Y293307D01*
Y252953D01*
X228902Y252367D01*
X229234Y251871D01*
X233643Y247462D01*
X234139Y247130D01*
X234724Y247014D01*
X235929D01*
X236203Y246351D01*
X236900Y245443D01*
X237808Y244747D01*
X238865Y244309D01*
X240000Y244159D01*
X241135Y244309D01*
X242192Y244747D01*
X243100Y245443D01*
X243797Y246351D01*
X244235Y247409D01*
X244384Y248543D01*
X244235Y249678D01*
X243797Y250735D01*
X243100Y251643D01*
X242192Y252340D01*
X241135Y252778D01*
X240000Y252927D01*
X238865Y252778D01*
X237808Y252340D01*
X236900Y251643D01*
X236203Y250735D01*
X235929Y250073D01*
X235358D01*
X231844Y253586D01*
Y273883D01*
X232306Y274074D01*
X236040Y270340D01*
X235765Y269678D01*
X235616Y268543D01*
X235765Y267409D01*
X236203Y266351D01*
X236900Y265443D01*
X237808Y264747D01*
X238865Y264309D01*
X240000Y264159D01*
X241135Y264309D01*
X242192Y264747D01*
X243100Y265443D01*
X243797Y266351D01*
X244235Y267409D01*
X244384Y268543D01*
X244235Y269678D01*
X243797Y270735D01*
X243100Y271643D01*
X242192Y272340D01*
X241135Y272778D01*
X240000Y272927D01*
X238865Y272778D01*
X238203Y272503D01*
X233844Y276862D01*
Y291845D01*
X234761Y292762D01*
X237598D01*
X237706Y292262D01*
X236900Y291643D01*
X236203Y290735D01*
X235765Y289678D01*
X235616Y288543D01*
X235765Y287409D01*
X236203Y286351D01*
X236900Y285443D01*
X237808Y284747D01*
X238865Y284309D01*
X240000Y284159D01*
X241135Y284309D01*
X242192Y284747D01*
X243100Y285443D01*
X243797Y286351D01*
X244235Y287409D01*
X244384Y288543D01*
X244235Y289678D01*
X243797Y290735D01*
X243100Y291643D01*
X242294Y292262D01*
X242402Y292762D01*
X247598D01*
X247706Y292262D01*
X246900Y291643D01*
X246203Y290735D01*
X245765Y289678D01*
X245616Y288543D01*
X245765Y287409D01*
X246203Y286351D01*
X246861Y285494D01*
X246767Y285050D01*
X246747Y284994D01*
X244921D01*
X244336Y284877D01*
X243840Y284546D01*
X241797Y282503D01*
X241135Y282778D01*
X240000Y282927D01*
X238865Y282778D01*
X237808Y282340D01*
X236900Y281643D01*
X236203Y280735D01*
X235765Y279678D01*
X235616Y278543D01*
X235765Y277409D01*
X236203Y276351D01*
X236900Y275443D01*
X237808Y274747D01*
X238865Y274309D01*
X240000Y274159D01*
X241135Y274309D01*
X242192Y274747D01*
X243100Y275443D01*
X243797Y276351D01*
X244235Y277409D01*
X244384Y278543D01*
X244235Y279678D01*
X243960Y280341D01*
X245555Y281935D01*
X246494D01*
X246740Y281435D01*
X246203Y280735D01*
X245765Y279678D01*
X245616Y278543D01*
X245765Y277409D01*
X246203Y276351D01*
X246900Y275443D01*
X247808Y274747D01*
X248865Y274309D01*
X250000Y274159D01*
X251135Y274309D01*
X252192Y274747D01*
X253100Y275443D01*
X253797Y276351D01*
X254235Y277409D01*
X254384Y278543D01*
X254235Y279678D01*
X253797Y280735D01*
X253260Y281435D01*
X253506Y281935D01*
X274770D01*
X275137Y281510D01*
X275134Y281496D01*
X275319Y280568D01*
X275845Y279782D01*
X276631Y279256D01*
X277559Y279071D01*
X278487Y279256D01*
X279274Y279782D01*
X279595Y280263D01*
X280126Y280158D01*
X280240Y279584D01*
X280766Y278797D01*
X281553Y278272D01*
X282480Y278087D01*
X283408Y278272D01*
X284195Y278797D01*
X284720Y279584D01*
X284905Y280512D01*
X284861Y280730D01*
X290035Y285904D01*
X305557D01*
X305709Y285404D01*
X305372Y285179D01*
X304847Y284392D01*
X304662Y283465D01*
X304847Y282537D01*
X304883Y282482D01*
X304647Y282041D01*
X302035D01*
X301911Y282226D01*
X301125Y282752D01*
X300197Y282936D01*
X299269Y282752D01*
X299155Y282676D01*
X298600Y282906D01*
X298500Y283408D01*
X297974Y284195D01*
X297188Y284720D01*
X296260Y284905D01*
X295332Y284720D01*
X294545Y284195D01*
X294020Y283408D01*
X293835Y282480D01*
X294020Y281553D01*
X294545Y280766D01*
X294730Y280642D01*
Y280120D01*
X294231Y279969D01*
X294037Y280258D01*
X293251Y280783D01*
X292323Y280968D01*
X291395Y280783D01*
X290608Y280258D01*
X290083Y279471D01*
X289898Y278543D01*
X289942Y278325D01*
X288737Y277120D01*
X262665D01*
X262541Y277305D01*
X261755Y277831D01*
X260827Y278015D01*
X259899Y277831D01*
X259112Y277305D01*
X258587Y276518D01*
X258402Y275590D01*
X258587Y274663D01*
X259112Y273876D01*
X259899Y273351D01*
X260827Y273166D01*
X261755Y273351D01*
X262541Y273876D01*
X262665Y274061D01*
X289370D01*
X289955Y274178D01*
X290293Y274404D01*
X290793Y274189D01*
Y264764D01*
X290910Y264178D01*
X291241Y263682D01*
X308958Y245966D01*
X309454Y245634D01*
X310039Y245518D01*
X331693D01*
X332278Y245634D01*
X332774Y245966D01*
X334427Y247619D01*
X334646Y247575D01*
X335574Y247760D01*
X336360Y248286D01*
X336886Y249072D01*
X337070Y250000D01*
X336918Y250763D01*
X337379Y251009D01*
X341438Y246950D01*
X341934Y246619D01*
X342520Y246502D01*
X352362D01*
X352947Y246619D01*
X353444Y246950D01*
X355412Y248919D01*
X355744Y249415D01*
X355860Y250000D01*
Y254067D01*
X356045Y254191D01*
X356571Y254978D01*
X356755Y255906D01*
X356571Y256833D01*
X356045Y257620D01*
X355258Y258145D01*
X354331Y258330D01*
X353403Y258145D01*
X352616Y257620D01*
X352091Y256833D01*
X351906Y255906D01*
X352091Y254978D01*
X352616Y254191D01*
X352801Y254067D01*
Y250634D01*
X351729Y249561D01*
X343153D01*
X337696Y255018D01*
X337199Y255350D01*
X336614Y255466D01*
X323819D01*
X323234Y255350D01*
X322738Y255018D01*
X318678Y250959D01*
X318218Y251206D01*
X318369Y251969D01*
X318185Y252896D01*
X317659Y253683D01*
X317474Y253806D01*
Y259209D01*
X318132Y259867D01*
X318593Y259621D01*
X318442Y258858D01*
X318626Y257930D01*
X319152Y257144D01*
X319938Y256618D01*
X320866Y256434D01*
X321794Y256618D01*
X322581Y257144D01*
X322704Y257329D01*
X326902D01*
X327026Y257144D01*
X327812Y256618D01*
X328740Y256434D01*
X329668Y256618D01*
X330455Y257144D01*
X330980Y257930D01*
X331165Y258858D01*
X330980Y259786D01*
X330455Y260573D01*
X329668Y261098D01*
X328740Y261283D01*
X327812Y261098D01*
X327026Y260573D01*
X326902Y260388D01*
X322704D01*
X322581Y260573D01*
X321794Y261098D01*
X320866Y261283D01*
X320104Y261131D01*
X319857Y261592D01*
X322484Y264219D01*
X333661D01*
X334247Y264335D01*
X334743Y264667D01*
X340648Y270572D01*
X340980Y271068D01*
X341096Y271654D01*
Y277014D01*
X397638D01*
X398223Y277130D01*
X398719Y277462D01*
X405609Y284352D01*
X405940Y284848D01*
X406057Y285433D01*
Y309406D01*
X407130Y310478D01*
X424213D01*
X424798Y310595D01*
X425294Y310926D01*
X433890Y319522D01*
X434126Y319425D01*
X435039Y319304D01*
X435953Y319425D01*
X436804Y319777D01*
X437536Y320338D01*
X438097Y321070D01*
X438449Y321921D01*
X438570Y322835D01*
X438449Y323748D01*
X438097Y324600D01*
X438033Y324682D01*
Y333783D01*
X438097Y333865D01*
X438449Y334716D01*
X438570Y335630D01*
X438449Y336544D01*
X438097Y337395D01*
X437536Y338126D01*
X436804Y338687D01*
X435953Y339040D01*
X435039Y339160D01*
X434126Y339040D01*
X433274Y338687D01*
X432543Y338126D01*
X431982Y337395D01*
X431630Y336544D01*
X431509Y335630D01*
X431630Y334716D01*
X431982Y333865D01*
X432045Y333783D01*
Y324682D01*
X431982Y324600D01*
X431630Y323748D01*
X431509Y322835D01*
X431630Y321921D01*
X431727Y321685D01*
X423579Y313537D01*
X406496D01*
X405911Y313421D01*
X405415Y313089D01*
X403446Y311121D01*
X403115Y310625D01*
X402998Y310039D01*
Y286067D01*
X397004Y280073D01*
X371656D01*
X371504Y280573D01*
X371793Y280766D01*
X372319Y281553D01*
X372503Y282480D01*
X372319Y283408D01*
X371793Y284195D01*
X371007Y284720D01*
X370079Y284905D01*
X369151Y284720D01*
X368364Y284195D01*
X368241Y284010D01*
X347090D01*
X342585Y288514D01*
X342089Y288846D01*
X341504Y288963D01*
X299653D01*
X299461Y289424D01*
X302262Y292226D01*
X302594Y292722D01*
X302711Y293307D01*
Y297375D01*
X302895Y297498D01*
X303217Y297980D01*
X303748Y297874D01*
X303862Y297301D01*
X304388Y296514D01*
X305174Y295988D01*
X306102Y295804D01*
X307030Y295988D01*
X307817Y296514D01*
X307940Y296699D01*
X324455D01*
X324532Y296316D01*
X325057Y295530D01*
X325844Y295004D01*
X326772Y294819D01*
X327699Y295004D01*
X328486Y295530D01*
X329012Y296316D01*
X329196Y297244D01*
X329012Y298172D01*
X328975Y298226D01*
X329211Y298668D01*
X331823D01*
X331947Y298482D01*
X332734Y297957D01*
X333661Y297772D01*
X334589Y297957D01*
X335376Y298482D01*
X335901Y299269D01*
X336045Y299989D01*
X336560Y300181D01*
X343531Y293210D01*
X344027Y292878D01*
X344613Y292762D01*
X358398D01*
X358522Y292577D01*
X359308Y292051D01*
X360236Y291867D01*
X361164Y292051D01*
X361951Y292577D01*
X362074Y292762D01*
X369094D01*
X369680Y292878D01*
X370176Y293210D01*
X374113Y297147D01*
X374445Y297643D01*
X374561Y298228D01*
Y306616D01*
X375002Y306852D01*
X375056Y306815D01*
X375984Y306631D01*
X376912Y306815D01*
X377699Y307341D01*
X377822Y307526D01*
X396784D01*
X396908Y307341D01*
X397694Y306815D01*
X398622Y306631D01*
X399550Y306815D01*
X400337Y307341D01*
X400862Y308127D01*
X401047Y309055D01*
X400862Y309983D01*
X400337Y310770D01*
X399550Y311295D01*
X398622Y311480D01*
X397694Y311295D01*
X396908Y310770D01*
X396784Y310584D01*
X388388D01*
X388236Y311085D01*
X388525Y311278D01*
X389051Y312064D01*
X389236Y312992D01*
X389192Y313210D01*
X392366Y316384D01*
X418307D01*
X418892Y316500D01*
X419388Y316832D01*
X427262Y324706D01*
X427594Y325202D01*
X427710Y325787D01*
Y337949D01*
X432720Y342959D01*
X461965D01*
X464622Y340301D01*
X464526Y339567D01*
X464628Y338792D01*
X464927Y338070D01*
X465403Y337450D01*
X480166Y322686D01*
X480786Y322210D01*
X481508Y321911D01*
X482283Y321809D01*
X488189D01*
X488964Y321911D01*
X489686Y322210D01*
X490306Y322686D01*
X490782Y323306D01*
X491081Y324028D01*
X491183Y324803D01*
X491081Y325578D01*
X490782Y326300D01*
X490306Y326920D01*
X489686Y327396D01*
X488964Y327695D01*
X488189Y327797D01*
X483524D01*
X469637Y341684D01*
X469017Y342160D01*
X468295Y342459D01*
X467520Y342561D01*
X466785Y342464D01*
X463680Y345570D01*
X463184Y345901D01*
X462598Y346018D01*
X432087D01*
X431501Y345901D01*
X431005Y345570D01*
X425100Y339664D01*
X424768Y339168D01*
X424652Y338583D01*
Y326421D01*
X417674Y319443D01*
X391732D01*
X391147Y319326D01*
X390651Y318995D01*
X387029Y315373D01*
X386811Y315417D01*
X385883Y315232D01*
X385097Y314706D01*
X384571Y313920D01*
X384386Y312992D01*
X384571Y312064D01*
X385097Y311278D01*
X385386Y311085D01*
X385234Y310584D01*
X377822D01*
X377699Y310770D01*
X376912Y311295D01*
X375984Y311480D01*
X375056Y311295D01*
X375002Y311259D01*
X374561Y311494D01*
Y324211D01*
X375061Y324362D01*
X375254Y324073D01*
X376041Y323547D01*
X376969Y323363D01*
X377896Y323547D01*
X378683Y324073D01*
X378806Y324258D01*
X408595D01*
X408719Y324073D01*
X409505Y323547D01*
X410433Y323363D01*
X411361Y323547D01*
X412148Y324073D01*
X412673Y324860D01*
X412858Y325787D01*
X412673Y326715D01*
X412148Y327502D01*
X411361Y328027D01*
X410433Y328212D01*
X409505Y328027D01*
X408719Y327502D01*
X408595Y327317D01*
X378806D01*
X378683Y327502D01*
X377896Y328027D01*
X377322Y328141D01*
X377217Y328672D01*
X377699Y328994D01*
X378224Y329781D01*
X378409Y330709D01*
X378224Y331637D01*
X377699Y332423D01*
X377514Y332547D01*
Y359603D01*
X378719Y360808D01*
X378937Y360764D01*
X379865Y360949D01*
X380651Y361475D01*
X381177Y362261D01*
X381362Y363189D01*
X381177Y364117D01*
X380651Y364903D01*
X379865Y365429D01*
X378937Y365614D01*
X378009Y365429D01*
X377223Y364903D01*
X376750Y364196D01*
X376476Y364152D01*
X376203Y364196D01*
X375730Y364903D01*
X374944Y365429D01*
X374016Y365614D01*
X373088Y365429D01*
X372301Y364903D01*
X371829Y364196D01*
X371555Y364152D01*
X371282Y364196D01*
X370809Y364903D01*
X370022Y365429D01*
X369094Y365614D01*
X368167Y365429D01*
X367380Y364903D01*
X366855Y364117D01*
X366670Y363189D01*
X366822Y362426D01*
X366361Y362180D01*
X364718Y363823D01*
Y371194D01*
X364903Y371317D01*
X365429Y372104D01*
X365614Y373031D01*
X365429Y373959D01*
X364903Y374746D01*
X364117Y375272D01*
X363189Y375456D01*
D02*
G37*
G36*
X349410Y326863D02*
X348326Y326720D01*
X347317Y326302D01*
X346450Y325637D01*
X345785Y324770D01*
X345367Y323760D01*
X345224Y322677D01*
X345367Y321594D01*
X345785Y320585D01*
X346450Y319718D01*
X347317Y319053D01*
X348326Y318634D01*
X349410Y318492D01*
X350493Y318634D01*
X351502Y319053D01*
X352369Y319718D01*
X353034Y320585D01*
X353452Y321594D01*
X353595Y322677D01*
X353452Y323760D01*
X353034Y324770D01*
X352369Y325637D01*
X351502Y326302D01*
X350493Y326720D01*
X349410Y326863D01*
D02*
G37*
G36*
X310044Y329201D02*
X309116Y329016D01*
X308330Y328491D01*
X308203Y328301D01*
X301051D01*
X300927Y328486D01*
X300140Y329012D01*
X299213Y329196D01*
X298285Y329012D01*
X297498Y328486D01*
X296973Y327699D01*
X296788Y326772D01*
X296973Y325844D01*
X297498Y325057D01*
X298285Y324532D01*
X299213Y324347D01*
X300140Y324532D01*
X300927Y325057D01*
X301051Y325242D01*
X308209D01*
X308330Y325062D01*
X309116Y324536D01*
X310044Y324352D01*
X310972Y324536D01*
X311758Y325062D01*
X312284Y325849D01*
X312469Y326776D01*
X312284Y327704D01*
X311758Y328491D01*
X310972Y329016D01*
X310044Y329201D01*
D02*
G37*
G36*
X232283Y323291D02*
X231356Y323106D01*
X230569Y322581D01*
X230044Y321794D01*
X229859Y320866D01*
X229862Y320852D01*
X229494Y320427D01*
X215421D01*
X215297Y320612D01*
X214510Y321138D01*
X213583Y321322D01*
X212655Y321138D01*
X211868Y320612D01*
X211343Y319826D01*
X211158Y318898D01*
X211343Y317970D01*
X211868Y317183D01*
X212655Y316658D01*
X213583Y316473D01*
X214510Y316658D01*
X215297Y317183D01*
X215421Y317368D01*
X230315D01*
X230900Y317485D01*
X231396Y317816D01*
X232065Y318485D01*
X232283Y318442D01*
X233211Y318626D01*
X233998Y319152D01*
X234523Y319938D01*
X234708Y320866D01*
X234523Y321794D01*
X233998Y322581D01*
X233211Y323106D01*
X232283Y323291D01*
D02*
G37*
G36*
X271654Y356755D02*
X270726Y356571D01*
X269939Y356045D01*
X269414Y355258D01*
X269229Y354331D01*
X269272Y354113D01*
X266635Y351475D01*
X266304Y350979D01*
X266187Y350394D01*
Y321720D01*
X266002Y321596D01*
X265477Y320810D01*
X265292Y319882D01*
X265477Y318954D01*
X266002Y318167D01*
X266789Y317642D01*
X267717Y317457D01*
X268644Y317642D01*
X269431Y318167D01*
X269956Y318954D01*
X270141Y319882D01*
X269956Y320810D01*
X269431Y321596D01*
X269246Y321720D01*
Y349760D01*
X271435Y351950D01*
X271654Y351906D01*
X272581Y352091D01*
X273368Y352616D01*
X273893Y353403D01*
X274078Y354331D01*
X273893Y355258D01*
X273368Y356045D01*
X272581Y356571D01*
X271654Y356755D01*
D02*
G37*
G36*
X484252Y392778D02*
X481933Y392596D01*
X479671Y392052D01*
X477522Y391162D01*
X475538Y389947D01*
X473769Y388436D01*
X472258Y386667D01*
X471043Y384683D01*
X470152Y382534D01*
X469609Y380272D01*
X469427Y377953D01*
X469609Y375634D01*
X470152Y373372D01*
X471043Y371222D01*
X472258Y369239D01*
X473769Y367470D01*
X475538Y365959D01*
X477522Y364743D01*
X479671Y363853D01*
X481933Y363310D01*
X484252Y363127D01*
X486571Y363310D01*
X488833Y363853D01*
X490982Y364743D01*
X492966Y365959D01*
X494735Y367470D01*
X496246Y369239D01*
X497461Y371222D01*
X498352Y373372D01*
X498895Y375634D01*
X499077Y377953D01*
X498895Y380272D01*
X498352Y382534D01*
X497461Y384683D01*
X496246Y386667D01*
X494735Y388436D01*
X492966Y389947D01*
X490982Y391162D01*
X488833Y392052D01*
X486571Y392596D01*
X484252Y392778D01*
D02*
G37*
G36*
X173228D02*
X170909Y392596D01*
X168647Y392052D01*
X166498Y391162D01*
X164514Y389947D01*
X162745Y388436D01*
X161234Y386667D01*
X160019Y384683D01*
X159129Y382534D01*
X158586Y380272D01*
X158403Y377953D01*
X158586Y375634D01*
X159129Y373372D01*
X160019Y371222D01*
X161234Y369239D01*
X162745Y367470D01*
X164514Y365959D01*
X166498Y364743D01*
X168647Y363853D01*
X170909Y363310D01*
X173228Y363127D01*
X175548Y363310D01*
X177810Y363853D01*
X179959Y364743D01*
X181942Y365959D01*
X183711Y367470D01*
X185222Y369239D01*
X186438Y371222D01*
X187328Y373372D01*
X187871Y375634D01*
X188054Y377953D01*
X187871Y380272D01*
X187328Y382534D01*
X186438Y384683D01*
X185222Y386667D01*
X183711Y388436D01*
X181942Y389947D01*
X179959Y391162D01*
X177810Y392052D01*
X175548Y392596D01*
X173228Y392778D01*
D02*
G37*
G36*
X221457Y388340D02*
X217362D01*
X216777Y388224D01*
X216281Y387893D01*
X214238Y385850D01*
X213576Y386124D01*
X212441Y386274D01*
X211306Y386124D01*
X210249Y385686D01*
X209341Y384990D01*
X208644Y384082D01*
X208206Y383024D01*
X208057Y381890D01*
X208206Y380755D01*
X208644Y379698D01*
X209341Y378790D01*
X210249Y378093D01*
X211306Y377655D01*
X212441Y377506D01*
X213576Y377655D01*
X214633Y378093D01*
X215541Y378790D01*
X216238Y379698D01*
X216675Y380755D01*
X216825Y381890D01*
X216675Y383024D01*
X216401Y383687D01*
X217996Y385282D01*
X218935D01*
X219181Y384782D01*
X218644Y384082D01*
X218206Y383024D01*
X218057Y381890D01*
X218206Y380755D01*
X218644Y379698D01*
X219341Y378790D01*
X220249Y378093D01*
X220941Y377807D01*
X221028Y377367D01*
X221359Y376871D01*
X225296Y372934D01*
X225793Y372603D01*
X226378Y372486D01*
X229759D01*
X230006Y371986D01*
X229715Y371608D01*
X197835D01*
X197249Y371492D01*
X196753Y371160D01*
X189863Y364270D01*
X189532Y363774D01*
X189416Y363189D01*
Y350009D01*
X188828Y349558D01*
X188352Y348938D01*
X188053Y348216D01*
X187951Y347441D01*
X188053Y346666D01*
X188352Y345944D01*
X188828Y345324D01*
X189448Y344848D01*
X190170Y344549D01*
X190945Y344447D01*
X191720Y344549D01*
X192442Y344848D01*
X193062Y345324D01*
X193538Y345944D01*
X193837Y346666D01*
X193939Y347441D01*
X193837Y348216D01*
X193538Y348938D01*
X193062Y349558D01*
X192474Y350009D01*
Y362556D01*
X198468Y368549D01*
X229715D01*
X230166Y367962D01*
X230786Y367486D01*
X231508Y367187D01*
X232283Y367085D01*
X233058Y367187D01*
X233781Y367486D01*
X234401Y367962D01*
X234876Y368582D01*
X235176Y369304D01*
X235278Y370079D01*
X235176Y370854D01*
X234876Y371576D01*
X234561Y371986D01*
X234808Y372486D01*
X246414D01*
X250439Y368461D01*
Y364043D01*
X250254Y363919D01*
X249728Y363133D01*
X249544Y362205D01*
X249728Y361277D01*
X250254Y360490D01*
X251041Y359965D01*
X251969Y359780D01*
X252896Y359965D01*
X253683Y360490D01*
X253687Y360496D01*
X254187D01*
X254191Y360490D01*
X254978Y359965D01*
X255906Y359780D01*
X256833Y359965D01*
X257620Y360490D01*
X258145Y361277D01*
X258330Y362205D01*
X258145Y363133D01*
X257620Y363919D01*
X257435Y364043D01*
Y368110D01*
X257318Y368695D01*
X256987Y369192D01*
X249081Y377097D01*
X248585Y377429D01*
X248000Y377545D01*
X234616D01*
X234517Y378045D01*
X234633Y378093D01*
X235541Y378790D01*
X236238Y379698D01*
X236676Y380755D01*
X236825Y381890D01*
X236676Y383024D01*
X236238Y384082D01*
X235541Y384990D01*
X234633Y385686D01*
X233576Y386124D01*
X232441Y386274D01*
X231306Y386124D01*
X230249Y385686D01*
X229341Y384990D01*
X229152Y384743D01*
X228537Y384764D01*
X228444Y384904D01*
X225530Y387818D01*
X225034Y388149D01*
X224448Y388266D01*
X221833D01*
X221457Y388340D01*
D02*
G37*
G36*
X206787Y386236D02*
X198094D01*
Y377543D01*
X206787D01*
Y386236D01*
D02*
G37*
G36*
X344815Y209909D02*
X336122D01*
Y201217D01*
X344815D01*
Y209909D01*
D02*
G37*
G36*
X326815D02*
X318122D01*
Y201217D01*
X326815D01*
Y209909D01*
D02*
G37*
G36*
X448819Y369144D02*
X447787Y369008D01*
X446826Y368610D01*
X446000Y367977D01*
X445366Y367151D01*
X444968Y366189D01*
X444832Y365158D01*
X444968Y364126D01*
X445366Y363164D01*
X446000Y362338D01*
X446826Y361705D01*
X447787Y361307D01*
X448819Y361171D01*
X449851Y361307D01*
X450812Y361705D01*
X451638Y362338D01*
X452272Y363164D01*
X452670Y364126D01*
X452806Y365158D01*
X452670Y366189D01*
X452272Y367151D01*
X451638Y367977D01*
X450812Y368610D01*
X449851Y369008D01*
X448819Y369144D01*
D02*
G37*
G36*
X398622Y391293D02*
X263779D01*
X263194Y391177D01*
X262698Y390845D01*
X257108Y385255D01*
X256890Y385299D01*
X255962Y385114D01*
X255175Y384588D01*
X254650Y383802D01*
X254465Y382874D01*
X254650Y381946D01*
X255175Y381160D01*
X255962Y380634D01*
X256890Y380450D01*
X257818Y380634D01*
X258604Y381160D01*
X259130Y381946D01*
X259314Y382874D01*
X259271Y383092D01*
X264413Y388234D01*
X397989D01*
X419276Y366947D01*
Y361205D01*
X427181D01*
Y369110D01*
X421439D01*
X399704Y390845D01*
X399207Y391177D01*
X398622Y391293D01*
D02*
G37*
%LPD*%
G36*
X556102Y236221D02*
Y208661D01*
X553150Y205709D01*
X510827D01*
X506890Y209646D01*
Y229331D01*
X508858Y231299D01*
X533465D01*
X541339Y239173D01*
X553150D01*
X556102Y236221D01*
D02*
G37*
%LPC*%
G36*
X521629Y218988D02*
X519201D01*
Y216560D01*
X519476Y216596D01*
X520198Y216895D01*
X520818Y217371D01*
X521294Y217991D01*
X521593Y218713D01*
X521629Y218988D01*
D02*
G37*
G36*
X537377Y224894D02*
X531521D01*
X531557Y224619D01*
X531856Y223897D01*
X532332Y223276D01*
X532952Y222801D01*
X533674Y222502D01*
X534088Y222447D01*
Y221943D01*
X533674Y221888D01*
X532952Y221589D01*
X532332Y221113D01*
X531856Y220493D01*
X531557Y219771D01*
X531521Y219496D01*
X537377D01*
X537341Y219771D01*
X537042Y220493D01*
X536566Y221113D01*
X535946Y221589D01*
X535224Y221888D01*
X534809Y221943D01*
Y222447D01*
X535224Y222502D01*
X535946Y222801D01*
X536566Y223276D01*
X537042Y223897D01*
X537341Y224619D01*
X537377Y224894D01*
D02*
G37*
G36*
X518201Y218988D02*
X515772D01*
X515809Y218713D01*
X516108Y217991D01*
X516584Y217371D01*
X517204Y216895D01*
X517926Y216596D01*
X518201Y216560D01*
Y218988D01*
D02*
G37*
G36*
X533949Y228322D02*
X533674Y228286D01*
X532952Y227987D01*
X532332Y227511D01*
X531856Y226891D01*
X531557Y226169D01*
X531521Y225894D01*
X533949D01*
Y228322D01*
D02*
G37*
G36*
X534949D02*
Y225894D01*
X537377D01*
X537341Y226169D01*
X537042Y226891D01*
X536566Y227511D01*
X535946Y227987D01*
X535224Y228286D01*
X534949Y228322D01*
D02*
G37*
G36*
X514264Y224894D02*
X511835D01*
X511872Y224619D01*
X512171Y223897D01*
X512647Y223276D01*
X513267Y222801D01*
X513989Y222502D01*
X514264Y222465D01*
Y224894D01*
D02*
G37*
G36*
X547069Y237483D02*
Y222994D01*
X554608D01*
Y229494D01*
X554453Y231062D01*
X553996Y232570D01*
X553253Y233960D01*
X552253Y235178D01*
X551035Y236178D01*
X549645Y236920D01*
X548137Y237378D01*
X547069Y237483D01*
D02*
G37*
G36*
X527535Y224894D02*
X525106D01*
Y222465D01*
X525381Y222502D01*
X526103Y222801D01*
X526723Y223276D01*
X527199Y223897D01*
X527498Y224619D01*
X527535Y224894D01*
D02*
G37*
G36*
X546069Y237483D02*
X545001Y237378D01*
X543493Y236920D01*
X542103Y236178D01*
X540885Y235178D01*
X539885Y233960D01*
X539142Y232570D01*
X538685Y231062D01*
X538530Y229494D01*
Y222994D01*
X546069D01*
Y237483D01*
D02*
G37*
G36*
X514264Y215527D02*
X513989Y215491D01*
X513267Y215191D01*
X512647Y214716D01*
X512171Y214095D01*
X511872Y213373D01*
X511835Y213098D01*
X514264D01*
Y215527D01*
D02*
G37*
G36*
X525106D02*
Y213098D01*
X527535D01*
X527498Y213373D01*
X527199Y214095D01*
X526723Y214716D01*
X526103Y215191D01*
X525381Y215491D01*
X525106Y215527D01*
D02*
G37*
G36*
X527535Y212098D02*
X525106D01*
Y209670D01*
X525381Y209706D01*
X526103Y210005D01*
X526723Y210481D01*
X527199Y211101D01*
X527498Y211824D01*
X527535Y212098D01*
D02*
G37*
G36*
X533949D02*
X531521D01*
X531557Y211824D01*
X531856Y211101D01*
X532332Y210481D01*
X532952Y210005D01*
X533674Y209706D01*
X533949Y209670D01*
Y212098D01*
D02*
G37*
G36*
X514264D02*
X511835D01*
X511872Y211824D01*
X512171Y211101D01*
X512647Y210481D01*
X513267Y210005D01*
X513989Y209706D01*
X514264Y209670D01*
Y212098D01*
D02*
G37*
G36*
X554608Y221994D02*
X547069D01*
Y207504D01*
X548137Y207610D01*
X549645Y208067D01*
X551035Y208810D01*
X552253Y209809D01*
X553253Y211028D01*
X553996Y212417D01*
X554453Y213925D01*
X554608Y215494D01*
Y221994D01*
D02*
G37*
G36*
X546069D02*
X538530D01*
Y215494D01*
X538685Y213925D01*
X539142Y212417D01*
X539885Y211028D01*
X540885Y209809D01*
X542103Y208810D01*
X543493Y208067D01*
X545001Y207610D01*
X546069Y207504D01*
Y221994D01*
D02*
G37*
G36*
X537377Y212098D02*
X534949D01*
Y209670D01*
X535224Y209706D01*
X535946Y210005D01*
X536566Y210481D01*
X537042Y211101D01*
X537341Y211824D01*
X537377Y212098D01*
D02*
G37*
G36*
Y218496D02*
X531521D01*
X531557Y218221D01*
X531856Y217499D01*
X532332Y216879D01*
X532952Y216403D01*
X533674Y216104D01*
X534088Y216049D01*
Y215545D01*
X533674Y215491D01*
X532952Y215191D01*
X532332Y214716D01*
X531856Y214095D01*
X531557Y213373D01*
X531521Y213098D01*
X537377D01*
X537341Y213373D01*
X537042Y214095D01*
X536566Y214716D01*
X535946Y215191D01*
X535224Y215491D01*
X534809Y215545D01*
Y216049D01*
X535224Y216104D01*
X535946Y216403D01*
X536566Y216879D01*
X537042Y217499D01*
X537341Y218221D01*
X537377Y218496D01*
D02*
G37*
G36*
X519185Y215527D02*
X518910Y215491D01*
X518188Y215191D01*
X517568Y214716D01*
X517474Y214594D01*
X516974D01*
X516881Y214716D01*
X516261Y215191D01*
X515539Y215491D01*
X515264Y215527D01*
Y212598D01*
Y209670D01*
X515539Y209706D01*
X516261Y210005D01*
X516881Y210481D01*
X516974Y210603D01*
X517474D01*
X517568Y210481D01*
X518188Y210005D01*
X518910Y209706D01*
X519185Y209670D01*
Y212598D01*
Y215527D01*
D02*
G37*
G36*
X524106D02*
X523831Y215491D01*
X523109Y215191D01*
X522489Y214716D01*
X522396Y214594D01*
X521896D01*
X521802Y214716D01*
X521182Y215191D01*
X520460Y215491D01*
X520185Y215527D01*
Y212598D01*
Y209670D01*
X520460Y209706D01*
X521182Y210005D01*
X521802Y210481D01*
X521896Y210603D01*
X522396D01*
X522489Y210481D01*
X523109Y210005D01*
X523831Y209706D01*
X524106Y209670D01*
Y212598D01*
Y215527D01*
D02*
G37*
G36*
Y228322D02*
X523831Y228286D01*
X523109Y227987D01*
X522489Y227511D01*
X522396Y227389D01*
X521896D01*
X521802Y227511D01*
X521182Y227987D01*
X520460Y228286D01*
X520185Y228322D01*
Y225394D01*
X519185D01*
Y228322D01*
X518910Y228286D01*
X518188Y227987D01*
X517568Y227511D01*
X517474Y227389D01*
X516974D01*
X516881Y227511D01*
X516261Y227987D01*
X515539Y228286D01*
X515264Y228322D01*
Y225394D01*
Y222465D01*
X515539Y222502D01*
X516261Y222801D01*
X516881Y223276D01*
X516974Y223398D01*
X517474D01*
X517568Y223276D01*
X518056Y222902D01*
X517959Y222397D01*
X517952Y222384D01*
X517926Y222380D01*
X517204Y222081D01*
X516584Y221605D01*
X516108Y220985D01*
X515809Y220263D01*
X515772Y219988D01*
X521629D01*
X521593Y220263D01*
X521294Y220985D01*
X520818Y221605D01*
X520330Y221980D01*
X520426Y222485D01*
X520434Y222498D01*
X520460Y222502D01*
X521182Y222801D01*
X521802Y223276D01*
X521896Y223398D01*
X522396D01*
X522489Y223276D01*
X523109Y222801D01*
X523831Y222502D01*
X524106Y222465D01*
Y225394D01*
Y228322D01*
D02*
G37*
G36*
X514264D02*
X513989Y228286D01*
X513267Y227987D01*
X512647Y227511D01*
X512171Y226891D01*
X511872Y226169D01*
X511835Y225894D01*
X514264D01*
Y228322D01*
D02*
G37*
G36*
X525106D02*
Y225894D01*
X527535D01*
X527498Y226169D01*
X527199Y226891D01*
X526723Y227511D01*
X526103Y227987D01*
X525381Y228286D01*
X525106Y228322D01*
D02*
G37*
%LPD*%
G36*
X458661Y267717D02*
Y265748D01*
X483268D01*
X492126Y256890D01*
Y241142D01*
X468504D01*
X457677Y230315D01*
Y215551D01*
X453740Y211614D01*
X437992D01*
X434647Y214959D01*
X434977Y215336D01*
X435185Y215177D01*
X435511Y214927D01*
X436233Y214628D01*
X436508Y214591D01*
Y217020D01*
X434080D01*
X434116Y216745D01*
X434415Y216023D01*
X434665Y215697D01*
X434824Y215489D01*
X434447Y215159D01*
X433071Y216535D01*
Y234252D01*
X429134Y238189D01*
X422244D01*
X418899Y241534D01*
X419229Y241911D01*
X419437Y241751D01*
X419763Y241501D01*
X420485Y241202D01*
X420760Y241166D01*
Y243595D01*
X418331D01*
X418368Y243320D01*
X418667Y242597D01*
X418917Y242272D01*
X419076Y242064D01*
X418699Y241734D01*
X414370Y246063D01*
Y278543D01*
X447835D01*
X458661Y267717D01*
D02*
G37*
G36*
X305118Y219488D02*
X319623D01*
X319793Y218988D01*
X319369Y218663D01*
X318672Y217755D01*
X318234Y216698D01*
X318150Y216063D01*
X322468D01*
Y215063D01*
X318150D01*
X318234Y214428D01*
X318672Y213371D01*
X319369Y212463D01*
X319823Y212114D01*
X319654Y211614D01*
X308071D01*
X305118Y208661D01*
X224410D01*
X223425Y209646D01*
Y215551D01*
X225394Y217520D01*
X287402D01*
X292323Y222441D01*
X302165D01*
X305118Y219488D01*
D02*
G37*
G36*
X431102Y233268D02*
Y212598D01*
X428150Y209646D01*
X404528D01*
X402559Y211614D01*
X397284D01*
X397114Y212114D01*
X397568Y212463D01*
X398265Y213371D01*
X398703Y214428D01*
X398787Y215063D01*
X394468D01*
Y216063D01*
X398787D01*
X398703Y216698D01*
X398265Y217755D01*
X397568Y218663D01*
X397145Y218988D01*
X397314Y219488D01*
X398622D01*
X406496Y227362D01*
Y236221D01*
X428150D01*
X431102Y233268D01*
D02*
G37*
%LPC*%
G36*
X454700Y222925D02*
X448843D01*
X448880Y222650D01*
X449179Y221928D01*
X449654Y221308D01*
X450275Y220832D01*
X450490Y220743D01*
Y220202D01*
X450275Y220113D01*
X449654Y219637D01*
X449179Y219017D01*
X448880Y218295D01*
X448843Y218020D01*
X454700D01*
X454664Y218295D01*
X454365Y219017D01*
X453889Y219637D01*
X453269Y220113D01*
X453053Y220202D01*
Y220743D01*
X453269Y220832D01*
X453889Y221308D01*
X454365Y221928D01*
X454664Y222650D01*
X454700Y222925D01*
D02*
G37*
G36*
X439936D02*
X434080D01*
X434116Y222650D01*
X434415Y221928D01*
X434891Y221308D01*
X435511Y220832D01*
X435726Y220743D01*
Y220202D01*
X435511Y220113D01*
X434891Y219637D01*
X434415Y219017D01*
X434116Y218295D01*
X434080Y218020D01*
X439936D01*
X439900Y218295D01*
X439601Y219017D01*
X439125Y219637D01*
X438505Y220113D01*
X438290Y220202D01*
Y220743D01*
X438505Y220832D01*
X439125Y221308D01*
X439601Y221928D01*
X439900Y222650D01*
X439936Y222925D01*
D02*
G37*
G36*
Y228831D02*
X434080D01*
X434116Y228556D01*
X434415Y227834D01*
X434891Y227214D01*
X435511Y226738D01*
X435726Y226649D01*
Y226107D01*
X435511Y226018D01*
X434891Y225542D01*
X434415Y224922D01*
X434116Y224200D01*
X434080Y223925D01*
X439936D01*
X439900Y224200D01*
X439601Y224922D01*
X439125Y225542D01*
X438505Y226018D01*
X438290Y226107D01*
Y226649D01*
X438505Y226738D01*
X439125Y227214D01*
X439601Y227834D01*
X439900Y228556D01*
X439936Y228831D01*
D02*
G37*
G36*
X443398Y226354D02*
X443123Y226317D01*
X442401Y226018D01*
X441781Y225542D01*
X441305Y224922D01*
X441006Y224200D01*
X440969Y223925D01*
X443398D01*
Y226354D01*
D02*
G37*
G36*
X444398D02*
Y223925D01*
X446826D01*
X446790Y224200D01*
X446491Y224922D01*
X446015Y225542D01*
X445395Y226018D01*
X444673Y226317D01*
X444398Y226354D01*
D02*
G37*
G36*
X454700Y228831D02*
X448843D01*
X448880Y228556D01*
X449179Y227834D01*
X449654Y227214D01*
X450275Y226738D01*
X450490Y226649D01*
Y226107D01*
X450275Y226018D01*
X449654Y225542D01*
X449179Y224922D01*
X448880Y224200D01*
X448843Y223925D01*
X454700D01*
X454664Y224200D01*
X454365Y224922D01*
X453889Y225542D01*
X453269Y226018D01*
X453053Y226107D01*
Y226649D01*
X453269Y226738D01*
X453889Y227214D01*
X454365Y227834D01*
X454664Y228556D01*
X454700Y228831D01*
D02*
G37*
G36*
X446826Y222925D02*
X444398D01*
Y220497D01*
X444673Y220533D01*
X445395Y220832D01*
X446015Y221308D01*
X446491Y221928D01*
X446790Y222650D01*
X446826Y222925D01*
D02*
G37*
G36*
X443398D02*
X440969D01*
X441006Y222650D01*
X441305Y221928D01*
X441781Y221308D01*
X442401Y220832D01*
X443123Y220533D01*
X443398Y220497D01*
Y222925D01*
D02*
G37*
G36*
X454700Y217020D02*
X452272D01*
Y214591D01*
X452547Y214628D01*
X453269Y214927D01*
X453889Y215403D01*
X454365Y216023D01*
X454664Y216745D01*
X454700Y217020D01*
D02*
G37*
G36*
X451272D02*
X448843D01*
X448880Y216745D01*
X449179Y216023D01*
X449654Y215403D01*
X450275Y214927D01*
X450997Y214628D01*
X451272Y214591D01*
Y217020D01*
D02*
G37*
G36*
X439936D02*
X437508D01*
Y214591D01*
X437783Y214628D01*
X438505Y214927D01*
X439125Y215403D01*
X439601Y216023D01*
X439900Y216745D01*
X439936Y217020D01*
D02*
G37*
G36*
X467035Y261787D02*
Y259358D01*
X469464D01*
X469427Y259633D01*
X469128Y260355D01*
X468653Y260975D01*
X468033Y261451D01*
X467310Y261750D01*
X467035Y261787D01*
D02*
G37*
G36*
X474894D02*
X474619Y261750D01*
X473897Y261451D01*
X473277Y260975D01*
X472801Y260355D01*
X472502Y259633D01*
X472465Y259358D01*
X474894D01*
Y261787D01*
D02*
G37*
G36*
X466035D02*
X465761Y261750D01*
X465038Y261451D01*
X464418Y260975D01*
X463942Y260355D01*
X463643Y259633D01*
X463607Y259358D01*
X466035D01*
Y261787D01*
D02*
G37*
G36*
X455209Y260802D02*
X454934Y260766D01*
X454212Y260467D01*
X453591Y259991D01*
X453116Y259371D01*
X452817Y258649D01*
X452780Y258374D01*
X455209D01*
Y260802D01*
D02*
G37*
G36*
X456209D02*
Y258374D01*
X458637D01*
X458601Y258649D01*
X458302Y259371D01*
X457826Y259991D01*
X457206Y260467D01*
X456484Y260766D01*
X456209Y260802D01*
D02*
G37*
G36*
X475894Y261787D02*
Y259358D01*
X478322D01*
X478286Y259633D01*
X477987Y260355D01*
X477511Y260975D01*
X476891Y261451D01*
X476169Y261750D01*
X475894Y261787D01*
D02*
G37*
G36*
X420760Y272138D02*
X418331D01*
X418368Y271863D01*
X418667Y271141D01*
X419143Y270521D01*
X419763Y270045D01*
X420485Y269746D01*
X420760Y269709D01*
Y272138D01*
D02*
G37*
G36*
X483752Y261787D02*
X483477Y261750D01*
X482755Y261451D01*
X482135Y260975D01*
X481659Y260355D01*
X481360Y259633D01*
X481324Y259358D01*
X483752D01*
Y261787D01*
D02*
G37*
G36*
X484752D02*
Y259358D01*
X487180D01*
X487144Y259633D01*
X486845Y260355D01*
X486369Y260975D01*
X485749Y261451D01*
X485027Y261750D01*
X484752Y261787D01*
D02*
G37*
G36*
X420760Y260802D02*
X420485Y260766D01*
X419763Y260467D01*
X419143Y259991D01*
X418667Y259371D01*
X418368Y258649D01*
X418331Y258374D01*
X420760D01*
Y260802D01*
D02*
G37*
G36*
X421760D02*
Y258374D01*
X424188D01*
X424152Y258649D01*
X423853Y259371D01*
X423377Y259991D01*
X422757Y260467D01*
X422035Y260766D01*
X421760Y260802D01*
D02*
G37*
G36*
X487180Y258358D02*
X484752D01*
Y255930D01*
X485027Y255966D01*
X485749Y256265D01*
X486369Y256741D01*
X486845Y257361D01*
X487144Y258083D01*
X487180Y258358D01*
D02*
G37*
G36*
X478322D02*
X475894D01*
Y255930D01*
X476169Y255966D01*
X476891Y256265D01*
X477511Y256741D01*
X477987Y257361D01*
X478286Y258083D01*
X478322Y258358D01*
D02*
G37*
G36*
X483752D02*
X481324D01*
X481360Y258083D01*
X481659Y257361D01*
X482135Y256741D01*
X482755Y256265D01*
X483477Y255966D01*
X483752Y255930D01*
Y258358D01*
D02*
G37*
G36*
X430602Y260802D02*
X430327Y260766D01*
X429605Y260467D01*
X428985Y259991D01*
X428509Y259371D01*
X428210Y258649D01*
X428174Y258374D01*
X430602D01*
Y260802D01*
D02*
G37*
G36*
X447335D02*
X447060Y260766D01*
X446338Y260467D01*
X445717Y259991D01*
X445242Y259371D01*
X444943Y258649D01*
X444906Y258374D01*
X447335D01*
Y260802D01*
D02*
G37*
G36*
X448335D02*
Y258374D01*
X450763D01*
X450727Y258649D01*
X450428Y259371D01*
X449952Y259991D01*
X449332Y260467D01*
X448610Y260766D01*
X448335Y260802D01*
D02*
G37*
G36*
X440461D02*
Y258374D01*
X442889D01*
X442853Y258649D01*
X442554Y259371D01*
X442078Y259991D01*
X441458Y260467D01*
X440736Y260766D01*
X440461Y260802D01*
D02*
G37*
G36*
X431602D02*
Y258374D01*
X434031D01*
X433994Y258649D01*
X433695Y259371D01*
X433219Y259991D01*
X432599Y260467D01*
X431877Y260766D01*
X431602Y260802D01*
D02*
G37*
G36*
X439461D02*
X439186Y260766D01*
X438464Y260467D01*
X437844Y259991D01*
X437368Y259371D01*
X437069Y258649D01*
X437032Y258374D01*
X439461D01*
Y260802D01*
D02*
G37*
G36*
X424188Y272138D02*
X421760D01*
Y269709D01*
X422035Y269746D01*
X422757Y270045D01*
X423377Y270521D01*
X423853Y271141D01*
X424152Y271863D01*
X424188Y272138D01*
D02*
G37*
G36*
X439476Y275566D02*
Y273138D01*
X441905D01*
X441868Y273413D01*
X441569Y274135D01*
X441093Y274755D01*
X440473Y275231D01*
X439751Y275530D01*
X439476Y275566D01*
D02*
G37*
G36*
X441905Y272138D02*
X439476D01*
Y269709D01*
X439751Y269746D01*
X440473Y270045D01*
X441093Y270521D01*
X441569Y271141D01*
X441868Y271863D01*
X441905Y272138D01*
D02*
G37*
G36*
X438476D02*
X436048D01*
X436084Y271863D01*
X436383Y271141D01*
X436859Y270521D01*
X437479Y270045D01*
X438201Y269746D01*
X438476Y269709D01*
Y272138D01*
D02*
G37*
G36*
X429618D02*
X427190D01*
X427226Y271863D01*
X427525Y271141D01*
X428001Y270521D01*
X428621Y270045D01*
X429343Y269746D01*
X429618Y269709D01*
Y272138D01*
D02*
G37*
G36*
X433046D02*
X430618D01*
Y269709D01*
X430893Y269746D01*
X431615Y270045D01*
X432235Y270521D01*
X432711Y271141D01*
X433010Y271863D01*
X433046Y272138D01*
D02*
G37*
G36*
X430618Y275566D02*
Y273138D01*
X433046D01*
X433010Y273413D01*
X432711Y274135D01*
X432235Y274755D01*
X431615Y275231D01*
X430893Y275530D01*
X430618Y275566D01*
D02*
G37*
G36*
X438476D02*
X438201Y275530D01*
X437479Y275231D01*
X436859Y274755D01*
X436383Y274135D01*
X436084Y273413D01*
X436048Y273138D01*
X438476D01*
Y275566D01*
D02*
G37*
G36*
X429618D02*
X429343Y275530D01*
X428621Y275231D01*
X428001Y274755D01*
X427525Y274135D01*
X427226Y273413D01*
X427190Y273138D01*
X429618D01*
Y275566D01*
D02*
G37*
G36*
X420760D02*
X420485Y275530D01*
X419763Y275231D01*
X419143Y274755D01*
X418667Y274135D01*
X418368Y273413D01*
X418331Y273138D01*
X420760D01*
Y275566D01*
D02*
G37*
G36*
X421760D02*
Y273138D01*
X424188D01*
X424152Y273413D01*
X423853Y274135D01*
X423377Y274755D01*
X422757Y275231D01*
X422035Y275530D01*
X421760Y275566D01*
D02*
G37*
G36*
X444398Y239149D02*
Y236720D01*
X446826D01*
X446790Y236995D01*
X446491Y237718D01*
X446015Y238338D01*
X445395Y238813D01*
X444673Y239113D01*
X444398Y239149D01*
D02*
G37*
G36*
X424188Y243595D02*
X421760D01*
Y241166D01*
X422035Y241202D01*
X422757Y241501D01*
X423377Y241977D01*
X423853Y242597D01*
X424152Y243320D01*
X424188Y243595D01*
D02*
G37*
G36*
X443398Y239149D02*
X443123Y239113D01*
X442401Y238813D01*
X441781Y238338D01*
X441305Y237718D01*
X441006Y236995D01*
X440969Y236720D01*
X443398D01*
Y239149D01*
D02*
G37*
G36*
Y235720D02*
X440969D01*
X441006Y235445D01*
X441305Y234723D01*
X441781Y234103D01*
X442401Y233628D01*
X443123Y233328D01*
X443398Y233292D01*
Y235720D01*
D02*
G37*
G36*
X446826D02*
X444398D01*
Y233292D01*
X444673Y233328D01*
X445395Y233628D01*
X446015Y234103D01*
X446491Y234723D01*
X446790Y235445D01*
X446826Y235720D01*
D02*
G37*
G36*
X430602Y243595D02*
X428174D01*
X428210Y243320D01*
X428509Y242597D01*
X428985Y241977D01*
X429605Y241501D01*
X430327Y241202D01*
X430602Y241166D01*
Y243595D01*
D02*
G37*
G36*
X442889D02*
X440461D01*
Y241166D01*
X440736Y241202D01*
X441458Y241501D01*
X442078Y241977D01*
X442554Y242597D01*
X442853Y243320D01*
X442889Y243595D01*
D02*
G37*
G36*
X434031D02*
X431602D01*
Y241166D01*
X431877Y241202D01*
X432599Y241501D01*
X433219Y241977D01*
X433695Y242597D01*
X433994Y243320D01*
X434031Y243595D01*
D02*
G37*
G36*
X439461D02*
X437032D01*
X437069Y243320D01*
X437368Y242597D01*
X437844Y241977D01*
X438464Y241501D01*
X439186Y241202D01*
X439461Y241166D01*
Y243595D01*
D02*
G37*
G36*
X451272Y232259D02*
X450997Y232223D01*
X450275Y231924D01*
X449654Y231448D01*
X449179Y230828D01*
X448880Y230106D01*
X448843Y229831D01*
X451272D01*
Y232259D01*
D02*
G37*
G36*
X452272D02*
Y229831D01*
X454700D01*
X454664Y230106D01*
X454365Y230828D01*
X453889Y231448D01*
X453269Y231924D01*
X452547Y232223D01*
X452272Y232259D01*
D02*
G37*
G36*
X437508D02*
Y229831D01*
X439936D01*
X439900Y230106D01*
X439601Y230828D01*
X439125Y231448D01*
X438505Y231924D01*
X437783Y232223D01*
X437508Y232259D01*
D02*
G37*
G36*
X436508D02*
X436233Y232223D01*
X435511Y231924D01*
X434891Y231448D01*
X434415Y230828D01*
X434116Y230106D01*
X434080Y229831D01*
X436508D01*
Y232259D01*
D02*
G37*
G36*
X420760Y247023D02*
X420485Y246987D01*
X419763Y246688D01*
X419143Y246212D01*
X418667Y245592D01*
X418368Y244869D01*
X418331Y244595D01*
X420760D01*
Y247023D01*
D02*
G37*
G36*
X442889Y257374D02*
X440461D01*
Y254946D01*
X440736Y254982D01*
X441458Y255281D01*
X442078Y255757D01*
X442554Y256377D01*
X442853Y257099D01*
X442889Y257374D01*
D02*
G37*
G36*
X447335D02*
X444906D01*
X444943Y257099D01*
X445242Y256377D01*
X445717Y255757D01*
X446338Y255281D01*
X447060Y254982D01*
X447335Y254946D01*
Y257374D01*
D02*
G37*
G36*
X439461D02*
X437032D01*
X437069Y257099D01*
X437368Y256377D01*
X437844Y255757D01*
X438464Y255281D01*
X439186Y254982D01*
X439461Y254946D01*
Y257374D01*
D02*
G37*
G36*
X430602D02*
X428174D01*
X428210Y257099D01*
X428509Y256377D01*
X428985Y255757D01*
X429605Y255281D01*
X430327Y254982D01*
X430602Y254946D01*
Y257374D01*
D02*
G37*
G36*
X434031D02*
X431602D01*
Y254946D01*
X431877Y254982D01*
X432599Y255281D01*
X433219Y255757D01*
X433695Y256377D01*
X433994Y257099D01*
X434031Y257374D01*
D02*
G37*
G36*
X450763D02*
X448335D01*
Y254946D01*
X448610Y254982D01*
X449332Y255281D01*
X449952Y255757D01*
X450428Y256377D01*
X450727Y257099D01*
X450763Y257374D01*
D02*
G37*
G36*
X469464Y258358D02*
X467035D01*
Y255930D01*
X467310Y255966D01*
X468033Y256265D01*
X468653Y256741D01*
X469128Y257361D01*
X469427Y258083D01*
X469464Y258358D01*
D02*
G37*
G36*
X474894D02*
X472465D01*
X472502Y258083D01*
X472801Y257361D01*
X473277Y256741D01*
X473897Y256265D01*
X474619Y255966D01*
X474894Y255930D01*
Y258358D01*
D02*
G37*
G36*
X466035D02*
X463607D01*
X463643Y258083D01*
X463942Y257361D01*
X464418Y256741D01*
X465038Y256265D01*
X465761Y255966D01*
X466035Y255930D01*
Y258358D01*
D02*
G37*
G36*
X455209Y257374D02*
X452780D01*
X452817Y257099D01*
X453116Y256377D01*
X453591Y255757D01*
X454212Y255281D01*
X454934Y254982D01*
X455209Y254946D01*
Y257374D01*
D02*
G37*
G36*
X458637D02*
X456209D01*
Y254946D01*
X456484Y254982D01*
X457206Y255281D01*
X457826Y255757D01*
X458302Y256377D01*
X458601Y257099D01*
X458637Y257374D01*
D02*
G37*
G36*
X439461Y247023D02*
X439186Y246987D01*
X438464Y246688D01*
X437844Y246212D01*
X437368Y245592D01*
X437069Y244869D01*
X437032Y244595D01*
X439461D01*
Y247023D01*
D02*
G37*
G36*
X440461D02*
Y244595D01*
X442889D01*
X442853Y244869D01*
X442554Y245592D01*
X442078Y246212D01*
X441458Y246688D01*
X440736Y246987D01*
X440461Y247023D01*
D02*
G37*
G36*
X431602D02*
Y244595D01*
X434031D01*
X433994Y244869D01*
X433695Y245592D01*
X433219Y246212D01*
X432599Y246688D01*
X431877Y246987D01*
X431602Y247023D01*
D02*
G37*
G36*
X421760D02*
Y244595D01*
X424188D01*
X424152Y244869D01*
X423853Y245592D01*
X423377Y246212D01*
X422757Y246688D01*
X422035Y246987D01*
X421760Y247023D01*
D02*
G37*
G36*
X430602D02*
X430327Y246987D01*
X429605Y246688D01*
X428985Y246212D01*
X428509Y245592D01*
X428210Y244869D01*
X428174Y244595D01*
X430602D01*
Y247023D01*
D02*
G37*
G36*
X420760Y257374D02*
X418331D01*
X418368Y257099D01*
X418667Y256377D01*
X419143Y255757D01*
X419763Y255281D01*
X420485Y254982D01*
X420760Y254946D01*
Y257374D01*
D02*
G37*
G36*
X424188D02*
X421760D01*
Y254946D01*
X422035Y254982D01*
X422757Y255281D01*
X423377Y255757D01*
X423853Y256377D01*
X424152Y257099D01*
X424188Y257374D01*
D02*
G37*
G36*
X311524Y218491D02*
Y216063D01*
X313952D01*
X313916Y216338D01*
X313617Y217060D01*
X313141Y217680D01*
X312521Y218156D01*
X311799Y218455D01*
X311524Y218491D01*
D02*
G37*
G36*
X288361Y212492D02*
X285933D01*
Y210063D01*
X286208Y210100D01*
X286930Y210399D01*
X287550Y210875D01*
X288026Y211495D01*
X288325Y212217D01*
X288361Y212492D01*
D02*
G37*
G36*
X272613D02*
X270185D01*
Y210063D01*
X270460Y210100D01*
X271182Y210399D01*
X271802Y210875D01*
X272278Y211495D01*
X272577Y212217D01*
X272613Y212492D01*
D02*
G37*
G36*
X284933D02*
X282505D01*
X282541Y212217D01*
X282840Y211495D01*
X283316Y210875D01*
X283936Y210399D01*
X284658Y210100D01*
X284933Y210063D01*
Y212492D01*
D02*
G37*
G36*
X301665Y215063D02*
X299237D01*
X299273Y214788D01*
X299572Y214066D01*
X300048Y213446D01*
X300668Y212970D01*
X301390Y212671D01*
X301665Y212635D01*
Y215063D01*
D02*
G37*
G36*
X313952D02*
X311524D01*
Y212635D01*
X311799Y212671D01*
X312521Y212970D01*
X313141Y213446D01*
X313617Y214066D01*
X313916Y214788D01*
X313952Y215063D01*
D02*
G37*
G36*
X305094D02*
X302665D01*
Y212635D01*
X302940Y212671D01*
X303662Y212970D01*
X304282Y213446D01*
X304758Y214066D01*
X305058Y214788D01*
X305094Y215063D01*
D02*
G37*
G36*
X310524D02*
X308095D01*
X308132Y214788D01*
X308431Y214066D01*
X308907Y213446D01*
X309527Y212970D01*
X310249Y212671D01*
X310524Y212635D01*
Y215063D01*
D02*
G37*
G36*
X256865Y212492D02*
X254437D01*
Y210063D01*
X254712Y210100D01*
X255434Y210399D01*
X256054Y210875D01*
X256530Y211495D01*
X256829Y212217D01*
X256865Y212492D01*
D02*
G37*
G36*
X269185D02*
X266757D01*
X266793Y212217D01*
X267092Y211495D01*
X267568Y210875D01*
X268188Y210399D01*
X268910Y210100D01*
X269185Y210063D01*
Y212492D01*
D02*
G37*
G36*
X253437D02*
X251009D01*
X251045Y212217D01*
X251344Y211495D01*
X251820Y210875D01*
X252440Y210399D01*
X253162Y210100D01*
X253437Y210063D01*
Y212492D01*
D02*
G37*
G36*
X237689D02*
X235261D01*
X235297Y212217D01*
X235596Y211495D01*
X236072Y210875D01*
X236692Y210399D01*
X237414Y210100D01*
X237689Y210063D01*
Y212492D01*
D02*
G37*
G36*
X241117D02*
X238689D01*
Y210063D01*
X238964Y210100D01*
X239686Y210399D01*
X240306Y210875D01*
X240782Y211495D01*
X241081Y212217D01*
X241117Y212492D01*
D02*
G37*
G36*
X302665Y218491D02*
Y216063D01*
X305094D01*
X305058Y216338D01*
X304758Y217060D01*
X304282Y217680D01*
X303662Y218156D01*
X302940Y218455D01*
X302665Y218491D01*
D02*
G37*
G36*
X310524D02*
X310249Y218455D01*
X309527Y218156D01*
X308907Y217680D01*
X308431Y217060D01*
X308132Y216338D01*
X308095Y216063D01*
X310524D01*
Y218491D01*
D02*
G37*
G36*
X301665D02*
X301390Y218455D01*
X300668Y218156D01*
X300048Y217680D01*
X299572Y217060D01*
X299273Y216338D01*
X299237Y216063D01*
X301665D01*
Y218491D01*
D02*
G37*
G36*
X254437Y215920D02*
Y213492D01*
X256865D01*
X256829Y213767D01*
X256530Y214489D01*
X256054Y215109D01*
X255434Y215585D01*
X254712Y215884D01*
X254437Y215920D01*
D02*
G37*
G36*
X269185D02*
X268910Y215884D01*
X268188Y215585D01*
X267568Y215109D01*
X267092Y214489D01*
X266793Y213767D01*
X266757Y213492D01*
X269185D01*
Y215920D01*
D02*
G37*
G36*
X253437D02*
X253162Y215884D01*
X252440Y215585D01*
X251820Y215109D01*
X251344Y214489D01*
X251045Y213767D01*
X251009Y213492D01*
X253437D01*
Y215920D01*
D02*
G37*
G36*
X237689D02*
X237414Y215884D01*
X236692Y215585D01*
X236072Y215109D01*
X235596Y214489D01*
X235297Y213767D01*
X235261Y213492D01*
X237689D01*
Y215920D01*
D02*
G37*
G36*
X238689D02*
Y213492D01*
X241117D01*
X241081Y213767D01*
X240782Y214489D01*
X240306Y215109D01*
X239686Y215585D01*
X238964Y215884D01*
X238689Y215920D01*
D02*
G37*
G36*
X270185D02*
Y213492D01*
X272613D01*
X272577Y213767D01*
X272278Y214489D01*
X271802Y215109D01*
X271182Y215585D01*
X270460Y215884D01*
X270185Y215920D01*
D02*
G37*
G36*
X284933D02*
X284658Y215884D01*
X283936Y215585D01*
X283316Y215109D01*
X282840Y214489D01*
X282541Y213767D01*
X282505Y213492D01*
X284933D01*
Y215920D01*
D02*
G37*
G36*
X285933D02*
Y213492D01*
X288361D01*
X288325Y213767D01*
X288026Y214489D01*
X287550Y215109D01*
X286930Y215585D01*
X286208Y215884D01*
X285933Y215920D01*
D02*
G37*
G36*
X416314Y222925D02*
X410458D01*
X410494Y222650D01*
X410793Y221928D01*
X411269Y221308D01*
X411889Y220832D01*
X412104Y220743D01*
Y220202D01*
X411889Y220113D01*
X411269Y219637D01*
X410793Y219017D01*
X410494Y218295D01*
X410458Y218020D01*
X416314D01*
X416278Y218295D01*
X415979Y219017D01*
X415503Y219637D01*
X414883Y220113D01*
X414668Y220202D01*
Y220743D01*
X414883Y220832D01*
X415503Y221308D01*
X415979Y221928D01*
X416278Y222650D01*
X416314Y222925D01*
D02*
G37*
G36*
X430094D02*
X424237D01*
X424273Y222650D01*
X424572Y221928D01*
X425048Y221308D01*
X425668Y220832D01*
X425884Y220743D01*
Y220202D01*
X425668Y220113D01*
X425048Y219637D01*
X424572Y219017D01*
X424273Y218295D01*
X424237Y218020D01*
X430094D01*
X430057Y218295D01*
X429758Y219017D01*
X429283Y219637D01*
X428662Y220113D01*
X428447Y220202D01*
Y220743D01*
X428662Y220832D01*
X429283Y221308D01*
X429758Y221928D01*
X430057Y222650D01*
X430094Y222925D01*
D02*
G37*
G36*
X419776D02*
X417347D01*
X417383Y222650D01*
X417683Y221928D01*
X418158Y221308D01*
X418779Y220832D01*
X419501Y220533D01*
X419776Y220497D01*
Y222925D01*
D02*
G37*
G36*
X420776Y226354D02*
Y223925D01*
X423204D01*
X423168Y224200D01*
X422869Y224922D01*
X422393Y225542D01*
X421773Y226018D01*
X421051Y226317D01*
X420776Y226354D01*
D02*
G37*
G36*
X430094Y228831D02*
X424237D01*
X424273Y228556D01*
X424572Y227834D01*
X425048Y227214D01*
X425668Y226738D01*
X425884Y226649D01*
Y226107D01*
X425668Y226018D01*
X425048Y225542D01*
X424572Y224922D01*
X424273Y224200D01*
X424237Y223925D01*
X430094D01*
X430057Y224200D01*
X429758Y224922D01*
X429283Y225542D01*
X428662Y226018D01*
X428447Y226107D01*
Y226649D01*
X428662Y226738D01*
X429283Y227214D01*
X429758Y227834D01*
X430057Y228556D01*
X430094Y228831D01*
D02*
G37*
G36*
X419776Y226354D02*
X419501Y226317D01*
X418779Y226018D01*
X418158Y225542D01*
X417683Y224922D01*
X417383Y224200D01*
X417347Y223925D01*
X419776D01*
Y226354D01*
D02*
G37*
G36*
X423204Y222925D02*
X420776D01*
Y220497D01*
X421051Y220533D01*
X421773Y220832D01*
X422393Y221308D01*
X422869Y221928D01*
X423168Y222650D01*
X423204Y222925D01*
D02*
G37*
G36*
X416314Y228831D02*
X410458D01*
X410494Y228556D01*
X410793Y227834D01*
X411269Y227214D01*
X411889Y226738D01*
X412104Y226649D01*
Y226107D01*
X411889Y226018D01*
X411269Y225542D01*
X410793Y224922D01*
X410494Y224200D01*
X410458Y223925D01*
X416314D01*
X416278Y224200D01*
X415979Y224922D01*
X415503Y225542D01*
X414883Y226018D01*
X414668Y226107D01*
Y226649D01*
X414883Y226738D01*
X415503Y227214D01*
X415979Y227834D01*
X416278Y228556D01*
X416314Y228831D01*
D02*
G37*
G36*
X405996Y215051D02*
X403568D01*
X403604Y214776D01*
X403903Y214054D01*
X404379Y213434D01*
X404999Y212958D01*
X405721Y212659D01*
X405996Y212623D01*
Y215051D01*
D02*
G37*
G36*
X409424D02*
X406996D01*
Y212623D01*
X407271Y212659D01*
X407993Y212958D01*
X408613Y213434D01*
X409089Y214054D01*
X409388Y214776D01*
X409424Y215051D01*
D02*
G37*
G36*
X430094Y217020D02*
X427665D01*
Y214591D01*
X427940Y214628D01*
X428662Y214927D01*
X429283Y215403D01*
X429758Y216023D01*
X430057Y216745D01*
X430094Y217020D01*
D02*
G37*
G36*
X405996Y218479D02*
X405721Y218443D01*
X404999Y218144D01*
X404379Y217668D01*
X403903Y217048D01*
X403604Y216326D01*
X403568Y216051D01*
X405996D01*
Y218479D01*
D02*
G37*
G36*
X406996D02*
Y216051D01*
X409424D01*
X409388Y216326D01*
X409089Y217048D01*
X408613Y217668D01*
X407993Y218144D01*
X407271Y218443D01*
X406996Y218479D01*
D02*
G37*
G36*
X416314Y217020D02*
X413886D01*
Y214591D01*
X414161Y214628D01*
X414883Y214927D01*
X415503Y215403D01*
X415979Y216023D01*
X416278Y216745D01*
X416314Y217020D01*
D02*
G37*
G36*
X426665D02*
X424237D01*
X424273Y216745D01*
X424572Y216023D01*
X425048Y215403D01*
X425668Y214927D01*
X426390Y214628D01*
X426665Y214591D01*
Y217020D01*
D02*
G37*
G36*
X412886D02*
X410458D01*
X410494Y216745D01*
X410793Y216023D01*
X411269Y215403D01*
X411889Y214927D01*
X412611Y214628D01*
X412886Y214591D01*
Y217020D01*
D02*
G37*
G36*
Y232259D02*
X412611Y232223D01*
X411889Y231924D01*
X411269Y231448D01*
X410793Y230828D01*
X410494Y230106D01*
X410458Y229831D01*
X412886D01*
Y232259D01*
D02*
G37*
G36*
X413886D02*
Y229831D01*
X416314D01*
X416278Y230106D01*
X415979Y230828D01*
X415503Y231448D01*
X414883Y231924D01*
X414161Y232223D01*
X413886Y232259D01*
D02*
G37*
G36*
X426665D02*
X426390Y232223D01*
X425668Y231924D01*
X425048Y231448D01*
X424572Y230828D01*
X424273Y230106D01*
X424237Y229831D01*
X426665D01*
Y232259D01*
D02*
G37*
G36*
X427665D02*
Y229831D01*
X430094D01*
X430057Y230106D01*
X429758Y230828D01*
X429283Y231448D01*
X428662Y231924D01*
X427940Y232223D01*
X427665Y232259D01*
D02*
G37*
%LPD*%
G36*
X498032Y276575D02*
X515748D01*
X530512Y261811D01*
Y235236D01*
X527403D01*
X527182Y235685D01*
X527199Y235708D01*
X527498Y236430D01*
X527535Y236705D01*
X524606D01*
Y237705D01*
X527535D01*
X527498Y237980D01*
X527199Y238702D01*
X526723Y239322D01*
X526103Y239798D01*
X525651Y239985D01*
Y240527D01*
X526103Y240714D01*
X526723Y241190D01*
X527199Y241810D01*
X527498Y242532D01*
X527535Y242807D01*
X524606D01*
Y243307D01*
X524106D01*
Y246235D01*
X523831Y246199D01*
X523109Y245900D01*
X522489Y245424D01*
X522396Y245302D01*
X521896D01*
X521802Y245424D01*
X521182Y245900D01*
X520460Y246199D01*
X520185Y246235D01*
Y243307D01*
X519185D01*
Y246235D01*
X518910Y246199D01*
X518188Y245900D01*
X517568Y245424D01*
X517399Y245204D01*
X516899D01*
X516881Y245227D01*
X516261Y245703D01*
X515539Y246002D01*
X515264Y246039D01*
Y243110D01*
X514764D01*
Y242610D01*
X511835D01*
X511872Y242335D01*
X512171Y241613D01*
X512647Y240993D01*
X513267Y240517D01*
X513482Y240428D01*
Y239887D01*
X513267Y239798D01*
X512647Y239322D01*
X512171Y238702D01*
X511872Y237980D01*
X511835Y237705D01*
X514764D01*
Y236705D01*
X511835D01*
X511872Y236430D01*
X512171Y235708D01*
X512188Y235685D01*
X511967Y235236D01*
X509842D01*
X506890Y238189D01*
Y246063D01*
X466535Y286417D01*
X408465D01*
Y305118D01*
X410433Y307087D01*
X467520D01*
X498032Y276575D01*
D02*
G37*
%LPC*%
G36*
X514161Y270996D02*
X510343D01*
Y267178D01*
X510977Y267262D01*
X512035Y267699D01*
X512943Y268396D01*
X513639Y269304D01*
X514077Y270361D01*
X514161Y270996D01*
D02*
G37*
G36*
X509342D02*
X505524D01*
X505608Y270361D01*
X506046Y269304D01*
X506743Y268396D01*
X507651Y267699D01*
X508708Y267262D01*
X509342Y267178D01*
Y270996D01*
D02*
G37*
G36*
X425681Y291823D02*
X423253D01*
X423289Y291548D01*
X423588Y290826D01*
X424064Y290206D01*
X424684Y289730D01*
X425406Y289431D01*
X425681Y289394D01*
Y291823D01*
D02*
G37*
G36*
X429109D02*
X426681D01*
Y289394D01*
X426956Y289431D01*
X427678Y289730D01*
X428298Y290206D01*
X428774Y290826D01*
X429073Y291548D01*
X429109Y291823D01*
D02*
G37*
G36*
X419267D02*
X416839D01*
Y289394D01*
X417113Y289431D01*
X417836Y289730D01*
X418456Y290206D01*
X418932Y290826D01*
X419231Y291548D01*
X419267Y291823D01*
D02*
G37*
G36*
X415839D02*
X413410D01*
X413447Y291548D01*
X413746Y290826D01*
X414221Y290206D01*
X414842Y289730D01*
X415564Y289431D01*
X415839Y289394D01*
Y291823D01*
D02*
G37*
G36*
X419267Y301665D02*
X413410D01*
X413447Y301390D01*
X413746Y300668D01*
X414221Y300048D01*
X414343Y299955D01*
Y299455D01*
X414221Y299361D01*
X413746Y298741D01*
X413447Y298019D01*
X413410Y297744D01*
X416339D01*
Y296744D01*
X413410D01*
X413447Y296469D01*
X413746Y295747D01*
X414221Y295127D01*
X414343Y295034D01*
Y294533D01*
X414221Y294440D01*
X413746Y293820D01*
X413447Y293098D01*
X413410Y292823D01*
X419267D01*
X419231Y293098D01*
X418932Y293820D01*
X418456Y294440D01*
X418334Y294533D01*
Y295034D01*
X418456Y295127D01*
X418583Y295293D01*
X419239Y295326D01*
X419605Y295045D01*
X420327Y294745D01*
X420602Y294709D01*
Y297638D01*
Y300566D01*
X420327Y300530D01*
X419605Y300231D01*
X419097Y299840D01*
X418683Y299874D01*
X418502Y299946D01*
X418489Y299974D01*
X418472Y300070D01*
X418932Y300668D01*
X419231Y301390D01*
X419267Y301665D01*
D02*
G37*
G36*
X425681Y305094D02*
X425406Y305058D01*
X424684Y304758D01*
X424064Y304282D01*
X423588Y303662D01*
X423289Y302940D01*
X423253Y302665D01*
X425681D01*
Y305094D01*
D02*
G37*
G36*
X426681D02*
Y302665D01*
X429109D01*
X429073Y302940D01*
X428774Y303662D01*
X428298Y304282D01*
X427678Y304758D01*
X426956Y305058D01*
X426681Y305094D01*
D02*
G37*
G36*
X416839D02*
Y302665D01*
X419267D01*
X419231Y302940D01*
X418932Y303662D01*
X418456Y304282D01*
X417836Y304758D01*
X417113Y305058D01*
X416839Y305094D01*
D02*
G37*
G36*
X429109Y301665D02*
X423253D01*
X423289Y301390D01*
X423588Y300668D01*
X424064Y300048D01*
X423898Y299577D01*
X423312Y299634D01*
X423219Y299755D01*
X422599Y300231D01*
X421877Y300530D01*
X421602Y300566D01*
Y297638D01*
Y294709D01*
X421877Y294745D01*
X422599Y295045D01*
X423187Y295495D01*
X423226Y295520D01*
X423806Y295463D01*
X424064Y295127D01*
X424186Y295034D01*
Y294533D01*
X424064Y294440D01*
X423588Y293820D01*
X423289Y293098D01*
X423253Y292823D01*
X429109D01*
X429073Y293098D01*
X428774Y293820D01*
X428298Y294440D01*
X428176Y294533D01*
Y295034D01*
X428298Y295127D01*
X428774Y295747D01*
X429073Y296469D01*
X429109Y296744D01*
X426181D01*
Y297744D01*
X429109D01*
X429073Y298019D01*
X428774Y298741D01*
X428298Y299361D01*
X428176Y299455D01*
Y299955D01*
X428298Y300048D01*
X428774Y300668D01*
X429073Y301390D01*
X429109Y301665D01*
D02*
G37*
G36*
X415839Y305094D02*
X415564Y305058D01*
X414842Y304758D01*
X414221Y304282D01*
X413746Y303662D01*
X413447Y302940D01*
X413410Y302665D01*
X415839D01*
Y305094D01*
D02*
G37*
G36*
X509342Y275814D02*
X508708Y275731D01*
X507651Y275293D01*
X506743Y274596D01*
X506046Y273688D01*
X505608Y272631D01*
X505524Y271996D01*
X509342D01*
Y275814D01*
D02*
G37*
G36*
X510343D02*
Y271996D01*
X514161D01*
X514077Y272631D01*
X513639Y273688D01*
X512943Y274596D01*
X512035Y275293D01*
X510977Y275731D01*
X510343Y275814D01*
D02*
G37*
G36*
X514264Y246039D02*
X513989Y246002D01*
X513267Y245703D01*
X512647Y245227D01*
X512171Y244607D01*
X511872Y243885D01*
X511835Y243610D01*
X514264D01*
Y246039D01*
D02*
G37*
G36*
X525106Y246235D02*
Y243807D01*
X527535D01*
X527498Y244082D01*
X527199Y244804D01*
X526723Y245424D01*
X526103Y245900D01*
X525381Y246199D01*
X525106Y246235D01*
D02*
G37*
G36*
X524106Y249500D02*
X521678D01*
X521714Y249225D01*
X522013Y248503D01*
X522489Y247883D01*
X523109Y247407D01*
X523831Y247108D01*
X524106Y247072D01*
Y249500D01*
D02*
G37*
G36*
X525106Y252928D02*
Y250500D01*
X527535D01*
X527498Y250775D01*
X527199Y251497D01*
X526723Y252117D01*
X526103Y252593D01*
X525381Y252892D01*
X525106Y252928D01*
D02*
G37*
G36*
X527535Y249500D02*
X525106D01*
Y247072D01*
X525381Y247108D01*
X526103Y247407D01*
X526723Y247883D01*
X527199Y248503D01*
X527498Y249225D01*
X527535Y249500D01*
D02*
G37*
G36*
X524106Y252928D02*
X523831Y252892D01*
X523109Y252593D01*
X522489Y252117D01*
X522013Y251497D01*
X521714Y250775D01*
X521678Y250500D01*
X524106D01*
Y252928D01*
D02*
G37*
%LPD*%
G36*
X295058Y315968D02*
X294867Y315506D01*
X291972D01*
X287814Y319664D01*
X287858Y319882D01*
X287673Y320810D01*
X287147Y321596D01*
X286612Y321954D01*
X286474Y322570D01*
X286689Y322891D01*
X286811Y323508D01*
X287354Y323672D01*
X295058Y315968D01*
D02*
G37*
G36*
X294730Y276966D02*
Y265172D01*
X294268Y264981D01*
X293852Y265397D01*
Y276705D01*
X294037Y276829D01*
X294231Y277118D01*
X294730Y276966D01*
D02*
G37*
G36*
X279223Y327534D02*
X279071Y326772D01*
X279256Y325844D01*
X279782Y325057D01*
X280568Y324532D01*
X281496Y324347D01*
X281645Y324377D01*
X282023Y324041D01*
X282023Y323556D01*
X280415Y321948D01*
X280083Y321451D01*
X279967Y320866D01*
Y318898D01*
X280083Y318312D01*
X280415Y317816D01*
X287146Y311085D01*
X286939Y310584D01*
X258467D01*
X258315Y311085D01*
X258604Y311278D01*
X259130Y312064D01*
X259244Y312638D01*
X259775Y312744D01*
X260097Y312262D01*
X260883Y311736D01*
X261811Y311552D01*
X262739Y311736D01*
X263525Y312262D01*
X263649Y312447D01*
X269685D01*
X270270Y312563D01*
X270766Y312895D01*
X275688Y317816D01*
X276019Y318312D01*
X276136Y318898D01*
Y325154D01*
X278762Y327781D01*
X279223Y327534D01*
D02*
G37*
G36*
X369502Y309599D02*
Y302767D01*
X366985Y300250D01*
X362074D01*
X361951Y300435D01*
X361576Y300685D01*
Y301185D01*
X361951Y301435D01*
X362476Y302222D01*
X362661Y303150D01*
X362617Y303368D01*
X369040Y309791D01*
X369502Y309599D01*
D02*
G37*
G36*
X322649Y285442D02*
X322201Y284994D01*
X308925D01*
X308801Y285179D01*
X308465Y285404D01*
X308616Y285904D01*
X322458D01*
X322649Y285442D01*
D02*
G37*
G36*
X345375Y281399D02*
X345871Y281067D01*
X346457Y280951D01*
X368241D01*
X368364Y280766D01*
X368653Y280573D01*
X368502Y280073D01*
X340534D01*
X340273Y280247D01*
X339567Y280388D01*
X338861Y280247D01*
X338263Y279848D01*
X337863Y279249D01*
X337722Y278543D01*
X337863Y277837D01*
X338037Y277576D01*
Y272287D01*
X333028Y267277D01*
X321850D01*
X321265Y267161D01*
X320769Y266829D01*
X314863Y260924D01*
X314532Y260428D01*
X314416Y259842D01*
Y253806D01*
X314230Y253683D01*
X313705Y252896D01*
X313520Y251969D01*
X313698Y251077D01*
X313691Y250964D01*
X313485Y250577D01*
X311626D01*
X297789Y264413D01*
Y278935D01*
X298289Y279087D01*
X298482Y278797D01*
X299269Y278272D01*
X300197Y278087D01*
X301125Y278272D01*
X301911Y278797D01*
X302035Y278982D01*
X324803D01*
X325388Y279099D01*
X325885Y279430D01*
X326553Y280099D01*
X326772Y280056D01*
X327699Y280240D01*
X328486Y280766D01*
X329012Y281553D01*
X329184Y281624D01*
X329781Y281225D01*
X330709Y281040D01*
X331637Y281225D01*
X332423Y281750D01*
X332949Y282537D01*
X333133Y283465D01*
X332949Y284392D01*
X332423Y285179D01*
X332087Y285404D01*
X332239Y285904D01*
X340870D01*
X345375Y281399D01*
D02*
G37*
G36*
X241891Y298226D02*
X241855Y298172D01*
X241670Y297244D01*
X241855Y296316D01*
X241891Y296262D01*
X241655Y295821D01*
X235645D01*
X235453Y296283D01*
X237838Y298668D01*
X241655D01*
X241891Y298226D01*
D02*
G37*
G36*
X358522Y297006D02*
X358896Y296756D01*
Y296256D01*
X358522Y296006D01*
X358398Y295821D01*
X345246D01*
X344338Y296729D01*
X344529Y297191D01*
X358398D01*
X358522Y297006D01*
D02*
G37*
G36*
X298978Y300195D02*
X298941Y300140D01*
X298757Y299213D01*
X298941Y298285D01*
X299467Y297498D01*
X299652Y297375D01*
Y293941D01*
X296674Y290963D01*
X270497D01*
X270415Y291085D01*
X269629Y291610D01*
X268701Y291795D01*
X267773Y291610D01*
X266986Y291085D01*
X266461Y290298D01*
X266276Y289370D01*
X266461Y288442D01*
X266986Y287656D01*
X267773Y287130D01*
X268701Y286946D01*
X269629Y287130D01*
X270415Y287656D01*
X270581Y287904D01*
X287056D01*
X287247Y287442D01*
X282699Y282893D01*
X282480Y282936D01*
X281553Y282752D01*
X280766Y282226D01*
X280444Y281745D01*
X279913Y281850D01*
X279799Y282424D01*
X279274Y283210D01*
X278487Y283736D01*
X277559Y283921D01*
X277341Y283877D01*
X276672Y284546D01*
X276176Y284877D01*
X275590Y284994D01*
X253253D01*
X253233Y285050D01*
X253139Y285494D01*
X253797Y286351D01*
X254235Y287409D01*
X254384Y288543D01*
X254235Y289678D01*
X253797Y290735D01*
X253100Y291643D01*
X252294Y292262D01*
X252402Y292762D01*
X290354D01*
X290940Y292878D01*
X291436Y293210D01*
X294073Y295847D01*
X294291Y295804D01*
X295219Y295988D01*
X296006Y296514D01*
X296531Y297301D01*
X296716Y298228D01*
X296531Y299156D01*
X296006Y299943D01*
X295717Y300136D01*
X295868Y300636D01*
X298742D01*
X298978Y300195D01*
D02*
G37*
G36*
X358522Y301435D02*
X358896Y301185D01*
Y300685D01*
X358522Y300435D01*
X358398Y300250D01*
X343645D01*
X342737Y301158D01*
X342928Y301620D01*
X358398D01*
X358522Y301435D01*
D02*
G37*
G36*
X371502Y299788D02*
Y298862D01*
X368461Y295821D01*
X362074D01*
X361951Y296006D01*
X361576Y296256D01*
Y296756D01*
X361951Y297006D01*
X362074Y297191D01*
X367618D01*
X368203Y297307D01*
X368700Y297639D01*
X371040Y299980D01*
X371502Y299788D01*
D02*
G37*
G36*
X260386Y307026D02*
X260097Y306833D01*
X259571Y306046D01*
X259386Y305118D01*
X259571Y304190D01*
X260097Y303404D01*
X260282Y303280D01*
Y299846D01*
X259209Y298774D01*
X251447D01*
X251239Y299273D01*
X254703Y302737D01*
X254921Y302694D01*
X255849Y302878D01*
X256636Y303404D01*
X257161Y304190D01*
X257346Y305118D01*
X257161Y306046D01*
X256636Y306833D01*
X256347Y307026D01*
X256498Y307526D01*
X260234D01*
X260386Y307026D01*
D02*
G37*
G36*
X333645Y303096D02*
X333454Y302580D01*
X332734Y302437D01*
X331947Y301911D01*
X331823Y301726D01*
X326774D01*
X326616Y301758D01*
X309657D01*
X308168Y303247D01*
X307672Y303578D01*
X307087Y303695D01*
X291339D01*
X290753Y303578D01*
X290257Y303247D01*
X287620Y300609D01*
X287402Y300653D01*
X286474Y300468D01*
X285687Y299943D01*
X285162Y299156D01*
X284977Y298228D01*
X285162Y297301D01*
X285687Y296514D01*
X285976Y296321D01*
X285825Y295821D01*
X261289D01*
X261082Y296321D01*
X262893Y298131D01*
X263224Y298627D01*
X263340Y299213D01*
Y303280D01*
X263525Y303404D01*
X264051Y304190D01*
X264236Y305118D01*
X264051Y306046D01*
X263525Y306833D01*
X263236Y307026D01*
X263388Y307526D01*
X265277D01*
X265513Y307085D01*
X265477Y307030D01*
X265292Y306102D01*
X265477Y305174D01*
X266002Y304388D01*
X266789Y303862D01*
X267717Y303678D01*
X268644Y303862D01*
X269431Y304388D01*
X269555Y304573D01*
X310039D01*
X310625Y304689D01*
X310685Y304730D01*
X311024Y304662D01*
X311951Y304847D01*
X312738Y305372D01*
X313264Y306159D01*
X313448Y307087D01*
X313264Y308014D01*
X312738Y308801D01*
X311951Y309327D01*
X311024Y309511D01*
X310096Y309327D01*
X309309Y308801D01*
X308849Y308113D01*
X308378Y308308D01*
X308527Y309055D01*
X308349Y309947D01*
X308356Y310060D01*
X308563Y310447D01*
X326294D01*
X333645Y303096D01*
D02*
G37*
G36*
X333220Y251908D02*
X332931Y251714D01*
X332406Y250928D01*
X332221Y250000D01*
X332264Y249782D01*
X331059Y248577D01*
X321275D01*
X321083Y249039D01*
X324452Y252408D01*
X333069D01*
X333220Y251908D01*
D02*
G37*
D38*
X229455Y336614D02*
X238251Y345410D01*
X297244Y354331D02*
X300122Y351453D01*
X312083D01*
X317882Y357252D01*
X325819D01*
X328740Y354331D01*
Y323819D02*
Y354331D01*
X310039Y354331D02*
X314961Y359252D01*
X328740D01*
X333661Y354331D01*
Y327756D02*
Y354331D01*
Y327756D02*
X342520Y318898D01*
X328740Y323819D02*
X340551Y312008D01*
X328584Y315976D02*
X341411Y303150D01*
X327756Y313976D02*
X343012Y298721D01*
X326927Y311976D02*
X344613Y294291D01*
X321850Y349409D02*
Y353346D01*
X319882Y347441D02*
X321850Y349409D01*
X280512Y347441D02*
X319882D01*
X278543Y345472D02*
X280512Y347441D01*
X278543Y339567D02*
Y345472D01*
X261811Y313976D02*
X269685D01*
X261811Y299213D02*
Y305118D01*
X267717Y306102D02*
X310039D01*
X311024Y307087D01*
X239173Y309055D02*
X306102D01*
X232283Y302165D02*
X239173Y309055D01*
X307087Y302165D02*
X309024Y300228D01*
X326616D01*
X288417Y311976D02*
X326927D01*
X291339Y313976D02*
X327756D01*
X297213Y315976D02*
X328584D01*
X224410Y259842D02*
Y269685D01*
X244094Y297244D02*
X259842D01*
X261811Y299213D01*
X250000Y300197D02*
X254921Y305118D01*
X237205Y300197D02*
X250000D01*
X230315Y293307D02*
X237205Y300197D01*
X232315Y292479D02*
X234128Y294291D01*
X269685Y313976D02*
X274606Y318898D01*
Y325787D01*
X282480Y333661D01*
X289370D01*
X292323Y336614D01*
Y343504D01*
X189961Y312992D02*
X256890D01*
X229331Y302165D02*
X232283D01*
X268701Y289370D02*
X268764Y289433D01*
X297307D01*
X301181Y293307D01*
Y299213D01*
X260827Y275590D02*
X289370D01*
X292323Y278543D01*
X290354Y294291D02*
X294291Y298228D01*
X234128Y294291D02*
X290354D01*
X232315Y276228D02*
Y292479D01*
Y276228D02*
X240000Y268543D01*
X275590Y283465D02*
X277559Y281496D01*
X244921Y283465D02*
X275590D01*
X240000Y278543D02*
X244921Y283465D01*
X250000Y258543D02*
Y268543D01*
X230315Y252953D02*
Y293307D01*
Y252953D02*
X234724Y248543D01*
X240000D01*
X326647Y300197D02*
X333661D01*
X326616Y300228D02*
X326647Y300197D01*
X291339Y302165D02*
X307087D01*
X287402Y298228D02*
X291339Y302165D01*
X310039Y326772D02*
X310044Y326776D01*
X299213Y326772D02*
X310039D01*
X325787Y298228D02*
X326772Y297244D01*
X306102Y298228D02*
X325787D01*
X376969Y325787D02*
X410433D01*
X426181Y338583D02*
X432087Y344488D01*
X426181Y325787D02*
Y338583D01*
X418307Y317913D02*
X426181Y325787D01*
X391732Y317913D02*
X418307D01*
X386811Y312992D02*
X391732Y317913D01*
X462598Y344488D02*
X467520Y339567D01*
X432087Y344488D02*
X462598D01*
X346457Y289370D02*
X387795D01*
X375984Y330709D02*
Y360236D01*
X378937Y363189D01*
X346457Y282480D02*
X370079D01*
X341504Y287433D02*
X346457Y282480D01*
X289402Y287433D02*
X341504D01*
X282480Y280512D02*
X289402Y287433D01*
X296260Y263779D02*
Y282480D01*
X300197Y280512D02*
X324803D01*
X341411Y303150D02*
X360236D01*
X286417Y326772D02*
X297213Y315976D01*
X281496Y326772D02*
X286417D01*
X344613Y294291D02*
X360236D01*
X281496Y318898D02*
X288417Y311976D01*
X343012Y298721D02*
X360236D01*
X285433Y319882D02*
X291339Y313976D01*
X281496Y318898D02*
Y320866D01*
X284449Y323819D01*
X373031Y298228D02*
Y362205D01*
X369094Y294291D02*
X373031Y298228D01*
X363189Y363189D02*
Y373031D01*
Y363189D02*
X369032Y357347D01*
Y311945D02*
Y357347D01*
X360236Y303150D02*
X369032Y311945D01*
X369094Y363189D02*
X371031Y361252D01*
Y302134D02*
Y361252D01*
X367618Y298721D02*
X371031Y302134D01*
X360236Y298721D02*
X367618D01*
X373031Y362205D02*
X374016Y363189D01*
X360236Y294291D02*
X369094D01*
X328740Y285433D02*
X330709Y283465D01*
X324803Y285433D02*
X328740D01*
X322835Y283465D02*
X324803Y285433D01*
X307087Y283465D02*
X322835D01*
X324803Y280512D02*
X326772Y282480D01*
X229331Y336614D02*
X229455D01*
X229331Y333661D02*
Y336614D01*
Y333661D02*
X232283Y330709D01*
X236221D01*
X238189Y332677D01*
Y335630D01*
X248031Y340551D02*
X250984Y343504D01*
X236221Y340551D02*
X248031D01*
X233268Y337598D02*
X236221Y340551D01*
X233268Y335630D02*
Y337598D01*
X369094Y244094D02*
Y255906D01*
X362205Y237205D02*
X369094Y244094D01*
X306102Y237205D02*
X362205D01*
X299213Y230315D02*
X306102Y237205D01*
X278543Y230315D02*
X299213D01*
X275590Y233268D02*
X278543Y230315D01*
X275590Y233268D02*
Y244094D01*
X310992Y249047D02*
X318929D01*
X296260Y263779D02*
X310992Y249047D01*
X318929D02*
X323819Y253937D01*
X336614D01*
X342520Y248031D01*
X352362D01*
X354331Y250000D01*
Y255906D01*
X310039Y247047D02*
X331693D01*
X292323Y264764D02*
X310039Y247047D01*
X292323Y264764D02*
Y278543D01*
X331693Y247047D02*
X334646Y250000D01*
X344488Y255906D02*
Y260827D01*
X343504Y261811D02*
X344488Y260827D01*
X320866Y258858D02*
X328740D01*
X406496Y312008D02*
X424213D01*
X404528Y310039D02*
X406496Y312008D01*
X404528Y285433D02*
Y310039D01*
X424213Y312008D02*
X435039Y322835D01*
X397638Y278543D02*
X404528Y285433D01*
X339567Y278543D02*
X397638D01*
X339567Y271654D02*
Y278543D01*
X333661Y265748D02*
X339567Y271654D01*
X321850Y265748D02*
X333661D01*
X315945Y259842D02*
X321850Y265748D01*
X315945Y251969D02*
Y259842D01*
X382874D02*
Y268701D01*
X378937Y255906D02*
X382874Y259842D01*
X369094Y255906D02*
X378937D01*
X267717Y319882D02*
Y350394D01*
X271654Y354331D01*
X274606Y332677D02*
Y344488D01*
X284449Y354331D01*
X519685Y243307D02*
Y244094D01*
X190945Y347441D02*
Y363189D01*
X213583Y318898D02*
X230315D01*
X232283Y320866D01*
X222441Y377953D02*
Y381890D01*
X212441D02*
X217362Y386811D01*
X197835Y370079D02*
X232283D01*
X190945Y363189D02*
X197835Y370079D01*
X222441Y377953D02*
X226378Y374016D01*
X247047D01*
X217362Y386811D02*
X221457D01*
X221532Y386736D01*
X224448D01*
X227362Y383822D01*
Y377953D02*
Y383822D01*
Y377953D02*
X229299Y376016D01*
X248000D01*
X247047Y374016D02*
X251969Y369094D01*
Y362205D02*
Y369094D01*
X248000Y376016D02*
X255906Y368110D01*
Y362205D02*
Y368110D01*
X250984Y343504D02*
Y348425D01*
X256890Y382874D02*
X263779Y389764D01*
X398622D01*
X423228Y365158D01*
X375984Y309055D02*
X398622D01*
X189961Y337598D02*
X214567Y362205D01*
X189961Y312992D02*
Y337598D01*
X191929Y261811D02*
X218504Y288386D01*
Y309055D01*
X191929Y261811D02*
X213583Y240158D01*
X246063D01*
X250000Y244094D01*
Y248543D01*
D40*
X386811Y215563D02*
X394468D01*
X376468D02*
X386811D01*
X322468D02*
X340469D01*
X358469D01*
X376468D01*
D41*
X482283Y324803D02*
X488189D01*
X467520Y339567D02*
X482283Y324803D01*
X435039Y322835D02*
Y335630D01*
D46*
X421102Y297638D02*
X423839Y294901D01*
X425433Y293307D02*
X470472D01*
X423839Y294901D02*
X425433Y293307D01*
X470472D02*
X519685Y244094D01*
D48*
X322468Y205563D02*
D03*
X340469D02*
D03*
X358469D02*
D03*
X376468D02*
D03*
X394468D02*
D03*
X509842Y281339D02*
D03*
X250000Y248543D02*
D03*
D49*
X322468Y215563D02*
D03*
Y225563D02*
D03*
X340469Y215563D02*
D03*
Y225563D02*
D03*
X358469Y215563D02*
D03*
Y225563D02*
D03*
X376468Y215563D02*
D03*
Y225563D02*
D03*
X394468Y215563D02*
D03*
Y225563D02*
D03*
X295590Y244094D02*
D03*
X285591D02*
D03*
X275590D02*
D03*
X509842Y291339D02*
D03*
Y271496D02*
D03*
X232441Y381890D02*
D03*
X222441D02*
D03*
X212441D02*
D03*
X240000Y288543D02*
D03*
X250000D02*
D03*
X240000Y278543D02*
D03*
X250000D02*
D03*
X240000Y268543D02*
D03*
X250000D02*
D03*
X240000Y258543D02*
D03*
X250000D02*
D03*
X240000Y248543D02*
D03*
X390905Y249016D02*
D03*
D50*
X265591Y244094D02*
D03*
X202441Y381890D02*
D03*
X380906Y249016D02*
D03*
D51*
X173228Y377953D02*
D03*
Y212598D02*
D03*
X484252D02*
D03*
Y377953D02*
D03*
D52*
X573819Y225394D02*
D03*
D53*
X546569Y222494D02*
D03*
D54*
X448819Y365158D02*
D03*
D55*
X423228D02*
D03*
D56*
X349410Y342677D02*
D03*
Y322677D02*
D03*
D57*
X342520Y318898D02*
D03*
X340551Y312008D02*
D03*
X310039Y354331D02*
D03*
X297244D02*
D03*
X321850Y353346D02*
D03*
X278543Y339567D02*
D03*
X267717Y306102D02*
D03*
X311024Y307087D02*
D03*
X224410Y269685D02*
D03*
X244094Y297244D02*
D03*
X261811Y305118D02*
D03*
Y313976D02*
D03*
X224410Y259842D02*
D03*
X306102Y309055D02*
D03*
X229331Y302165D02*
D03*
X268701Y289370D02*
D03*
X260827Y275590D02*
D03*
X294291Y298228D02*
D03*
X277559Y281496D02*
D03*
X248031Y303150D02*
D03*
X254921Y305118D02*
D03*
X301181Y299213D02*
D03*
X292323Y343504D02*
D03*
X299213Y326772D02*
D03*
X310044Y326776D02*
D03*
X326772Y297244D02*
D03*
X376969Y325787D02*
D03*
X410433D02*
D03*
X346457Y289370D02*
D03*
X387795D02*
D03*
X306102Y298228D02*
D03*
X333661Y300197D02*
D03*
X375984Y330709D02*
D03*
X287402Y298228D02*
D03*
X296260Y282480D02*
D03*
X300197Y280512D02*
D03*
X282480D02*
D03*
X285433Y319882D02*
D03*
X370079Y282480D02*
D03*
X360236Y303150D02*
D03*
Y294291D02*
D03*
Y298721D02*
D03*
X378937Y363189D02*
D03*
X374016D02*
D03*
X369094D02*
D03*
X363189Y373031D02*
D03*
X284449Y323819D02*
D03*
X281496Y326772D02*
D03*
X307087Y283465D02*
D03*
X330709D02*
D03*
X238189Y345472D02*
D03*
Y335630D02*
D03*
X292323Y278543D02*
D03*
X326772Y282480D02*
D03*
X334646Y250000D02*
D03*
X354331Y255906D02*
D03*
X343504Y261811D02*
D03*
X344488Y255906D02*
D03*
X320866Y258858D02*
D03*
X328740D02*
D03*
X369094Y255906D02*
D03*
X382874Y268701D02*
D03*
X315945Y251969D02*
D03*
X271654Y354331D02*
D03*
X267717Y319882D02*
D03*
X284449Y354331D02*
D03*
X274606Y332677D02*
D03*
X213583Y318898D02*
D03*
X232283Y320866D02*
D03*
X189961Y312992D02*
D03*
X256890D02*
D03*
X251969Y362205D02*
D03*
X255906D02*
D03*
X250984Y348425D02*
D03*
X233268Y335630D02*
D03*
X256890Y382874D02*
D03*
X375984Y309055D02*
D03*
X398622D02*
D03*
X386811Y312992D02*
D03*
X214567Y362205D02*
D03*
X191929Y261811D02*
D03*
X218504Y309055D02*
D03*
D58*
X339567Y278543D02*
D03*
D59*
X514764Y225394D02*
D03*
Y212598D02*
D03*
X524606Y250000D02*
D03*
X519685Y243307D02*
D03*
X524606D02*
D03*
X514764Y237205D02*
D03*
X519685D02*
D03*
X524606D02*
D03*
X416339Y292323D02*
D03*
Y297244D02*
D03*
Y302165D02*
D03*
X421102Y297638D02*
D03*
X426181Y297244D02*
D03*
Y302165D02*
D03*
Y292323D02*
D03*
X514764Y243110D02*
D03*
X518701Y219488D02*
D03*
X524606Y225394D02*
D03*
Y212598D02*
D03*
X519685Y225394D02*
D03*
Y212598D02*
D03*
X534449Y225394D02*
D03*
Y212598D02*
D03*
Y218996D02*
D03*
X332677Y215551D02*
D03*
X369094D02*
D03*
X386811Y215563D02*
D03*
X406496Y215551D02*
D03*
X413386Y223425D02*
D03*
X427165D02*
D03*
X413386Y229331D02*
D03*
Y217520D02*
D03*
X427165Y229331D02*
D03*
Y217520D02*
D03*
X443898Y223425D02*
D03*
X437008D02*
D03*
Y217520D02*
D03*
Y229331D02*
D03*
X451772D02*
D03*
Y223425D02*
D03*
Y217520D02*
D03*
X443898Y236221D02*
D03*
X447835Y257874D02*
D03*
X475394Y258858D02*
D03*
X455709Y257874D02*
D03*
X439961Y244094D02*
D03*
X421260D02*
D03*
X431102D02*
D03*
X439961Y257874D02*
D03*
X421260D02*
D03*
Y272638D02*
D03*
X430118D02*
D03*
X438976D02*
D03*
X431102Y257874D02*
D03*
X466535Y258858D02*
D03*
X484252D02*
D03*
X238189Y212992D02*
D03*
X253937D02*
D03*
X269685D02*
D03*
X285433D02*
D03*
X302165Y215563D02*
D03*
X311024D02*
D03*
X350394Y215551D02*
D03*
X420276Y223425D02*
D03*
X488189Y324803D02*
D03*
X467520Y339567D02*
D03*
X190945Y347441D02*
D03*
X232283Y370079D02*
D03*
D60*
X435039Y322835D02*
D03*
Y335630D02*
D03*
M02*
