M48
;Layer_Color=9474304
;FILE_FORMAT=2:5
INCH,TZ
;TYPE=PLATED
T1F00S00C0.01575
T2F00S00C0.01618
T3F00S00C0.02012
T4F00S00C0.02756
T5F00S00C0.02799
T6F00S00C0.03150
T7F00S00C0.03543
T8F00S00C0.03937
T10F00S00C0.12598
%
T01
X416339Y292323
Y297244
Y302165
X421102Y297638
X426181Y297244
Y302165
Y292323
T02
X315945Y251969
X320866Y258858
X328740
X334646Y250000
X344488Y255906
X343504Y261811
X354331Y255906
X369094
X382874Y268701
X387795Y289370
X370079Y282480
X360236Y294291
Y298721
Y303150
X375984Y309055
X398622
X340551Y312008
X333661Y300197
X326772Y297244
Y282480
X330709Y283465
X339567Y278543
X346457Y289370
X307087Y283465
X300197Y280512
X296260Y282480
X292323Y278543
X282480Y280512
X277559Y281496
X268701Y289370
X267717Y306102
X261811Y305118
X254921
X248031Y303150
X244094Y297244
X229331Y302165
X218504Y309055
X224410Y269685
Y259842
X191929Y261811
X260827Y275590
X287402Y298228
X294291
X301181Y299213
X306102Y298228
Y309055
X311024Y307087
X310044Y326776
X299213Y326772
X284449Y323819
X285433Y319882
X281496Y326772
X274606Y332677
X278543Y339567
X292323Y343504
X297244Y354331
X284449
X271654
X255906Y362205
X251969
X250984Y348425
X238189Y345472
Y335630
X233268
X232283Y320866
X213583Y318898
X189961Y312992
X256890
X261811Y313976
X267717Y319882
X256890Y382874
X214567Y362205
X310039Y354331
X321850Y353346
X342520Y318898
X376969Y325787
X375984Y330709
X386811Y312992
X410433Y325787
X378937Y363189
X374016
X369094
X363189Y373031
T03
X514764Y212598
X519685
X524606
X534449
Y218996
Y225394
X524606Y225394
X519685
X514764
X518701Y219488
X519685Y237205
X514764
Y243110
X519685Y243307
X524606
Y237205
Y250000
X484252Y258858
X475394
X466535
X455709Y257874
X447835
X439961
X431102
X421260
Y244094
X431102
X439961
X443898Y236221
Y223425
X437008
Y217520
X427165
Y223425
Y229331
X437008
X451772
Y223425
Y217520
X420276Y223425
X413386
Y229331
Y217520
X406496Y215551
X386811Y215563
X369094Y215551
X350394
X332677
X421260Y272638
X430118
X438976
X311024Y215563
X302165
X285433Y212992
X269685
X253937
X238189
X232283Y370079
X190945Y347441
X467520Y339567
X488189Y324803
T04
X423228Y365158
X448819
T05
X435039Y322835
Y335630
T06
X349410Y322677
Y342677
T07
X380906Y249016
X390905
X295590Y244094
X285591
X275590
X265591
X250000Y248543
Y258543
Y268543
Y278543
Y288543
X240000
Y278543
Y268543
Y258543
Y248543
X232441Y381890
X222441
X212441
X202441
T08
X509842Y271496
Y281339
Y291339
X394468Y225563
Y215563
Y205563
X376468
Y215563
Y225563
X358469
Y215563
Y205563
X340469
Y215563
Y225563
X322468
Y215563
Y205563
T10
X484252Y212598
X173228
Y377953
X484252
M30
