G04 Layer_Color=8421504*
%FSLAX25Y25*%
%MOIN*%
G70*
G01*
G75*
%ADD10R,0.04331X0.03937*%
%ADD11R,0.03937X0.04331*%
%ADD12R,0.02000X0.04000*%
%ADD13R,0.02559X0.01378*%
%ADD14R,0.06496X0.08465*%
%ADD15R,0.01102X0.02756*%
%ADD16R,0.02756X0.01102*%
%ADD17R,0.01378X0.02559*%
%ADD18R,0.03937X0.05512*%
%ADD19R,0.06000X0.03000*%
%ADD20R,0.08465X0.12598*%
%ADD21R,0.08465X0.03543*%
%ADD22R,0.03150X0.03150*%
%ADD23R,0.07480X0.07480*%
G04:AMPARAMS|DCode=24|XSize=60mil|YSize=60mil|CornerRadius=9mil|HoleSize=0mil|Usage=FLASHONLY|Rotation=270.000|XOffset=0mil|YOffset=0mil|HoleType=Round|Shape=RoundedRectangle|*
%AMROUNDEDRECTD24*
21,1,0.06000,0.04200,0,0,270.0*
21,1,0.04200,0.06000,0,0,270.0*
1,1,0.01800,-0.02100,-0.02100*
1,1,0.01800,-0.02100,0.02100*
1,1,0.01800,0.02100,0.02100*
1,1,0.01800,0.02100,-0.02100*
%
%ADD24ROUNDEDRECTD24*%
%ADD25R,0.05984X0.01496*%
%ADD26R,0.15551X0.19291*%
%ADD27R,0.18110X0.08465*%
%ADD28R,0.18307X0.08465*%
%ADD29O,0.00984X0.03543*%
%ADD30O,0.03543X0.00984*%
%ADD31R,0.19685X0.11811*%
%ADD32R,0.19291X0.15551*%
%ADD33O,0.01968X0.06299*%
%ADD34R,0.05800X0.01100*%
%ADD35R,0.01100X0.05800*%
%ADD36R,0.26772X0.37795*%
%ADD37R,0.03937X0.13386*%
D10*
X301574Y264272D02*
D03*
X294882D02*
D03*
X246456Y308071D02*
D03*
X239764D02*
D03*
X461221Y311024D02*
D03*
X467913D02*
D03*
X475000Y293307D02*
D03*
X481693D02*
D03*
X414961Y325787D02*
D03*
X421653D02*
D03*
X205118Y236221D02*
D03*
X198426D02*
D03*
X204133Y264764D02*
D03*
X197441D02*
D03*
X390355Y372047D02*
D03*
X397047D02*
D03*
X390355Y382874D02*
D03*
X397047D02*
D03*
X398622Y289370D02*
D03*
X391930D02*
D03*
Y302165D02*
D03*
X398622D02*
D03*
X357677Y289370D02*
D03*
X350985D02*
D03*
X257283Y367126D02*
D03*
X250591D02*
D03*
X209055Y342520D02*
D03*
X202363D02*
D03*
X301574Y254921D02*
D03*
X294882D02*
D03*
X301574Y273622D02*
D03*
X294882D02*
D03*
X209055Y331693D02*
D03*
X202363D02*
D03*
X466929Y285433D02*
D03*
X460237D02*
D03*
D11*
X192913Y353284D02*
D03*
Y359976D02*
D03*
X207677Y352953D02*
D03*
Y359645D02*
D03*
X224410Y308464D02*
D03*
Y301772D02*
D03*
X246063Y206300D02*
D03*
Y212992D02*
D03*
X261811Y206300D02*
D03*
Y212992D02*
D03*
X277559Y206300D02*
D03*
Y212992D02*
D03*
X293307Y206300D02*
D03*
Y212992D02*
D03*
X387795Y263386D02*
D03*
Y270078D02*
D03*
X380906Y313583D02*
D03*
Y320275D02*
D03*
X367126Y313583D02*
D03*
Y320275D02*
D03*
X339567Y379330D02*
D03*
Y372638D02*
D03*
X380906Y342126D02*
D03*
Y348818D02*
D03*
X230315Y206300D02*
D03*
Y212992D02*
D03*
X203992Y308464D02*
D03*
Y301772D02*
D03*
X213583D02*
D03*
Y308464D02*
D03*
X310039Y225985D02*
D03*
Y232677D02*
D03*
X271654Y366142D02*
D03*
Y359450D02*
D03*
X284449Y366142D02*
D03*
Y359450D02*
D03*
X297244Y366142D02*
D03*
Y359450D02*
D03*
X310039Y366142D02*
D03*
Y359450D02*
D03*
X321850Y366142D02*
D03*
Y359450D02*
D03*
X250984Y375922D02*
D03*
Y382614D02*
D03*
X262244Y375922D02*
D03*
Y382614D02*
D03*
X520669Y360827D02*
D03*
Y367519D02*
D03*
X539370Y360827D02*
D03*
Y367519D02*
D03*
X556102Y360827D02*
D03*
Y367519D02*
D03*
X520669Y378544D02*
D03*
Y385236D02*
D03*
X556102Y378544D02*
D03*
Y385236D02*
D03*
X366142Y342126D02*
D03*
Y348818D02*
D03*
X333661Y359450D02*
D03*
Y366142D02*
D03*
X345472D02*
D03*
Y359450D02*
D03*
X570866Y360827D02*
D03*
Y367519D02*
D03*
X531496Y288977D02*
D03*
Y295669D02*
D03*
X310039Y249409D02*
D03*
Y242717D02*
D03*
X377953Y262993D02*
D03*
Y269685D02*
D03*
X401575Y247638D02*
D03*
Y254330D02*
D03*
D12*
X339331Y250492D02*
D03*
X344331D02*
D03*
X349331D02*
D03*
X354331D02*
D03*
X359331D02*
D03*
X364331D02*
D03*
X369331D02*
D03*
Y273130D02*
D03*
X364331D02*
D03*
X359331D02*
D03*
X354331D02*
D03*
X349331D02*
D03*
X344331D02*
D03*
X339331D02*
D03*
D13*
X321850Y249016D02*
D03*
Y252953D02*
D03*
X327756D02*
D03*
Y250984D02*
D03*
Y249016D02*
D03*
D14*
X484252Y274409D02*
D03*
Y259055D02*
D03*
X466535Y274409D02*
D03*
Y259055D02*
D03*
D15*
X372047Y379528D02*
D03*
X374016D02*
D03*
X375985D02*
D03*
Y368504D02*
D03*
X374016D02*
D03*
X372047D02*
D03*
D16*
X379528Y377953D02*
D03*
Y375985D02*
D03*
Y374016D02*
D03*
Y372047D02*
D03*
Y370079D02*
D03*
X368504D02*
D03*
Y372047D02*
D03*
Y374016D02*
D03*
Y375985D02*
D03*
Y377953D02*
D03*
D17*
X326772Y271654D02*
D03*
X322835D02*
D03*
Y277559D02*
D03*
X324803D02*
D03*
X326772D02*
D03*
D18*
X473622Y330315D02*
D03*
X481102D02*
D03*
X477362Y338977D02*
D03*
X395866Y263386D02*
D03*
X403346D02*
D03*
X399606Y272047D02*
D03*
D19*
X185213Y230689D02*
D03*
X163213D02*
D03*
X185213Y245689D02*
D03*
X163213D02*
D03*
X185213Y262185D02*
D03*
X163213D02*
D03*
X185213Y277185D02*
D03*
X163213D02*
D03*
X185213Y292697D02*
D03*
X163213D02*
D03*
X185213Y307697D02*
D03*
X163213D02*
D03*
D20*
X498327Y330709D02*
D03*
D21*
X521358Y339764D02*
D03*
Y330709D02*
D03*
Y321654D02*
D03*
D22*
X539370Y384843D02*
D03*
Y378937D02*
D03*
X297244Y373031D02*
D03*
Y378937D02*
D03*
X310039Y373031D02*
D03*
Y378937D02*
D03*
X271654Y373031D02*
D03*
Y378937D02*
D03*
X284449Y373031D02*
D03*
Y378937D02*
D03*
X321850Y373031D02*
D03*
Y378937D02*
D03*
D23*
X167791Y325000D02*
D03*
Y356102D02*
D03*
D24*
Y336551D02*
D03*
Y344551D02*
D03*
D25*
X179291Y335433D02*
D03*
Y337992D02*
D03*
Y340551D02*
D03*
Y343110D02*
D03*
Y345669D02*
D03*
D26*
X519685Y243307D02*
D03*
Y219291D02*
D03*
D27*
X576968Y259842D02*
D03*
X541142D02*
D03*
D28*
X577854Y300197D02*
D03*
X548130D02*
D03*
X577854Y336614D02*
D03*
X548130D02*
D03*
D29*
X370472Y302953D02*
D03*
X373031D02*
D03*
X375590D02*
D03*
X378150D02*
D03*
Y287795D02*
D03*
X375590D02*
D03*
X373031D02*
D03*
X370472D02*
D03*
D30*
X381890Y299213D02*
D03*
Y296654D02*
D03*
Y294094D02*
D03*
Y291535D02*
D03*
X366732D02*
D03*
Y294094D02*
D03*
Y296654D02*
D03*
Y299213D02*
D03*
D31*
X459252Y366102D02*
D03*
X412795D02*
D03*
D32*
X420079Y223425D02*
D03*
X444095D02*
D03*
D33*
X221555Y327559D02*
D03*
X224114D02*
D03*
X226673D02*
D03*
X229232D02*
D03*
X231791D02*
D03*
X234350D02*
D03*
X236910D02*
D03*
X239469D02*
D03*
X242028D02*
D03*
X244587D02*
D03*
X247146D02*
D03*
X249705D02*
D03*
X252264D02*
D03*
X254823D02*
D03*
X221555Y355512D02*
D03*
X224114D02*
D03*
X226673D02*
D03*
X229232D02*
D03*
X231791D02*
D03*
X234350D02*
D03*
X236910D02*
D03*
X239469D02*
D03*
X242028D02*
D03*
X244587D02*
D03*
X247146D02*
D03*
X249705D02*
D03*
X252264D02*
D03*
X254823D02*
D03*
D34*
X319344Y298192D02*
D03*
Y300192D02*
D03*
Y302192D02*
D03*
Y304092D02*
D03*
Y306092D02*
D03*
Y308092D02*
D03*
Y309992D02*
D03*
Y311992D02*
D03*
Y313992D02*
D03*
Y315992D02*
D03*
Y317892D02*
D03*
Y319892D02*
D03*
Y321892D02*
D03*
Y323792D02*
D03*
Y325792D02*
D03*
Y327792D02*
D03*
X275144D02*
D03*
Y325792D02*
D03*
Y323792D02*
D03*
Y321892D02*
D03*
Y319892D02*
D03*
Y317892D02*
D03*
Y315992D02*
D03*
Y313992D02*
D03*
Y311992D02*
D03*
Y309992D02*
D03*
Y308092D02*
D03*
Y306092D02*
D03*
Y304092D02*
D03*
Y302192D02*
D03*
Y300192D02*
D03*
Y298192D02*
D03*
D35*
X312044Y335092D02*
D03*
X310044D02*
D03*
X308044D02*
D03*
X306144D02*
D03*
X304144D02*
D03*
X302144D02*
D03*
X300244D02*
D03*
X298244D02*
D03*
X296244D02*
D03*
X294244D02*
D03*
X292344D02*
D03*
X290344D02*
D03*
X288344D02*
D03*
X286444D02*
D03*
X284444D02*
D03*
X282444D02*
D03*
Y290892D02*
D03*
X284444D02*
D03*
X286444D02*
D03*
X288344D02*
D03*
X290344D02*
D03*
X292344D02*
D03*
X294244D02*
D03*
X296244D02*
D03*
X298244D02*
D03*
X300244D02*
D03*
X302144D02*
D03*
X304144D02*
D03*
X306144D02*
D03*
X308044D02*
D03*
X310044D02*
D03*
X312044D02*
D03*
D36*
X431102Y257874D02*
D03*
D37*
X421102Y297638D02*
D03*
X441102D02*
D03*
M02*
