G04 Layer_Color=16711935*
%FSLAX25Y25*%
%MOIN*%
G70*
G01*
G75*
%ADD100R,0.07493X0.07493*%
%ADD101C,0.07493*%
%ADD102R,0.07493X0.07493*%
%ADD103C,0.28359*%
%ADD104O,0.28800X0.14800*%
%ADD105O,0.14800X0.28800*%
%ADD106C,0.06706*%
%ADD107R,0.06706X0.06706*%
%ADD108C,0.07099*%
%ADD109C,0.03556*%
%ADD110C,0.02418*%
%ADD111C,0.04737*%
%ADD112C,0.05800*%
D100*
X322468Y205563D02*
D03*
X340469D02*
D03*
X358469D02*
D03*
X376468D02*
D03*
X394468D02*
D03*
X509842Y281339D02*
D03*
X250000Y248543D02*
D03*
D101*
X322468Y215563D02*
D03*
Y225563D02*
D03*
X340469Y215563D02*
D03*
Y225563D02*
D03*
X358469Y215563D02*
D03*
Y225563D02*
D03*
X376468Y215563D02*
D03*
Y225563D02*
D03*
X394468Y215563D02*
D03*
Y225563D02*
D03*
X295590Y244094D02*
D03*
X285591D02*
D03*
X275590D02*
D03*
X509842Y291339D02*
D03*
Y271496D02*
D03*
X232441Y381890D02*
D03*
X222441D02*
D03*
X212441D02*
D03*
X240000Y288543D02*
D03*
X250000D02*
D03*
X240000Y278543D02*
D03*
X250000D02*
D03*
X240000Y268543D02*
D03*
X250000D02*
D03*
X240000Y258543D02*
D03*
X250000D02*
D03*
X240000Y248543D02*
D03*
X390905Y249016D02*
D03*
D102*
X265591Y244094D02*
D03*
X202441Y381890D02*
D03*
X380906Y249016D02*
D03*
D103*
X173228Y377953D02*
D03*
Y212598D02*
D03*
X484252D02*
D03*
Y377953D02*
D03*
D104*
X573819Y225394D02*
D03*
D105*
X546569Y222494D02*
D03*
D106*
X448819Y365158D02*
D03*
D107*
X423228D02*
D03*
D108*
X349410Y342677D02*
D03*
Y322677D02*
D03*
D109*
X342520Y318898D02*
D03*
X340551Y312008D02*
D03*
X310039Y354331D02*
D03*
X297244D02*
D03*
X321850Y353346D02*
D03*
X278543Y339567D02*
D03*
X267717Y306102D02*
D03*
X311024Y307087D02*
D03*
X224410Y269685D02*
D03*
X244094Y297244D02*
D03*
X261811Y305118D02*
D03*
Y313976D02*
D03*
X224410Y259842D02*
D03*
X306102Y309055D02*
D03*
X229331Y302165D02*
D03*
X268701Y289370D02*
D03*
X260827Y275590D02*
D03*
X294291Y298228D02*
D03*
X277559Y281496D02*
D03*
X248031Y303150D02*
D03*
X254921Y305118D02*
D03*
X301181Y299213D02*
D03*
X292323Y343504D02*
D03*
X299213Y326772D02*
D03*
X310044Y326776D02*
D03*
X326772Y297244D02*
D03*
X376969Y325787D02*
D03*
X410433D02*
D03*
X346457Y289370D02*
D03*
X387795D02*
D03*
X306102Y298228D02*
D03*
X333661Y300197D02*
D03*
X375984Y330709D02*
D03*
X287402Y298228D02*
D03*
X296260Y282480D02*
D03*
X300197Y280512D02*
D03*
X282480D02*
D03*
X285433Y319882D02*
D03*
X370079Y282480D02*
D03*
X360236Y303150D02*
D03*
Y294291D02*
D03*
Y298721D02*
D03*
X378937Y363189D02*
D03*
X374016D02*
D03*
X369094D02*
D03*
X363189Y373031D02*
D03*
X284449Y323819D02*
D03*
X281496Y326772D02*
D03*
X307087Y283465D02*
D03*
X330709D02*
D03*
X238189Y345472D02*
D03*
Y335630D02*
D03*
X292323Y278543D02*
D03*
X326772Y282480D02*
D03*
X334646Y250000D02*
D03*
X354331Y255906D02*
D03*
X343504Y261811D02*
D03*
X344488Y255906D02*
D03*
X320866Y258858D02*
D03*
X328740D02*
D03*
X369094Y255906D02*
D03*
X382874Y268701D02*
D03*
X315945Y251969D02*
D03*
X271654Y354331D02*
D03*
X267717Y319882D02*
D03*
X284449Y354331D02*
D03*
X274606Y332677D02*
D03*
X213583Y318898D02*
D03*
X232283Y320866D02*
D03*
X189961Y312992D02*
D03*
X256890D02*
D03*
X251969Y362205D02*
D03*
X255906D02*
D03*
X250984Y348425D02*
D03*
X233268Y335630D02*
D03*
X256890Y382874D02*
D03*
X375984Y309055D02*
D03*
X398622D02*
D03*
X386811Y312992D02*
D03*
X214567Y362205D02*
D03*
X191929Y261811D02*
D03*
X218504Y309055D02*
D03*
D110*
X339567Y278543D02*
D03*
D111*
X514764Y225394D02*
D03*
Y212598D02*
D03*
X524606Y250000D02*
D03*
X519685Y243307D02*
D03*
X524606D02*
D03*
X514764Y237205D02*
D03*
X519685D02*
D03*
X524606D02*
D03*
X416339Y292323D02*
D03*
Y297244D02*
D03*
Y302165D02*
D03*
X421102Y297638D02*
D03*
X426181Y297244D02*
D03*
Y302165D02*
D03*
Y292323D02*
D03*
X514764Y243110D02*
D03*
X518701Y219488D02*
D03*
X524606Y225394D02*
D03*
Y212598D02*
D03*
X519685Y225394D02*
D03*
Y212598D02*
D03*
X534449Y225394D02*
D03*
Y212598D02*
D03*
Y218996D02*
D03*
X332677Y215551D02*
D03*
X369094D02*
D03*
X386811Y215563D02*
D03*
X406496Y215551D02*
D03*
X413386Y223425D02*
D03*
X427165D02*
D03*
X413386Y229331D02*
D03*
Y217520D02*
D03*
X427165Y229331D02*
D03*
Y217520D02*
D03*
X443898Y223425D02*
D03*
X437008D02*
D03*
Y217520D02*
D03*
Y229331D02*
D03*
X451772D02*
D03*
Y223425D02*
D03*
Y217520D02*
D03*
X443898Y236221D02*
D03*
X447835Y257874D02*
D03*
X475394Y258858D02*
D03*
X455709Y257874D02*
D03*
X439961Y244094D02*
D03*
X421260D02*
D03*
X431102D02*
D03*
X439961Y257874D02*
D03*
X421260D02*
D03*
Y272638D02*
D03*
X430118D02*
D03*
X438976D02*
D03*
X431102Y257874D02*
D03*
X466535Y258858D02*
D03*
X484252D02*
D03*
X238189Y212992D02*
D03*
X253937D02*
D03*
X269685D02*
D03*
X285433D02*
D03*
X302165Y215563D02*
D03*
X311024D02*
D03*
X350394Y215551D02*
D03*
X420276Y223425D02*
D03*
X488189Y324803D02*
D03*
X467520Y339567D02*
D03*
X190945Y347441D02*
D03*
X232283Y370079D02*
D03*
D112*
X435039Y322835D02*
D03*
Y335630D02*
D03*
M02*
